M48
; DRILL file {KiCad (5.1.5)-2} date 29/04/2020 10:32:56
; FORMAT={-:-/ absolute / inch / decimal}
; #@! TF.CreationDate,2020-04-29T10:32:56+02:00
; #@! TF.GenerationSoftware,Kicad,Pcbnew,(5.1.5)-2
FMAT,2
INCH
T1C0.0157
T2C0.0394
T3C0.0598
T4C0.0630
T5C0.0380
T6C0.0700
T7C0.1083
%
G90
G05
T1
X3.7Y-3.92
X3.7Y-4.08
X3.7Y-4.24
X3.7581Y-2.8191
X3.76Y-2.72
X3.86Y-2.72
X3.86Y-2.82
X3.88Y-3.23
X3.9Y-3.06
X3.9Y-4.44
X3.905Y-2.68
X3.94Y-2.72
X3.94Y-2.72
X3.94Y-3.92
X3.9409Y-2.8191
X4.02Y-3.06
X4.04Y-2.72
X4.04Y-2.82
X4.085Y-2.9626
X4.1Y-4.44
X4.1174Y-2.9626
X4.14Y-2.72
X4.155Y-2.5
X4.16Y-3.06
X4.165Y-3.235
X4.18Y-3.825
X4.18Y-3.92
X4.225Y-2.78
X4.225Y-3.0632
X4.25Y-2.715
X4.255Y-3.54
X4.26Y-3.32
X4.2818Y-3.0632
X4.32Y-4.44
X4.34Y-2.72
X4.38Y-3.04
X4.38Y-3.21
X4.395Y-2.81
X4.395Y-2.92
X4.42Y-3.08
X4.44Y-3.8
X4.44Y-3.84
X4.44Y-3.88
X4.44Y-3.92
X4.445Y-2.975
X4.455Y-2.5
X4.46Y-3.12
X4.5Y-3.035
X4.5Y-3.16
X4.52Y-4.44
X4.525Y-3.54
X4.54Y-3.2
X4.55Y-2.775
X4.555Y-2.5
X4.555Y-3.585
X4.56Y-4.1
X4.58Y-3.98
X4.6Y-4.1
X4.605Y-2.775
X4.62Y-3.98
X4.64Y-3.72
X4.64Y-4.1
X4.66Y-3.88
X4.66Y-3.92
X4.66Y-3.98
X4.68Y-4.1
X4.685Y-4.2175
X4.695Y-3.575
X4.7Y-3.98
X4.72Y-3.0
X4.72Y-3.88
X4.72Y-3.92
X4.725Y-3.81
X4.74Y-3.72
X4.74Y-3.72
X4.75Y-2.68
X4.7525Y-2.5
X4.755Y-3.265
X4.77Y-3.75
X4.77Y-4.03
X4.78Y-3.0
X4.8Y-3.78
X4.84Y-3.4
X4.84Y-3.48
X4.84Y-3.55
X4.855Y-2.5
X4.865Y-3.88
X4.8672Y-3.92
X4.87Y-3.97
X4.87Y-3.97
X4.88Y-3.4
X4.88Y-4.005
X4.88Y-4.04
X4.88Y-4.04
X4.885Y-2.85
X4.89Y-3.66
X4.9Y-3.11
X4.9Y-3.16
X4.92Y-3.4
X4.92Y-3.88
X4.92Y-3.92
X4.955Y-2.68
X4.98Y-3.4
X4.9875Y-3.55
X4.99Y-3.48
X5.035Y-3.2525
X5.04Y-3.16
X5.04Y-4.285
X5.05Y-2.51
X5.08Y-3.16
X5.08Y-3.63
X5.105Y-2.68
X5.1076Y-3.0674
X5.1169Y-3.8906
X5.12Y-3.16
X5.1476Y-3.0674
X5.16Y-3.16
X5.1825Y-3.4775
X5.1876Y-3.0674
X5.195Y-3.32
X5.2Y-3.16
X5.21Y-3.76
X5.2228Y-3.5972
X5.2276Y-3.0674
X5.24Y-2.94
X5.24Y-2.975
X5.245Y-2.5
X5.25Y-3.885
X5.25Y-4.01
X5.25Y-4.125
X5.25Y-4.24
X5.2678Y-3.5972
X5.3Y-3.46
X5.305Y-2.755
X5.32Y-3.32
X5.35Y-2.5
X5.36Y-3.24
X5.4Y-3.32
X5.41Y-2.755
X5.4175Y-3.6625
X5.42Y-3.62
X5.43Y-3.46
X5.44Y-3.24
X5.48Y-3.32
X5.515Y-3.46
X5.52Y-2.755
X5.52Y-3.24
X5.58Y-3.32
X5.58Y-3.97
X5.605Y-4.375
X5.605Y-4.485
X5.62Y-3.24
X5.635Y-2.755
X5.655Y-3.69
X5.675Y-3.54
X5.69Y-3.655
X5.72Y-2.68
X5.78Y-2.68
X5.84Y-2.68
X5.85Y-3.24
X5.895Y-2.68
X5.895Y-2.8175
X5.94Y-2.92
X5.94Y-3.04
X5.94Y-3.16
X5.99Y-4.285
X6.0Y-2.8
X6.0Y-2.86
X6.0Y-2.92
X6.0Y-2.98
X6.0Y-3.04
X6.0Y-3.1
X6.0Y-3.16
T2
X5.8Y-3.665
X5.8Y-3.765
X6.0Y-3.37
X6.0Y-3.47
X6.0Y-3.57
X6.0Y-3.67
X6.0Y-3.77
X5.73Y-3.37
X5.73Y-3.47
X5.83Y-3.37
X5.83Y-3.47
T3
X3.975Y-3.375
X3.975Y-3.575
T4
X3.9138Y-4.075
X4.0319Y-4.26
X4.15Y-4.075
T5
X3.905Y-2.458
X3.905Y-2.558
X4.005Y-2.458
X4.005Y-2.558
X4.105Y-2.458
X4.105Y-2.558
X4.205Y-2.458
X4.205Y-2.558
X4.305Y-2.458
X4.305Y-2.558
X4.405Y-2.458
X4.405Y-2.558
X4.505Y-2.458
X4.505Y-2.558
X4.605Y-2.458
X4.605Y-2.558
X4.705Y-2.458
X4.705Y-2.558
X4.805Y-2.458
X4.805Y-2.558
X4.905Y-2.458
X4.905Y-2.558
X5.005Y-2.458
X5.005Y-2.558
X5.105Y-2.458
X5.105Y-2.558
X5.205Y-2.458
X5.205Y-2.558
X5.305Y-2.458
X5.305Y-2.558
X5.405Y-2.458
X5.405Y-2.558
X5.505Y-2.458
X5.505Y-2.558
X5.605Y-2.458
X5.605Y-2.558
X5.705Y-2.458
X5.705Y-2.558
X5.805Y-2.458
X5.805Y-2.558
T6
X3.955Y-2.508
X5.755Y-2.508
T7
X3.7128Y-4.4366
X3.7128Y-2.5075
X5.9963Y-2.5075
X5.9963Y-4.4366
T0
M30
