G04 #@! TF.GenerationSoftware,KiCad,Pcbnew,(5.1.5)-2*
G04 #@! TF.CreationDate,2020-04-29T21:28:48+02:00*
G04 #@! TF.ProjectId,UPS-2,5550532d-322e-46b6-9963-61645f706362,rev?*
G04 #@! TF.SameCoordinates,Original*
G04 #@! TF.FileFunction,OtherDrawing,Comment*
%FSLAX46Y46*%
G04 Gerber Fmt 4.6, Leading zero omitted, Abs format (unit mm)*
G04 Created by KiCad (PCBNEW (5.1.5)-2) date 2020-04-29 21:28:48*
%MOMM*%
%LPD*%
G04 APERTURE LIST*
%ADD10C,0.150000*%
%ADD11C,0.152400*%
G04 APERTURE END LIST*
D10*
X120376428Y-54018571D02*
X119662142Y-54018571D01*
X119590714Y-54732857D01*
X119662142Y-54661428D01*
X119805000Y-54590000D01*
X120162142Y-54590000D01*
X120305000Y-54661428D01*
X120376428Y-54732857D01*
X120447857Y-54875714D01*
X120447857Y-55232857D01*
X120376428Y-55375714D01*
X120305000Y-55447142D01*
X120162142Y-55518571D01*
X119805000Y-55518571D01*
X119662142Y-55447142D01*
X119590714Y-55375714D01*
X121305000Y-54661428D02*
X121162142Y-54590000D01*
X121090714Y-54518571D01*
X121019285Y-54375714D01*
X121019285Y-54304285D01*
X121090714Y-54161428D01*
X121162142Y-54090000D01*
X121305000Y-54018571D01*
X121590714Y-54018571D01*
X121733571Y-54090000D01*
X121805000Y-54161428D01*
X121876428Y-54304285D01*
X121876428Y-54375714D01*
X121805000Y-54518571D01*
X121733571Y-54590000D01*
X121590714Y-54661428D01*
X121305000Y-54661428D01*
X121162142Y-54732857D01*
X121090714Y-54804285D01*
X121019285Y-54947142D01*
X121019285Y-55232857D01*
X121090714Y-55375714D01*
X121162142Y-55447142D01*
X121305000Y-55518571D01*
X121590714Y-55518571D01*
X121733571Y-55447142D01*
X121805000Y-55375714D01*
X121876428Y-55232857D01*
X121876428Y-54947142D01*
X121805000Y-54804285D01*
X121733571Y-54732857D01*
X121590714Y-54661428D01*
X123662142Y-55518571D02*
X123662142Y-54518571D01*
X123662142Y-54661428D02*
X123733571Y-54590000D01*
X123876428Y-54518571D01*
X124090714Y-54518571D01*
X124233571Y-54590000D01*
X124305000Y-54732857D01*
X124305000Y-55518571D01*
X124305000Y-54732857D02*
X124376428Y-54590000D01*
X124519285Y-54518571D01*
X124733571Y-54518571D01*
X124876428Y-54590000D01*
X124947857Y-54732857D01*
X124947857Y-55518571D01*
X125662142Y-55518571D02*
X125662142Y-54518571D01*
X125662142Y-54661428D02*
X125733571Y-54590000D01*
X125876428Y-54518571D01*
X126090714Y-54518571D01*
X126233571Y-54590000D01*
X126305000Y-54732857D01*
X126305000Y-55518571D01*
X126305000Y-54732857D02*
X126376428Y-54590000D01*
X126519285Y-54518571D01*
X126733571Y-54518571D01*
X126876428Y-54590000D01*
X126947857Y-54732857D01*
X126947857Y-55518571D01*
X94305000Y-56190000D02*
X152305000Y-56190000D01*
X94305000Y-58690000D02*
X94305000Y-53490000D01*
X152305000Y-58690000D02*
X152305000Y-53490000D01*
X152305000Y-56190000D02*
X151178496Y-56776421D01*
X152305000Y-56190000D02*
X151178496Y-55603579D01*
X94305000Y-56190000D02*
X95431504Y-56776421D01*
X94305000Y-56190000D02*
X95431504Y-55603579D01*
X105090714Y-70861427D02*
X105162142Y-70789999D01*
X105305000Y-70718570D01*
X105662142Y-70718570D01*
X105805000Y-70789999D01*
X105876428Y-70861427D01*
X105947857Y-71004284D01*
X105947857Y-71147141D01*
X105876428Y-71361427D01*
X105019285Y-72218570D01*
X105947857Y-72218570D01*
X106662142Y-72218570D02*
X106947857Y-72218570D01*
X107090714Y-72147141D01*
X107162142Y-72075713D01*
X107305000Y-71861427D01*
X107376428Y-71575713D01*
X107376428Y-71004284D01*
X107305000Y-70861427D01*
X107233571Y-70789999D01*
X107090714Y-70718570D01*
X106805000Y-70718570D01*
X106662142Y-70789999D01*
X106590714Y-70861427D01*
X106519285Y-71004284D01*
X106519285Y-71361427D01*
X106590714Y-71504284D01*
X106662142Y-71575713D01*
X106805000Y-71647141D01*
X107090714Y-71647141D01*
X107233571Y-71575713D01*
X107305000Y-71504284D01*
X107376428Y-71361427D01*
X109162142Y-72218570D02*
X109162142Y-71218570D01*
X109162142Y-71361427D02*
X109233571Y-71289999D01*
X109376428Y-71218570D01*
X109590714Y-71218570D01*
X109733571Y-71289999D01*
X109805000Y-71432856D01*
X109805000Y-72218570D01*
X109805000Y-71432856D02*
X109876428Y-71289999D01*
X110019285Y-71218570D01*
X110233571Y-71218570D01*
X110376428Y-71289999D01*
X110447857Y-71432856D01*
X110447857Y-72218570D01*
X111162142Y-72218570D02*
X111162142Y-71218570D01*
X111162142Y-71361427D02*
X111233571Y-71289999D01*
X111376428Y-71218570D01*
X111590714Y-71218570D01*
X111733571Y-71289999D01*
X111805000Y-71432856D01*
X111805000Y-72218570D01*
X111805000Y-71432856D02*
X111876428Y-71289999D01*
X112019285Y-71218570D01*
X112233571Y-71218570D01*
X112376428Y-71289999D01*
X112447857Y-71432856D01*
X112447857Y-72218570D01*
X94305000Y-70189999D02*
X123305000Y-70189999D01*
X94305000Y-67690000D02*
X94305000Y-72889999D01*
X123305000Y-67690000D02*
X123305000Y-72889999D01*
X123305000Y-70189999D02*
X122178496Y-70776420D01*
X123305000Y-70189999D02*
X122178496Y-69603578D01*
X94305000Y-70189999D02*
X95431504Y-70776420D01*
X94305000Y-70189999D02*
X95431504Y-69603578D01*
X99476428Y-85332857D02*
X99476428Y-84475714D01*
X99476428Y-84904285D02*
X100976428Y-84904285D01*
X100762142Y-84761428D01*
X100619285Y-84618571D01*
X100547857Y-84475714D01*
X100976428Y-85832857D02*
X100976428Y-86832857D01*
X99476428Y-86190000D01*
X99476428Y-88547142D02*
X100476428Y-88547142D01*
X100333571Y-88547142D02*
X100405000Y-88618571D01*
X100476428Y-88761428D01*
X100476428Y-88975714D01*
X100405000Y-89118571D01*
X100262142Y-89190000D01*
X99476428Y-89190000D01*
X100262142Y-89190000D02*
X100405000Y-89261428D01*
X100476428Y-89404285D01*
X100476428Y-89618571D01*
X100405000Y-89761428D01*
X100262142Y-89832857D01*
X99476428Y-89832857D01*
X99476428Y-90547142D02*
X100476428Y-90547142D01*
X100333571Y-90547142D02*
X100405000Y-90618571D01*
X100476428Y-90761428D01*
X100476428Y-90975714D01*
X100405000Y-91118571D01*
X100262142Y-91190000D01*
X99476428Y-91190000D01*
X100262142Y-91190000D02*
X100405000Y-91261428D01*
X100476428Y-91404285D01*
X100476428Y-91618571D01*
X100405000Y-91761428D01*
X100262142Y-91832857D01*
X99476428Y-91832857D01*
X98805000Y-79690000D02*
X98805000Y-96690000D01*
X96805000Y-79690000D02*
X101505000Y-79690000D01*
X96805000Y-96690000D02*
X101505000Y-96690000D01*
X98805000Y-96690000D02*
X98218579Y-95563496D01*
X98805000Y-96690000D02*
X99391421Y-95563496D01*
X98805000Y-79690000D02*
X98218579Y-80816504D01*
X98805000Y-79690000D02*
X99391421Y-80816504D01*
X97340714Y-76868571D02*
X96626428Y-76868571D01*
X96555000Y-77582857D01*
X96626428Y-77511428D01*
X96769285Y-77440000D01*
X97126428Y-77440000D01*
X97269285Y-77511428D01*
X97340714Y-77582857D01*
X97412142Y-77725714D01*
X97412142Y-78082857D01*
X97340714Y-78225714D01*
X97269285Y-78297142D01*
X97126428Y-78368571D01*
X96769285Y-78368571D01*
X96626428Y-78297142D01*
X96555000Y-78225714D01*
X99197857Y-78368571D02*
X99197857Y-77368571D01*
X99197857Y-77511428D02*
X99269285Y-77440000D01*
X99412142Y-77368571D01*
X99626428Y-77368571D01*
X99769285Y-77440000D01*
X99840714Y-77582857D01*
X99840714Y-78368571D01*
X99840714Y-77582857D02*
X99912142Y-77440000D01*
X100055000Y-77368571D01*
X100269285Y-77368571D01*
X100412142Y-77440000D01*
X100483571Y-77582857D01*
X100483571Y-78368571D01*
X101197857Y-78368571D02*
X101197857Y-77368571D01*
X101197857Y-77511428D02*
X101269285Y-77440000D01*
X101412142Y-77368571D01*
X101626428Y-77368571D01*
X101769285Y-77440000D01*
X101840714Y-77582857D01*
X101840714Y-78368571D01*
X101840714Y-77582857D02*
X101912142Y-77440000D01*
X102055000Y-77368571D01*
X102269285Y-77368571D01*
X102412142Y-77440000D01*
X102483571Y-77582857D01*
X102483571Y-78368571D01*
X90805000Y-77690000D02*
X95805000Y-77690000D01*
X90805000Y-79690000D02*
X90805000Y-74990000D01*
X95805000Y-79690000D02*
X95805000Y-74990000D01*
X95805000Y-77690000D02*
X94678496Y-78276421D01*
X95805000Y-77690000D02*
X94678496Y-77103579D01*
X90805000Y-77690000D02*
X91931504Y-78276421D01*
X90805000Y-77690000D02*
X91931504Y-77103579D01*
X95162142Y-118868571D02*
X96090714Y-118868571D01*
X95590714Y-119440000D01*
X95805000Y-119440000D01*
X95947857Y-119511428D01*
X96019285Y-119582857D01*
X96090714Y-119725714D01*
X96090714Y-120082857D01*
X96019285Y-120225714D01*
X95947857Y-120297142D01*
X95805000Y-120368571D01*
X95376428Y-120368571D01*
X95233571Y-120297142D01*
X95162142Y-120225714D01*
X96733571Y-120225714D02*
X96805000Y-120297142D01*
X96733571Y-120368571D01*
X96662142Y-120297142D01*
X96733571Y-120225714D01*
X96733571Y-120368571D01*
X98162142Y-118868571D02*
X97447857Y-118868571D01*
X97376428Y-119582857D01*
X97447857Y-119511428D01*
X97590714Y-119440000D01*
X97947857Y-119440000D01*
X98090714Y-119511428D01*
X98162142Y-119582857D01*
X98233571Y-119725714D01*
X98233571Y-120082857D01*
X98162142Y-120225714D01*
X98090714Y-120297142D01*
X97947857Y-120368571D01*
X97590714Y-120368571D01*
X97447857Y-120297142D01*
X97376428Y-120225714D01*
X100019285Y-120368571D02*
X100019285Y-119368571D01*
X100019285Y-119511428D02*
X100090714Y-119440000D01*
X100233571Y-119368571D01*
X100447857Y-119368571D01*
X100590714Y-119440000D01*
X100662142Y-119582857D01*
X100662142Y-120368571D01*
X100662142Y-119582857D02*
X100733571Y-119440000D01*
X100876428Y-119368571D01*
X101090714Y-119368571D01*
X101233571Y-119440000D01*
X101305000Y-119582857D01*
X101305000Y-120368571D01*
X102019285Y-120368571D02*
X102019285Y-119368571D01*
X102019285Y-119511428D02*
X102090714Y-119440000D01*
X102233571Y-119368571D01*
X102447857Y-119368571D01*
X102590714Y-119440000D01*
X102662142Y-119582857D01*
X102662142Y-120368571D01*
X102662142Y-119582857D02*
X102733571Y-119440000D01*
X102876428Y-119368571D01*
X103090714Y-119368571D01*
X103233571Y-119440000D01*
X103305000Y-119582857D01*
X103305000Y-120368571D01*
X90805000Y-119690000D02*
X94305000Y-119690000D01*
X90805000Y-117190000D02*
X90805000Y-122390000D01*
X94305000Y-117190000D02*
X94305000Y-122390000D01*
X94305000Y-119690000D02*
X93178496Y-120276421D01*
X94305000Y-119690000D02*
X93178496Y-119103579D01*
X90805000Y-119690000D02*
X91931504Y-120276421D01*
X90805000Y-119690000D02*
X91931504Y-119103579D01*
X141476428Y-101832857D02*
X141476428Y-100975714D01*
X141476428Y-101404285D02*
X142976428Y-101404285D01*
X142762142Y-101261428D01*
X142619285Y-101118571D01*
X142547857Y-100975714D01*
X142976428Y-102332857D02*
X142976428Y-103332857D01*
X141476428Y-102690000D01*
X141476428Y-105047142D02*
X142476428Y-105047142D01*
X142333571Y-105047142D02*
X142405000Y-105118571D01*
X142476428Y-105261428D01*
X142476428Y-105475714D01*
X142405000Y-105618571D01*
X142262142Y-105690000D01*
X141476428Y-105690000D01*
X142262142Y-105690000D02*
X142405000Y-105761428D01*
X142476428Y-105904285D01*
X142476428Y-106118571D01*
X142405000Y-106261428D01*
X142262142Y-106332857D01*
X141476428Y-106332857D01*
X141476428Y-107047142D02*
X142476428Y-107047142D01*
X142333571Y-107047142D02*
X142405000Y-107118571D01*
X142476428Y-107261428D01*
X142476428Y-107475714D01*
X142405000Y-107618571D01*
X142262142Y-107690000D01*
X141476428Y-107690000D01*
X142262142Y-107690000D02*
X142405000Y-107761428D01*
X142476428Y-107904285D01*
X142476428Y-108118571D01*
X142405000Y-108261428D01*
X142262142Y-108332857D01*
X141476428Y-108332857D01*
X140805000Y-96190000D02*
X140805000Y-113190000D01*
X137805000Y-96190000D02*
X143505000Y-96190000D01*
X137805000Y-113190000D02*
X143505000Y-113190000D01*
X140805000Y-113190000D02*
X140218579Y-112063496D01*
X140805000Y-113190000D02*
X141391421Y-112063496D01*
X140805000Y-96190000D02*
X140218579Y-97316504D01*
X140805000Y-96190000D02*
X141391421Y-97316504D01*
X137555000Y-92011428D02*
X137626428Y-91940000D01*
X137769285Y-91868571D01*
X138126428Y-91868571D01*
X138269285Y-91940000D01*
X138340714Y-92011428D01*
X138412142Y-92154285D01*
X138412142Y-92297142D01*
X138340714Y-92511428D01*
X137483571Y-93368571D01*
X138412142Y-93368571D01*
X140197857Y-93368571D02*
X140197857Y-92368571D01*
X140197857Y-92511428D02*
X140269285Y-92440000D01*
X140412142Y-92368571D01*
X140626428Y-92368571D01*
X140769285Y-92440000D01*
X140840714Y-92582857D01*
X140840714Y-93368571D01*
X140840714Y-92582857D02*
X140912142Y-92440000D01*
X141055000Y-92368571D01*
X141269285Y-92368571D01*
X141412142Y-92440000D01*
X141483571Y-92582857D01*
X141483571Y-93368571D01*
X142197857Y-93368571D02*
X142197857Y-92368571D01*
X142197857Y-92511428D02*
X142269285Y-92440000D01*
X142412142Y-92368571D01*
X142626428Y-92368571D01*
X142769285Y-92440000D01*
X142840714Y-92582857D01*
X142840714Y-93368571D01*
X142840714Y-92582857D02*
X142912142Y-92440000D01*
X143055000Y-92368571D01*
X143269285Y-92368571D01*
X143412142Y-92440000D01*
X143483571Y-92582857D01*
X143483571Y-93368571D01*
X134805000Y-92690001D02*
X136805000Y-92690001D01*
X134805000Y-95190000D02*
X134805000Y-89990001D01*
X136805000Y-95190000D02*
X136805000Y-89990001D01*
X136805000Y-92690001D02*
X135678496Y-93276422D01*
X136805000Y-92690001D02*
X135678496Y-92103580D01*
X134805000Y-92690001D02*
X135931504Y-93276422D01*
X134805000Y-92690001D02*
X135931504Y-92103580D01*
X161476427Y-85190000D02*
X160476427Y-85190000D01*
X162047856Y-84832857D02*
X160976427Y-84475714D01*
X160976427Y-85404285D01*
X160476427Y-86047142D02*
X160476427Y-86332857D01*
X160547856Y-86475714D01*
X160619284Y-86547142D01*
X160833570Y-86690000D01*
X161119284Y-86761428D01*
X161690713Y-86761428D01*
X161833570Y-86690000D01*
X161904999Y-86618571D01*
X161976427Y-86475714D01*
X161976427Y-86190000D01*
X161904999Y-86047142D01*
X161833570Y-85975714D01*
X161690713Y-85904285D01*
X161333570Y-85904285D01*
X161190713Y-85975714D01*
X161119284Y-86047142D01*
X161047856Y-86190000D01*
X161047856Y-86475714D01*
X161119284Y-86618571D01*
X161190713Y-86690000D01*
X161333570Y-86761428D01*
X160476427Y-88547142D02*
X161476427Y-88547142D01*
X161333570Y-88547142D02*
X161404999Y-88618571D01*
X161476427Y-88761428D01*
X161476427Y-88975714D01*
X161404999Y-89118571D01*
X161262141Y-89190000D01*
X160476427Y-89190000D01*
X161262141Y-89190000D02*
X161404999Y-89261428D01*
X161476427Y-89404285D01*
X161476427Y-89618571D01*
X161404999Y-89761428D01*
X161262141Y-89832857D01*
X160476427Y-89832857D01*
X160476427Y-90547142D02*
X161476427Y-90547142D01*
X161333570Y-90547142D02*
X161404999Y-90618571D01*
X161476427Y-90761428D01*
X161476427Y-90975714D01*
X161404999Y-91118571D01*
X161262141Y-91190000D01*
X160476427Y-91190000D01*
X161262141Y-91190000D02*
X161404999Y-91261428D01*
X161476427Y-91404285D01*
X161476427Y-91618571D01*
X161404999Y-91761428D01*
X161262141Y-91832857D01*
X160476427Y-91832857D01*
X159804999Y-63690000D02*
X159804999Y-112690000D01*
X156805000Y-63690000D02*
X162504999Y-63690000D01*
X156805000Y-112690000D02*
X162504999Y-112690000D01*
X159804999Y-112690000D02*
X159218578Y-111563496D01*
X159804999Y-112690000D02*
X160391420Y-111563496D01*
X159804999Y-63690000D02*
X159218578Y-64816504D01*
X159804999Y-63690000D02*
X160391420Y-64816504D01*
X101876428Y-103797142D02*
X101876428Y-104725714D01*
X101305000Y-104225714D01*
X101305000Y-104440000D01*
X101233571Y-104582857D01*
X101162142Y-104654285D01*
X101019285Y-104725714D01*
X100662142Y-104725714D01*
X100519285Y-104654285D01*
X100447857Y-104582857D01*
X100376428Y-104440000D01*
X100376428Y-104011428D01*
X100447857Y-103868571D01*
X100519285Y-103797142D01*
X100519285Y-105368571D02*
X100447857Y-105440000D01*
X100376428Y-105368571D01*
X100447857Y-105297142D01*
X100519285Y-105368571D01*
X100376428Y-105368571D01*
X101876428Y-106797142D02*
X101876428Y-106082857D01*
X101162142Y-106011428D01*
X101233571Y-106082857D01*
X101305000Y-106225714D01*
X101305000Y-106582857D01*
X101233571Y-106725714D01*
X101162142Y-106797142D01*
X101019285Y-106868571D01*
X100662142Y-106868571D01*
X100519285Y-106797142D01*
X100447857Y-106725714D01*
X100376428Y-106582857D01*
X100376428Y-106225714D01*
X100447857Y-106082857D01*
X100519285Y-106011428D01*
X100376428Y-108654285D02*
X101376428Y-108654285D01*
X101233571Y-108654285D02*
X101305000Y-108725714D01*
X101376428Y-108868571D01*
X101376428Y-109082857D01*
X101305000Y-109225714D01*
X101162142Y-109297142D01*
X100376428Y-109297142D01*
X101162142Y-109297142D02*
X101305000Y-109368571D01*
X101376428Y-109511428D01*
X101376428Y-109725714D01*
X101305000Y-109868571D01*
X101162142Y-109940000D01*
X100376428Y-109940000D01*
X100376428Y-110654285D02*
X101376428Y-110654285D01*
X101233571Y-110654285D02*
X101305000Y-110725714D01*
X101376428Y-110868571D01*
X101376428Y-111082857D01*
X101305000Y-111225714D01*
X101162142Y-111297142D01*
X100376428Y-111297142D01*
X101162142Y-111297142D02*
X101305000Y-111368571D01*
X101376428Y-111511428D01*
X101376428Y-111725714D01*
X101305000Y-111868571D01*
X101162142Y-111940000D01*
X100376428Y-111940000D01*
X100805000Y-112690000D02*
X100805000Y-116190000D01*
X97805000Y-112690000D02*
X103505000Y-112690000D01*
X97805000Y-116190000D02*
X103505000Y-116190000D01*
X100805000Y-116190000D02*
X100218579Y-115063496D01*
X100805000Y-116190000D02*
X101391421Y-115063496D01*
X100805000Y-112690000D02*
X100218579Y-113816504D01*
X100805000Y-112690000D02*
X101391421Y-113816504D01*
X129276429Y-106511428D02*
X129276429Y-105654285D01*
X129276429Y-106082857D02*
X130776429Y-106082857D01*
X130562143Y-105940000D01*
X130419286Y-105797142D01*
X130347858Y-105654285D01*
X129276429Y-107940000D02*
X129276429Y-107082857D01*
X129276429Y-107511428D02*
X130776429Y-107511428D01*
X130562143Y-107368571D01*
X130419286Y-107225714D01*
X130347858Y-107082857D01*
X129419286Y-108582857D02*
X129347858Y-108654285D01*
X129276429Y-108582857D01*
X129347858Y-108511428D01*
X129419286Y-108582857D01*
X129276429Y-108582857D01*
X130776429Y-110011428D02*
X130776429Y-109297142D01*
X130062143Y-109225714D01*
X130133572Y-109297142D01*
X130205001Y-109440000D01*
X130205001Y-109797142D01*
X130133572Y-109940000D01*
X130062143Y-110011428D01*
X129919286Y-110082857D01*
X129562143Y-110082857D01*
X129419286Y-110011428D01*
X129347858Y-109940000D01*
X129276429Y-109797142D01*
X129276429Y-109440000D01*
X129347858Y-109297142D01*
X129419286Y-109225714D01*
X129276429Y-111868571D02*
X130276429Y-111868571D01*
X130133572Y-111868571D02*
X130205001Y-111940000D01*
X130276429Y-112082857D01*
X130276429Y-112297142D01*
X130205001Y-112440000D01*
X130062143Y-112511428D01*
X129276429Y-112511428D01*
X130062143Y-112511428D02*
X130205001Y-112582857D01*
X130276429Y-112725714D01*
X130276429Y-112940000D01*
X130205001Y-113082857D01*
X130062143Y-113154285D01*
X129276429Y-113154285D01*
X129276429Y-113868571D02*
X130276429Y-113868571D01*
X130133572Y-113868571D02*
X130205001Y-113940000D01*
X130276429Y-114082857D01*
X130276429Y-114297142D01*
X130205001Y-114440000D01*
X130062143Y-114511428D01*
X129276429Y-114511428D01*
X130062143Y-114511428D02*
X130205001Y-114582857D01*
X130276429Y-114725714D01*
X130276429Y-114940000D01*
X130205001Y-115082857D01*
X130062143Y-115154285D01*
X129276429Y-115154285D01*
X131305001Y-104690000D02*
X131305001Y-116190000D01*
X133805000Y-104690000D02*
X128605001Y-104690000D01*
X133805000Y-116190000D02*
X128605001Y-116190000D01*
X131305001Y-116190000D02*
X130718580Y-115063496D01*
X131305001Y-116190000D02*
X131891422Y-115063496D01*
X131305001Y-104690000D02*
X130718580Y-105816504D01*
X131305001Y-104690000D02*
X131891422Y-105816504D01*
D11*
X120703000Y-98776000D02*
X122803000Y-98776000D01*
X120703000Y-101376000D02*
X122803000Y-101376000D01*
X122803000Y-101376000D02*
X122803000Y-98776000D01*
X120703000Y-101376000D02*
X120703000Y-98776000D01*
M02*
