G04 #@! TF.GenerationSoftware,KiCad,Pcbnew,(5.1.5)-2*
G04 #@! TF.CreationDate,2020-04-29T21:28:48+02:00*
G04 #@! TF.ProjectId,UPS-2,5550532d-322e-46b6-9963-61645f706362,rev?*
G04 #@! TF.SameCoordinates,Original*
G04 #@! TF.FileFunction,Copper,L2,Bot*
G04 #@! TF.FilePolarity,Positive*
%FSLAX46Y46*%
G04 Gerber Fmt 4.6, Leading zero omitted, Abs format (unit mm)*
G04 Created by KiCad (PCBNEW (5.1.5)-2) date 2020-04-29 21:28:48*
%MOMM*%
%LPD*%
G04 APERTURE LIST*
%ADD10C,3.000000*%
%ADD11R,3.000000X3.000000*%
%ADD12O,1.700000X1.700000*%
%ADD13R,1.700000X1.700000*%
%ADD14C,2.600000*%
%ADD15R,2.600000X2.600000*%
%ADD16C,0.800000*%
%ADD17C,0.500000*%
%ADD18C,1.400000*%
%ADD19C,1.500000*%
%ADD20C,0.250000*%
%ADD21C,1.000000*%
%ADD22C,1.300000*%
%ADD23C,0.400000*%
%ADD24C,0.800000*%
%ADD25C,2.000000*%
%ADD26C,0.254000*%
G04 APERTURE END LIST*
D10*
X100965000Y-90805000D03*
D11*
X100965000Y-85725000D03*
D12*
X145542000Y-88138000D03*
X145542000Y-85598000D03*
X148082000Y-88138000D03*
D13*
X148082000Y-85598000D03*
D12*
X152400000Y-95758000D03*
X152400000Y-93218000D03*
X152400000Y-90678000D03*
X152400000Y-88138000D03*
D13*
X152400000Y-85598000D03*
D12*
X147320000Y-93091000D03*
D13*
X147320000Y-95631000D03*
D14*
X102410000Y-108205000D03*
X99410000Y-103505000D03*
D15*
X105410000Y-103505000D03*
D16*
X109728000Y-112776000D03*
X150876000Y-80264000D03*
X150876000Y-74168000D03*
X150876000Y-77216000D03*
X152400000Y-75692000D03*
X152400000Y-78740000D03*
X115697000Y-63500000D03*
X105537000Y-63500000D03*
X124460000Y-80264000D03*
X132080000Y-80264000D03*
X131064000Y-80264000D03*
X130048000Y-80264000D03*
X129032000Y-80264000D03*
X128016000Y-80264000D03*
X113157000Y-63500000D03*
X121412000Y-76200000D03*
X124460000Y-78994000D03*
X119888000Y-76200000D03*
X105156000Y-69088000D03*
X110236000Y-69088000D03*
X135128000Y-84328000D03*
X137160000Y-84328000D03*
X139192000Y-84328000D03*
X141732000Y-84328000D03*
X152400000Y-74168000D03*
X152400000Y-72644000D03*
X152400000Y-71120000D03*
X152400000Y-77216000D03*
X152400000Y-80264000D03*
X148336000Y-68072000D03*
X146812000Y-68072000D03*
X120015000Y-96774000D03*
X117856000Y-94488000D03*
X137414000Y-69977000D03*
X134747000Y-69977000D03*
X140208000Y-69977000D03*
X108077000Y-89916000D03*
X108204000Y-84328000D03*
X93980000Y-99568000D03*
X93980000Y-103632000D03*
X93980000Y-107696000D03*
X136144000Y-82296000D03*
X138176000Y-82296000D03*
X140208000Y-82296000D03*
X142748000Y-82296000D03*
X100076000Y-99568000D03*
X106172000Y-99568000D03*
X104140000Y-112776000D03*
X99060000Y-112776000D03*
X114808000Y-112776000D03*
X131635500Y-88328500D03*
X129969500Y-98821000D03*
X118999000Y-107124500D03*
X128016000Y-108839000D03*
X142367000Y-113919000D03*
X106172000Y-97155000D03*
X121158000Y-102362000D03*
X126682500Y-90170000D03*
X115697000Y-91059000D03*
X114935000Y-89916000D03*
X119253000Y-90805000D03*
X145288000Y-68072000D03*
X143129000Y-69977000D03*
X107315000Y-70612000D03*
X140081000Y-87884000D03*
X120713500Y-63500000D03*
X123317000Y-63500000D03*
X135890000Y-63500000D03*
X133223000Y-63500000D03*
X128270000Y-63754000D03*
X116967000Y-70485000D03*
X133096000Y-75565000D03*
X133096000Y-74676000D03*
X134620000Y-87884000D03*
X137922000Y-87884000D03*
X131953000Y-84328000D03*
X132659000Y-91369000D03*
X133802000Y-91369000D03*
X126746000Y-88392000D03*
X122936000Y-88392000D03*
X122936000Y-90170000D03*
X98552000Y-82042000D03*
X105791000Y-82169000D03*
X129667000Y-68072000D03*
X125857000Y-68072000D03*
X115570000Y-70485000D03*
X111633000Y-74168000D03*
X114300000Y-77089000D03*
X112903000Y-75565000D03*
X133350000Y-98679000D03*
X133350000Y-101854000D03*
X133350000Y-104775000D03*
X133350000Y-107696000D03*
X142367000Y-111125000D03*
X152146000Y-108839000D03*
X122936000Y-86360000D03*
X124968000Y-86360000D03*
X123952000Y-86360000D03*
X126492000Y-86360000D03*
X111252000Y-77216000D03*
X112268000Y-78232000D03*
X113284000Y-79248000D03*
X114300000Y-80264000D03*
X115316000Y-81280000D03*
X132334000Y-95504000D03*
X144526000Y-92837000D03*
X104582000Y-75250000D03*
X107315000Y-77806000D03*
X95456000Y-71604000D03*
X102616000Y-69088000D03*
X98044000Y-69088000D03*
X98044000Y-71628000D03*
X102616000Y-71628000D03*
X95504000Y-69088000D03*
X100076000Y-69088000D03*
X100076000Y-69088000D03*
X100100000Y-71604000D03*
X124206000Y-92964000D03*
X103759000Y-75250000D03*
X108757000Y-77806000D03*
X123698000Y-100838000D03*
X123698000Y-100838000D03*
X123952000Y-102616000D03*
X123952000Y-102616000D03*
X117856000Y-104140000D03*
X116840000Y-104140000D03*
X115824000Y-104140000D03*
X118872000Y-104140000D03*
X123952000Y-101727000D03*
X117348000Y-101092000D03*
X118364000Y-101092000D03*
X119380000Y-101092000D03*
X112776000Y-99568000D03*
X112776000Y-98552000D03*
X112776000Y-97536000D03*
X112776000Y-96520000D03*
X116332000Y-101092000D03*
X141732000Y-100838000D03*
X123627002Y-99568000D03*
X121920000Y-96012000D03*
X119888000Y-98552000D03*
X118364000Y-98552000D03*
X118364000Y-99568000D03*
X124968000Y-99568000D03*
X124968000Y-98552000D03*
X123571000Y-98552000D03*
X121158000Y-95250000D03*
X120396000Y-94488000D03*
X120396000Y-94488000D03*
X119888000Y-99568000D03*
X137668000Y-91948000D03*
X144145000Y-89916000D03*
X120777000Y-82931000D03*
X107950000Y-68961000D03*
X127889000Y-82613500D03*
X137604500Y-93027500D03*
X129733000Y-77912000D03*
X130749000Y-77912000D03*
X131765000Y-77912000D03*
X132781000Y-77912000D03*
X99060000Y-77724000D03*
X102108000Y-77724000D03*
X105664000Y-77724000D03*
X149733000Y-71564500D03*
X149733000Y-68072000D03*
X148590000Y-82296000D03*
X99187000Y-68072000D03*
X120650000Y-68072000D03*
X124079000Y-72390000D03*
X129032000Y-92202000D03*
X111633000Y-71374000D03*
X143637000Y-93726000D03*
X111252000Y-81534000D03*
D17*
X100965000Y-85725000D02*
X100965000Y-84201000D01*
X152400000Y-95504000D02*
X152908000Y-95504000D01*
X152908000Y-95504000D02*
X154051000Y-94361000D01*
X154051000Y-89535000D02*
X152400000Y-87884000D01*
X154051000Y-94361000D02*
X154051000Y-89535000D01*
X152273000Y-95631000D02*
X152400000Y-95504000D01*
X147320000Y-95631000D02*
X152273000Y-95631000D01*
D18*
X126492000Y-86360000D02*
X120904000Y-86360000D01*
X120904000Y-86360000D02*
X120396000Y-86360000D01*
D19*
X120396000Y-86360000D02*
X111252000Y-77216000D01*
D20*
X132842000Y-94996000D02*
X132334000Y-95504000D01*
X144272000Y-94996000D02*
X132842000Y-94996000D01*
X144526000Y-92837000D02*
X144526000Y-94742000D01*
X144526000Y-94742000D02*
X144272000Y-94996000D01*
D17*
X104582000Y-75250000D02*
X104582000Y-73594000D01*
X103190000Y-72202000D02*
X102616000Y-71628000D01*
X103952000Y-72964000D02*
X103886000Y-72898000D01*
X104582000Y-73594000D02*
X103886000Y-72898000D01*
X103886000Y-72898000D02*
X102616000Y-71628000D01*
X103952000Y-75250000D02*
X104582000Y-75250000D01*
X103759000Y-75250000D02*
X103759000Y-72964000D01*
D20*
X123952000Y-92583000D02*
X110191000Y-78822000D01*
X123952000Y-92583000D02*
X123952000Y-92710000D01*
X110191000Y-78822000D02*
X109220000Y-77851000D01*
X109220000Y-77806000D02*
X108757000Y-77806000D01*
X108757000Y-77806000D02*
X107614000Y-77806000D01*
D21*
X123952000Y-101092000D02*
X123698000Y-100838000D01*
X123952000Y-102616000D02*
X123952000Y-101092000D01*
D22*
X123952000Y-102616000D02*
X122936000Y-103632000D01*
D20*
X122428000Y-104140000D02*
X122936000Y-103632000D01*
D22*
X114300000Y-104140000D02*
X122428000Y-104140000D01*
D21*
X119380000Y-101092000D02*
X114300000Y-101092000D01*
X114300000Y-101092000D02*
X112776000Y-99568000D01*
X112776000Y-99568000D02*
X112776000Y-96012000D01*
D20*
X112776000Y-96520000D02*
X112776000Y-95504000D01*
X112776000Y-95504000D02*
X116332000Y-91948000D01*
X116332000Y-91948000D02*
X119888000Y-91948000D01*
X132842000Y-96647000D02*
X124460000Y-96647000D01*
X119888000Y-91948000D02*
X124460000Y-96647000D01*
X141732000Y-100838000D02*
X137668000Y-100838000D01*
X136398000Y-95504000D02*
X133985000Y-95504000D01*
X137668000Y-100838000D02*
X137668000Y-96774000D01*
X133985000Y-95504000D02*
X132842000Y-96647000D01*
X137668000Y-96774000D02*
X136398000Y-95504000D01*
D23*
X120104997Y-99351003D02*
X119704998Y-99751002D01*
X123627002Y-99751002D02*
X123227003Y-99351003D01*
D19*
X121920000Y-96012000D02*
X121158000Y-95250000D01*
X121158000Y-95250000D02*
X120396000Y-94488000D01*
X120396000Y-94488000D02*
X120396000Y-94488000D01*
X120396000Y-94488000D02*
X120396000Y-94488000D01*
D24*
X123444000Y-98552000D02*
X124968000Y-98552000D01*
X123627002Y-99568000D02*
X124968000Y-99568000D01*
X118364000Y-98552000D02*
X119888000Y-98552000D01*
D20*
X119888000Y-98552000D02*
X119888000Y-99060000D01*
D24*
X118364000Y-99568000D02*
X124968000Y-99568000D01*
D19*
X121920000Y-96012000D02*
X121920000Y-97028000D01*
D24*
X118364000Y-98552000D02*
X120396000Y-98552000D01*
X120396000Y-98552000D02*
X124968000Y-98552000D01*
D20*
X119888000Y-98552000D02*
X120396000Y-98552000D01*
D24*
X118364000Y-99060000D02*
X124968000Y-99060000D01*
D20*
X124968000Y-99060000D02*
X124968000Y-99568000D01*
X124968000Y-98552000D02*
X124968000Y-99060000D01*
D24*
X118364000Y-99060000D02*
X118364000Y-98552000D01*
X118364000Y-99568000D02*
X118364000Y-99060000D01*
D21*
X122428000Y-98044000D02*
X123444000Y-98552000D01*
X121920000Y-97028000D02*
X122428000Y-98044000D01*
X120904000Y-98044000D02*
X120396000Y-98552000D01*
D24*
X119380000Y-99568000D02*
X118364000Y-99568000D01*
X119888000Y-98552000D02*
X119380000Y-99568000D01*
D20*
X137668000Y-91948000D02*
X138176000Y-91440000D01*
X150876000Y-91440000D02*
X152400000Y-92964000D01*
X138176000Y-91440000D02*
X150876000Y-91440000D01*
X151765000Y-89916000D02*
X152400000Y-90551000D01*
X144145000Y-89916000D02*
X151765000Y-89916000D01*
X120650000Y-82931000D02*
X120777000Y-82931000D01*
X117856000Y-80137000D02*
X120650000Y-82931000D01*
X108077000Y-68961000D02*
X109220000Y-70104000D01*
X107950000Y-68961000D02*
X108077000Y-68961000D01*
X109220000Y-70104000D02*
X112776000Y-70104000D01*
X112776000Y-70104000D02*
X117856000Y-75184000D01*
X117856000Y-75184000D02*
X117856000Y-80137000D01*
X131762500Y-82613500D02*
X127889000Y-82613500D01*
X136715500Y-87566500D02*
X131762500Y-82613500D01*
X137604500Y-93027500D02*
X136715500Y-92392500D01*
X136715500Y-92392500D02*
X136715500Y-87566500D01*
D25*
X132654000Y-77658000D02*
X129606000Y-77658000D01*
D20*
X99060000Y-77724000D02*
X102108000Y-77724000D01*
X102108000Y-77724000D02*
X105664000Y-77724000D01*
X149733000Y-70993000D02*
X149669500Y-71564500D01*
X149733000Y-68072000D02*
X149733000Y-70993000D01*
X145542000Y-85471000D02*
X145542000Y-85344000D01*
X145542000Y-85344000D02*
X148590000Y-82296000D01*
X99187000Y-68072000D02*
X120650000Y-68072000D01*
X120650000Y-68072000D02*
X122936000Y-68072000D01*
X124079000Y-69215000D02*
X124079000Y-72390000D01*
X122936000Y-68072000D02*
X124079000Y-69215000D01*
X128524000Y-91694000D02*
X128524000Y-85979000D01*
X129032000Y-92202000D02*
X128524000Y-91694000D01*
X112776000Y-71374000D02*
X111633000Y-71374000D01*
X112776000Y-71374000D02*
X117094000Y-75692000D01*
X117094000Y-75692000D02*
X117094000Y-80899000D01*
X117094000Y-80899000D02*
X117221000Y-80899000D01*
X117221000Y-80899000D02*
X121412000Y-85090000D01*
X128524000Y-85979000D02*
X127889000Y-85344000D01*
X127635000Y-85090000D02*
X127889000Y-85344000D01*
X121412000Y-85090000D02*
X127635000Y-85090000D01*
X127889000Y-85344000D02*
X127698500Y-85153500D01*
X143637000Y-93726000D02*
X143383000Y-93980000D01*
X143129000Y-94234000D02*
X143637000Y-93726000D01*
X111252000Y-81534000D02*
X123825000Y-94107000D01*
X123825000Y-94234000D02*
X143129000Y-94234000D01*
X123825000Y-94107000D02*
X123825000Y-94234000D01*
D26*
G36*
X102597491Y-61738753D02*
G01*
X102588883Y-61725871D01*
X102434329Y-61571317D01*
X102252593Y-61449885D01*
X102050658Y-61366241D01*
X101836286Y-61323600D01*
X101617714Y-61323600D01*
X101403342Y-61366241D01*
X101201407Y-61449885D01*
X101019671Y-61571317D01*
X100865117Y-61725871D01*
X100743685Y-61907607D01*
X100660041Y-62109542D01*
X100643137Y-62194525D01*
X100606313Y-62187200D01*
X100307687Y-62187200D01*
X100270863Y-62194525D01*
X100253959Y-62109542D01*
X100170315Y-61907607D01*
X100048883Y-61725871D01*
X99894329Y-61571317D01*
X99712593Y-61449885D01*
X99510658Y-61366241D01*
X99296286Y-61323600D01*
X99077714Y-61323600D01*
X98863342Y-61366241D01*
X98661407Y-61449885D01*
X98479671Y-61571317D01*
X98325117Y-61725871D01*
X98203685Y-61907607D01*
X98120041Y-62109542D01*
X98077400Y-62323914D01*
X98077400Y-62542486D01*
X98120041Y-62756858D01*
X98203685Y-62958793D01*
X98325117Y-63140529D01*
X98479671Y-63295083D01*
X98661407Y-63416515D01*
X98863342Y-63500159D01*
X98948325Y-63517063D01*
X98941000Y-63553887D01*
X98941000Y-63852513D01*
X98948325Y-63889337D01*
X98863342Y-63906241D01*
X98661407Y-63989885D01*
X98479671Y-64111317D01*
X98325117Y-64265871D01*
X98203685Y-64447607D01*
X98120041Y-64649542D01*
X98077400Y-64863914D01*
X98077400Y-65082486D01*
X98120041Y-65296858D01*
X98203685Y-65498793D01*
X98325117Y-65680529D01*
X98479671Y-65835083D01*
X98661407Y-65956515D01*
X98863342Y-66040159D01*
X99077714Y-66082800D01*
X99296286Y-66082800D01*
X99510658Y-66040159D01*
X99712593Y-65956515D01*
X99894329Y-65835083D01*
X100048883Y-65680529D01*
X100170315Y-65498793D01*
X100253959Y-65296858D01*
X100270863Y-65211875D01*
X100307687Y-65219200D01*
X100606313Y-65219200D01*
X100643137Y-65211875D01*
X100660041Y-65296858D01*
X100743685Y-65498793D01*
X100865117Y-65680529D01*
X101019671Y-65835083D01*
X101201407Y-65956515D01*
X101403342Y-66040159D01*
X101617714Y-66082800D01*
X101836286Y-66082800D01*
X102050658Y-66040159D01*
X102252593Y-65956515D01*
X102434329Y-65835083D01*
X102556520Y-65712892D01*
X102539952Y-67320000D01*
X99887397Y-67320000D01*
X99841674Y-67274277D01*
X99673467Y-67161885D01*
X99486565Y-67084467D01*
X99288151Y-67045000D01*
X99085849Y-67045000D01*
X98887435Y-67084467D01*
X98700533Y-67161885D01*
X98532326Y-67274277D01*
X98389277Y-67417326D01*
X98276885Y-67585533D01*
X98199467Y-67772435D01*
X98160000Y-67970849D01*
X98160000Y-68173151D01*
X98199467Y-68371565D01*
X98276885Y-68558467D01*
X98389277Y-68726674D01*
X98532326Y-68869723D01*
X98700533Y-68982115D01*
X98887435Y-69059533D01*
X99085849Y-69099000D01*
X99288151Y-69099000D01*
X99486565Y-69059533D01*
X99673467Y-68982115D01*
X99841674Y-68869723D01*
X99887397Y-68824000D01*
X102524447Y-68824000D01*
X102489007Y-72261691D01*
X102491191Y-72286491D01*
X102498173Y-72310389D01*
X102509682Y-72332465D01*
X102525276Y-72351872D01*
X102544358Y-72367864D01*
X102566192Y-72379825D01*
X102589941Y-72387298D01*
X102616000Y-72390000D01*
X109474000Y-72390000D01*
X109474000Y-79756000D01*
X96193977Y-79756000D01*
X96161648Y-79706595D01*
X96155682Y-79699279D01*
X96155676Y-79699271D01*
X96155669Y-79699264D01*
X96031271Y-79548892D01*
X95987712Y-79505636D01*
X95944801Y-79461817D01*
X95937524Y-79455797D01*
X95937517Y-79455790D01*
X95937509Y-79455785D01*
X95786276Y-79332442D01*
X95735192Y-79298502D01*
X95684539Y-79263819D01*
X95676224Y-79259323D01*
X95503902Y-79167698D01*
X95447146Y-79144305D01*
X95390774Y-79120144D01*
X95381754Y-79117352D01*
X95381744Y-79117348D01*
X95381734Y-79117346D01*
X95294798Y-79091099D01*
X95199200Y-79019400D01*
X95177915Y-79006486D01*
X95154519Y-78997973D01*
X95123000Y-78994000D01*
X91710885Y-78994000D01*
X91683155Y-78985628D01*
X91628048Y-78956327D01*
X91579690Y-78916888D01*
X91539913Y-78868805D01*
X91510232Y-78813912D01*
X91491777Y-78754292D01*
X91482000Y-78661272D01*
X91482000Y-77622849D01*
X98033000Y-77622849D01*
X98033000Y-77825151D01*
X98072467Y-78023565D01*
X98149885Y-78210467D01*
X98262277Y-78378674D01*
X98405326Y-78521723D01*
X98573533Y-78634115D01*
X98760435Y-78711533D01*
X98958849Y-78751000D01*
X99161151Y-78751000D01*
X99359565Y-78711533D01*
X99546467Y-78634115D01*
X99714674Y-78521723D01*
X99760397Y-78476000D01*
X101407603Y-78476000D01*
X101453326Y-78521723D01*
X101621533Y-78634115D01*
X101808435Y-78711533D01*
X102006849Y-78751000D01*
X102209151Y-78751000D01*
X102407565Y-78711533D01*
X102594467Y-78634115D01*
X102762674Y-78521723D01*
X102808397Y-78476000D01*
X104963603Y-78476000D01*
X105009326Y-78521723D01*
X105177533Y-78634115D01*
X105364435Y-78711533D01*
X105562849Y-78751000D01*
X105765151Y-78751000D01*
X105963565Y-78711533D01*
X106150467Y-78634115D01*
X106318674Y-78521723D01*
X106461723Y-78378674D01*
X106574115Y-78210467D01*
X106651533Y-78023565D01*
X106691000Y-77825151D01*
X106691000Y-77622849D01*
X106651533Y-77424435D01*
X106574115Y-77237533D01*
X106461723Y-77069326D01*
X106318674Y-76926277D01*
X106150467Y-76813885D01*
X105963565Y-76736467D01*
X105765151Y-76697000D01*
X105562849Y-76697000D01*
X105364435Y-76736467D01*
X105177533Y-76813885D01*
X105009326Y-76926277D01*
X104963603Y-76972000D01*
X102808397Y-76972000D01*
X102762674Y-76926277D01*
X102594467Y-76813885D01*
X102407565Y-76736467D01*
X102209151Y-76697000D01*
X102006849Y-76697000D01*
X101808435Y-76736467D01*
X101621533Y-76813885D01*
X101453326Y-76926277D01*
X101407603Y-76972000D01*
X99760397Y-76972000D01*
X99714674Y-76926277D01*
X99546467Y-76813885D01*
X99359565Y-76736467D01*
X99161151Y-76697000D01*
X98958849Y-76697000D01*
X98760435Y-76736467D01*
X98573533Y-76813885D01*
X98405326Y-76926277D01*
X98262277Y-77069326D01*
X98149885Y-77237533D01*
X98072467Y-77424435D01*
X98033000Y-77622849D01*
X91482000Y-77622849D01*
X91482000Y-65273528D01*
X91798425Y-65747093D01*
X92247907Y-66196575D01*
X92776442Y-66549730D01*
X93363719Y-66792988D01*
X93987168Y-66917000D01*
X94622832Y-66917000D01*
X95246281Y-66792988D01*
X95833558Y-66549730D01*
X96362093Y-66196575D01*
X96811575Y-65747093D01*
X97164730Y-65218558D01*
X97407988Y-64631281D01*
X97532000Y-64007832D01*
X97532000Y-63372168D01*
X97407988Y-62748719D01*
X97164730Y-62161442D01*
X96811575Y-61632907D01*
X96362093Y-61183425D01*
X95833558Y-60830270D01*
X95246281Y-60587012D01*
X94622832Y-60463000D01*
X93987168Y-60463000D01*
X93363719Y-60587012D01*
X92776442Y-60830270D01*
X92247907Y-61183425D01*
X91798425Y-61632907D01*
X91641750Y-61867388D01*
X91660280Y-61806014D01*
X91872828Y-61406267D01*
X92158971Y-61055421D01*
X92507810Y-60766837D01*
X92906058Y-60551505D01*
X93338549Y-60417626D01*
X93820227Y-60367000D01*
X102611632Y-60367000D01*
X102597491Y-61738753D01*
G37*
X102597491Y-61738753D02*
X102588883Y-61725871D01*
X102434329Y-61571317D01*
X102252593Y-61449885D01*
X102050658Y-61366241D01*
X101836286Y-61323600D01*
X101617714Y-61323600D01*
X101403342Y-61366241D01*
X101201407Y-61449885D01*
X101019671Y-61571317D01*
X100865117Y-61725871D01*
X100743685Y-61907607D01*
X100660041Y-62109542D01*
X100643137Y-62194525D01*
X100606313Y-62187200D01*
X100307687Y-62187200D01*
X100270863Y-62194525D01*
X100253959Y-62109542D01*
X100170315Y-61907607D01*
X100048883Y-61725871D01*
X99894329Y-61571317D01*
X99712593Y-61449885D01*
X99510658Y-61366241D01*
X99296286Y-61323600D01*
X99077714Y-61323600D01*
X98863342Y-61366241D01*
X98661407Y-61449885D01*
X98479671Y-61571317D01*
X98325117Y-61725871D01*
X98203685Y-61907607D01*
X98120041Y-62109542D01*
X98077400Y-62323914D01*
X98077400Y-62542486D01*
X98120041Y-62756858D01*
X98203685Y-62958793D01*
X98325117Y-63140529D01*
X98479671Y-63295083D01*
X98661407Y-63416515D01*
X98863342Y-63500159D01*
X98948325Y-63517063D01*
X98941000Y-63553887D01*
X98941000Y-63852513D01*
X98948325Y-63889337D01*
X98863342Y-63906241D01*
X98661407Y-63989885D01*
X98479671Y-64111317D01*
X98325117Y-64265871D01*
X98203685Y-64447607D01*
X98120041Y-64649542D01*
X98077400Y-64863914D01*
X98077400Y-65082486D01*
X98120041Y-65296858D01*
X98203685Y-65498793D01*
X98325117Y-65680529D01*
X98479671Y-65835083D01*
X98661407Y-65956515D01*
X98863342Y-66040159D01*
X99077714Y-66082800D01*
X99296286Y-66082800D01*
X99510658Y-66040159D01*
X99712593Y-65956515D01*
X99894329Y-65835083D01*
X100048883Y-65680529D01*
X100170315Y-65498793D01*
X100253959Y-65296858D01*
X100270863Y-65211875D01*
X100307687Y-65219200D01*
X100606313Y-65219200D01*
X100643137Y-65211875D01*
X100660041Y-65296858D01*
X100743685Y-65498793D01*
X100865117Y-65680529D01*
X101019671Y-65835083D01*
X101201407Y-65956515D01*
X101403342Y-66040159D01*
X101617714Y-66082800D01*
X101836286Y-66082800D01*
X102050658Y-66040159D01*
X102252593Y-65956515D01*
X102434329Y-65835083D01*
X102556520Y-65712892D01*
X102539952Y-67320000D01*
X99887397Y-67320000D01*
X99841674Y-67274277D01*
X99673467Y-67161885D01*
X99486565Y-67084467D01*
X99288151Y-67045000D01*
X99085849Y-67045000D01*
X98887435Y-67084467D01*
X98700533Y-67161885D01*
X98532326Y-67274277D01*
X98389277Y-67417326D01*
X98276885Y-67585533D01*
X98199467Y-67772435D01*
X98160000Y-67970849D01*
X98160000Y-68173151D01*
X98199467Y-68371565D01*
X98276885Y-68558467D01*
X98389277Y-68726674D01*
X98532326Y-68869723D01*
X98700533Y-68982115D01*
X98887435Y-69059533D01*
X99085849Y-69099000D01*
X99288151Y-69099000D01*
X99486565Y-69059533D01*
X99673467Y-68982115D01*
X99841674Y-68869723D01*
X99887397Y-68824000D01*
X102524447Y-68824000D01*
X102489007Y-72261691D01*
X102491191Y-72286491D01*
X102498173Y-72310389D01*
X102509682Y-72332465D01*
X102525276Y-72351872D01*
X102544358Y-72367864D01*
X102566192Y-72379825D01*
X102589941Y-72387298D01*
X102616000Y-72390000D01*
X109474000Y-72390000D01*
X109474000Y-79756000D01*
X96193977Y-79756000D01*
X96161648Y-79706595D01*
X96155682Y-79699279D01*
X96155676Y-79699271D01*
X96155669Y-79699264D01*
X96031271Y-79548892D01*
X95987712Y-79505636D01*
X95944801Y-79461817D01*
X95937524Y-79455797D01*
X95937517Y-79455790D01*
X95937509Y-79455785D01*
X95786276Y-79332442D01*
X95735192Y-79298502D01*
X95684539Y-79263819D01*
X95676224Y-79259323D01*
X95503902Y-79167698D01*
X95447146Y-79144305D01*
X95390774Y-79120144D01*
X95381754Y-79117352D01*
X95381744Y-79117348D01*
X95381734Y-79117346D01*
X95294798Y-79091099D01*
X95199200Y-79019400D01*
X95177915Y-79006486D01*
X95154519Y-78997973D01*
X95123000Y-78994000D01*
X91710885Y-78994000D01*
X91683155Y-78985628D01*
X91628048Y-78956327D01*
X91579690Y-78916888D01*
X91539913Y-78868805D01*
X91510232Y-78813912D01*
X91491777Y-78754292D01*
X91482000Y-78661272D01*
X91482000Y-77622849D01*
X98033000Y-77622849D01*
X98033000Y-77825151D01*
X98072467Y-78023565D01*
X98149885Y-78210467D01*
X98262277Y-78378674D01*
X98405326Y-78521723D01*
X98573533Y-78634115D01*
X98760435Y-78711533D01*
X98958849Y-78751000D01*
X99161151Y-78751000D01*
X99359565Y-78711533D01*
X99546467Y-78634115D01*
X99714674Y-78521723D01*
X99760397Y-78476000D01*
X101407603Y-78476000D01*
X101453326Y-78521723D01*
X101621533Y-78634115D01*
X101808435Y-78711533D01*
X102006849Y-78751000D01*
X102209151Y-78751000D01*
X102407565Y-78711533D01*
X102594467Y-78634115D01*
X102762674Y-78521723D01*
X102808397Y-78476000D01*
X104963603Y-78476000D01*
X105009326Y-78521723D01*
X105177533Y-78634115D01*
X105364435Y-78711533D01*
X105562849Y-78751000D01*
X105765151Y-78751000D01*
X105963565Y-78711533D01*
X106150467Y-78634115D01*
X106318674Y-78521723D01*
X106461723Y-78378674D01*
X106574115Y-78210467D01*
X106651533Y-78023565D01*
X106691000Y-77825151D01*
X106691000Y-77622849D01*
X106651533Y-77424435D01*
X106574115Y-77237533D01*
X106461723Y-77069326D01*
X106318674Y-76926277D01*
X106150467Y-76813885D01*
X105963565Y-76736467D01*
X105765151Y-76697000D01*
X105562849Y-76697000D01*
X105364435Y-76736467D01*
X105177533Y-76813885D01*
X105009326Y-76926277D01*
X104963603Y-76972000D01*
X102808397Y-76972000D01*
X102762674Y-76926277D01*
X102594467Y-76813885D01*
X102407565Y-76736467D01*
X102209151Y-76697000D01*
X102006849Y-76697000D01*
X101808435Y-76736467D01*
X101621533Y-76813885D01*
X101453326Y-76926277D01*
X101407603Y-76972000D01*
X99760397Y-76972000D01*
X99714674Y-76926277D01*
X99546467Y-76813885D01*
X99359565Y-76736467D01*
X99161151Y-76697000D01*
X98958849Y-76697000D01*
X98760435Y-76736467D01*
X98573533Y-76813885D01*
X98405326Y-76926277D01*
X98262277Y-77069326D01*
X98149885Y-77237533D01*
X98072467Y-77424435D01*
X98033000Y-77622849D01*
X91482000Y-77622849D01*
X91482000Y-65273528D01*
X91798425Y-65747093D01*
X92247907Y-66196575D01*
X92776442Y-66549730D01*
X93363719Y-66792988D01*
X93987168Y-66917000D01*
X94622832Y-66917000D01*
X95246281Y-66792988D01*
X95833558Y-66549730D01*
X96362093Y-66196575D01*
X96811575Y-65747093D01*
X97164730Y-65218558D01*
X97407988Y-64631281D01*
X97532000Y-64007832D01*
X97532000Y-63372168D01*
X97407988Y-62748719D01*
X97164730Y-62161442D01*
X96811575Y-61632907D01*
X96362093Y-61183425D01*
X95833558Y-60830270D01*
X95246281Y-60587012D01*
X94622832Y-60463000D01*
X93987168Y-60463000D01*
X93363719Y-60587012D01*
X92776442Y-60830270D01*
X92247907Y-61183425D01*
X91798425Y-61632907D01*
X91641750Y-61867388D01*
X91660280Y-61806014D01*
X91872828Y-61406267D01*
X92158971Y-61055421D01*
X92507810Y-60766837D01*
X92906058Y-60551505D01*
X93338549Y-60417626D01*
X93820227Y-60367000D01*
X102611632Y-60367000D01*
X102597491Y-61738753D01*
G36*
X151363719Y-60587012D02*
G01*
X150776442Y-60830270D01*
X150247907Y-61183425D01*
X149798425Y-61632907D01*
X149445270Y-62161442D01*
X149202012Y-62748719D01*
X149078000Y-63372168D01*
X149078000Y-64007832D01*
X149202012Y-64631281D01*
X149445270Y-65218558D01*
X149798425Y-65747093D01*
X150247907Y-66196575D01*
X150776442Y-66549730D01*
X151363719Y-66792988D01*
X151987168Y-66917000D01*
X152622832Y-66917000D01*
X153246281Y-66792988D01*
X153833558Y-66549730D01*
X154362093Y-66196575D01*
X154525010Y-66033658D01*
X155128001Y-102213086D01*
X155128001Y-111106473D01*
X154811575Y-110632907D01*
X154362093Y-110183425D01*
X153833558Y-109830270D01*
X153246281Y-109587012D01*
X152622832Y-109463000D01*
X151987168Y-109463000D01*
X151363719Y-109587012D01*
X150776442Y-109830270D01*
X150247907Y-110183425D01*
X149798425Y-110632907D01*
X149445270Y-111161442D01*
X149202012Y-111748719D01*
X149078000Y-112372168D01*
X149078000Y-113007832D01*
X149202012Y-113631281D01*
X149445270Y-114218558D01*
X149798425Y-114747093D01*
X150247907Y-115196575D01*
X150721472Y-115513000D01*
X95888528Y-115513000D01*
X96362093Y-115196575D01*
X96811575Y-114747093D01*
X97164730Y-114218558D01*
X97407988Y-113631281D01*
X97532000Y-113007832D01*
X97532000Y-112372168D01*
X97407988Y-111748719D01*
X97164730Y-111161442D01*
X96811575Y-110632907D01*
X96362093Y-110183425D01*
X95833558Y-109830270D01*
X95246281Y-109587012D01*
X95046707Y-109547314D01*
X101241635Y-109547314D01*
X101373666Y-109840653D01*
X101712679Y-110011403D01*
X102078489Y-110112734D01*
X102457040Y-110140751D01*
X102833782Y-110094379D01*
X103194239Y-109975400D01*
X103446334Y-109840653D01*
X103578365Y-109547314D01*
X102410000Y-108378948D01*
X101241635Y-109547314D01*
X95046707Y-109547314D01*
X94622832Y-109463000D01*
X93987168Y-109463000D01*
X93363719Y-109587012D01*
X92776442Y-109830270D01*
X92247907Y-110183425D01*
X91798425Y-110632907D01*
X91755888Y-110696568D01*
X91791574Y-108252040D01*
X100474249Y-108252040D01*
X100520621Y-108628782D01*
X100639600Y-108989239D01*
X100774347Y-109241334D01*
X101067686Y-109373365D01*
X102236052Y-108205000D01*
X102583948Y-108205000D01*
X103752314Y-109373365D01*
X104045653Y-109241334D01*
X104216403Y-108902321D01*
X104317734Y-108536511D01*
X104345751Y-108157960D01*
X104299379Y-107781218D01*
X104180400Y-107420761D01*
X104045653Y-107168666D01*
X103752314Y-107036635D01*
X102583948Y-108205000D01*
X102236052Y-108205000D01*
X101067686Y-107036635D01*
X100774347Y-107168666D01*
X100603597Y-107507679D01*
X100502266Y-107873489D01*
X100474249Y-108252040D01*
X91791574Y-108252040D01*
X91811856Y-106862686D01*
X101241635Y-106862686D01*
X102410000Y-108031052D01*
X103578365Y-106862686D01*
X103446334Y-106569347D01*
X103107321Y-106398597D01*
X102741511Y-106297266D01*
X102362960Y-106269249D01*
X101986218Y-106315621D01*
X101625761Y-106434600D01*
X101373666Y-106569347D01*
X101241635Y-106862686D01*
X91811856Y-106862686D01*
X91841278Y-104847314D01*
X98241635Y-104847314D01*
X98373666Y-105140653D01*
X98712679Y-105311403D01*
X99078489Y-105412734D01*
X99457040Y-105440751D01*
X99833782Y-105394379D01*
X100194239Y-105275400D01*
X100446334Y-105140653D01*
X100578365Y-104847314D01*
X99410000Y-103678948D01*
X98241635Y-104847314D01*
X91841278Y-104847314D01*
X91860187Y-103552040D01*
X97474249Y-103552040D01*
X97520621Y-103928782D01*
X97639600Y-104289239D01*
X97774347Y-104541334D01*
X98067686Y-104673365D01*
X99236052Y-103505000D01*
X99583948Y-103505000D01*
X100752314Y-104673365D01*
X101045653Y-104541334D01*
X101216403Y-104202321D01*
X101317734Y-103836511D01*
X101345751Y-103457960D01*
X101299379Y-103081218D01*
X101180400Y-102720761D01*
X101045653Y-102468666D01*
X100752314Y-102336635D01*
X99583948Y-103505000D01*
X99236052Y-103505000D01*
X98067686Y-102336635D01*
X97774347Y-102468666D01*
X97603597Y-102807679D01*
X97502266Y-103173489D01*
X97474249Y-103552040D01*
X91860187Y-103552040D01*
X91880469Y-102162686D01*
X98241635Y-102162686D01*
X99410000Y-103331052D01*
X100536051Y-102205000D01*
X103479967Y-102205000D01*
X103479967Y-104805000D01*
X103492073Y-104927913D01*
X103527925Y-105046103D01*
X103586147Y-105155028D01*
X103664499Y-105250501D01*
X103759972Y-105328853D01*
X103868897Y-105387075D01*
X103987087Y-105422927D01*
X104110000Y-105435033D01*
X106710000Y-105435033D01*
X106832913Y-105422927D01*
X106951103Y-105387075D01*
X107060028Y-105328853D01*
X107155501Y-105250501D01*
X107233853Y-105155028D01*
X107292075Y-105046103D01*
X107327927Y-104927913D01*
X107340033Y-104805000D01*
X107340033Y-102205000D01*
X107327927Y-102082087D01*
X107292075Y-101963897D01*
X107233853Y-101854972D01*
X107155501Y-101759499D01*
X107060028Y-101681147D01*
X106951103Y-101622925D01*
X106832913Y-101587073D01*
X106710000Y-101574967D01*
X104110000Y-101574967D01*
X103987087Y-101587073D01*
X103868897Y-101622925D01*
X103759972Y-101681147D01*
X103664499Y-101759499D01*
X103586147Y-101854972D01*
X103527925Y-101963897D01*
X103492073Y-102082087D01*
X103479967Y-102205000D01*
X100536051Y-102205000D01*
X100578365Y-102162686D01*
X100446334Y-101869347D01*
X100107321Y-101698597D01*
X99741511Y-101597266D01*
X99362960Y-101569249D01*
X98986218Y-101615621D01*
X98625761Y-101734600D01*
X98373666Y-101869347D01*
X98241635Y-102162686D01*
X91880469Y-102162686D01*
X91946159Y-97663000D01*
X96266000Y-97663000D01*
X96290776Y-97660560D01*
X96314601Y-97653333D01*
X96336557Y-97641597D01*
X96355803Y-97625803D01*
X96371597Y-97606557D01*
X96383333Y-97584601D01*
X96390560Y-97560776D01*
X96393000Y-97536000D01*
X96393000Y-96215905D01*
X96434060Y-96079908D01*
X96445980Y-96019713D01*
X96458736Y-95959699D01*
X96459723Y-95950305D01*
X96459725Y-95950297D01*
X96459725Y-95950288D01*
X96478769Y-95756065D01*
X96478769Y-95756058D01*
X96482000Y-95723252D01*
X96482000Y-90595509D01*
X98838000Y-90595509D01*
X98838000Y-91014491D01*
X98919739Y-91425423D01*
X99080077Y-91812512D01*
X99312851Y-92160884D01*
X99609116Y-92457149D01*
X99957488Y-92689923D01*
X100344577Y-92850261D01*
X100755509Y-92932000D01*
X101174491Y-92932000D01*
X101585423Y-92850261D01*
X101972512Y-92689923D01*
X102320884Y-92457149D01*
X102617149Y-92160884D01*
X102849923Y-91812512D01*
X103010261Y-91425423D01*
X103092000Y-91014491D01*
X103092000Y-90595509D01*
X103010261Y-90184577D01*
X102849923Y-89797488D01*
X102617149Y-89449116D01*
X102320884Y-89152851D01*
X101972512Y-88920077D01*
X101585423Y-88759739D01*
X101174491Y-88678000D01*
X100755509Y-88678000D01*
X100344577Y-88759739D01*
X99957488Y-88920077D01*
X99609116Y-89152851D01*
X99312851Y-89449116D01*
X99080077Y-89797488D01*
X98919739Y-90184577D01*
X98838000Y-90595509D01*
X96482000Y-90595509D01*
X96482000Y-87225000D01*
X98834966Y-87225000D01*
X98847072Y-87347914D01*
X98882924Y-87466104D01*
X98941146Y-87575028D01*
X99019499Y-87670501D01*
X99114972Y-87748854D01*
X99223896Y-87807076D01*
X99342086Y-87842928D01*
X99465000Y-87855034D01*
X100685250Y-87852000D01*
X100842000Y-87695250D01*
X100842000Y-85848000D01*
X101088000Y-85848000D01*
X101088000Y-87695250D01*
X101244750Y-87852000D01*
X102465000Y-87855034D01*
X102587914Y-87842928D01*
X102706104Y-87807076D01*
X102815028Y-87748854D01*
X102910501Y-87670501D01*
X102988854Y-87575028D01*
X103047076Y-87466104D01*
X103082928Y-87347914D01*
X103095034Y-87225000D01*
X103092000Y-86004750D01*
X102935250Y-85848000D01*
X101088000Y-85848000D01*
X100842000Y-85848000D01*
X98994750Y-85848000D01*
X98838000Y-86004750D01*
X98834966Y-87225000D01*
X96482000Y-87225000D01*
X96482000Y-84225000D01*
X98834966Y-84225000D01*
X98838000Y-85445250D01*
X98994750Y-85602000D01*
X100842000Y-85602000D01*
X100842000Y-83754750D01*
X101088000Y-83754750D01*
X101088000Y-85602000D01*
X102935250Y-85602000D01*
X103092000Y-85445250D01*
X103095034Y-84225000D01*
X103082928Y-84102086D01*
X103047076Y-83983896D01*
X102988854Y-83874972D01*
X102910501Y-83779499D01*
X102815028Y-83701146D01*
X102706104Y-83642924D01*
X102587914Y-83607072D01*
X102465000Y-83594966D01*
X101244750Y-83598000D01*
X101088000Y-83754750D01*
X100842000Y-83754750D01*
X100685250Y-83598000D01*
X99465000Y-83594966D01*
X99342086Y-83607072D01*
X99223896Y-83642924D01*
X99114972Y-83701146D01*
X99019499Y-83779499D01*
X98941146Y-83874972D01*
X98882924Y-83983896D01*
X98847072Y-84102086D01*
X98834966Y-84225000D01*
X96482000Y-84225000D01*
X96482000Y-81153000D01*
X110236000Y-81153000D01*
X110260776Y-81150560D01*
X110284601Y-81143333D01*
X110306557Y-81131597D01*
X110307325Y-81130966D01*
X110264467Y-81234435D01*
X110225000Y-81432849D01*
X110225000Y-81635151D01*
X110264467Y-81833565D01*
X110341885Y-82020467D01*
X110454277Y-82188674D01*
X110597326Y-82331723D01*
X110765533Y-82444115D01*
X110952435Y-82521533D01*
X111150849Y-82561000D01*
X111215512Y-82561000D01*
X119850511Y-91196000D01*
X116368935Y-91196000D01*
X116331999Y-91192362D01*
X116295064Y-91196000D01*
X116295062Y-91196000D01*
X116184582Y-91206881D01*
X116042830Y-91249882D01*
X115997353Y-91274190D01*
X115912189Y-91319710D01*
X115826374Y-91390137D01*
X115797683Y-91413683D01*
X115774137Y-91442374D01*
X112270375Y-94946137D01*
X112241684Y-94969683D01*
X112218138Y-94998374D01*
X112218137Y-94998375D01*
X112168548Y-95058799D01*
X112146844Y-95070400D01*
X111975236Y-95211235D01*
X111834401Y-95382843D01*
X111729751Y-95578629D01*
X111665308Y-95791069D01*
X111649001Y-95956635D01*
X111649000Y-99512645D01*
X111643548Y-99568000D01*
X111649000Y-99623354D01*
X111649000Y-99623364D01*
X111665307Y-99788930D01*
X111729750Y-100001370D01*
X111834400Y-100197157D01*
X111975235Y-100368765D01*
X112018242Y-100404060D01*
X113463940Y-101849758D01*
X113499235Y-101892765D01*
X113542240Y-101928058D01*
X113670842Y-102033600D01*
X113775492Y-102089536D01*
X113866629Y-102138250D01*
X114079069Y-102202693D01*
X114244635Y-102219000D01*
X114244645Y-102219000D01*
X114299999Y-102224452D01*
X114355354Y-102219000D01*
X119435365Y-102219000D01*
X119600931Y-102202693D01*
X119813371Y-102138250D01*
X120009157Y-102033600D01*
X120180765Y-101892765D01*
X120321600Y-101721157D01*
X120426250Y-101525371D01*
X120490693Y-101312931D01*
X120512453Y-101092000D01*
X120490693Y-100871069D01*
X120426250Y-100658629D01*
X120392240Y-100595000D01*
X122594003Y-100595000D01*
X122587308Y-100617070D01*
X122565548Y-100838000D01*
X122587308Y-101058930D01*
X122651750Y-101271370D01*
X122756400Y-101467156D01*
X122825000Y-101550746D01*
X122825000Y-101937049D01*
X121988671Y-102773379D01*
X121915121Y-102863000D01*
X114237274Y-102863000D01*
X114049664Y-102881478D01*
X113808949Y-102954498D01*
X113587104Y-103073076D01*
X113392656Y-103232656D01*
X113233076Y-103427104D01*
X113114498Y-103648949D01*
X113041478Y-103889664D01*
X113016822Y-104140000D01*
X113041478Y-104390336D01*
X113114498Y-104631051D01*
X113233076Y-104852896D01*
X113392656Y-105047344D01*
X113587104Y-105206924D01*
X113808949Y-105325502D01*
X114049664Y-105398522D01*
X114237274Y-105417000D01*
X122490726Y-105417000D01*
X122678336Y-105398522D01*
X122919051Y-105325502D01*
X123140896Y-105206924D01*
X123335344Y-105047344D01*
X123494924Y-104852896D01*
X123548557Y-104752555D01*
X123648895Y-104698923D01*
X123794621Y-104579329D01*
X124899329Y-103474622D01*
X125018923Y-103328896D01*
X125137502Y-103107051D01*
X125210522Y-102866336D01*
X125235178Y-102616000D01*
X125210522Y-102365665D01*
X125137502Y-102124949D01*
X125079000Y-102015500D01*
X125079000Y-101147354D01*
X125084452Y-101091999D01*
X125079000Y-101036645D01*
X125079000Y-101036635D01*
X125062693Y-100871069D01*
X124998250Y-100658629D01*
X124964240Y-100595000D01*
X125069151Y-100595000D01*
X125118877Y-100585109D01*
X125169327Y-100580140D01*
X125217838Y-100565424D01*
X125267565Y-100555533D01*
X125314406Y-100536131D01*
X125362917Y-100521415D01*
X125407628Y-100497516D01*
X125454467Y-100478115D01*
X125496619Y-100449950D01*
X125541331Y-100426051D01*
X125580520Y-100393889D01*
X125622674Y-100365723D01*
X125658525Y-100329872D01*
X125697712Y-100297712D01*
X125729872Y-100258525D01*
X125765723Y-100222674D01*
X125793889Y-100180520D01*
X125826051Y-100141331D01*
X125849950Y-100096619D01*
X125878115Y-100054467D01*
X125897516Y-100007628D01*
X125921415Y-99962917D01*
X125936131Y-99914406D01*
X125955533Y-99867565D01*
X125965424Y-99817838D01*
X125980140Y-99769327D01*
X125985109Y-99718877D01*
X125995000Y-99669151D01*
X125995000Y-99618450D01*
X125999969Y-99568000D01*
X125995000Y-99517549D01*
X125995000Y-99466849D01*
X125985109Y-99417123D01*
X125980140Y-99366673D01*
X125965424Y-99318162D01*
X125964424Y-99313135D01*
X125980140Y-99261327D01*
X125999969Y-99060000D01*
X125980140Y-98858673D01*
X125964424Y-98806865D01*
X125965424Y-98801838D01*
X125980140Y-98753327D01*
X125985109Y-98702877D01*
X125995000Y-98653151D01*
X125995000Y-98602451D01*
X125999969Y-98552000D01*
X125995000Y-98501549D01*
X125995000Y-98450849D01*
X125985109Y-98401123D01*
X125980140Y-98350673D01*
X125965424Y-98302162D01*
X125955533Y-98252435D01*
X125936131Y-98205594D01*
X125921415Y-98157083D01*
X125897516Y-98112372D01*
X125878115Y-98065533D01*
X125849948Y-98023378D01*
X125826051Y-97978669D01*
X125793889Y-97939480D01*
X125765723Y-97897326D01*
X125729872Y-97861475D01*
X125697712Y-97822288D01*
X125658525Y-97790128D01*
X125622674Y-97754277D01*
X125580520Y-97726111D01*
X125541331Y-97693949D01*
X125496619Y-97670050D01*
X125454467Y-97641885D01*
X125407628Y-97622484D01*
X125362917Y-97598585D01*
X125314406Y-97583869D01*
X125267565Y-97564467D01*
X125217838Y-97554576D01*
X125169327Y-97539860D01*
X125118877Y-97534891D01*
X125069151Y-97525000D01*
X123910048Y-97525000D01*
X123285469Y-97212711D01*
X123297000Y-97095640D01*
X123297000Y-96530055D01*
X123898865Y-97148639D01*
X123925683Y-97181317D01*
X123978940Y-97225023D01*
X124031623Y-97269481D01*
X124036174Y-97271994D01*
X124040190Y-97275290D01*
X124100964Y-97307774D01*
X124161294Y-97341091D01*
X124166245Y-97342667D01*
X124170830Y-97345118D01*
X124236824Y-97365138D01*
X124302444Y-97386029D01*
X124307603Y-97386609D01*
X124312582Y-97388119D01*
X124381207Y-97394878D01*
X124449649Y-97402567D01*
X124491772Y-97399000D01*
X132805065Y-97399000D01*
X132842000Y-97402638D01*
X132878935Y-97399000D01*
X132878938Y-97399000D01*
X132989418Y-97388119D01*
X133131170Y-97345118D01*
X133261810Y-97275290D01*
X133376317Y-97181317D01*
X133399867Y-97152621D01*
X134296489Y-96256000D01*
X134416032Y-96256000D01*
X134413502Y-96259808D01*
X134378819Y-96310461D01*
X134374323Y-96318776D01*
X134282698Y-96491098D01*
X134259305Y-96547854D01*
X134235144Y-96604226D01*
X134232352Y-96613246D01*
X134232348Y-96613256D01*
X134232346Y-96613266D01*
X134175940Y-96800092D01*
X134164024Y-96860270D01*
X134151264Y-96920302D01*
X134150276Y-96929702D01*
X134131231Y-97123936D01*
X134131231Y-97123943D01*
X134128000Y-97156749D01*
X134128001Y-112223252D01*
X134131328Y-112257032D01*
X134131328Y-112270026D01*
X134132316Y-112279427D01*
X134154071Y-112473376D01*
X134166830Y-112533404D01*
X134178748Y-112593589D01*
X134181543Y-112602619D01*
X134240556Y-112788649D01*
X134264738Y-112845071D01*
X134288110Y-112901775D01*
X134292602Y-112910082D01*
X134292606Y-112910092D01*
X134292612Y-112910100D01*
X134386628Y-113081115D01*
X134421304Y-113131758D01*
X134455249Y-113182850D01*
X134461272Y-113190130D01*
X134461275Y-113190135D01*
X134461279Y-113190139D01*
X134586724Y-113339639D01*
X134630577Y-113382584D01*
X134673802Y-113426112D01*
X134681121Y-113432081D01*
X134681125Y-113432085D01*
X134681127Y-113432086D01*
X134833227Y-113554377D01*
X134884601Y-113587995D01*
X134935438Y-113622285D01*
X134943783Y-113626723D01*
X135116739Y-113717142D01*
X135173632Y-113740129D01*
X135230201Y-113763908D01*
X135239240Y-113766637D01*
X135239245Y-113766639D01*
X135239250Y-113766640D01*
X135426475Y-113821743D01*
X135486748Y-113833241D01*
X135546851Y-113845578D01*
X135556258Y-113846501D01*
X135750620Y-113864190D01*
X135811981Y-113863762D01*
X135873342Y-113864190D01*
X135882738Y-113863268D01*
X135882744Y-113863268D01*
X135882749Y-113863267D01*
X136076846Y-113842866D01*
X136136930Y-113830532D01*
X136197223Y-113819031D01*
X136206272Y-113816299D01*
X136392710Y-113758587D01*
X136449308Y-113734795D01*
X136506167Y-113711823D01*
X136514508Y-113707388D01*
X136514513Y-113707386D01*
X136514517Y-113707383D01*
X136686189Y-113614561D01*
X136737070Y-113580242D01*
X136788405Y-113546649D01*
X136795730Y-113540675D01*
X136946108Y-113416271D01*
X136989347Y-113372728D01*
X137033183Y-113329801D01*
X137039208Y-113322518D01*
X137162558Y-113171276D01*
X137196510Y-113120174D01*
X137231181Y-113069538D01*
X137235677Y-113061224D01*
X137327302Y-112888901D01*
X137350685Y-112832171D01*
X137374856Y-112775774D01*
X137377651Y-112766745D01*
X137377652Y-112766743D01*
X137377653Y-112766736D01*
X137434060Y-112579908D01*
X137445980Y-112519713D01*
X137458736Y-112459699D01*
X137459723Y-112450307D01*
X137459725Y-112450297D01*
X137459725Y-112450288D01*
X137478769Y-112256065D01*
X137478769Y-112256058D01*
X137482000Y-112223252D01*
X137482000Y-101567415D01*
X137520582Y-101579119D01*
X137668000Y-101593638D01*
X137704938Y-101590000D01*
X141031603Y-101590000D01*
X141077326Y-101635723D01*
X141245533Y-101748115D01*
X141432435Y-101825533D01*
X141630849Y-101865000D01*
X141833151Y-101865000D01*
X142031565Y-101825533D01*
X142218467Y-101748115D01*
X142386674Y-101635723D01*
X142529723Y-101492674D01*
X142642115Y-101324467D01*
X142719533Y-101137565D01*
X142759000Y-100939151D01*
X142759000Y-100736849D01*
X142719533Y-100538435D01*
X142642115Y-100351533D01*
X142529723Y-100183326D01*
X142386674Y-100040277D01*
X142218467Y-99927885D01*
X142031565Y-99850467D01*
X141833151Y-99811000D01*
X141630849Y-99811000D01*
X141432435Y-99850467D01*
X141245533Y-99927885D01*
X141077326Y-100040277D01*
X141031603Y-100086000D01*
X138420000Y-100086000D01*
X138420000Y-96810935D01*
X138423638Y-96773999D01*
X138419860Y-96735638D01*
X138409119Y-96626582D01*
X138366118Y-96484830D01*
X138364071Y-96481000D01*
X145831928Y-96481000D01*
X145844188Y-96605482D01*
X145880498Y-96725180D01*
X145939463Y-96835494D01*
X146018815Y-96932185D01*
X146115506Y-97011537D01*
X146225820Y-97070502D01*
X146345518Y-97106812D01*
X146470000Y-97119072D01*
X147034250Y-97116000D01*
X147193000Y-96957250D01*
X147193000Y-95758000D01*
X147447000Y-95758000D01*
X147447000Y-96957250D01*
X147605750Y-97116000D01*
X148170000Y-97119072D01*
X148294482Y-97106812D01*
X148414180Y-97070502D01*
X148524494Y-97011537D01*
X148621185Y-96932185D01*
X148700537Y-96835494D01*
X148759502Y-96725180D01*
X148795812Y-96605482D01*
X148808072Y-96481000D01*
X148806079Y-96114890D01*
X150958524Y-96114890D01*
X151003175Y-96262099D01*
X151128359Y-96524920D01*
X151302412Y-96758269D01*
X151518645Y-96953178D01*
X151768748Y-97102157D01*
X152043109Y-97199481D01*
X152273000Y-97078814D01*
X152273000Y-95885000D01*
X152527000Y-95885000D01*
X152527000Y-97078814D01*
X152756891Y-97199481D01*
X153031252Y-97102157D01*
X153281355Y-96953178D01*
X153497588Y-96758269D01*
X153671641Y-96524920D01*
X153796825Y-96262099D01*
X153841476Y-96114890D01*
X153720155Y-95885000D01*
X152527000Y-95885000D01*
X152273000Y-95885000D01*
X151079845Y-95885000D01*
X150958524Y-96114890D01*
X148806079Y-96114890D01*
X148805000Y-95916750D01*
X148646250Y-95758000D01*
X147447000Y-95758000D01*
X147193000Y-95758000D01*
X145993750Y-95758000D01*
X145835000Y-95916750D01*
X145831928Y-96481000D01*
X138364071Y-96481000D01*
X138316817Y-96392594D01*
X138296290Y-96354189D01*
X138225863Y-96268374D01*
X138202317Y-96239683D01*
X138173626Y-96216137D01*
X137705489Y-95748000D01*
X144235065Y-95748000D01*
X144272000Y-95751638D01*
X144308935Y-95748000D01*
X144308938Y-95748000D01*
X144419418Y-95737119D01*
X144561170Y-95694118D01*
X144691810Y-95624290D01*
X144806317Y-95530317D01*
X144829867Y-95501621D01*
X145031621Y-95299867D01*
X145060317Y-95276317D01*
X145154290Y-95161810D01*
X145224118Y-95031170D01*
X145267119Y-94889418D01*
X145278000Y-94778938D01*
X145278000Y-94778936D01*
X145281638Y-94742001D01*
X145278000Y-94705065D01*
X145278000Y-93537397D01*
X145323723Y-93491674D01*
X145436115Y-93323467D01*
X145513533Y-93136565D01*
X145553000Y-92938151D01*
X145553000Y-92735849D01*
X145513533Y-92537435D01*
X145436115Y-92350533D01*
X145330187Y-92192000D01*
X146144319Y-92192000D01*
X146011099Y-92391378D01*
X145899760Y-92660175D01*
X145843000Y-92945528D01*
X145843000Y-93236472D01*
X145899760Y-93521825D01*
X146011099Y-93790622D01*
X146172739Y-94032533D01*
X146307060Y-94166854D01*
X146225820Y-94191498D01*
X146115506Y-94250463D01*
X146018815Y-94329815D01*
X145939463Y-94426506D01*
X145880498Y-94536820D01*
X145844188Y-94656518D01*
X145831928Y-94781000D01*
X145835000Y-95345250D01*
X145993750Y-95504000D01*
X147193000Y-95504000D01*
X147193000Y-95484000D01*
X147447000Y-95484000D01*
X147447000Y-95504000D01*
X148646250Y-95504000D01*
X148805000Y-95345250D01*
X148808072Y-94781000D01*
X148795812Y-94656518D01*
X148759502Y-94536820D01*
X148700537Y-94426506D01*
X148621185Y-94329815D01*
X148524494Y-94250463D01*
X148414180Y-94191498D01*
X148332940Y-94166854D01*
X148467261Y-94032533D01*
X148628901Y-93790622D01*
X148740240Y-93521825D01*
X148797000Y-93236472D01*
X148797000Y-92945528D01*
X148740240Y-92660175D01*
X148628901Y-92391378D01*
X148495681Y-92192000D01*
X150564512Y-92192000D01*
X151032459Y-92659948D01*
X150979760Y-92787175D01*
X150923000Y-93072528D01*
X150923000Y-93363472D01*
X150979760Y-93648825D01*
X151091099Y-93917622D01*
X151252739Y-94159533D01*
X151458467Y-94365261D01*
X151643147Y-94488660D01*
X151518645Y-94562822D01*
X151302412Y-94757731D01*
X151128359Y-94991080D01*
X151003175Y-95253901D01*
X150958524Y-95401110D01*
X151079845Y-95631000D01*
X152273000Y-95631000D01*
X152273000Y-95611000D01*
X152527000Y-95611000D01*
X152527000Y-95631000D01*
X153720155Y-95631000D01*
X153841476Y-95401110D01*
X153796825Y-95253901D01*
X153671641Y-94991080D01*
X153497588Y-94757731D01*
X153281355Y-94562822D01*
X153156853Y-94488660D01*
X153341533Y-94365261D01*
X153547261Y-94159533D01*
X153708901Y-93917622D01*
X153820240Y-93648825D01*
X153877000Y-93363472D01*
X153877000Y-93072528D01*
X153820240Y-92787175D01*
X153708901Y-92518378D01*
X153547261Y-92276467D01*
X153341533Y-92070739D01*
X153157841Y-91948000D01*
X153341533Y-91825261D01*
X153547261Y-91619533D01*
X153708901Y-91377622D01*
X153820240Y-91108825D01*
X153877000Y-90823472D01*
X153877000Y-90532528D01*
X153820240Y-90247175D01*
X153708901Y-89978378D01*
X153547261Y-89736467D01*
X153341533Y-89530739D01*
X153156853Y-89407340D01*
X153281355Y-89333178D01*
X153497588Y-89138269D01*
X153671641Y-88904920D01*
X153796825Y-88642099D01*
X153841476Y-88494890D01*
X153720155Y-88265000D01*
X152527000Y-88265000D01*
X152527000Y-88285000D01*
X152273000Y-88285000D01*
X152273000Y-88265000D01*
X151079845Y-88265000D01*
X150958524Y-88494890D01*
X151003175Y-88642099D01*
X151128359Y-88904920D01*
X151302412Y-89138269D01*
X151330958Y-89164000D01*
X149144794Y-89164000D01*
X149229261Y-89079533D01*
X149390901Y-88837622D01*
X149502240Y-88568825D01*
X149559000Y-88283472D01*
X149559000Y-87992528D01*
X149502240Y-87707175D01*
X149390901Y-87438378D01*
X149229261Y-87196467D01*
X149088525Y-87055731D01*
X149173103Y-87030075D01*
X149282028Y-86971853D01*
X149377501Y-86893501D01*
X149455853Y-86798028D01*
X149514075Y-86689103D01*
X149549927Y-86570913D01*
X149562033Y-86448000D01*
X149562033Y-84748000D01*
X150919967Y-84748000D01*
X150919967Y-86448000D01*
X150932073Y-86570913D01*
X150967925Y-86689103D01*
X151026147Y-86798028D01*
X151104499Y-86893501D01*
X151199972Y-86971853D01*
X151308897Y-87030075D01*
X151393406Y-87055710D01*
X151302412Y-87137731D01*
X151128359Y-87371080D01*
X151003175Y-87633901D01*
X150958524Y-87781110D01*
X151079845Y-88011000D01*
X152273000Y-88011000D01*
X152273000Y-87991000D01*
X152527000Y-87991000D01*
X152527000Y-88011000D01*
X153720155Y-88011000D01*
X153841476Y-87781110D01*
X153796825Y-87633901D01*
X153671641Y-87371080D01*
X153497588Y-87137731D01*
X153406594Y-87055710D01*
X153491103Y-87030075D01*
X153600028Y-86971853D01*
X153695501Y-86893501D01*
X153773853Y-86798028D01*
X153832075Y-86689103D01*
X153867927Y-86570913D01*
X153880033Y-86448000D01*
X153880033Y-84748000D01*
X153867927Y-84625087D01*
X153832075Y-84506897D01*
X153773853Y-84397972D01*
X153695501Y-84302499D01*
X153600028Y-84224147D01*
X153491103Y-84165925D01*
X153372913Y-84130073D01*
X153250000Y-84117967D01*
X151550000Y-84117967D01*
X151427087Y-84130073D01*
X151308897Y-84165925D01*
X151199972Y-84224147D01*
X151104499Y-84302499D01*
X151026147Y-84397972D01*
X150967925Y-84506897D01*
X150932073Y-84625087D01*
X150919967Y-84748000D01*
X149562033Y-84748000D01*
X149549927Y-84625087D01*
X149514075Y-84506897D01*
X149455853Y-84397972D01*
X149377501Y-84302499D01*
X149282028Y-84224147D01*
X149173103Y-84165925D01*
X149054913Y-84130073D01*
X148932000Y-84117967D01*
X147831522Y-84117967D01*
X148626489Y-83323000D01*
X148691151Y-83323000D01*
X148889565Y-83283533D01*
X149076467Y-83206115D01*
X149244674Y-83093723D01*
X149387723Y-82950674D01*
X149500115Y-82782467D01*
X149577533Y-82595565D01*
X149617000Y-82397151D01*
X149617000Y-82194849D01*
X149577533Y-81996435D01*
X149500115Y-81809533D01*
X149387723Y-81641326D01*
X149244674Y-81498277D01*
X149076467Y-81385885D01*
X148889565Y-81308467D01*
X148691151Y-81269000D01*
X148488849Y-81269000D01*
X148290435Y-81308467D01*
X148103533Y-81385885D01*
X147935326Y-81498277D01*
X147792277Y-81641326D01*
X147679885Y-81809533D01*
X147602467Y-81996435D01*
X147563000Y-82194849D01*
X147563000Y-82259511D01*
X145699182Y-84123329D01*
X145687472Y-84121000D01*
X145396528Y-84121000D01*
X145111175Y-84177760D01*
X144842378Y-84289099D01*
X144600467Y-84450739D01*
X144394739Y-84656467D01*
X144233099Y-84898378D01*
X144121760Y-85167175D01*
X144065000Y-85452528D01*
X144065000Y-85743472D01*
X144121760Y-86028825D01*
X144233099Y-86297622D01*
X144394739Y-86539533D01*
X144600467Y-86745261D01*
X144784159Y-86868000D01*
X144600467Y-86990739D01*
X144394739Y-87196467D01*
X144233099Y-87438378D01*
X144121760Y-87707175D01*
X144065000Y-87992528D01*
X144065000Y-88283472D01*
X144121760Y-88568825D01*
X144233099Y-88837622D01*
X144270690Y-88893881D01*
X144246151Y-88889000D01*
X144043849Y-88889000D01*
X143845435Y-88928467D01*
X143658533Y-89005885D01*
X143490326Y-89118277D01*
X143347277Y-89261326D01*
X143234885Y-89429533D01*
X143157467Y-89616435D01*
X143118000Y-89814849D01*
X143118000Y-90017151D01*
X143157467Y-90215565D01*
X143234885Y-90402467D01*
X143347277Y-90570674D01*
X143464603Y-90688000D01*
X138212935Y-90688000D01*
X138175999Y-90684362D01*
X138139064Y-90688000D01*
X138139062Y-90688000D01*
X138028582Y-90698881D01*
X137886830Y-90741882D01*
X137826017Y-90774387D01*
X137756189Y-90811710D01*
X137738637Y-90826115D01*
X137641683Y-90905683D01*
X137629113Y-90921000D01*
X137566849Y-90921000D01*
X137467500Y-90940762D01*
X137467500Y-87603435D01*
X137471138Y-87566500D01*
X137467500Y-87529562D01*
X137456619Y-87419082D01*
X137413618Y-87277330D01*
X137343790Y-87146690D01*
X137249817Y-87032183D01*
X137221126Y-87008637D01*
X132320367Y-82107879D01*
X132296817Y-82079183D01*
X132182310Y-81985210D01*
X132051670Y-81915382D01*
X131909918Y-81872381D01*
X131799438Y-81861500D01*
X131799435Y-81861500D01*
X131762500Y-81857862D01*
X131725565Y-81861500D01*
X128589397Y-81861500D01*
X128543674Y-81815777D01*
X128375467Y-81703385D01*
X128188565Y-81625967D01*
X127990151Y-81586500D01*
X127787849Y-81586500D01*
X127589435Y-81625967D01*
X127402533Y-81703385D01*
X127234326Y-81815777D01*
X127091277Y-81958826D01*
X126978885Y-82127033D01*
X126901467Y-82313935D01*
X126862000Y-82512349D01*
X126862000Y-82714651D01*
X126901467Y-82913065D01*
X126978885Y-83099967D01*
X127091277Y-83268174D01*
X127234326Y-83411223D01*
X127402533Y-83523615D01*
X127589435Y-83601033D01*
X127787849Y-83640500D01*
X127990151Y-83640500D01*
X128188565Y-83601033D01*
X128375467Y-83523615D01*
X128543674Y-83411223D01*
X128589397Y-83365500D01*
X131451012Y-83365500D01*
X135963501Y-87877990D01*
X135963500Y-92343795D01*
X135960230Y-92368928D01*
X135963500Y-92417682D01*
X135963500Y-92429437D01*
X135965972Y-92454532D01*
X135970143Y-92516726D01*
X135973222Y-92528146D01*
X135974381Y-92539917D01*
X135992477Y-92599571D01*
X136008701Y-92659750D01*
X136013948Y-92670350D01*
X136017382Y-92681669D01*
X136046767Y-92736646D01*
X136074420Y-92792505D01*
X136081634Y-92801877D01*
X136087210Y-92812309D01*
X136126759Y-92860501D01*
X136164775Y-92909888D01*
X136173677Y-92917671D01*
X136181183Y-92926817D01*
X136229394Y-92966382D01*
X136248352Y-92982957D01*
X136257903Y-92989779D01*
X136295690Y-93020790D01*
X136318051Y-93032742D01*
X136598231Y-93232871D01*
X136616967Y-93327065D01*
X136681144Y-93482000D01*
X125095045Y-93482000D01*
X125116115Y-93450467D01*
X125193533Y-93263565D01*
X125233000Y-93065151D01*
X125233000Y-92862849D01*
X125193533Y-92664435D01*
X125116115Y-92477533D01*
X125003723Y-92309326D01*
X124860674Y-92166277D01*
X124692467Y-92053885D01*
X124505565Y-91976467D01*
X124384968Y-91952479D01*
X120152132Y-87719643D01*
X120396000Y-87743662D01*
X120665939Y-87717075D01*
X120765083Y-87687000D01*
X126557184Y-87687000D01*
X126752137Y-87667799D01*
X127002278Y-87591919D01*
X127232808Y-87468698D01*
X127434870Y-87302870D01*
X127600698Y-87100808D01*
X127723919Y-86870278D01*
X127772001Y-86711774D01*
X127772000Y-91657064D01*
X127768362Y-91694000D01*
X127772000Y-91730935D01*
X127772000Y-91730937D01*
X127782881Y-91841417D01*
X127815214Y-91948001D01*
X127825882Y-91983169D01*
X127895710Y-92113810D01*
X127924973Y-92149467D01*
X127989683Y-92228317D01*
X128005000Y-92240887D01*
X128005000Y-92303151D01*
X128044467Y-92501565D01*
X128121885Y-92688467D01*
X128234277Y-92856674D01*
X128377326Y-92999723D01*
X128545533Y-93112115D01*
X128732435Y-93189533D01*
X128930849Y-93229000D01*
X129133151Y-93229000D01*
X129331565Y-93189533D01*
X129518467Y-93112115D01*
X129686674Y-92999723D01*
X129829723Y-92856674D01*
X129942115Y-92688467D01*
X130019533Y-92501565D01*
X130059000Y-92303151D01*
X130059000Y-92100849D01*
X130019533Y-91902435D01*
X129942115Y-91715533D01*
X129829723Y-91547326D01*
X129686674Y-91404277D01*
X129518467Y-91291885D01*
X129331565Y-91214467D01*
X129276000Y-91203414D01*
X129276000Y-86015935D01*
X129279638Y-85979000D01*
X129276000Y-85942062D01*
X129265119Y-85831582D01*
X129222118Y-85689830D01*
X129152290Y-85559190D01*
X129058317Y-85444683D01*
X129029621Y-85421133D01*
X128192867Y-84584379D01*
X128169317Y-84555683D01*
X128054810Y-84461710D01*
X127924170Y-84391882D01*
X127782418Y-84348881D01*
X127671938Y-84338000D01*
X127671935Y-84338000D01*
X127635000Y-84334362D01*
X127598065Y-84338000D01*
X121723489Y-84338000D01*
X121237401Y-83851912D01*
X121263467Y-83841115D01*
X121431674Y-83728723D01*
X121574723Y-83585674D01*
X121687115Y-83417467D01*
X121764533Y-83230565D01*
X121804000Y-83032151D01*
X121804000Y-82829849D01*
X121764533Y-82631435D01*
X121687115Y-82444533D01*
X121574723Y-82276326D01*
X121431674Y-82133277D01*
X121263467Y-82020885D01*
X121076565Y-81943467D01*
X120878151Y-81904000D01*
X120686488Y-81904000D01*
X118608000Y-79825512D01*
X118608000Y-77658000D01*
X127971128Y-77658000D01*
X128002542Y-77976948D01*
X128095575Y-78283638D01*
X128246654Y-78566286D01*
X128449971Y-78814029D01*
X128697714Y-79017346D01*
X128980362Y-79168425D01*
X129287052Y-79261458D01*
X129526075Y-79285000D01*
X132733925Y-79285000D01*
X132972948Y-79261458D01*
X133279638Y-79168425D01*
X133562286Y-79017346D01*
X133810029Y-78814029D01*
X134013346Y-78566286D01*
X134164425Y-78283638D01*
X134257458Y-77976948D01*
X134288872Y-77658000D01*
X134257458Y-77339052D01*
X134164425Y-77032362D01*
X134013346Y-76749714D01*
X133810029Y-76501971D01*
X133562286Y-76298654D01*
X133279638Y-76147575D01*
X132972948Y-76054542D01*
X132733925Y-76031000D01*
X129526075Y-76031000D01*
X129287052Y-76054542D01*
X128980362Y-76147575D01*
X128697714Y-76298654D01*
X128449971Y-76501971D01*
X128246654Y-76749714D01*
X128095575Y-77032362D01*
X128002542Y-77339052D01*
X127971128Y-77658000D01*
X118608000Y-77658000D01*
X118608000Y-75220935D01*
X118611638Y-75184000D01*
X118608000Y-75147062D01*
X118597119Y-75036582D01*
X118554118Y-74894830D01*
X118484290Y-74764190D01*
X118390317Y-74649683D01*
X118361627Y-74626138D01*
X113333867Y-69598379D01*
X113310317Y-69569683D01*
X113195810Y-69475710D01*
X113065170Y-69405882D01*
X112923418Y-69362881D01*
X112812938Y-69352000D01*
X112812935Y-69352000D01*
X112776000Y-69348362D01*
X112739065Y-69352000D01*
X109531489Y-69352000D01*
X109003488Y-68824000D01*
X119949603Y-68824000D01*
X119995326Y-68869723D01*
X120163533Y-68982115D01*
X120350435Y-69059533D01*
X120548849Y-69099000D01*
X120751151Y-69099000D01*
X120949565Y-69059533D01*
X121136467Y-68982115D01*
X121304674Y-68869723D01*
X121350397Y-68824000D01*
X122624512Y-68824000D01*
X123327000Y-69526489D01*
X123327001Y-71689602D01*
X123281277Y-71735326D01*
X123168885Y-71903533D01*
X123091467Y-72090435D01*
X123052000Y-72288849D01*
X123052000Y-72491151D01*
X123091467Y-72689565D01*
X123168885Y-72876467D01*
X123281277Y-73044674D01*
X123424326Y-73187723D01*
X123592533Y-73300115D01*
X123779435Y-73377533D01*
X123977849Y-73417000D01*
X124180151Y-73417000D01*
X124378565Y-73377533D01*
X124565467Y-73300115D01*
X124733674Y-73187723D01*
X124876723Y-73044674D01*
X124989115Y-72876467D01*
X125066533Y-72689565D01*
X125106000Y-72491151D01*
X125106000Y-72288849D01*
X125075597Y-72136000D01*
X137033000Y-72136000D01*
X137033000Y-81280000D01*
X137035440Y-81304776D01*
X137042667Y-81328601D01*
X137054403Y-81350557D01*
X137070197Y-81369803D01*
X137089443Y-81385597D01*
X137111399Y-81397333D01*
X137135224Y-81404560D01*
X137160000Y-81407000D01*
X143256000Y-81407000D01*
X143280776Y-81404560D01*
X143304601Y-81397333D01*
X143326557Y-81385597D01*
X143345803Y-81369803D01*
X143361597Y-81350557D01*
X143373333Y-81328601D01*
X143380560Y-81304776D01*
X143383000Y-81280000D01*
X143383000Y-72136000D01*
X143380560Y-72111224D01*
X143373333Y-72087399D01*
X143361597Y-72065443D01*
X143345803Y-72046197D01*
X143326557Y-72030403D01*
X143304601Y-72018667D01*
X143280776Y-72011440D01*
X143256000Y-72009000D01*
X137160000Y-72009000D01*
X137135224Y-72011440D01*
X137111399Y-72018667D01*
X137089443Y-72030403D01*
X137070197Y-72046197D01*
X137054403Y-72065443D01*
X137042667Y-72087399D01*
X137035440Y-72111224D01*
X137033000Y-72136000D01*
X125075597Y-72136000D01*
X125066533Y-72090435D01*
X124989115Y-71903533D01*
X124876723Y-71735326D01*
X124831000Y-71689603D01*
X124831000Y-69251935D01*
X124834638Y-69214999D01*
X124831000Y-69178062D01*
X124820119Y-69067582D01*
X124777118Y-68925830D01*
X124722689Y-68824000D01*
X124707290Y-68795189D01*
X124636863Y-68709374D01*
X124613317Y-68680683D01*
X124584627Y-68657138D01*
X123898338Y-67970849D01*
X148706000Y-67970849D01*
X148706000Y-68173151D01*
X148745467Y-68371565D01*
X148822885Y-68558467D01*
X148935277Y-68726674D01*
X148981000Y-68772397D01*
X148981001Y-70864102D01*
X148935277Y-70909826D01*
X148822885Y-71078033D01*
X148745467Y-71264935D01*
X148706000Y-71463349D01*
X148706000Y-71665651D01*
X148745467Y-71864065D01*
X148822885Y-72050967D01*
X148935277Y-72219174D01*
X149078326Y-72362223D01*
X149246533Y-72474615D01*
X149433435Y-72552033D01*
X149631849Y-72591500D01*
X149834151Y-72591500D01*
X150032565Y-72552033D01*
X150219467Y-72474615D01*
X150387674Y-72362223D01*
X150530723Y-72219174D01*
X150643115Y-72050967D01*
X150720533Y-71864065D01*
X150760000Y-71665651D01*
X150760000Y-71463349D01*
X150720533Y-71264935D01*
X150643115Y-71078033D01*
X150530723Y-70909826D01*
X150485000Y-70864103D01*
X150485000Y-68772397D01*
X150530723Y-68726674D01*
X150643115Y-68558467D01*
X150720533Y-68371565D01*
X150760000Y-68173151D01*
X150760000Y-67970849D01*
X150720533Y-67772435D01*
X150643115Y-67585533D01*
X150530723Y-67417326D01*
X150387674Y-67274277D01*
X150219467Y-67161885D01*
X150032565Y-67084467D01*
X149834151Y-67045000D01*
X149631849Y-67045000D01*
X149433435Y-67084467D01*
X149246533Y-67161885D01*
X149078326Y-67274277D01*
X148935277Y-67417326D01*
X148822885Y-67585533D01*
X148745467Y-67772435D01*
X148706000Y-67970849D01*
X123898338Y-67970849D01*
X123493867Y-67566379D01*
X123470317Y-67537683D01*
X123355810Y-67443710D01*
X123225170Y-67373882D01*
X123083418Y-67330881D01*
X122972938Y-67320000D01*
X122972935Y-67320000D01*
X122936000Y-67316362D01*
X122899065Y-67320000D01*
X121350397Y-67320000D01*
X121304674Y-67274277D01*
X121136467Y-67161885D01*
X120949565Y-67084467D01*
X120751151Y-67045000D01*
X120548849Y-67045000D01*
X120350435Y-67084467D01*
X120163533Y-67161885D01*
X119995326Y-67274277D01*
X119949603Y-67320000D01*
X103632000Y-67320000D01*
X103632000Y-65883412D01*
X103741407Y-65956515D01*
X103943342Y-66040159D01*
X104157714Y-66082800D01*
X104376286Y-66082800D01*
X104590658Y-66040159D01*
X104792593Y-65956515D01*
X104974329Y-65835083D01*
X105128883Y-65680529D01*
X105250315Y-65498793D01*
X105333959Y-65296858D01*
X105376600Y-65082486D01*
X105376600Y-64863914D01*
X105697400Y-64863914D01*
X105697400Y-65082486D01*
X105740041Y-65296858D01*
X105823685Y-65498793D01*
X105945117Y-65680529D01*
X106099671Y-65835083D01*
X106281407Y-65956515D01*
X106483342Y-66040159D01*
X106697714Y-66082800D01*
X106916286Y-66082800D01*
X107130658Y-66040159D01*
X107332593Y-65956515D01*
X107514329Y-65835083D01*
X107668883Y-65680529D01*
X107790315Y-65498793D01*
X107873959Y-65296858D01*
X107916600Y-65082486D01*
X107916600Y-64863914D01*
X108237400Y-64863914D01*
X108237400Y-65082486D01*
X108280041Y-65296858D01*
X108363685Y-65498793D01*
X108485117Y-65680529D01*
X108639671Y-65835083D01*
X108821407Y-65956515D01*
X109023342Y-66040159D01*
X109237714Y-66082800D01*
X109456286Y-66082800D01*
X109670658Y-66040159D01*
X109872593Y-65956515D01*
X110054329Y-65835083D01*
X110208883Y-65680529D01*
X110330315Y-65498793D01*
X110413959Y-65296858D01*
X110456600Y-65082486D01*
X110456600Y-64863914D01*
X110777400Y-64863914D01*
X110777400Y-65082486D01*
X110820041Y-65296858D01*
X110903685Y-65498793D01*
X111025117Y-65680529D01*
X111179671Y-65835083D01*
X111361407Y-65956515D01*
X111563342Y-66040159D01*
X111777714Y-66082800D01*
X111996286Y-66082800D01*
X112210658Y-66040159D01*
X112412593Y-65956515D01*
X112594329Y-65835083D01*
X112748883Y-65680529D01*
X112870315Y-65498793D01*
X112953959Y-65296858D01*
X112996600Y-65082486D01*
X112996600Y-64863914D01*
X113317400Y-64863914D01*
X113317400Y-65082486D01*
X113360041Y-65296858D01*
X113443685Y-65498793D01*
X113565117Y-65680529D01*
X113719671Y-65835083D01*
X113901407Y-65956515D01*
X114103342Y-66040159D01*
X114317714Y-66082800D01*
X114536286Y-66082800D01*
X114750658Y-66040159D01*
X114952593Y-65956515D01*
X115134329Y-65835083D01*
X115288883Y-65680529D01*
X115410315Y-65498793D01*
X115493959Y-65296858D01*
X115536600Y-65082486D01*
X115536600Y-64863914D01*
X115857400Y-64863914D01*
X115857400Y-65082486D01*
X115900041Y-65296858D01*
X115983685Y-65498793D01*
X116105117Y-65680529D01*
X116259671Y-65835083D01*
X116441407Y-65956515D01*
X116643342Y-66040159D01*
X116857714Y-66082800D01*
X117076286Y-66082800D01*
X117290658Y-66040159D01*
X117492593Y-65956515D01*
X117674329Y-65835083D01*
X117828883Y-65680529D01*
X117950315Y-65498793D01*
X118033959Y-65296858D01*
X118076600Y-65082486D01*
X118076600Y-64863914D01*
X118397400Y-64863914D01*
X118397400Y-65082486D01*
X118440041Y-65296858D01*
X118523685Y-65498793D01*
X118645117Y-65680529D01*
X118799671Y-65835083D01*
X118981407Y-65956515D01*
X119183342Y-66040159D01*
X119397714Y-66082800D01*
X119616286Y-66082800D01*
X119830658Y-66040159D01*
X120032593Y-65956515D01*
X120214329Y-65835083D01*
X120368883Y-65680529D01*
X120490315Y-65498793D01*
X120573959Y-65296858D01*
X120616600Y-65082486D01*
X120616600Y-64863914D01*
X120937400Y-64863914D01*
X120937400Y-65082486D01*
X120980041Y-65296858D01*
X121063685Y-65498793D01*
X121185117Y-65680529D01*
X121339671Y-65835083D01*
X121521407Y-65956515D01*
X121723342Y-66040159D01*
X121937714Y-66082800D01*
X122156286Y-66082800D01*
X122370658Y-66040159D01*
X122572593Y-65956515D01*
X122754329Y-65835083D01*
X122908883Y-65680529D01*
X123030315Y-65498793D01*
X123113959Y-65296858D01*
X123156600Y-65082486D01*
X123156600Y-64863914D01*
X123477400Y-64863914D01*
X123477400Y-65082486D01*
X123520041Y-65296858D01*
X123603685Y-65498793D01*
X123725117Y-65680529D01*
X123879671Y-65835083D01*
X124061407Y-65956515D01*
X124263342Y-66040159D01*
X124477714Y-66082800D01*
X124696286Y-66082800D01*
X124910658Y-66040159D01*
X125112593Y-65956515D01*
X125294329Y-65835083D01*
X125448883Y-65680529D01*
X125570315Y-65498793D01*
X125653959Y-65296858D01*
X125696600Y-65082486D01*
X125696600Y-64863914D01*
X126017400Y-64863914D01*
X126017400Y-65082486D01*
X126060041Y-65296858D01*
X126143685Y-65498793D01*
X126265117Y-65680529D01*
X126419671Y-65835083D01*
X126601407Y-65956515D01*
X126803342Y-66040159D01*
X127017714Y-66082800D01*
X127236286Y-66082800D01*
X127450658Y-66040159D01*
X127652593Y-65956515D01*
X127834329Y-65835083D01*
X127988883Y-65680529D01*
X128110315Y-65498793D01*
X128193959Y-65296858D01*
X128236600Y-65082486D01*
X128236600Y-64863914D01*
X128557400Y-64863914D01*
X128557400Y-65082486D01*
X128600041Y-65296858D01*
X128683685Y-65498793D01*
X128805117Y-65680529D01*
X128959671Y-65835083D01*
X129141407Y-65956515D01*
X129343342Y-66040159D01*
X129557714Y-66082800D01*
X129776286Y-66082800D01*
X129990658Y-66040159D01*
X130192593Y-65956515D01*
X130374329Y-65835083D01*
X130528883Y-65680529D01*
X130650315Y-65498793D01*
X130733959Y-65296858D01*
X130776600Y-65082486D01*
X130776600Y-64863914D01*
X131097400Y-64863914D01*
X131097400Y-65082486D01*
X131140041Y-65296858D01*
X131223685Y-65498793D01*
X131345117Y-65680529D01*
X131499671Y-65835083D01*
X131681407Y-65956515D01*
X131883342Y-66040159D01*
X132097714Y-66082800D01*
X132316286Y-66082800D01*
X132530658Y-66040159D01*
X132732593Y-65956515D01*
X132914329Y-65835083D01*
X133068883Y-65680529D01*
X133190315Y-65498793D01*
X133273959Y-65296858D01*
X133316600Y-65082486D01*
X133316600Y-64863914D01*
X133637400Y-64863914D01*
X133637400Y-65082486D01*
X133680041Y-65296858D01*
X133763685Y-65498793D01*
X133885117Y-65680529D01*
X134039671Y-65835083D01*
X134221407Y-65956515D01*
X134423342Y-66040159D01*
X134637714Y-66082800D01*
X134856286Y-66082800D01*
X135070658Y-66040159D01*
X135272593Y-65956515D01*
X135454329Y-65835083D01*
X135608883Y-65680529D01*
X135730315Y-65498793D01*
X135813959Y-65296858D01*
X135856600Y-65082486D01*
X135856600Y-64863914D01*
X136177400Y-64863914D01*
X136177400Y-65082486D01*
X136220041Y-65296858D01*
X136303685Y-65498793D01*
X136425117Y-65680529D01*
X136579671Y-65835083D01*
X136761407Y-65956515D01*
X136963342Y-66040159D01*
X137177714Y-66082800D01*
X137396286Y-66082800D01*
X137610658Y-66040159D01*
X137812593Y-65956515D01*
X137994329Y-65835083D01*
X138148883Y-65680529D01*
X138270315Y-65498793D01*
X138353959Y-65296858D01*
X138396600Y-65082486D01*
X138396600Y-64863914D01*
X138717400Y-64863914D01*
X138717400Y-65082486D01*
X138760041Y-65296858D01*
X138843685Y-65498793D01*
X138965117Y-65680529D01*
X139119671Y-65835083D01*
X139301407Y-65956515D01*
X139503342Y-66040159D01*
X139717714Y-66082800D01*
X139936286Y-66082800D01*
X140150658Y-66040159D01*
X140352593Y-65956515D01*
X140534329Y-65835083D01*
X140688883Y-65680529D01*
X140810315Y-65498793D01*
X140893959Y-65296858D01*
X140936600Y-65082486D01*
X140936600Y-64863914D01*
X141257400Y-64863914D01*
X141257400Y-65082486D01*
X141300041Y-65296858D01*
X141383685Y-65498793D01*
X141505117Y-65680529D01*
X141659671Y-65835083D01*
X141841407Y-65956515D01*
X142043342Y-66040159D01*
X142257714Y-66082800D01*
X142476286Y-66082800D01*
X142690658Y-66040159D01*
X142892593Y-65956515D01*
X143074329Y-65835083D01*
X143228883Y-65680529D01*
X143350315Y-65498793D01*
X143433959Y-65296858D01*
X143476600Y-65082486D01*
X143476600Y-64863914D01*
X143433959Y-64649542D01*
X143350315Y-64447607D01*
X143228883Y-64265871D01*
X143074329Y-64111317D01*
X142892593Y-63989885D01*
X142690658Y-63906241D01*
X142476286Y-63863600D01*
X142257714Y-63863600D01*
X142043342Y-63906241D01*
X141841407Y-63989885D01*
X141659671Y-64111317D01*
X141505117Y-64265871D01*
X141383685Y-64447607D01*
X141300041Y-64649542D01*
X141257400Y-64863914D01*
X140936600Y-64863914D01*
X140893959Y-64649542D01*
X140810315Y-64447607D01*
X140688883Y-64265871D01*
X140534329Y-64111317D01*
X140352593Y-63989885D01*
X140150658Y-63906241D01*
X139936286Y-63863600D01*
X139717714Y-63863600D01*
X139503342Y-63906241D01*
X139301407Y-63989885D01*
X139119671Y-64111317D01*
X138965117Y-64265871D01*
X138843685Y-64447607D01*
X138760041Y-64649542D01*
X138717400Y-64863914D01*
X138396600Y-64863914D01*
X138353959Y-64649542D01*
X138270315Y-64447607D01*
X138148883Y-64265871D01*
X137994329Y-64111317D01*
X137812593Y-63989885D01*
X137610658Y-63906241D01*
X137396286Y-63863600D01*
X137177714Y-63863600D01*
X136963342Y-63906241D01*
X136761407Y-63989885D01*
X136579671Y-64111317D01*
X136425117Y-64265871D01*
X136303685Y-64447607D01*
X136220041Y-64649542D01*
X136177400Y-64863914D01*
X135856600Y-64863914D01*
X135813959Y-64649542D01*
X135730315Y-64447607D01*
X135608883Y-64265871D01*
X135454329Y-64111317D01*
X135272593Y-63989885D01*
X135070658Y-63906241D01*
X134856286Y-63863600D01*
X134637714Y-63863600D01*
X134423342Y-63906241D01*
X134221407Y-63989885D01*
X134039671Y-64111317D01*
X133885117Y-64265871D01*
X133763685Y-64447607D01*
X133680041Y-64649542D01*
X133637400Y-64863914D01*
X133316600Y-64863914D01*
X133273959Y-64649542D01*
X133190315Y-64447607D01*
X133068883Y-64265871D01*
X132914329Y-64111317D01*
X132732593Y-63989885D01*
X132530658Y-63906241D01*
X132316286Y-63863600D01*
X132097714Y-63863600D01*
X131883342Y-63906241D01*
X131681407Y-63989885D01*
X131499671Y-64111317D01*
X131345117Y-64265871D01*
X131223685Y-64447607D01*
X131140041Y-64649542D01*
X131097400Y-64863914D01*
X130776600Y-64863914D01*
X130733959Y-64649542D01*
X130650315Y-64447607D01*
X130528883Y-64265871D01*
X130374329Y-64111317D01*
X130192593Y-63989885D01*
X129990658Y-63906241D01*
X129776286Y-63863600D01*
X129557714Y-63863600D01*
X129343342Y-63906241D01*
X129141407Y-63989885D01*
X128959671Y-64111317D01*
X128805117Y-64265871D01*
X128683685Y-64447607D01*
X128600041Y-64649542D01*
X128557400Y-64863914D01*
X128236600Y-64863914D01*
X128193959Y-64649542D01*
X128110315Y-64447607D01*
X127988883Y-64265871D01*
X127834329Y-64111317D01*
X127652593Y-63989885D01*
X127450658Y-63906241D01*
X127236286Y-63863600D01*
X127017714Y-63863600D01*
X126803342Y-63906241D01*
X126601407Y-63989885D01*
X126419671Y-64111317D01*
X126265117Y-64265871D01*
X126143685Y-64447607D01*
X126060041Y-64649542D01*
X126017400Y-64863914D01*
X125696600Y-64863914D01*
X125653959Y-64649542D01*
X125570315Y-64447607D01*
X125448883Y-64265871D01*
X125294329Y-64111317D01*
X125112593Y-63989885D01*
X124910658Y-63906241D01*
X124696286Y-63863600D01*
X124477714Y-63863600D01*
X124263342Y-63906241D01*
X124061407Y-63989885D01*
X123879671Y-64111317D01*
X123725117Y-64265871D01*
X123603685Y-64447607D01*
X123520041Y-64649542D01*
X123477400Y-64863914D01*
X123156600Y-64863914D01*
X123113959Y-64649542D01*
X123030315Y-64447607D01*
X122908883Y-64265871D01*
X122754329Y-64111317D01*
X122572593Y-63989885D01*
X122370658Y-63906241D01*
X122156286Y-63863600D01*
X121937714Y-63863600D01*
X121723342Y-63906241D01*
X121521407Y-63989885D01*
X121339671Y-64111317D01*
X121185117Y-64265871D01*
X121063685Y-64447607D01*
X120980041Y-64649542D01*
X120937400Y-64863914D01*
X120616600Y-64863914D01*
X120573959Y-64649542D01*
X120490315Y-64447607D01*
X120368883Y-64265871D01*
X120214329Y-64111317D01*
X120032593Y-63989885D01*
X119830658Y-63906241D01*
X119616286Y-63863600D01*
X119397714Y-63863600D01*
X119183342Y-63906241D01*
X118981407Y-63989885D01*
X118799671Y-64111317D01*
X118645117Y-64265871D01*
X118523685Y-64447607D01*
X118440041Y-64649542D01*
X118397400Y-64863914D01*
X118076600Y-64863914D01*
X118033959Y-64649542D01*
X117950315Y-64447607D01*
X117828883Y-64265871D01*
X117674329Y-64111317D01*
X117492593Y-63989885D01*
X117290658Y-63906241D01*
X117076286Y-63863600D01*
X116857714Y-63863600D01*
X116643342Y-63906241D01*
X116441407Y-63989885D01*
X116259671Y-64111317D01*
X116105117Y-64265871D01*
X115983685Y-64447607D01*
X115900041Y-64649542D01*
X115857400Y-64863914D01*
X115536600Y-64863914D01*
X115493959Y-64649542D01*
X115410315Y-64447607D01*
X115288883Y-64265871D01*
X115134329Y-64111317D01*
X114952593Y-63989885D01*
X114750658Y-63906241D01*
X114536286Y-63863600D01*
X114317714Y-63863600D01*
X114103342Y-63906241D01*
X113901407Y-63989885D01*
X113719671Y-64111317D01*
X113565117Y-64265871D01*
X113443685Y-64447607D01*
X113360041Y-64649542D01*
X113317400Y-64863914D01*
X112996600Y-64863914D01*
X112953959Y-64649542D01*
X112870315Y-64447607D01*
X112748883Y-64265871D01*
X112594329Y-64111317D01*
X112412593Y-63989885D01*
X112210658Y-63906241D01*
X111996286Y-63863600D01*
X111777714Y-63863600D01*
X111563342Y-63906241D01*
X111361407Y-63989885D01*
X111179671Y-64111317D01*
X111025117Y-64265871D01*
X110903685Y-64447607D01*
X110820041Y-64649542D01*
X110777400Y-64863914D01*
X110456600Y-64863914D01*
X110413959Y-64649542D01*
X110330315Y-64447607D01*
X110208883Y-64265871D01*
X110054329Y-64111317D01*
X109872593Y-63989885D01*
X109670658Y-63906241D01*
X109456286Y-63863600D01*
X109237714Y-63863600D01*
X109023342Y-63906241D01*
X108821407Y-63989885D01*
X108639671Y-64111317D01*
X108485117Y-64265871D01*
X108363685Y-64447607D01*
X108280041Y-64649542D01*
X108237400Y-64863914D01*
X107916600Y-64863914D01*
X107873959Y-64649542D01*
X107790315Y-64447607D01*
X107668883Y-64265871D01*
X107514329Y-64111317D01*
X107332593Y-63989885D01*
X107130658Y-63906241D01*
X106916286Y-63863600D01*
X106697714Y-63863600D01*
X106483342Y-63906241D01*
X106281407Y-63989885D01*
X106099671Y-64111317D01*
X105945117Y-64265871D01*
X105823685Y-64447607D01*
X105740041Y-64649542D01*
X105697400Y-64863914D01*
X105376600Y-64863914D01*
X105333959Y-64649542D01*
X105250315Y-64447607D01*
X105128883Y-64265871D01*
X104974329Y-64111317D01*
X104792593Y-63989885D01*
X104590658Y-63906241D01*
X104376286Y-63863600D01*
X104157714Y-63863600D01*
X103943342Y-63906241D01*
X103741407Y-63989885D01*
X103632000Y-64062988D01*
X103632000Y-63343412D01*
X103741407Y-63416515D01*
X103943342Y-63500159D01*
X104157714Y-63542800D01*
X104376286Y-63542800D01*
X104590658Y-63500159D01*
X104792593Y-63416515D01*
X104974329Y-63295083D01*
X105128883Y-63140529D01*
X105250315Y-62958793D01*
X105333959Y-62756858D01*
X105376600Y-62542486D01*
X105376600Y-62323914D01*
X105697400Y-62323914D01*
X105697400Y-62542486D01*
X105740041Y-62756858D01*
X105823685Y-62958793D01*
X105945117Y-63140529D01*
X106099671Y-63295083D01*
X106281407Y-63416515D01*
X106483342Y-63500159D01*
X106697714Y-63542800D01*
X106916286Y-63542800D01*
X107130658Y-63500159D01*
X107332593Y-63416515D01*
X107514329Y-63295083D01*
X107668883Y-63140529D01*
X107790315Y-62958793D01*
X107873959Y-62756858D01*
X107916600Y-62542486D01*
X107916600Y-62323914D01*
X108237400Y-62323914D01*
X108237400Y-62542486D01*
X108280041Y-62756858D01*
X108363685Y-62958793D01*
X108485117Y-63140529D01*
X108639671Y-63295083D01*
X108821407Y-63416515D01*
X109023342Y-63500159D01*
X109237714Y-63542800D01*
X109456286Y-63542800D01*
X109670658Y-63500159D01*
X109872593Y-63416515D01*
X110054329Y-63295083D01*
X110208883Y-63140529D01*
X110330315Y-62958793D01*
X110413959Y-62756858D01*
X110456600Y-62542486D01*
X110456600Y-62323914D01*
X110777400Y-62323914D01*
X110777400Y-62542486D01*
X110820041Y-62756858D01*
X110903685Y-62958793D01*
X111025117Y-63140529D01*
X111179671Y-63295083D01*
X111361407Y-63416515D01*
X111563342Y-63500159D01*
X111777714Y-63542800D01*
X111996286Y-63542800D01*
X112210658Y-63500159D01*
X112412593Y-63416515D01*
X112594329Y-63295083D01*
X112748883Y-63140529D01*
X112870315Y-62958793D01*
X112953959Y-62756858D01*
X112996600Y-62542486D01*
X112996600Y-62323914D01*
X113317400Y-62323914D01*
X113317400Y-62542486D01*
X113360041Y-62756858D01*
X113443685Y-62958793D01*
X113565117Y-63140529D01*
X113719671Y-63295083D01*
X113901407Y-63416515D01*
X114103342Y-63500159D01*
X114317714Y-63542800D01*
X114536286Y-63542800D01*
X114750658Y-63500159D01*
X114952593Y-63416515D01*
X115134329Y-63295083D01*
X115288883Y-63140529D01*
X115410315Y-62958793D01*
X115493959Y-62756858D01*
X115536600Y-62542486D01*
X115536600Y-62323914D01*
X115857400Y-62323914D01*
X115857400Y-62542486D01*
X115900041Y-62756858D01*
X115983685Y-62958793D01*
X116105117Y-63140529D01*
X116259671Y-63295083D01*
X116441407Y-63416515D01*
X116643342Y-63500159D01*
X116857714Y-63542800D01*
X117076286Y-63542800D01*
X117290658Y-63500159D01*
X117492593Y-63416515D01*
X117674329Y-63295083D01*
X117828883Y-63140529D01*
X117950315Y-62958793D01*
X118033959Y-62756858D01*
X118076600Y-62542486D01*
X118076600Y-62323914D01*
X118397400Y-62323914D01*
X118397400Y-62542486D01*
X118440041Y-62756858D01*
X118523685Y-62958793D01*
X118645117Y-63140529D01*
X118799671Y-63295083D01*
X118981407Y-63416515D01*
X119183342Y-63500159D01*
X119397714Y-63542800D01*
X119616286Y-63542800D01*
X119830658Y-63500159D01*
X120032593Y-63416515D01*
X120214329Y-63295083D01*
X120368883Y-63140529D01*
X120490315Y-62958793D01*
X120573959Y-62756858D01*
X120616600Y-62542486D01*
X120616600Y-62323914D01*
X120937400Y-62323914D01*
X120937400Y-62542486D01*
X120980041Y-62756858D01*
X121063685Y-62958793D01*
X121185117Y-63140529D01*
X121339671Y-63295083D01*
X121521407Y-63416515D01*
X121723342Y-63500159D01*
X121937714Y-63542800D01*
X122156286Y-63542800D01*
X122370658Y-63500159D01*
X122572593Y-63416515D01*
X122754329Y-63295083D01*
X122908883Y-63140529D01*
X123030315Y-62958793D01*
X123113959Y-62756858D01*
X123156600Y-62542486D01*
X123156600Y-62323914D01*
X123477400Y-62323914D01*
X123477400Y-62542486D01*
X123520041Y-62756858D01*
X123603685Y-62958793D01*
X123725117Y-63140529D01*
X123879671Y-63295083D01*
X124061407Y-63416515D01*
X124263342Y-63500159D01*
X124477714Y-63542800D01*
X124696286Y-63542800D01*
X124910658Y-63500159D01*
X125112593Y-63416515D01*
X125294329Y-63295083D01*
X125448883Y-63140529D01*
X125570315Y-62958793D01*
X125653959Y-62756858D01*
X125696600Y-62542486D01*
X125696600Y-62323914D01*
X126017400Y-62323914D01*
X126017400Y-62542486D01*
X126060041Y-62756858D01*
X126143685Y-62958793D01*
X126265117Y-63140529D01*
X126419671Y-63295083D01*
X126601407Y-63416515D01*
X126803342Y-63500159D01*
X127017714Y-63542800D01*
X127236286Y-63542800D01*
X127450658Y-63500159D01*
X127652593Y-63416515D01*
X127834329Y-63295083D01*
X127988883Y-63140529D01*
X128110315Y-62958793D01*
X128193959Y-62756858D01*
X128236600Y-62542486D01*
X128236600Y-62323914D01*
X128557400Y-62323914D01*
X128557400Y-62542486D01*
X128600041Y-62756858D01*
X128683685Y-62958793D01*
X128805117Y-63140529D01*
X128959671Y-63295083D01*
X129141407Y-63416515D01*
X129343342Y-63500159D01*
X129557714Y-63542800D01*
X129776286Y-63542800D01*
X129990658Y-63500159D01*
X130192593Y-63416515D01*
X130374329Y-63295083D01*
X130528883Y-63140529D01*
X130650315Y-62958793D01*
X130733959Y-62756858D01*
X130776600Y-62542486D01*
X130776600Y-62323914D01*
X131097400Y-62323914D01*
X131097400Y-62542486D01*
X131140041Y-62756858D01*
X131223685Y-62958793D01*
X131345117Y-63140529D01*
X131499671Y-63295083D01*
X131681407Y-63416515D01*
X131883342Y-63500159D01*
X132097714Y-63542800D01*
X132316286Y-63542800D01*
X132530658Y-63500159D01*
X132732593Y-63416515D01*
X132914329Y-63295083D01*
X133068883Y-63140529D01*
X133190315Y-62958793D01*
X133273959Y-62756858D01*
X133316600Y-62542486D01*
X133316600Y-62323914D01*
X133637400Y-62323914D01*
X133637400Y-62542486D01*
X133680041Y-62756858D01*
X133763685Y-62958793D01*
X133885117Y-63140529D01*
X134039671Y-63295083D01*
X134221407Y-63416515D01*
X134423342Y-63500159D01*
X134637714Y-63542800D01*
X134856286Y-63542800D01*
X135070658Y-63500159D01*
X135272593Y-63416515D01*
X135454329Y-63295083D01*
X135608883Y-63140529D01*
X135730315Y-62958793D01*
X135813959Y-62756858D01*
X135856600Y-62542486D01*
X135856600Y-62323914D01*
X136177400Y-62323914D01*
X136177400Y-62542486D01*
X136220041Y-62756858D01*
X136303685Y-62958793D01*
X136425117Y-63140529D01*
X136579671Y-63295083D01*
X136761407Y-63416515D01*
X136963342Y-63500159D01*
X137177714Y-63542800D01*
X137396286Y-63542800D01*
X137610658Y-63500159D01*
X137812593Y-63416515D01*
X137994329Y-63295083D01*
X138148883Y-63140529D01*
X138270315Y-62958793D01*
X138353959Y-62756858D01*
X138396600Y-62542486D01*
X138396600Y-62323914D01*
X138717400Y-62323914D01*
X138717400Y-62542486D01*
X138760041Y-62756858D01*
X138843685Y-62958793D01*
X138965117Y-63140529D01*
X139119671Y-63295083D01*
X139301407Y-63416515D01*
X139503342Y-63500159D01*
X139717714Y-63542800D01*
X139936286Y-63542800D01*
X140150658Y-63500159D01*
X140352593Y-63416515D01*
X140534329Y-63295083D01*
X140688883Y-63140529D01*
X140810315Y-62958793D01*
X140893959Y-62756858D01*
X140936600Y-62542486D01*
X140936600Y-62323914D01*
X141257400Y-62323914D01*
X141257400Y-62542486D01*
X141300041Y-62756858D01*
X141383685Y-62958793D01*
X141505117Y-63140529D01*
X141659671Y-63295083D01*
X141841407Y-63416515D01*
X142043342Y-63500159D01*
X142257714Y-63542800D01*
X142476286Y-63542800D01*
X142690658Y-63500159D01*
X142892593Y-63416515D01*
X143074329Y-63295083D01*
X143228883Y-63140529D01*
X143350315Y-62958793D01*
X143433959Y-62756858D01*
X143476600Y-62542486D01*
X143476600Y-62323914D01*
X143797400Y-62323914D01*
X143797400Y-62542486D01*
X143840041Y-62756858D01*
X143923685Y-62958793D01*
X144045117Y-63140529D01*
X144199671Y-63295083D01*
X144381407Y-63416515D01*
X144583342Y-63500159D01*
X144668325Y-63517063D01*
X144661000Y-63553887D01*
X144661000Y-63852513D01*
X144668325Y-63889337D01*
X144583342Y-63906241D01*
X144381407Y-63989885D01*
X144199671Y-64111317D01*
X144045117Y-64265871D01*
X143923685Y-64447607D01*
X143840041Y-64649542D01*
X143797400Y-64863914D01*
X143797400Y-65082486D01*
X143840041Y-65296858D01*
X143923685Y-65498793D01*
X144045117Y-65680529D01*
X144199671Y-65835083D01*
X144381407Y-65956515D01*
X144583342Y-66040159D01*
X144797714Y-66082800D01*
X145016286Y-66082800D01*
X145230658Y-66040159D01*
X145432593Y-65956515D01*
X145614329Y-65835083D01*
X145768883Y-65680529D01*
X145890315Y-65498793D01*
X145973959Y-65296858D01*
X145990863Y-65211875D01*
X146027687Y-65219200D01*
X146326313Y-65219200D01*
X146363137Y-65211875D01*
X146380041Y-65296858D01*
X146463685Y-65498793D01*
X146585117Y-65680529D01*
X146739671Y-65835083D01*
X146921407Y-65956515D01*
X147123342Y-66040159D01*
X147337714Y-66082800D01*
X147556286Y-66082800D01*
X147770658Y-66040159D01*
X147972593Y-65956515D01*
X148154329Y-65835083D01*
X148308883Y-65680529D01*
X148430315Y-65498793D01*
X148513959Y-65296858D01*
X148556600Y-65082486D01*
X148556600Y-64863914D01*
X148513959Y-64649542D01*
X148430315Y-64447607D01*
X148308883Y-64265871D01*
X148154329Y-64111317D01*
X147972593Y-63989885D01*
X147770658Y-63906241D01*
X147685675Y-63889337D01*
X147693000Y-63852513D01*
X147693000Y-63553887D01*
X147685675Y-63517063D01*
X147770658Y-63500159D01*
X147972593Y-63416515D01*
X148154329Y-63295083D01*
X148308883Y-63140529D01*
X148430315Y-62958793D01*
X148513959Y-62756858D01*
X148556600Y-62542486D01*
X148556600Y-62323914D01*
X148513959Y-62109542D01*
X148430315Y-61907607D01*
X148308883Y-61725871D01*
X148154329Y-61571317D01*
X147972593Y-61449885D01*
X147770658Y-61366241D01*
X147556286Y-61323600D01*
X147337714Y-61323600D01*
X147123342Y-61366241D01*
X146921407Y-61449885D01*
X146739671Y-61571317D01*
X146585117Y-61725871D01*
X146463685Y-61907607D01*
X146380041Y-62109542D01*
X146363137Y-62194525D01*
X146326313Y-62187200D01*
X146027687Y-62187200D01*
X145990863Y-62194525D01*
X145973959Y-62109542D01*
X145890315Y-61907607D01*
X145768883Y-61725871D01*
X145614329Y-61571317D01*
X145432593Y-61449885D01*
X145230658Y-61366241D01*
X145016286Y-61323600D01*
X144797714Y-61323600D01*
X144583342Y-61366241D01*
X144381407Y-61449885D01*
X144199671Y-61571317D01*
X144045117Y-61725871D01*
X143923685Y-61907607D01*
X143840041Y-62109542D01*
X143797400Y-62323914D01*
X143476600Y-62323914D01*
X143433959Y-62109542D01*
X143350315Y-61907607D01*
X143228883Y-61725871D01*
X143074329Y-61571317D01*
X142892593Y-61449885D01*
X142690658Y-61366241D01*
X142476286Y-61323600D01*
X142257714Y-61323600D01*
X142043342Y-61366241D01*
X141841407Y-61449885D01*
X141659671Y-61571317D01*
X141505117Y-61725871D01*
X141383685Y-61907607D01*
X141300041Y-62109542D01*
X141257400Y-62323914D01*
X140936600Y-62323914D01*
X140893959Y-62109542D01*
X140810315Y-61907607D01*
X140688883Y-61725871D01*
X140534329Y-61571317D01*
X140352593Y-61449885D01*
X140150658Y-61366241D01*
X139936286Y-61323600D01*
X139717714Y-61323600D01*
X139503342Y-61366241D01*
X139301407Y-61449885D01*
X139119671Y-61571317D01*
X138965117Y-61725871D01*
X138843685Y-61907607D01*
X138760041Y-62109542D01*
X138717400Y-62323914D01*
X138396600Y-62323914D01*
X138353959Y-62109542D01*
X138270315Y-61907607D01*
X138148883Y-61725871D01*
X137994329Y-61571317D01*
X137812593Y-61449885D01*
X137610658Y-61366241D01*
X137396286Y-61323600D01*
X137177714Y-61323600D01*
X136963342Y-61366241D01*
X136761407Y-61449885D01*
X136579671Y-61571317D01*
X136425117Y-61725871D01*
X136303685Y-61907607D01*
X136220041Y-62109542D01*
X136177400Y-62323914D01*
X135856600Y-62323914D01*
X135813959Y-62109542D01*
X135730315Y-61907607D01*
X135608883Y-61725871D01*
X135454329Y-61571317D01*
X135272593Y-61449885D01*
X135070658Y-61366241D01*
X134856286Y-61323600D01*
X134637714Y-61323600D01*
X134423342Y-61366241D01*
X134221407Y-61449885D01*
X134039671Y-61571317D01*
X133885117Y-61725871D01*
X133763685Y-61907607D01*
X133680041Y-62109542D01*
X133637400Y-62323914D01*
X133316600Y-62323914D01*
X133273959Y-62109542D01*
X133190315Y-61907607D01*
X133068883Y-61725871D01*
X132914329Y-61571317D01*
X132732593Y-61449885D01*
X132530658Y-61366241D01*
X132316286Y-61323600D01*
X132097714Y-61323600D01*
X131883342Y-61366241D01*
X131681407Y-61449885D01*
X131499671Y-61571317D01*
X131345117Y-61725871D01*
X131223685Y-61907607D01*
X131140041Y-62109542D01*
X131097400Y-62323914D01*
X130776600Y-62323914D01*
X130733959Y-62109542D01*
X130650315Y-61907607D01*
X130528883Y-61725871D01*
X130374329Y-61571317D01*
X130192593Y-61449885D01*
X129990658Y-61366241D01*
X129776286Y-61323600D01*
X129557714Y-61323600D01*
X129343342Y-61366241D01*
X129141407Y-61449885D01*
X128959671Y-61571317D01*
X128805117Y-61725871D01*
X128683685Y-61907607D01*
X128600041Y-62109542D01*
X128557400Y-62323914D01*
X128236600Y-62323914D01*
X128193959Y-62109542D01*
X128110315Y-61907607D01*
X127988883Y-61725871D01*
X127834329Y-61571317D01*
X127652593Y-61449885D01*
X127450658Y-61366241D01*
X127236286Y-61323600D01*
X127017714Y-61323600D01*
X126803342Y-61366241D01*
X126601407Y-61449885D01*
X126419671Y-61571317D01*
X126265117Y-61725871D01*
X126143685Y-61907607D01*
X126060041Y-62109542D01*
X126017400Y-62323914D01*
X125696600Y-62323914D01*
X125653959Y-62109542D01*
X125570315Y-61907607D01*
X125448883Y-61725871D01*
X125294329Y-61571317D01*
X125112593Y-61449885D01*
X124910658Y-61366241D01*
X124696286Y-61323600D01*
X124477714Y-61323600D01*
X124263342Y-61366241D01*
X124061407Y-61449885D01*
X123879671Y-61571317D01*
X123725117Y-61725871D01*
X123603685Y-61907607D01*
X123520041Y-62109542D01*
X123477400Y-62323914D01*
X123156600Y-62323914D01*
X123113959Y-62109542D01*
X123030315Y-61907607D01*
X122908883Y-61725871D01*
X122754329Y-61571317D01*
X122572593Y-61449885D01*
X122370658Y-61366241D01*
X122156286Y-61323600D01*
X121937714Y-61323600D01*
X121723342Y-61366241D01*
X121521407Y-61449885D01*
X121339671Y-61571317D01*
X121185117Y-61725871D01*
X121063685Y-61907607D01*
X120980041Y-62109542D01*
X120937400Y-62323914D01*
X120616600Y-62323914D01*
X120573959Y-62109542D01*
X120490315Y-61907607D01*
X120368883Y-61725871D01*
X120214329Y-61571317D01*
X120032593Y-61449885D01*
X119830658Y-61366241D01*
X119616286Y-61323600D01*
X119397714Y-61323600D01*
X119183342Y-61366241D01*
X118981407Y-61449885D01*
X118799671Y-61571317D01*
X118645117Y-61725871D01*
X118523685Y-61907607D01*
X118440041Y-62109542D01*
X118397400Y-62323914D01*
X118076600Y-62323914D01*
X118033959Y-62109542D01*
X117950315Y-61907607D01*
X117828883Y-61725871D01*
X117674329Y-61571317D01*
X117492593Y-61449885D01*
X117290658Y-61366241D01*
X117076286Y-61323600D01*
X116857714Y-61323600D01*
X116643342Y-61366241D01*
X116441407Y-61449885D01*
X116259671Y-61571317D01*
X116105117Y-61725871D01*
X115983685Y-61907607D01*
X115900041Y-62109542D01*
X115857400Y-62323914D01*
X115536600Y-62323914D01*
X115493959Y-62109542D01*
X115410315Y-61907607D01*
X115288883Y-61725871D01*
X115134329Y-61571317D01*
X114952593Y-61449885D01*
X114750658Y-61366241D01*
X114536286Y-61323600D01*
X114317714Y-61323600D01*
X114103342Y-61366241D01*
X113901407Y-61449885D01*
X113719671Y-61571317D01*
X113565117Y-61725871D01*
X113443685Y-61907607D01*
X113360041Y-62109542D01*
X113317400Y-62323914D01*
X112996600Y-62323914D01*
X112953959Y-62109542D01*
X112870315Y-61907607D01*
X112748883Y-61725871D01*
X112594329Y-61571317D01*
X112412593Y-61449885D01*
X112210658Y-61366241D01*
X111996286Y-61323600D01*
X111777714Y-61323600D01*
X111563342Y-61366241D01*
X111361407Y-61449885D01*
X111179671Y-61571317D01*
X111025117Y-61725871D01*
X110903685Y-61907607D01*
X110820041Y-62109542D01*
X110777400Y-62323914D01*
X110456600Y-62323914D01*
X110413959Y-62109542D01*
X110330315Y-61907607D01*
X110208883Y-61725871D01*
X110054329Y-61571317D01*
X109872593Y-61449885D01*
X109670658Y-61366241D01*
X109456286Y-61323600D01*
X109237714Y-61323600D01*
X109023342Y-61366241D01*
X108821407Y-61449885D01*
X108639671Y-61571317D01*
X108485117Y-61725871D01*
X108363685Y-61907607D01*
X108280041Y-62109542D01*
X108237400Y-62323914D01*
X107916600Y-62323914D01*
X107873959Y-62109542D01*
X107790315Y-61907607D01*
X107668883Y-61725871D01*
X107514329Y-61571317D01*
X107332593Y-61449885D01*
X107130658Y-61366241D01*
X106916286Y-61323600D01*
X106697714Y-61323600D01*
X106483342Y-61366241D01*
X106281407Y-61449885D01*
X106099671Y-61571317D01*
X105945117Y-61725871D01*
X105823685Y-61907607D01*
X105740041Y-62109542D01*
X105697400Y-62323914D01*
X105376600Y-62323914D01*
X105333959Y-62109542D01*
X105250315Y-61907607D01*
X105128883Y-61725871D01*
X104974329Y-61571317D01*
X104792593Y-61449885D01*
X104590658Y-61366241D01*
X104376286Y-61323600D01*
X104157714Y-61323600D01*
X103943342Y-61366241D01*
X103741407Y-61449885D01*
X103632000Y-61522988D01*
X103632000Y-60579000D01*
X151403998Y-60579000D01*
X151363719Y-60587012D01*
G37*
X151363719Y-60587012D02*
X150776442Y-60830270D01*
X150247907Y-61183425D01*
X149798425Y-61632907D01*
X149445270Y-62161442D01*
X149202012Y-62748719D01*
X149078000Y-63372168D01*
X149078000Y-64007832D01*
X149202012Y-64631281D01*
X149445270Y-65218558D01*
X149798425Y-65747093D01*
X150247907Y-66196575D01*
X150776442Y-66549730D01*
X151363719Y-66792988D01*
X151987168Y-66917000D01*
X152622832Y-66917000D01*
X153246281Y-66792988D01*
X153833558Y-66549730D01*
X154362093Y-66196575D01*
X154525010Y-66033658D01*
X155128001Y-102213086D01*
X155128001Y-111106473D01*
X154811575Y-110632907D01*
X154362093Y-110183425D01*
X153833558Y-109830270D01*
X153246281Y-109587012D01*
X152622832Y-109463000D01*
X151987168Y-109463000D01*
X151363719Y-109587012D01*
X150776442Y-109830270D01*
X150247907Y-110183425D01*
X149798425Y-110632907D01*
X149445270Y-111161442D01*
X149202012Y-111748719D01*
X149078000Y-112372168D01*
X149078000Y-113007832D01*
X149202012Y-113631281D01*
X149445270Y-114218558D01*
X149798425Y-114747093D01*
X150247907Y-115196575D01*
X150721472Y-115513000D01*
X95888528Y-115513000D01*
X96362093Y-115196575D01*
X96811575Y-114747093D01*
X97164730Y-114218558D01*
X97407988Y-113631281D01*
X97532000Y-113007832D01*
X97532000Y-112372168D01*
X97407988Y-111748719D01*
X97164730Y-111161442D01*
X96811575Y-110632907D01*
X96362093Y-110183425D01*
X95833558Y-109830270D01*
X95246281Y-109587012D01*
X95046707Y-109547314D01*
X101241635Y-109547314D01*
X101373666Y-109840653D01*
X101712679Y-110011403D01*
X102078489Y-110112734D01*
X102457040Y-110140751D01*
X102833782Y-110094379D01*
X103194239Y-109975400D01*
X103446334Y-109840653D01*
X103578365Y-109547314D01*
X102410000Y-108378948D01*
X101241635Y-109547314D01*
X95046707Y-109547314D01*
X94622832Y-109463000D01*
X93987168Y-109463000D01*
X93363719Y-109587012D01*
X92776442Y-109830270D01*
X92247907Y-110183425D01*
X91798425Y-110632907D01*
X91755888Y-110696568D01*
X91791574Y-108252040D01*
X100474249Y-108252040D01*
X100520621Y-108628782D01*
X100639600Y-108989239D01*
X100774347Y-109241334D01*
X101067686Y-109373365D01*
X102236052Y-108205000D01*
X102583948Y-108205000D01*
X103752314Y-109373365D01*
X104045653Y-109241334D01*
X104216403Y-108902321D01*
X104317734Y-108536511D01*
X104345751Y-108157960D01*
X104299379Y-107781218D01*
X104180400Y-107420761D01*
X104045653Y-107168666D01*
X103752314Y-107036635D01*
X102583948Y-108205000D01*
X102236052Y-108205000D01*
X101067686Y-107036635D01*
X100774347Y-107168666D01*
X100603597Y-107507679D01*
X100502266Y-107873489D01*
X100474249Y-108252040D01*
X91791574Y-108252040D01*
X91811856Y-106862686D01*
X101241635Y-106862686D01*
X102410000Y-108031052D01*
X103578365Y-106862686D01*
X103446334Y-106569347D01*
X103107321Y-106398597D01*
X102741511Y-106297266D01*
X102362960Y-106269249D01*
X101986218Y-106315621D01*
X101625761Y-106434600D01*
X101373666Y-106569347D01*
X101241635Y-106862686D01*
X91811856Y-106862686D01*
X91841278Y-104847314D01*
X98241635Y-104847314D01*
X98373666Y-105140653D01*
X98712679Y-105311403D01*
X99078489Y-105412734D01*
X99457040Y-105440751D01*
X99833782Y-105394379D01*
X100194239Y-105275400D01*
X100446334Y-105140653D01*
X100578365Y-104847314D01*
X99410000Y-103678948D01*
X98241635Y-104847314D01*
X91841278Y-104847314D01*
X91860187Y-103552040D01*
X97474249Y-103552040D01*
X97520621Y-103928782D01*
X97639600Y-104289239D01*
X97774347Y-104541334D01*
X98067686Y-104673365D01*
X99236052Y-103505000D01*
X99583948Y-103505000D01*
X100752314Y-104673365D01*
X101045653Y-104541334D01*
X101216403Y-104202321D01*
X101317734Y-103836511D01*
X101345751Y-103457960D01*
X101299379Y-103081218D01*
X101180400Y-102720761D01*
X101045653Y-102468666D01*
X100752314Y-102336635D01*
X99583948Y-103505000D01*
X99236052Y-103505000D01*
X98067686Y-102336635D01*
X97774347Y-102468666D01*
X97603597Y-102807679D01*
X97502266Y-103173489D01*
X97474249Y-103552040D01*
X91860187Y-103552040D01*
X91880469Y-102162686D01*
X98241635Y-102162686D01*
X99410000Y-103331052D01*
X100536051Y-102205000D01*
X103479967Y-102205000D01*
X103479967Y-104805000D01*
X103492073Y-104927913D01*
X103527925Y-105046103D01*
X103586147Y-105155028D01*
X103664499Y-105250501D01*
X103759972Y-105328853D01*
X103868897Y-105387075D01*
X103987087Y-105422927D01*
X104110000Y-105435033D01*
X106710000Y-105435033D01*
X106832913Y-105422927D01*
X106951103Y-105387075D01*
X107060028Y-105328853D01*
X107155501Y-105250501D01*
X107233853Y-105155028D01*
X107292075Y-105046103D01*
X107327927Y-104927913D01*
X107340033Y-104805000D01*
X107340033Y-102205000D01*
X107327927Y-102082087D01*
X107292075Y-101963897D01*
X107233853Y-101854972D01*
X107155501Y-101759499D01*
X107060028Y-101681147D01*
X106951103Y-101622925D01*
X106832913Y-101587073D01*
X106710000Y-101574967D01*
X104110000Y-101574967D01*
X103987087Y-101587073D01*
X103868897Y-101622925D01*
X103759972Y-101681147D01*
X103664499Y-101759499D01*
X103586147Y-101854972D01*
X103527925Y-101963897D01*
X103492073Y-102082087D01*
X103479967Y-102205000D01*
X100536051Y-102205000D01*
X100578365Y-102162686D01*
X100446334Y-101869347D01*
X100107321Y-101698597D01*
X99741511Y-101597266D01*
X99362960Y-101569249D01*
X98986218Y-101615621D01*
X98625761Y-101734600D01*
X98373666Y-101869347D01*
X98241635Y-102162686D01*
X91880469Y-102162686D01*
X91946159Y-97663000D01*
X96266000Y-97663000D01*
X96290776Y-97660560D01*
X96314601Y-97653333D01*
X96336557Y-97641597D01*
X96355803Y-97625803D01*
X96371597Y-97606557D01*
X96383333Y-97584601D01*
X96390560Y-97560776D01*
X96393000Y-97536000D01*
X96393000Y-96215905D01*
X96434060Y-96079908D01*
X96445980Y-96019713D01*
X96458736Y-95959699D01*
X96459723Y-95950305D01*
X96459725Y-95950297D01*
X96459725Y-95950288D01*
X96478769Y-95756065D01*
X96478769Y-95756058D01*
X96482000Y-95723252D01*
X96482000Y-90595509D01*
X98838000Y-90595509D01*
X98838000Y-91014491D01*
X98919739Y-91425423D01*
X99080077Y-91812512D01*
X99312851Y-92160884D01*
X99609116Y-92457149D01*
X99957488Y-92689923D01*
X100344577Y-92850261D01*
X100755509Y-92932000D01*
X101174491Y-92932000D01*
X101585423Y-92850261D01*
X101972512Y-92689923D01*
X102320884Y-92457149D01*
X102617149Y-92160884D01*
X102849923Y-91812512D01*
X103010261Y-91425423D01*
X103092000Y-91014491D01*
X103092000Y-90595509D01*
X103010261Y-90184577D01*
X102849923Y-89797488D01*
X102617149Y-89449116D01*
X102320884Y-89152851D01*
X101972512Y-88920077D01*
X101585423Y-88759739D01*
X101174491Y-88678000D01*
X100755509Y-88678000D01*
X100344577Y-88759739D01*
X99957488Y-88920077D01*
X99609116Y-89152851D01*
X99312851Y-89449116D01*
X99080077Y-89797488D01*
X98919739Y-90184577D01*
X98838000Y-90595509D01*
X96482000Y-90595509D01*
X96482000Y-87225000D01*
X98834966Y-87225000D01*
X98847072Y-87347914D01*
X98882924Y-87466104D01*
X98941146Y-87575028D01*
X99019499Y-87670501D01*
X99114972Y-87748854D01*
X99223896Y-87807076D01*
X99342086Y-87842928D01*
X99465000Y-87855034D01*
X100685250Y-87852000D01*
X100842000Y-87695250D01*
X100842000Y-85848000D01*
X101088000Y-85848000D01*
X101088000Y-87695250D01*
X101244750Y-87852000D01*
X102465000Y-87855034D01*
X102587914Y-87842928D01*
X102706104Y-87807076D01*
X102815028Y-87748854D01*
X102910501Y-87670501D01*
X102988854Y-87575028D01*
X103047076Y-87466104D01*
X103082928Y-87347914D01*
X103095034Y-87225000D01*
X103092000Y-86004750D01*
X102935250Y-85848000D01*
X101088000Y-85848000D01*
X100842000Y-85848000D01*
X98994750Y-85848000D01*
X98838000Y-86004750D01*
X98834966Y-87225000D01*
X96482000Y-87225000D01*
X96482000Y-84225000D01*
X98834966Y-84225000D01*
X98838000Y-85445250D01*
X98994750Y-85602000D01*
X100842000Y-85602000D01*
X100842000Y-83754750D01*
X101088000Y-83754750D01*
X101088000Y-85602000D01*
X102935250Y-85602000D01*
X103092000Y-85445250D01*
X103095034Y-84225000D01*
X103082928Y-84102086D01*
X103047076Y-83983896D01*
X102988854Y-83874972D01*
X102910501Y-83779499D01*
X102815028Y-83701146D01*
X102706104Y-83642924D01*
X102587914Y-83607072D01*
X102465000Y-83594966D01*
X101244750Y-83598000D01*
X101088000Y-83754750D01*
X100842000Y-83754750D01*
X100685250Y-83598000D01*
X99465000Y-83594966D01*
X99342086Y-83607072D01*
X99223896Y-83642924D01*
X99114972Y-83701146D01*
X99019499Y-83779499D01*
X98941146Y-83874972D01*
X98882924Y-83983896D01*
X98847072Y-84102086D01*
X98834966Y-84225000D01*
X96482000Y-84225000D01*
X96482000Y-81153000D01*
X110236000Y-81153000D01*
X110260776Y-81150560D01*
X110284601Y-81143333D01*
X110306557Y-81131597D01*
X110307325Y-81130966D01*
X110264467Y-81234435D01*
X110225000Y-81432849D01*
X110225000Y-81635151D01*
X110264467Y-81833565D01*
X110341885Y-82020467D01*
X110454277Y-82188674D01*
X110597326Y-82331723D01*
X110765533Y-82444115D01*
X110952435Y-82521533D01*
X111150849Y-82561000D01*
X111215512Y-82561000D01*
X119850511Y-91196000D01*
X116368935Y-91196000D01*
X116331999Y-91192362D01*
X116295064Y-91196000D01*
X116295062Y-91196000D01*
X116184582Y-91206881D01*
X116042830Y-91249882D01*
X115997353Y-91274190D01*
X115912189Y-91319710D01*
X115826374Y-91390137D01*
X115797683Y-91413683D01*
X115774137Y-91442374D01*
X112270375Y-94946137D01*
X112241684Y-94969683D01*
X112218138Y-94998374D01*
X112218137Y-94998375D01*
X112168548Y-95058799D01*
X112146844Y-95070400D01*
X111975236Y-95211235D01*
X111834401Y-95382843D01*
X111729751Y-95578629D01*
X111665308Y-95791069D01*
X111649001Y-95956635D01*
X111649000Y-99512645D01*
X111643548Y-99568000D01*
X111649000Y-99623354D01*
X111649000Y-99623364D01*
X111665307Y-99788930D01*
X111729750Y-100001370D01*
X111834400Y-100197157D01*
X111975235Y-100368765D01*
X112018242Y-100404060D01*
X113463940Y-101849758D01*
X113499235Y-101892765D01*
X113542240Y-101928058D01*
X113670842Y-102033600D01*
X113775492Y-102089536D01*
X113866629Y-102138250D01*
X114079069Y-102202693D01*
X114244635Y-102219000D01*
X114244645Y-102219000D01*
X114299999Y-102224452D01*
X114355354Y-102219000D01*
X119435365Y-102219000D01*
X119600931Y-102202693D01*
X119813371Y-102138250D01*
X120009157Y-102033600D01*
X120180765Y-101892765D01*
X120321600Y-101721157D01*
X120426250Y-101525371D01*
X120490693Y-101312931D01*
X120512453Y-101092000D01*
X120490693Y-100871069D01*
X120426250Y-100658629D01*
X120392240Y-100595000D01*
X122594003Y-100595000D01*
X122587308Y-100617070D01*
X122565548Y-100838000D01*
X122587308Y-101058930D01*
X122651750Y-101271370D01*
X122756400Y-101467156D01*
X122825000Y-101550746D01*
X122825000Y-101937049D01*
X121988671Y-102773379D01*
X121915121Y-102863000D01*
X114237274Y-102863000D01*
X114049664Y-102881478D01*
X113808949Y-102954498D01*
X113587104Y-103073076D01*
X113392656Y-103232656D01*
X113233076Y-103427104D01*
X113114498Y-103648949D01*
X113041478Y-103889664D01*
X113016822Y-104140000D01*
X113041478Y-104390336D01*
X113114498Y-104631051D01*
X113233076Y-104852896D01*
X113392656Y-105047344D01*
X113587104Y-105206924D01*
X113808949Y-105325502D01*
X114049664Y-105398522D01*
X114237274Y-105417000D01*
X122490726Y-105417000D01*
X122678336Y-105398522D01*
X122919051Y-105325502D01*
X123140896Y-105206924D01*
X123335344Y-105047344D01*
X123494924Y-104852896D01*
X123548557Y-104752555D01*
X123648895Y-104698923D01*
X123794621Y-104579329D01*
X124899329Y-103474622D01*
X125018923Y-103328896D01*
X125137502Y-103107051D01*
X125210522Y-102866336D01*
X125235178Y-102616000D01*
X125210522Y-102365665D01*
X125137502Y-102124949D01*
X125079000Y-102015500D01*
X125079000Y-101147354D01*
X125084452Y-101091999D01*
X125079000Y-101036645D01*
X125079000Y-101036635D01*
X125062693Y-100871069D01*
X124998250Y-100658629D01*
X124964240Y-100595000D01*
X125069151Y-100595000D01*
X125118877Y-100585109D01*
X125169327Y-100580140D01*
X125217838Y-100565424D01*
X125267565Y-100555533D01*
X125314406Y-100536131D01*
X125362917Y-100521415D01*
X125407628Y-100497516D01*
X125454467Y-100478115D01*
X125496619Y-100449950D01*
X125541331Y-100426051D01*
X125580520Y-100393889D01*
X125622674Y-100365723D01*
X125658525Y-100329872D01*
X125697712Y-100297712D01*
X125729872Y-100258525D01*
X125765723Y-100222674D01*
X125793889Y-100180520D01*
X125826051Y-100141331D01*
X125849950Y-100096619D01*
X125878115Y-100054467D01*
X125897516Y-100007628D01*
X125921415Y-99962917D01*
X125936131Y-99914406D01*
X125955533Y-99867565D01*
X125965424Y-99817838D01*
X125980140Y-99769327D01*
X125985109Y-99718877D01*
X125995000Y-99669151D01*
X125995000Y-99618450D01*
X125999969Y-99568000D01*
X125995000Y-99517549D01*
X125995000Y-99466849D01*
X125985109Y-99417123D01*
X125980140Y-99366673D01*
X125965424Y-99318162D01*
X125964424Y-99313135D01*
X125980140Y-99261327D01*
X125999969Y-99060000D01*
X125980140Y-98858673D01*
X125964424Y-98806865D01*
X125965424Y-98801838D01*
X125980140Y-98753327D01*
X125985109Y-98702877D01*
X125995000Y-98653151D01*
X125995000Y-98602451D01*
X125999969Y-98552000D01*
X125995000Y-98501549D01*
X125995000Y-98450849D01*
X125985109Y-98401123D01*
X125980140Y-98350673D01*
X125965424Y-98302162D01*
X125955533Y-98252435D01*
X125936131Y-98205594D01*
X125921415Y-98157083D01*
X125897516Y-98112372D01*
X125878115Y-98065533D01*
X125849948Y-98023378D01*
X125826051Y-97978669D01*
X125793889Y-97939480D01*
X125765723Y-97897326D01*
X125729872Y-97861475D01*
X125697712Y-97822288D01*
X125658525Y-97790128D01*
X125622674Y-97754277D01*
X125580520Y-97726111D01*
X125541331Y-97693949D01*
X125496619Y-97670050D01*
X125454467Y-97641885D01*
X125407628Y-97622484D01*
X125362917Y-97598585D01*
X125314406Y-97583869D01*
X125267565Y-97564467D01*
X125217838Y-97554576D01*
X125169327Y-97539860D01*
X125118877Y-97534891D01*
X125069151Y-97525000D01*
X123910048Y-97525000D01*
X123285469Y-97212711D01*
X123297000Y-97095640D01*
X123297000Y-96530055D01*
X123898865Y-97148639D01*
X123925683Y-97181317D01*
X123978940Y-97225023D01*
X124031623Y-97269481D01*
X124036174Y-97271994D01*
X124040190Y-97275290D01*
X124100964Y-97307774D01*
X124161294Y-97341091D01*
X124166245Y-97342667D01*
X124170830Y-97345118D01*
X124236824Y-97365138D01*
X124302444Y-97386029D01*
X124307603Y-97386609D01*
X124312582Y-97388119D01*
X124381207Y-97394878D01*
X124449649Y-97402567D01*
X124491772Y-97399000D01*
X132805065Y-97399000D01*
X132842000Y-97402638D01*
X132878935Y-97399000D01*
X132878938Y-97399000D01*
X132989418Y-97388119D01*
X133131170Y-97345118D01*
X133261810Y-97275290D01*
X133376317Y-97181317D01*
X133399867Y-97152621D01*
X134296489Y-96256000D01*
X134416032Y-96256000D01*
X134413502Y-96259808D01*
X134378819Y-96310461D01*
X134374323Y-96318776D01*
X134282698Y-96491098D01*
X134259305Y-96547854D01*
X134235144Y-96604226D01*
X134232352Y-96613246D01*
X134232348Y-96613256D01*
X134232346Y-96613266D01*
X134175940Y-96800092D01*
X134164024Y-96860270D01*
X134151264Y-96920302D01*
X134150276Y-96929702D01*
X134131231Y-97123936D01*
X134131231Y-97123943D01*
X134128000Y-97156749D01*
X134128001Y-112223252D01*
X134131328Y-112257032D01*
X134131328Y-112270026D01*
X134132316Y-112279427D01*
X134154071Y-112473376D01*
X134166830Y-112533404D01*
X134178748Y-112593589D01*
X134181543Y-112602619D01*
X134240556Y-112788649D01*
X134264738Y-112845071D01*
X134288110Y-112901775D01*
X134292602Y-112910082D01*
X134292606Y-112910092D01*
X134292612Y-112910100D01*
X134386628Y-113081115D01*
X134421304Y-113131758D01*
X134455249Y-113182850D01*
X134461272Y-113190130D01*
X134461275Y-113190135D01*
X134461279Y-113190139D01*
X134586724Y-113339639D01*
X134630577Y-113382584D01*
X134673802Y-113426112D01*
X134681121Y-113432081D01*
X134681125Y-113432085D01*
X134681127Y-113432086D01*
X134833227Y-113554377D01*
X134884601Y-113587995D01*
X134935438Y-113622285D01*
X134943783Y-113626723D01*
X135116739Y-113717142D01*
X135173632Y-113740129D01*
X135230201Y-113763908D01*
X135239240Y-113766637D01*
X135239245Y-113766639D01*
X135239250Y-113766640D01*
X135426475Y-113821743D01*
X135486748Y-113833241D01*
X135546851Y-113845578D01*
X135556258Y-113846501D01*
X135750620Y-113864190D01*
X135811981Y-113863762D01*
X135873342Y-113864190D01*
X135882738Y-113863268D01*
X135882744Y-113863268D01*
X135882749Y-113863267D01*
X136076846Y-113842866D01*
X136136930Y-113830532D01*
X136197223Y-113819031D01*
X136206272Y-113816299D01*
X136392710Y-113758587D01*
X136449308Y-113734795D01*
X136506167Y-113711823D01*
X136514508Y-113707388D01*
X136514513Y-113707386D01*
X136514517Y-113707383D01*
X136686189Y-113614561D01*
X136737070Y-113580242D01*
X136788405Y-113546649D01*
X136795730Y-113540675D01*
X136946108Y-113416271D01*
X136989347Y-113372728D01*
X137033183Y-113329801D01*
X137039208Y-113322518D01*
X137162558Y-113171276D01*
X137196510Y-113120174D01*
X137231181Y-113069538D01*
X137235677Y-113061224D01*
X137327302Y-112888901D01*
X137350685Y-112832171D01*
X137374856Y-112775774D01*
X137377651Y-112766745D01*
X137377652Y-112766743D01*
X137377653Y-112766736D01*
X137434060Y-112579908D01*
X137445980Y-112519713D01*
X137458736Y-112459699D01*
X137459723Y-112450307D01*
X137459725Y-112450297D01*
X137459725Y-112450288D01*
X137478769Y-112256065D01*
X137478769Y-112256058D01*
X137482000Y-112223252D01*
X137482000Y-101567415D01*
X137520582Y-101579119D01*
X137668000Y-101593638D01*
X137704938Y-101590000D01*
X141031603Y-101590000D01*
X141077326Y-101635723D01*
X141245533Y-101748115D01*
X141432435Y-101825533D01*
X141630849Y-101865000D01*
X141833151Y-101865000D01*
X142031565Y-101825533D01*
X142218467Y-101748115D01*
X142386674Y-101635723D01*
X142529723Y-101492674D01*
X142642115Y-101324467D01*
X142719533Y-101137565D01*
X142759000Y-100939151D01*
X142759000Y-100736849D01*
X142719533Y-100538435D01*
X142642115Y-100351533D01*
X142529723Y-100183326D01*
X142386674Y-100040277D01*
X142218467Y-99927885D01*
X142031565Y-99850467D01*
X141833151Y-99811000D01*
X141630849Y-99811000D01*
X141432435Y-99850467D01*
X141245533Y-99927885D01*
X141077326Y-100040277D01*
X141031603Y-100086000D01*
X138420000Y-100086000D01*
X138420000Y-96810935D01*
X138423638Y-96773999D01*
X138419860Y-96735638D01*
X138409119Y-96626582D01*
X138366118Y-96484830D01*
X138364071Y-96481000D01*
X145831928Y-96481000D01*
X145844188Y-96605482D01*
X145880498Y-96725180D01*
X145939463Y-96835494D01*
X146018815Y-96932185D01*
X146115506Y-97011537D01*
X146225820Y-97070502D01*
X146345518Y-97106812D01*
X146470000Y-97119072D01*
X147034250Y-97116000D01*
X147193000Y-96957250D01*
X147193000Y-95758000D01*
X147447000Y-95758000D01*
X147447000Y-96957250D01*
X147605750Y-97116000D01*
X148170000Y-97119072D01*
X148294482Y-97106812D01*
X148414180Y-97070502D01*
X148524494Y-97011537D01*
X148621185Y-96932185D01*
X148700537Y-96835494D01*
X148759502Y-96725180D01*
X148795812Y-96605482D01*
X148808072Y-96481000D01*
X148806079Y-96114890D01*
X150958524Y-96114890D01*
X151003175Y-96262099D01*
X151128359Y-96524920D01*
X151302412Y-96758269D01*
X151518645Y-96953178D01*
X151768748Y-97102157D01*
X152043109Y-97199481D01*
X152273000Y-97078814D01*
X152273000Y-95885000D01*
X152527000Y-95885000D01*
X152527000Y-97078814D01*
X152756891Y-97199481D01*
X153031252Y-97102157D01*
X153281355Y-96953178D01*
X153497588Y-96758269D01*
X153671641Y-96524920D01*
X153796825Y-96262099D01*
X153841476Y-96114890D01*
X153720155Y-95885000D01*
X152527000Y-95885000D01*
X152273000Y-95885000D01*
X151079845Y-95885000D01*
X150958524Y-96114890D01*
X148806079Y-96114890D01*
X148805000Y-95916750D01*
X148646250Y-95758000D01*
X147447000Y-95758000D01*
X147193000Y-95758000D01*
X145993750Y-95758000D01*
X145835000Y-95916750D01*
X145831928Y-96481000D01*
X138364071Y-96481000D01*
X138316817Y-96392594D01*
X138296290Y-96354189D01*
X138225863Y-96268374D01*
X138202317Y-96239683D01*
X138173626Y-96216137D01*
X137705489Y-95748000D01*
X144235065Y-95748000D01*
X144272000Y-95751638D01*
X144308935Y-95748000D01*
X144308938Y-95748000D01*
X144419418Y-95737119D01*
X144561170Y-95694118D01*
X144691810Y-95624290D01*
X144806317Y-95530317D01*
X144829867Y-95501621D01*
X145031621Y-95299867D01*
X145060317Y-95276317D01*
X145154290Y-95161810D01*
X145224118Y-95031170D01*
X145267119Y-94889418D01*
X145278000Y-94778938D01*
X145278000Y-94778936D01*
X145281638Y-94742001D01*
X145278000Y-94705065D01*
X145278000Y-93537397D01*
X145323723Y-93491674D01*
X145436115Y-93323467D01*
X145513533Y-93136565D01*
X145553000Y-92938151D01*
X145553000Y-92735849D01*
X145513533Y-92537435D01*
X145436115Y-92350533D01*
X145330187Y-92192000D01*
X146144319Y-92192000D01*
X146011099Y-92391378D01*
X145899760Y-92660175D01*
X145843000Y-92945528D01*
X145843000Y-93236472D01*
X145899760Y-93521825D01*
X146011099Y-93790622D01*
X146172739Y-94032533D01*
X146307060Y-94166854D01*
X146225820Y-94191498D01*
X146115506Y-94250463D01*
X146018815Y-94329815D01*
X145939463Y-94426506D01*
X145880498Y-94536820D01*
X145844188Y-94656518D01*
X145831928Y-94781000D01*
X145835000Y-95345250D01*
X145993750Y-95504000D01*
X147193000Y-95504000D01*
X147193000Y-95484000D01*
X147447000Y-95484000D01*
X147447000Y-95504000D01*
X148646250Y-95504000D01*
X148805000Y-95345250D01*
X148808072Y-94781000D01*
X148795812Y-94656518D01*
X148759502Y-94536820D01*
X148700537Y-94426506D01*
X148621185Y-94329815D01*
X148524494Y-94250463D01*
X148414180Y-94191498D01*
X148332940Y-94166854D01*
X148467261Y-94032533D01*
X148628901Y-93790622D01*
X148740240Y-93521825D01*
X148797000Y-93236472D01*
X148797000Y-92945528D01*
X148740240Y-92660175D01*
X148628901Y-92391378D01*
X148495681Y-92192000D01*
X150564512Y-92192000D01*
X151032459Y-92659948D01*
X150979760Y-92787175D01*
X150923000Y-93072528D01*
X150923000Y-93363472D01*
X150979760Y-93648825D01*
X151091099Y-93917622D01*
X151252739Y-94159533D01*
X151458467Y-94365261D01*
X151643147Y-94488660D01*
X151518645Y-94562822D01*
X151302412Y-94757731D01*
X151128359Y-94991080D01*
X151003175Y-95253901D01*
X150958524Y-95401110D01*
X151079845Y-95631000D01*
X152273000Y-95631000D01*
X152273000Y-95611000D01*
X152527000Y-95611000D01*
X152527000Y-95631000D01*
X153720155Y-95631000D01*
X153841476Y-95401110D01*
X153796825Y-95253901D01*
X153671641Y-94991080D01*
X153497588Y-94757731D01*
X153281355Y-94562822D01*
X153156853Y-94488660D01*
X153341533Y-94365261D01*
X153547261Y-94159533D01*
X153708901Y-93917622D01*
X153820240Y-93648825D01*
X153877000Y-93363472D01*
X153877000Y-93072528D01*
X153820240Y-92787175D01*
X153708901Y-92518378D01*
X153547261Y-92276467D01*
X153341533Y-92070739D01*
X153157841Y-91948000D01*
X153341533Y-91825261D01*
X153547261Y-91619533D01*
X153708901Y-91377622D01*
X153820240Y-91108825D01*
X153877000Y-90823472D01*
X153877000Y-90532528D01*
X153820240Y-90247175D01*
X153708901Y-89978378D01*
X153547261Y-89736467D01*
X153341533Y-89530739D01*
X153156853Y-89407340D01*
X153281355Y-89333178D01*
X153497588Y-89138269D01*
X153671641Y-88904920D01*
X153796825Y-88642099D01*
X153841476Y-88494890D01*
X153720155Y-88265000D01*
X152527000Y-88265000D01*
X152527000Y-88285000D01*
X152273000Y-88285000D01*
X152273000Y-88265000D01*
X151079845Y-88265000D01*
X150958524Y-88494890D01*
X151003175Y-88642099D01*
X151128359Y-88904920D01*
X151302412Y-89138269D01*
X151330958Y-89164000D01*
X149144794Y-89164000D01*
X149229261Y-89079533D01*
X149390901Y-88837622D01*
X149502240Y-88568825D01*
X149559000Y-88283472D01*
X149559000Y-87992528D01*
X149502240Y-87707175D01*
X149390901Y-87438378D01*
X149229261Y-87196467D01*
X149088525Y-87055731D01*
X149173103Y-87030075D01*
X149282028Y-86971853D01*
X149377501Y-86893501D01*
X149455853Y-86798028D01*
X149514075Y-86689103D01*
X149549927Y-86570913D01*
X149562033Y-86448000D01*
X149562033Y-84748000D01*
X150919967Y-84748000D01*
X150919967Y-86448000D01*
X150932073Y-86570913D01*
X150967925Y-86689103D01*
X151026147Y-86798028D01*
X151104499Y-86893501D01*
X151199972Y-86971853D01*
X151308897Y-87030075D01*
X151393406Y-87055710D01*
X151302412Y-87137731D01*
X151128359Y-87371080D01*
X151003175Y-87633901D01*
X150958524Y-87781110D01*
X151079845Y-88011000D01*
X152273000Y-88011000D01*
X152273000Y-87991000D01*
X152527000Y-87991000D01*
X152527000Y-88011000D01*
X153720155Y-88011000D01*
X153841476Y-87781110D01*
X153796825Y-87633901D01*
X153671641Y-87371080D01*
X153497588Y-87137731D01*
X153406594Y-87055710D01*
X153491103Y-87030075D01*
X153600028Y-86971853D01*
X153695501Y-86893501D01*
X153773853Y-86798028D01*
X153832075Y-86689103D01*
X153867927Y-86570913D01*
X153880033Y-86448000D01*
X153880033Y-84748000D01*
X153867927Y-84625087D01*
X153832075Y-84506897D01*
X153773853Y-84397972D01*
X153695501Y-84302499D01*
X153600028Y-84224147D01*
X153491103Y-84165925D01*
X153372913Y-84130073D01*
X153250000Y-84117967D01*
X151550000Y-84117967D01*
X151427087Y-84130073D01*
X151308897Y-84165925D01*
X151199972Y-84224147D01*
X151104499Y-84302499D01*
X151026147Y-84397972D01*
X150967925Y-84506897D01*
X150932073Y-84625087D01*
X150919967Y-84748000D01*
X149562033Y-84748000D01*
X149549927Y-84625087D01*
X149514075Y-84506897D01*
X149455853Y-84397972D01*
X149377501Y-84302499D01*
X149282028Y-84224147D01*
X149173103Y-84165925D01*
X149054913Y-84130073D01*
X148932000Y-84117967D01*
X147831522Y-84117967D01*
X148626489Y-83323000D01*
X148691151Y-83323000D01*
X148889565Y-83283533D01*
X149076467Y-83206115D01*
X149244674Y-83093723D01*
X149387723Y-82950674D01*
X149500115Y-82782467D01*
X149577533Y-82595565D01*
X149617000Y-82397151D01*
X149617000Y-82194849D01*
X149577533Y-81996435D01*
X149500115Y-81809533D01*
X149387723Y-81641326D01*
X149244674Y-81498277D01*
X149076467Y-81385885D01*
X148889565Y-81308467D01*
X148691151Y-81269000D01*
X148488849Y-81269000D01*
X148290435Y-81308467D01*
X148103533Y-81385885D01*
X147935326Y-81498277D01*
X147792277Y-81641326D01*
X147679885Y-81809533D01*
X147602467Y-81996435D01*
X147563000Y-82194849D01*
X147563000Y-82259511D01*
X145699182Y-84123329D01*
X145687472Y-84121000D01*
X145396528Y-84121000D01*
X145111175Y-84177760D01*
X144842378Y-84289099D01*
X144600467Y-84450739D01*
X144394739Y-84656467D01*
X144233099Y-84898378D01*
X144121760Y-85167175D01*
X144065000Y-85452528D01*
X144065000Y-85743472D01*
X144121760Y-86028825D01*
X144233099Y-86297622D01*
X144394739Y-86539533D01*
X144600467Y-86745261D01*
X144784159Y-86868000D01*
X144600467Y-86990739D01*
X144394739Y-87196467D01*
X144233099Y-87438378D01*
X144121760Y-87707175D01*
X144065000Y-87992528D01*
X144065000Y-88283472D01*
X144121760Y-88568825D01*
X144233099Y-88837622D01*
X144270690Y-88893881D01*
X144246151Y-88889000D01*
X144043849Y-88889000D01*
X143845435Y-88928467D01*
X143658533Y-89005885D01*
X143490326Y-89118277D01*
X143347277Y-89261326D01*
X143234885Y-89429533D01*
X143157467Y-89616435D01*
X143118000Y-89814849D01*
X143118000Y-90017151D01*
X143157467Y-90215565D01*
X143234885Y-90402467D01*
X143347277Y-90570674D01*
X143464603Y-90688000D01*
X138212935Y-90688000D01*
X138175999Y-90684362D01*
X138139064Y-90688000D01*
X138139062Y-90688000D01*
X138028582Y-90698881D01*
X137886830Y-90741882D01*
X137826017Y-90774387D01*
X137756189Y-90811710D01*
X137738637Y-90826115D01*
X137641683Y-90905683D01*
X137629113Y-90921000D01*
X137566849Y-90921000D01*
X137467500Y-90940762D01*
X137467500Y-87603435D01*
X137471138Y-87566500D01*
X137467500Y-87529562D01*
X137456619Y-87419082D01*
X137413618Y-87277330D01*
X137343790Y-87146690D01*
X137249817Y-87032183D01*
X137221126Y-87008637D01*
X132320367Y-82107879D01*
X132296817Y-82079183D01*
X132182310Y-81985210D01*
X132051670Y-81915382D01*
X131909918Y-81872381D01*
X131799438Y-81861500D01*
X131799435Y-81861500D01*
X131762500Y-81857862D01*
X131725565Y-81861500D01*
X128589397Y-81861500D01*
X128543674Y-81815777D01*
X128375467Y-81703385D01*
X128188565Y-81625967D01*
X127990151Y-81586500D01*
X127787849Y-81586500D01*
X127589435Y-81625967D01*
X127402533Y-81703385D01*
X127234326Y-81815777D01*
X127091277Y-81958826D01*
X126978885Y-82127033D01*
X126901467Y-82313935D01*
X126862000Y-82512349D01*
X126862000Y-82714651D01*
X126901467Y-82913065D01*
X126978885Y-83099967D01*
X127091277Y-83268174D01*
X127234326Y-83411223D01*
X127402533Y-83523615D01*
X127589435Y-83601033D01*
X127787849Y-83640500D01*
X127990151Y-83640500D01*
X128188565Y-83601033D01*
X128375467Y-83523615D01*
X128543674Y-83411223D01*
X128589397Y-83365500D01*
X131451012Y-83365500D01*
X135963501Y-87877990D01*
X135963500Y-92343795D01*
X135960230Y-92368928D01*
X135963500Y-92417682D01*
X135963500Y-92429437D01*
X135965972Y-92454532D01*
X135970143Y-92516726D01*
X135973222Y-92528146D01*
X135974381Y-92539917D01*
X135992477Y-92599571D01*
X136008701Y-92659750D01*
X136013948Y-92670350D01*
X136017382Y-92681669D01*
X136046767Y-92736646D01*
X136074420Y-92792505D01*
X136081634Y-92801877D01*
X136087210Y-92812309D01*
X136126759Y-92860501D01*
X136164775Y-92909888D01*
X136173677Y-92917671D01*
X136181183Y-92926817D01*
X136229394Y-92966382D01*
X136248352Y-92982957D01*
X136257903Y-92989779D01*
X136295690Y-93020790D01*
X136318051Y-93032742D01*
X136598231Y-93232871D01*
X136616967Y-93327065D01*
X136681144Y-93482000D01*
X125095045Y-93482000D01*
X125116115Y-93450467D01*
X125193533Y-93263565D01*
X125233000Y-93065151D01*
X125233000Y-92862849D01*
X125193533Y-92664435D01*
X125116115Y-92477533D01*
X125003723Y-92309326D01*
X124860674Y-92166277D01*
X124692467Y-92053885D01*
X124505565Y-91976467D01*
X124384968Y-91952479D01*
X120152132Y-87719643D01*
X120396000Y-87743662D01*
X120665939Y-87717075D01*
X120765083Y-87687000D01*
X126557184Y-87687000D01*
X126752137Y-87667799D01*
X127002278Y-87591919D01*
X127232808Y-87468698D01*
X127434870Y-87302870D01*
X127600698Y-87100808D01*
X127723919Y-86870278D01*
X127772001Y-86711774D01*
X127772000Y-91657064D01*
X127768362Y-91694000D01*
X127772000Y-91730935D01*
X127772000Y-91730937D01*
X127782881Y-91841417D01*
X127815214Y-91948001D01*
X127825882Y-91983169D01*
X127895710Y-92113810D01*
X127924973Y-92149467D01*
X127989683Y-92228317D01*
X128005000Y-92240887D01*
X128005000Y-92303151D01*
X128044467Y-92501565D01*
X128121885Y-92688467D01*
X128234277Y-92856674D01*
X128377326Y-92999723D01*
X128545533Y-93112115D01*
X128732435Y-93189533D01*
X128930849Y-93229000D01*
X129133151Y-93229000D01*
X129331565Y-93189533D01*
X129518467Y-93112115D01*
X129686674Y-92999723D01*
X129829723Y-92856674D01*
X129942115Y-92688467D01*
X130019533Y-92501565D01*
X130059000Y-92303151D01*
X130059000Y-92100849D01*
X130019533Y-91902435D01*
X129942115Y-91715533D01*
X129829723Y-91547326D01*
X129686674Y-91404277D01*
X129518467Y-91291885D01*
X129331565Y-91214467D01*
X129276000Y-91203414D01*
X129276000Y-86015935D01*
X129279638Y-85979000D01*
X129276000Y-85942062D01*
X129265119Y-85831582D01*
X129222118Y-85689830D01*
X129152290Y-85559190D01*
X129058317Y-85444683D01*
X129029621Y-85421133D01*
X128192867Y-84584379D01*
X128169317Y-84555683D01*
X128054810Y-84461710D01*
X127924170Y-84391882D01*
X127782418Y-84348881D01*
X127671938Y-84338000D01*
X127671935Y-84338000D01*
X127635000Y-84334362D01*
X127598065Y-84338000D01*
X121723489Y-84338000D01*
X121237401Y-83851912D01*
X121263467Y-83841115D01*
X121431674Y-83728723D01*
X121574723Y-83585674D01*
X121687115Y-83417467D01*
X121764533Y-83230565D01*
X121804000Y-83032151D01*
X121804000Y-82829849D01*
X121764533Y-82631435D01*
X121687115Y-82444533D01*
X121574723Y-82276326D01*
X121431674Y-82133277D01*
X121263467Y-82020885D01*
X121076565Y-81943467D01*
X120878151Y-81904000D01*
X120686488Y-81904000D01*
X118608000Y-79825512D01*
X118608000Y-77658000D01*
X127971128Y-77658000D01*
X128002542Y-77976948D01*
X128095575Y-78283638D01*
X128246654Y-78566286D01*
X128449971Y-78814029D01*
X128697714Y-79017346D01*
X128980362Y-79168425D01*
X129287052Y-79261458D01*
X129526075Y-79285000D01*
X132733925Y-79285000D01*
X132972948Y-79261458D01*
X133279638Y-79168425D01*
X133562286Y-79017346D01*
X133810029Y-78814029D01*
X134013346Y-78566286D01*
X134164425Y-78283638D01*
X134257458Y-77976948D01*
X134288872Y-77658000D01*
X134257458Y-77339052D01*
X134164425Y-77032362D01*
X134013346Y-76749714D01*
X133810029Y-76501971D01*
X133562286Y-76298654D01*
X133279638Y-76147575D01*
X132972948Y-76054542D01*
X132733925Y-76031000D01*
X129526075Y-76031000D01*
X129287052Y-76054542D01*
X128980362Y-76147575D01*
X128697714Y-76298654D01*
X128449971Y-76501971D01*
X128246654Y-76749714D01*
X128095575Y-77032362D01*
X128002542Y-77339052D01*
X127971128Y-77658000D01*
X118608000Y-77658000D01*
X118608000Y-75220935D01*
X118611638Y-75184000D01*
X118608000Y-75147062D01*
X118597119Y-75036582D01*
X118554118Y-74894830D01*
X118484290Y-74764190D01*
X118390317Y-74649683D01*
X118361627Y-74626138D01*
X113333867Y-69598379D01*
X113310317Y-69569683D01*
X113195810Y-69475710D01*
X113065170Y-69405882D01*
X112923418Y-69362881D01*
X112812938Y-69352000D01*
X112812935Y-69352000D01*
X112776000Y-69348362D01*
X112739065Y-69352000D01*
X109531489Y-69352000D01*
X109003488Y-68824000D01*
X119949603Y-68824000D01*
X119995326Y-68869723D01*
X120163533Y-68982115D01*
X120350435Y-69059533D01*
X120548849Y-69099000D01*
X120751151Y-69099000D01*
X120949565Y-69059533D01*
X121136467Y-68982115D01*
X121304674Y-68869723D01*
X121350397Y-68824000D01*
X122624512Y-68824000D01*
X123327000Y-69526489D01*
X123327001Y-71689602D01*
X123281277Y-71735326D01*
X123168885Y-71903533D01*
X123091467Y-72090435D01*
X123052000Y-72288849D01*
X123052000Y-72491151D01*
X123091467Y-72689565D01*
X123168885Y-72876467D01*
X123281277Y-73044674D01*
X123424326Y-73187723D01*
X123592533Y-73300115D01*
X123779435Y-73377533D01*
X123977849Y-73417000D01*
X124180151Y-73417000D01*
X124378565Y-73377533D01*
X124565467Y-73300115D01*
X124733674Y-73187723D01*
X124876723Y-73044674D01*
X124989115Y-72876467D01*
X125066533Y-72689565D01*
X125106000Y-72491151D01*
X125106000Y-72288849D01*
X125075597Y-72136000D01*
X137033000Y-72136000D01*
X137033000Y-81280000D01*
X137035440Y-81304776D01*
X137042667Y-81328601D01*
X137054403Y-81350557D01*
X137070197Y-81369803D01*
X137089443Y-81385597D01*
X137111399Y-81397333D01*
X137135224Y-81404560D01*
X137160000Y-81407000D01*
X143256000Y-81407000D01*
X143280776Y-81404560D01*
X143304601Y-81397333D01*
X143326557Y-81385597D01*
X143345803Y-81369803D01*
X143361597Y-81350557D01*
X143373333Y-81328601D01*
X143380560Y-81304776D01*
X143383000Y-81280000D01*
X143383000Y-72136000D01*
X143380560Y-72111224D01*
X143373333Y-72087399D01*
X143361597Y-72065443D01*
X143345803Y-72046197D01*
X143326557Y-72030403D01*
X143304601Y-72018667D01*
X143280776Y-72011440D01*
X143256000Y-72009000D01*
X137160000Y-72009000D01*
X137135224Y-72011440D01*
X137111399Y-72018667D01*
X137089443Y-72030403D01*
X137070197Y-72046197D01*
X137054403Y-72065443D01*
X137042667Y-72087399D01*
X137035440Y-72111224D01*
X137033000Y-72136000D01*
X125075597Y-72136000D01*
X125066533Y-72090435D01*
X124989115Y-71903533D01*
X124876723Y-71735326D01*
X124831000Y-71689603D01*
X124831000Y-69251935D01*
X124834638Y-69214999D01*
X124831000Y-69178062D01*
X124820119Y-69067582D01*
X124777118Y-68925830D01*
X124722689Y-68824000D01*
X124707290Y-68795189D01*
X124636863Y-68709374D01*
X124613317Y-68680683D01*
X124584627Y-68657138D01*
X123898338Y-67970849D01*
X148706000Y-67970849D01*
X148706000Y-68173151D01*
X148745467Y-68371565D01*
X148822885Y-68558467D01*
X148935277Y-68726674D01*
X148981000Y-68772397D01*
X148981001Y-70864102D01*
X148935277Y-70909826D01*
X148822885Y-71078033D01*
X148745467Y-71264935D01*
X148706000Y-71463349D01*
X148706000Y-71665651D01*
X148745467Y-71864065D01*
X148822885Y-72050967D01*
X148935277Y-72219174D01*
X149078326Y-72362223D01*
X149246533Y-72474615D01*
X149433435Y-72552033D01*
X149631849Y-72591500D01*
X149834151Y-72591500D01*
X150032565Y-72552033D01*
X150219467Y-72474615D01*
X150387674Y-72362223D01*
X150530723Y-72219174D01*
X150643115Y-72050967D01*
X150720533Y-71864065D01*
X150760000Y-71665651D01*
X150760000Y-71463349D01*
X150720533Y-71264935D01*
X150643115Y-71078033D01*
X150530723Y-70909826D01*
X150485000Y-70864103D01*
X150485000Y-68772397D01*
X150530723Y-68726674D01*
X150643115Y-68558467D01*
X150720533Y-68371565D01*
X150760000Y-68173151D01*
X150760000Y-67970849D01*
X150720533Y-67772435D01*
X150643115Y-67585533D01*
X150530723Y-67417326D01*
X150387674Y-67274277D01*
X150219467Y-67161885D01*
X150032565Y-67084467D01*
X149834151Y-67045000D01*
X149631849Y-67045000D01*
X149433435Y-67084467D01*
X149246533Y-67161885D01*
X149078326Y-67274277D01*
X148935277Y-67417326D01*
X148822885Y-67585533D01*
X148745467Y-67772435D01*
X148706000Y-67970849D01*
X123898338Y-67970849D01*
X123493867Y-67566379D01*
X123470317Y-67537683D01*
X123355810Y-67443710D01*
X123225170Y-67373882D01*
X123083418Y-67330881D01*
X122972938Y-67320000D01*
X122972935Y-67320000D01*
X122936000Y-67316362D01*
X122899065Y-67320000D01*
X121350397Y-67320000D01*
X121304674Y-67274277D01*
X121136467Y-67161885D01*
X120949565Y-67084467D01*
X120751151Y-67045000D01*
X120548849Y-67045000D01*
X120350435Y-67084467D01*
X120163533Y-67161885D01*
X119995326Y-67274277D01*
X119949603Y-67320000D01*
X103632000Y-67320000D01*
X103632000Y-65883412D01*
X103741407Y-65956515D01*
X103943342Y-66040159D01*
X104157714Y-66082800D01*
X104376286Y-66082800D01*
X104590658Y-66040159D01*
X104792593Y-65956515D01*
X104974329Y-65835083D01*
X105128883Y-65680529D01*
X105250315Y-65498793D01*
X105333959Y-65296858D01*
X105376600Y-65082486D01*
X105376600Y-64863914D01*
X105697400Y-64863914D01*
X105697400Y-65082486D01*
X105740041Y-65296858D01*
X105823685Y-65498793D01*
X105945117Y-65680529D01*
X106099671Y-65835083D01*
X106281407Y-65956515D01*
X106483342Y-66040159D01*
X106697714Y-66082800D01*
X106916286Y-66082800D01*
X107130658Y-66040159D01*
X107332593Y-65956515D01*
X107514329Y-65835083D01*
X107668883Y-65680529D01*
X107790315Y-65498793D01*
X107873959Y-65296858D01*
X107916600Y-65082486D01*
X107916600Y-64863914D01*
X108237400Y-64863914D01*
X108237400Y-65082486D01*
X108280041Y-65296858D01*
X108363685Y-65498793D01*
X108485117Y-65680529D01*
X108639671Y-65835083D01*
X108821407Y-65956515D01*
X109023342Y-66040159D01*
X109237714Y-66082800D01*
X109456286Y-66082800D01*
X109670658Y-66040159D01*
X109872593Y-65956515D01*
X110054329Y-65835083D01*
X110208883Y-65680529D01*
X110330315Y-65498793D01*
X110413959Y-65296858D01*
X110456600Y-65082486D01*
X110456600Y-64863914D01*
X110777400Y-64863914D01*
X110777400Y-65082486D01*
X110820041Y-65296858D01*
X110903685Y-65498793D01*
X111025117Y-65680529D01*
X111179671Y-65835083D01*
X111361407Y-65956515D01*
X111563342Y-66040159D01*
X111777714Y-66082800D01*
X111996286Y-66082800D01*
X112210658Y-66040159D01*
X112412593Y-65956515D01*
X112594329Y-65835083D01*
X112748883Y-65680529D01*
X112870315Y-65498793D01*
X112953959Y-65296858D01*
X112996600Y-65082486D01*
X112996600Y-64863914D01*
X113317400Y-64863914D01*
X113317400Y-65082486D01*
X113360041Y-65296858D01*
X113443685Y-65498793D01*
X113565117Y-65680529D01*
X113719671Y-65835083D01*
X113901407Y-65956515D01*
X114103342Y-66040159D01*
X114317714Y-66082800D01*
X114536286Y-66082800D01*
X114750658Y-66040159D01*
X114952593Y-65956515D01*
X115134329Y-65835083D01*
X115288883Y-65680529D01*
X115410315Y-65498793D01*
X115493959Y-65296858D01*
X115536600Y-65082486D01*
X115536600Y-64863914D01*
X115857400Y-64863914D01*
X115857400Y-65082486D01*
X115900041Y-65296858D01*
X115983685Y-65498793D01*
X116105117Y-65680529D01*
X116259671Y-65835083D01*
X116441407Y-65956515D01*
X116643342Y-66040159D01*
X116857714Y-66082800D01*
X117076286Y-66082800D01*
X117290658Y-66040159D01*
X117492593Y-65956515D01*
X117674329Y-65835083D01*
X117828883Y-65680529D01*
X117950315Y-65498793D01*
X118033959Y-65296858D01*
X118076600Y-65082486D01*
X118076600Y-64863914D01*
X118397400Y-64863914D01*
X118397400Y-65082486D01*
X118440041Y-65296858D01*
X118523685Y-65498793D01*
X118645117Y-65680529D01*
X118799671Y-65835083D01*
X118981407Y-65956515D01*
X119183342Y-66040159D01*
X119397714Y-66082800D01*
X119616286Y-66082800D01*
X119830658Y-66040159D01*
X120032593Y-65956515D01*
X120214329Y-65835083D01*
X120368883Y-65680529D01*
X120490315Y-65498793D01*
X120573959Y-65296858D01*
X120616600Y-65082486D01*
X120616600Y-64863914D01*
X120937400Y-64863914D01*
X120937400Y-65082486D01*
X120980041Y-65296858D01*
X121063685Y-65498793D01*
X121185117Y-65680529D01*
X121339671Y-65835083D01*
X121521407Y-65956515D01*
X121723342Y-66040159D01*
X121937714Y-66082800D01*
X122156286Y-66082800D01*
X122370658Y-66040159D01*
X122572593Y-65956515D01*
X122754329Y-65835083D01*
X122908883Y-65680529D01*
X123030315Y-65498793D01*
X123113959Y-65296858D01*
X123156600Y-65082486D01*
X123156600Y-64863914D01*
X123477400Y-64863914D01*
X123477400Y-65082486D01*
X123520041Y-65296858D01*
X123603685Y-65498793D01*
X123725117Y-65680529D01*
X123879671Y-65835083D01*
X124061407Y-65956515D01*
X124263342Y-66040159D01*
X124477714Y-66082800D01*
X124696286Y-66082800D01*
X124910658Y-66040159D01*
X125112593Y-65956515D01*
X125294329Y-65835083D01*
X125448883Y-65680529D01*
X125570315Y-65498793D01*
X125653959Y-65296858D01*
X125696600Y-65082486D01*
X125696600Y-64863914D01*
X126017400Y-64863914D01*
X126017400Y-65082486D01*
X126060041Y-65296858D01*
X126143685Y-65498793D01*
X126265117Y-65680529D01*
X126419671Y-65835083D01*
X126601407Y-65956515D01*
X126803342Y-66040159D01*
X127017714Y-66082800D01*
X127236286Y-66082800D01*
X127450658Y-66040159D01*
X127652593Y-65956515D01*
X127834329Y-65835083D01*
X127988883Y-65680529D01*
X128110315Y-65498793D01*
X128193959Y-65296858D01*
X128236600Y-65082486D01*
X128236600Y-64863914D01*
X128557400Y-64863914D01*
X128557400Y-65082486D01*
X128600041Y-65296858D01*
X128683685Y-65498793D01*
X128805117Y-65680529D01*
X128959671Y-65835083D01*
X129141407Y-65956515D01*
X129343342Y-66040159D01*
X129557714Y-66082800D01*
X129776286Y-66082800D01*
X129990658Y-66040159D01*
X130192593Y-65956515D01*
X130374329Y-65835083D01*
X130528883Y-65680529D01*
X130650315Y-65498793D01*
X130733959Y-65296858D01*
X130776600Y-65082486D01*
X130776600Y-64863914D01*
X131097400Y-64863914D01*
X131097400Y-65082486D01*
X131140041Y-65296858D01*
X131223685Y-65498793D01*
X131345117Y-65680529D01*
X131499671Y-65835083D01*
X131681407Y-65956515D01*
X131883342Y-66040159D01*
X132097714Y-66082800D01*
X132316286Y-66082800D01*
X132530658Y-66040159D01*
X132732593Y-65956515D01*
X132914329Y-65835083D01*
X133068883Y-65680529D01*
X133190315Y-65498793D01*
X133273959Y-65296858D01*
X133316600Y-65082486D01*
X133316600Y-64863914D01*
X133637400Y-64863914D01*
X133637400Y-65082486D01*
X133680041Y-65296858D01*
X133763685Y-65498793D01*
X133885117Y-65680529D01*
X134039671Y-65835083D01*
X134221407Y-65956515D01*
X134423342Y-66040159D01*
X134637714Y-66082800D01*
X134856286Y-66082800D01*
X135070658Y-66040159D01*
X135272593Y-65956515D01*
X135454329Y-65835083D01*
X135608883Y-65680529D01*
X135730315Y-65498793D01*
X135813959Y-65296858D01*
X135856600Y-65082486D01*
X135856600Y-64863914D01*
X136177400Y-64863914D01*
X136177400Y-65082486D01*
X136220041Y-65296858D01*
X136303685Y-65498793D01*
X136425117Y-65680529D01*
X136579671Y-65835083D01*
X136761407Y-65956515D01*
X136963342Y-66040159D01*
X137177714Y-66082800D01*
X137396286Y-66082800D01*
X137610658Y-66040159D01*
X137812593Y-65956515D01*
X137994329Y-65835083D01*
X138148883Y-65680529D01*
X138270315Y-65498793D01*
X138353959Y-65296858D01*
X138396600Y-65082486D01*
X138396600Y-64863914D01*
X138717400Y-64863914D01*
X138717400Y-65082486D01*
X138760041Y-65296858D01*
X138843685Y-65498793D01*
X138965117Y-65680529D01*
X139119671Y-65835083D01*
X139301407Y-65956515D01*
X139503342Y-66040159D01*
X139717714Y-66082800D01*
X139936286Y-66082800D01*
X140150658Y-66040159D01*
X140352593Y-65956515D01*
X140534329Y-65835083D01*
X140688883Y-65680529D01*
X140810315Y-65498793D01*
X140893959Y-65296858D01*
X140936600Y-65082486D01*
X140936600Y-64863914D01*
X141257400Y-64863914D01*
X141257400Y-65082486D01*
X141300041Y-65296858D01*
X141383685Y-65498793D01*
X141505117Y-65680529D01*
X141659671Y-65835083D01*
X141841407Y-65956515D01*
X142043342Y-66040159D01*
X142257714Y-66082800D01*
X142476286Y-66082800D01*
X142690658Y-66040159D01*
X142892593Y-65956515D01*
X143074329Y-65835083D01*
X143228883Y-65680529D01*
X143350315Y-65498793D01*
X143433959Y-65296858D01*
X143476600Y-65082486D01*
X143476600Y-64863914D01*
X143433959Y-64649542D01*
X143350315Y-64447607D01*
X143228883Y-64265871D01*
X143074329Y-64111317D01*
X142892593Y-63989885D01*
X142690658Y-63906241D01*
X142476286Y-63863600D01*
X142257714Y-63863600D01*
X142043342Y-63906241D01*
X141841407Y-63989885D01*
X141659671Y-64111317D01*
X141505117Y-64265871D01*
X141383685Y-64447607D01*
X141300041Y-64649542D01*
X141257400Y-64863914D01*
X140936600Y-64863914D01*
X140893959Y-64649542D01*
X140810315Y-64447607D01*
X140688883Y-64265871D01*
X140534329Y-64111317D01*
X140352593Y-63989885D01*
X140150658Y-63906241D01*
X139936286Y-63863600D01*
X139717714Y-63863600D01*
X139503342Y-63906241D01*
X139301407Y-63989885D01*
X139119671Y-64111317D01*
X138965117Y-64265871D01*
X138843685Y-64447607D01*
X138760041Y-64649542D01*
X138717400Y-64863914D01*
X138396600Y-64863914D01*
X138353959Y-64649542D01*
X138270315Y-64447607D01*
X138148883Y-64265871D01*
X137994329Y-64111317D01*
X137812593Y-63989885D01*
X137610658Y-63906241D01*
X137396286Y-63863600D01*
X137177714Y-63863600D01*
X136963342Y-63906241D01*
X136761407Y-63989885D01*
X136579671Y-64111317D01*
X136425117Y-64265871D01*
X136303685Y-64447607D01*
X136220041Y-64649542D01*
X136177400Y-64863914D01*
X135856600Y-64863914D01*
X135813959Y-64649542D01*
X135730315Y-64447607D01*
X135608883Y-64265871D01*
X135454329Y-64111317D01*
X135272593Y-63989885D01*
X135070658Y-63906241D01*
X134856286Y-63863600D01*
X134637714Y-63863600D01*
X134423342Y-63906241D01*
X134221407Y-63989885D01*
X134039671Y-64111317D01*
X133885117Y-64265871D01*
X133763685Y-64447607D01*
X133680041Y-64649542D01*
X133637400Y-64863914D01*
X133316600Y-64863914D01*
X133273959Y-64649542D01*
X133190315Y-64447607D01*
X133068883Y-64265871D01*
X132914329Y-64111317D01*
X132732593Y-63989885D01*
X132530658Y-63906241D01*
X132316286Y-63863600D01*
X132097714Y-63863600D01*
X131883342Y-63906241D01*
X131681407Y-63989885D01*
X131499671Y-64111317D01*
X131345117Y-64265871D01*
X131223685Y-64447607D01*
X131140041Y-64649542D01*
X131097400Y-64863914D01*
X130776600Y-64863914D01*
X130733959Y-64649542D01*
X130650315Y-64447607D01*
X130528883Y-64265871D01*
X130374329Y-64111317D01*
X130192593Y-63989885D01*
X129990658Y-63906241D01*
X129776286Y-63863600D01*
X129557714Y-63863600D01*
X129343342Y-63906241D01*
X129141407Y-63989885D01*
X128959671Y-64111317D01*
X128805117Y-64265871D01*
X128683685Y-64447607D01*
X128600041Y-64649542D01*
X128557400Y-64863914D01*
X128236600Y-64863914D01*
X128193959Y-64649542D01*
X128110315Y-64447607D01*
X127988883Y-64265871D01*
X127834329Y-64111317D01*
X127652593Y-63989885D01*
X127450658Y-63906241D01*
X127236286Y-63863600D01*
X127017714Y-63863600D01*
X126803342Y-63906241D01*
X126601407Y-63989885D01*
X126419671Y-64111317D01*
X126265117Y-64265871D01*
X126143685Y-64447607D01*
X126060041Y-64649542D01*
X126017400Y-64863914D01*
X125696600Y-64863914D01*
X125653959Y-64649542D01*
X125570315Y-64447607D01*
X125448883Y-64265871D01*
X125294329Y-64111317D01*
X125112593Y-63989885D01*
X124910658Y-63906241D01*
X124696286Y-63863600D01*
X124477714Y-63863600D01*
X124263342Y-63906241D01*
X124061407Y-63989885D01*
X123879671Y-64111317D01*
X123725117Y-64265871D01*
X123603685Y-64447607D01*
X123520041Y-64649542D01*
X123477400Y-64863914D01*
X123156600Y-64863914D01*
X123113959Y-64649542D01*
X123030315Y-64447607D01*
X122908883Y-64265871D01*
X122754329Y-64111317D01*
X122572593Y-63989885D01*
X122370658Y-63906241D01*
X122156286Y-63863600D01*
X121937714Y-63863600D01*
X121723342Y-63906241D01*
X121521407Y-63989885D01*
X121339671Y-64111317D01*
X121185117Y-64265871D01*
X121063685Y-64447607D01*
X120980041Y-64649542D01*
X120937400Y-64863914D01*
X120616600Y-64863914D01*
X120573959Y-64649542D01*
X120490315Y-64447607D01*
X120368883Y-64265871D01*
X120214329Y-64111317D01*
X120032593Y-63989885D01*
X119830658Y-63906241D01*
X119616286Y-63863600D01*
X119397714Y-63863600D01*
X119183342Y-63906241D01*
X118981407Y-63989885D01*
X118799671Y-64111317D01*
X118645117Y-64265871D01*
X118523685Y-64447607D01*
X118440041Y-64649542D01*
X118397400Y-64863914D01*
X118076600Y-64863914D01*
X118033959Y-64649542D01*
X117950315Y-64447607D01*
X117828883Y-64265871D01*
X117674329Y-64111317D01*
X117492593Y-63989885D01*
X117290658Y-63906241D01*
X117076286Y-63863600D01*
X116857714Y-63863600D01*
X116643342Y-63906241D01*
X116441407Y-63989885D01*
X116259671Y-64111317D01*
X116105117Y-64265871D01*
X115983685Y-64447607D01*
X115900041Y-64649542D01*
X115857400Y-64863914D01*
X115536600Y-64863914D01*
X115493959Y-64649542D01*
X115410315Y-64447607D01*
X115288883Y-64265871D01*
X115134329Y-64111317D01*
X114952593Y-63989885D01*
X114750658Y-63906241D01*
X114536286Y-63863600D01*
X114317714Y-63863600D01*
X114103342Y-63906241D01*
X113901407Y-63989885D01*
X113719671Y-64111317D01*
X113565117Y-64265871D01*
X113443685Y-64447607D01*
X113360041Y-64649542D01*
X113317400Y-64863914D01*
X112996600Y-64863914D01*
X112953959Y-64649542D01*
X112870315Y-64447607D01*
X112748883Y-64265871D01*
X112594329Y-64111317D01*
X112412593Y-63989885D01*
X112210658Y-63906241D01*
X111996286Y-63863600D01*
X111777714Y-63863600D01*
X111563342Y-63906241D01*
X111361407Y-63989885D01*
X111179671Y-64111317D01*
X111025117Y-64265871D01*
X110903685Y-64447607D01*
X110820041Y-64649542D01*
X110777400Y-64863914D01*
X110456600Y-64863914D01*
X110413959Y-64649542D01*
X110330315Y-64447607D01*
X110208883Y-64265871D01*
X110054329Y-64111317D01*
X109872593Y-63989885D01*
X109670658Y-63906241D01*
X109456286Y-63863600D01*
X109237714Y-63863600D01*
X109023342Y-63906241D01*
X108821407Y-63989885D01*
X108639671Y-64111317D01*
X108485117Y-64265871D01*
X108363685Y-64447607D01*
X108280041Y-64649542D01*
X108237400Y-64863914D01*
X107916600Y-64863914D01*
X107873959Y-64649542D01*
X107790315Y-64447607D01*
X107668883Y-64265871D01*
X107514329Y-64111317D01*
X107332593Y-63989885D01*
X107130658Y-63906241D01*
X106916286Y-63863600D01*
X106697714Y-63863600D01*
X106483342Y-63906241D01*
X106281407Y-63989885D01*
X106099671Y-64111317D01*
X105945117Y-64265871D01*
X105823685Y-64447607D01*
X105740041Y-64649542D01*
X105697400Y-64863914D01*
X105376600Y-64863914D01*
X105333959Y-64649542D01*
X105250315Y-64447607D01*
X105128883Y-64265871D01*
X104974329Y-64111317D01*
X104792593Y-63989885D01*
X104590658Y-63906241D01*
X104376286Y-63863600D01*
X104157714Y-63863600D01*
X103943342Y-63906241D01*
X103741407Y-63989885D01*
X103632000Y-64062988D01*
X103632000Y-63343412D01*
X103741407Y-63416515D01*
X103943342Y-63500159D01*
X104157714Y-63542800D01*
X104376286Y-63542800D01*
X104590658Y-63500159D01*
X104792593Y-63416515D01*
X104974329Y-63295083D01*
X105128883Y-63140529D01*
X105250315Y-62958793D01*
X105333959Y-62756858D01*
X105376600Y-62542486D01*
X105376600Y-62323914D01*
X105697400Y-62323914D01*
X105697400Y-62542486D01*
X105740041Y-62756858D01*
X105823685Y-62958793D01*
X105945117Y-63140529D01*
X106099671Y-63295083D01*
X106281407Y-63416515D01*
X106483342Y-63500159D01*
X106697714Y-63542800D01*
X106916286Y-63542800D01*
X107130658Y-63500159D01*
X107332593Y-63416515D01*
X107514329Y-63295083D01*
X107668883Y-63140529D01*
X107790315Y-62958793D01*
X107873959Y-62756858D01*
X107916600Y-62542486D01*
X107916600Y-62323914D01*
X108237400Y-62323914D01*
X108237400Y-62542486D01*
X108280041Y-62756858D01*
X108363685Y-62958793D01*
X108485117Y-63140529D01*
X108639671Y-63295083D01*
X108821407Y-63416515D01*
X109023342Y-63500159D01*
X109237714Y-63542800D01*
X109456286Y-63542800D01*
X109670658Y-63500159D01*
X109872593Y-63416515D01*
X110054329Y-63295083D01*
X110208883Y-63140529D01*
X110330315Y-62958793D01*
X110413959Y-62756858D01*
X110456600Y-62542486D01*
X110456600Y-62323914D01*
X110777400Y-62323914D01*
X110777400Y-62542486D01*
X110820041Y-62756858D01*
X110903685Y-62958793D01*
X111025117Y-63140529D01*
X111179671Y-63295083D01*
X111361407Y-63416515D01*
X111563342Y-63500159D01*
X111777714Y-63542800D01*
X111996286Y-63542800D01*
X112210658Y-63500159D01*
X112412593Y-63416515D01*
X112594329Y-63295083D01*
X112748883Y-63140529D01*
X112870315Y-62958793D01*
X112953959Y-62756858D01*
X112996600Y-62542486D01*
X112996600Y-62323914D01*
X113317400Y-62323914D01*
X113317400Y-62542486D01*
X113360041Y-62756858D01*
X113443685Y-62958793D01*
X113565117Y-63140529D01*
X113719671Y-63295083D01*
X113901407Y-63416515D01*
X114103342Y-63500159D01*
X114317714Y-63542800D01*
X114536286Y-63542800D01*
X114750658Y-63500159D01*
X114952593Y-63416515D01*
X115134329Y-63295083D01*
X115288883Y-63140529D01*
X115410315Y-62958793D01*
X115493959Y-62756858D01*
X115536600Y-62542486D01*
X115536600Y-62323914D01*
X115857400Y-62323914D01*
X115857400Y-62542486D01*
X115900041Y-62756858D01*
X115983685Y-62958793D01*
X116105117Y-63140529D01*
X116259671Y-63295083D01*
X116441407Y-63416515D01*
X116643342Y-63500159D01*
X116857714Y-63542800D01*
X117076286Y-63542800D01*
X117290658Y-63500159D01*
X117492593Y-63416515D01*
X117674329Y-63295083D01*
X117828883Y-63140529D01*
X117950315Y-62958793D01*
X118033959Y-62756858D01*
X118076600Y-62542486D01*
X118076600Y-62323914D01*
X118397400Y-62323914D01*
X118397400Y-62542486D01*
X118440041Y-62756858D01*
X118523685Y-62958793D01*
X118645117Y-63140529D01*
X118799671Y-63295083D01*
X118981407Y-63416515D01*
X119183342Y-63500159D01*
X119397714Y-63542800D01*
X119616286Y-63542800D01*
X119830658Y-63500159D01*
X120032593Y-63416515D01*
X120214329Y-63295083D01*
X120368883Y-63140529D01*
X120490315Y-62958793D01*
X120573959Y-62756858D01*
X120616600Y-62542486D01*
X120616600Y-62323914D01*
X120937400Y-62323914D01*
X120937400Y-62542486D01*
X120980041Y-62756858D01*
X121063685Y-62958793D01*
X121185117Y-63140529D01*
X121339671Y-63295083D01*
X121521407Y-63416515D01*
X121723342Y-63500159D01*
X121937714Y-63542800D01*
X122156286Y-63542800D01*
X122370658Y-63500159D01*
X122572593Y-63416515D01*
X122754329Y-63295083D01*
X122908883Y-63140529D01*
X123030315Y-62958793D01*
X123113959Y-62756858D01*
X123156600Y-62542486D01*
X123156600Y-62323914D01*
X123477400Y-62323914D01*
X123477400Y-62542486D01*
X123520041Y-62756858D01*
X123603685Y-62958793D01*
X123725117Y-63140529D01*
X123879671Y-63295083D01*
X124061407Y-63416515D01*
X124263342Y-63500159D01*
X124477714Y-63542800D01*
X124696286Y-63542800D01*
X124910658Y-63500159D01*
X125112593Y-63416515D01*
X125294329Y-63295083D01*
X125448883Y-63140529D01*
X125570315Y-62958793D01*
X125653959Y-62756858D01*
X125696600Y-62542486D01*
X125696600Y-62323914D01*
X126017400Y-62323914D01*
X126017400Y-62542486D01*
X126060041Y-62756858D01*
X126143685Y-62958793D01*
X126265117Y-63140529D01*
X126419671Y-63295083D01*
X126601407Y-63416515D01*
X126803342Y-63500159D01*
X127017714Y-63542800D01*
X127236286Y-63542800D01*
X127450658Y-63500159D01*
X127652593Y-63416515D01*
X127834329Y-63295083D01*
X127988883Y-63140529D01*
X128110315Y-62958793D01*
X128193959Y-62756858D01*
X128236600Y-62542486D01*
X128236600Y-62323914D01*
X128557400Y-62323914D01*
X128557400Y-62542486D01*
X128600041Y-62756858D01*
X128683685Y-62958793D01*
X128805117Y-63140529D01*
X128959671Y-63295083D01*
X129141407Y-63416515D01*
X129343342Y-63500159D01*
X129557714Y-63542800D01*
X129776286Y-63542800D01*
X129990658Y-63500159D01*
X130192593Y-63416515D01*
X130374329Y-63295083D01*
X130528883Y-63140529D01*
X130650315Y-62958793D01*
X130733959Y-62756858D01*
X130776600Y-62542486D01*
X130776600Y-62323914D01*
X131097400Y-62323914D01*
X131097400Y-62542486D01*
X131140041Y-62756858D01*
X131223685Y-62958793D01*
X131345117Y-63140529D01*
X131499671Y-63295083D01*
X131681407Y-63416515D01*
X131883342Y-63500159D01*
X132097714Y-63542800D01*
X132316286Y-63542800D01*
X132530658Y-63500159D01*
X132732593Y-63416515D01*
X132914329Y-63295083D01*
X133068883Y-63140529D01*
X133190315Y-62958793D01*
X133273959Y-62756858D01*
X133316600Y-62542486D01*
X133316600Y-62323914D01*
X133637400Y-62323914D01*
X133637400Y-62542486D01*
X133680041Y-62756858D01*
X133763685Y-62958793D01*
X133885117Y-63140529D01*
X134039671Y-63295083D01*
X134221407Y-63416515D01*
X134423342Y-63500159D01*
X134637714Y-63542800D01*
X134856286Y-63542800D01*
X135070658Y-63500159D01*
X135272593Y-63416515D01*
X135454329Y-63295083D01*
X135608883Y-63140529D01*
X135730315Y-62958793D01*
X135813959Y-62756858D01*
X135856600Y-62542486D01*
X135856600Y-62323914D01*
X136177400Y-62323914D01*
X136177400Y-62542486D01*
X136220041Y-62756858D01*
X136303685Y-62958793D01*
X136425117Y-63140529D01*
X136579671Y-63295083D01*
X136761407Y-63416515D01*
X136963342Y-63500159D01*
X137177714Y-63542800D01*
X137396286Y-63542800D01*
X137610658Y-63500159D01*
X137812593Y-63416515D01*
X137994329Y-63295083D01*
X138148883Y-63140529D01*
X138270315Y-62958793D01*
X138353959Y-62756858D01*
X138396600Y-62542486D01*
X138396600Y-62323914D01*
X138717400Y-62323914D01*
X138717400Y-62542486D01*
X138760041Y-62756858D01*
X138843685Y-62958793D01*
X138965117Y-63140529D01*
X139119671Y-63295083D01*
X139301407Y-63416515D01*
X139503342Y-63500159D01*
X139717714Y-63542800D01*
X139936286Y-63542800D01*
X140150658Y-63500159D01*
X140352593Y-63416515D01*
X140534329Y-63295083D01*
X140688883Y-63140529D01*
X140810315Y-62958793D01*
X140893959Y-62756858D01*
X140936600Y-62542486D01*
X140936600Y-62323914D01*
X141257400Y-62323914D01*
X141257400Y-62542486D01*
X141300041Y-62756858D01*
X141383685Y-62958793D01*
X141505117Y-63140529D01*
X141659671Y-63295083D01*
X141841407Y-63416515D01*
X142043342Y-63500159D01*
X142257714Y-63542800D01*
X142476286Y-63542800D01*
X142690658Y-63500159D01*
X142892593Y-63416515D01*
X143074329Y-63295083D01*
X143228883Y-63140529D01*
X143350315Y-62958793D01*
X143433959Y-62756858D01*
X143476600Y-62542486D01*
X143476600Y-62323914D01*
X143797400Y-62323914D01*
X143797400Y-62542486D01*
X143840041Y-62756858D01*
X143923685Y-62958793D01*
X144045117Y-63140529D01*
X144199671Y-63295083D01*
X144381407Y-63416515D01*
X144583342Y-63500159D01*
X144668325Y-63517063D01*
X144661000Y-63553887D01*
X144661000Y-63852513D01*
X144668325Y-63889337D01*
X144583342Y-63906241D01*
X144381407Y-63989885D01*
X144199671Y-64111317D01*
X144045117Y-64265871D01*
X143923685Y-64447607D01*
X143840041Y-64649542D01*
X143797400Y-64863914D01*
X143797400Y-65082486D01*
X143840041Y-65296858D01*
X143923685Y-65498793D01*
X144045117Y-65680529D01*
X144199671Y-65835083D01*
X144381407Y-65956515D01*
X144583342Y-66040159D01*
X144797714Y-66082800D01*
X145016286Y-66082800D01*
X145230658Y-66040159D01*
X145432593Y-65956515D01*
X145614329Y-65835083D01*
X145768883Y-65680529D01*
X145890315Y-65498793D01*
X145973959Y-65296858D01*
X145990863Y-65211875D01*
X146027687Y-65219200D01*
X146326313Y-65219200D01*
X146363137Y-65211875D01*
X146380041Y-65296858D01*
X146463685Y-65498793D01*
X146585117Y-65680529D01*
X146739671Y-65835083D01*
X146921407Y-65956515D01*
X147123342Y-66040159D01*
X147337714Y-66082800D01*
X147556286Y-66082800D01*
X147770658Y-66040159D01*
X147972593Y-65956515D01*
X148154329Y-65835083D01*
X148308883Y-65680529D01*
X148430315Y-65498793D01*
X148513959Y-65296858D01*
X148556600Y-65082486D01*
X148556600Y-64863914D01*
X148513959Y-64649542D01*
X148430315Y-64447607D01*
X148308883Y-64265871D01*
X148154329Y-64111317D01*
X147972593Y-63989885D01*
X147770658Y-63906241D01*
X147685675Y-63889337D01*
X147693000Y-63852513D01*
X147693000Y-63553887D01*
X147685675Y-63517063D01*
X147770658Y-63500159D01*
X147972593Y-63416515D01*
X148154329Y-63295083D01*
X148308883Y-63140529D01*
X148430315Y-62958793D01*
X148513959Y-62756858D01*
X148556600Y-62542486D01*
X148556600Y-62323914D01*
X148513959Y-62109542D01*
X148430315Y-61907607D01*
X148308883Y-61725871D01*
X148154329Y-61571317D01*
X147972593Y-61449885D01*
X147770658Y-61366241D01*
X147556286Y-61323600D01*
X147337714Y-61323600D01*
X147123342Y-61366241D01*
X146921407Y-61449885D01*
X146739671Y-61571317D01*
X146585117Y-61725871D01*
X146463685Y-61907607D01*
X146380041Y-62109542D01*
X146363137Y-62194525D01*
X146326313Y-62187200D01*
X146027687Y-62187200D01*
X145990863Y-62194525D01*
X145973959Y-62109542D01*
X145890315Y-61907607D01*
X145768883Y-61725871D01*
X145614329Y-61571317D01*
X145432593Y-61449885D01*
X145230658Y-61366241D01*
X145016286Y-61323600D01*
X144797714Y-61323600D01*
X144583342Y-61366241D01*
X144381407Y-61449885D01*
X144199671Y-61571317D01*
X144045117Y-61725871D01*
X143923685Y-61907607D01*
X143840041Y-62109542D01*
X143797400Y-62323914D01*
X143476600Y-62323914D01*
X143433959Y-62109542D01*
X143350315Y-61907607D01*
X143228883Y-61725871D01*
X143074329Y-61571317D01*
X142892593Y-61449885D01*
X142690658Y-61366241D01*
X142476286Y-61323600D01*
X142257714Y-61323600D01*
X142043342Y-61366241D01*
X141841407Y-61449885D01*
X141659671Y-61571317D01*
X141505117Y-61725871D01*
X141383685Y-61907607D01*
X141300041Y-62109542D01*
X141257400Y-62323914D01*
X140936600Y-62323914D01*
X140893959Y-62109542D01*
X140810315Y-61907607D01*
X140688883Y-61725871D01*
X140534329Y-61571317D01*
X140352593Y-61449885D01*
X140150658Y-61366241D01*
X139936286Y-61323600D01*
X139717714Y-61323600D01*
X139503342Y-61366241D01*
X139301407Y-61449885D01*
X139119671Y-61571317D01*
X138965117Y-61725871D01*
X138843685Y-61907607D01*
X138760041Y-62109542D01*
X138717400Y-62323914D01*
X138396600Y-62323914D01*
X138353959Y-62109542D01*
X138270315Y-61907607D01*
X138148883Y-61725871D01*
X137994329Y-61571317D01*
X137812593Y-61449885D01*
X137610658Y-61366241D01*
X137396286Y-61323600D01*
X137177714Y-61323600D01*
X136963342Y-61366241D01*
X136761407Y-61449885D01*
X136579671Y-61571317D01*
X136425117Y-61725871D01*
X136303685Y-61907607D01*
X136220041Y-62109542D01*
X136177400Y-62323914D01*
X135856600Y-62323914D01*
X135813959Y-62109542D01*
X135730315Y-61907607D01*
X135608883Y-61725871D01*
X135454329Y-61571317D01*
X135272593Y-61449885D01*
X135070658Y-61366241D01*
X134856286Y-61323600D01*
X134637714Y-61323600D01*
X134423342Y-61366241D01*
X134221407Y-61449885D01*
X134039671Y-61571317D01*
X133885117Y-61725871D01*
X133763685Y-61907607D01*
X133680041Y-62109542D01*
X133637400Y-62323914D01*
X133316600Y-62323914D01*
X133273959Y-62109542D01*
X133190315Y-61907607D01*
X133068883Y-61725871D01*
X132914329Y-61571317D01*
X132732593Y-61449885D01*
X132530658Y-61366241D01*
X132316286Y-61323600D01*
X132097714Y-61323600D01*
X131883342Y-61366241D01*
X131681407Y-61449885D01*
X131499671Y-61571317D01*
X131345117Y-61725871D01*
X131223685Y-61907607D01*
X131140041Y-62109542D01*
X131097400Y-62323914D01*
X130776600Y-62323914D01*
X130733959Y-62109542D01*
X130650315Y-61907607D01*
X130528883Y-61725871D01*
X130374329Y-61571317D01*
X130192593Y-61449885D01*
X129990658Y-61366241D01*
X129776286Y-61323600D01*
X129557714Y-61323600D01*
X129343342Y-61366241D01*
X129141407Y-61449885D01*
X128959671Y-61571317D01*
X128805117Y-61725871D01*
X128683685Y-61907607D01*
X128600041Y-62109542D01*
X128557400Y-62323914D01*
X128236600Y-62323914D01*
X128193959Y-62109542D01*
X128110315Y-61907607D01*
X127988883Y-61725871D01*
X127834329Y-61571317D01*
X127652593Y-61449885D01*
X127450658Y-61366241D01*
X127236286Y-61323600D01*
X127017714Y-61323600D01*
X126803342Y-61366241D01*
X126601407Y-61449885D01*
X126419671Y-61571317D01*
X126265117Y-61725871D01*
X126143685Y-61907607D01*
X126060041Y-62109542D01*
X126017400Y-62323914D01*
X125696600Y-62323914D01*
X125653959Y-62109542D01*
X125570315Y-61907607D01*
X125448883Y-61725871D01*
X125294329Y-61571317D01*
X125112593Y-61449885D01*
X124910658Y-61366241D01*
X124696286Y-61323600D01*
X124477714Y-61323600D01*
X124263342Y-61366241D01*
X124061407Y-61449885D01*
X123879671Y-61571317D01*
X123725117Y-61725871D01*
X123603685Y-61907607D01*
X123520041Y-62109542D01*
X123477400Y-62323914D01*
X123156600Y-62323914D01*
X123113959Y-62109542D01*
X123030315Y-61907607D01*
X122908883Y-61725871D01*
X122754329Y-61571317D01*
X122572593Y-61449885D01*
X122370658Y-61366241D01*
X122156286Y-61323600D01*
X121937714Y-61323600D01*
X121723342Y-61366241D01*
X121521407Y-61449885D01*
X121339671Y-61571317D01*
X121185117Y-61725871D01*
X121063685Y-61907607D01*
X120980041Y-62109542D01*
X120937400Y-62323914D01*
X120616600Y-62323914D01*
X120573959Y-62109542D01*
X120490315Y-61907607D01*
X120368883Y-61725871D01*
X120214329Y-61571317D01*
X120032593Y-61449885D01*
X119830658Y-61366241D01*
X119616286Y-61323600D01*
X119397714Y-61323600D01*
X119183342Y-61366241D01*
X118981407Y-61449885D01*
X118799671Y-61571317D01*
X118645117Y-61725871D01*
X118523685Y-61907607D01*
X118440041Y-62109542D01*
X118397400Y-62323914D01*
X118076600Y-62323914D01*
X118033959Y-62109542D01*
X117950315Y-61907607D01*
X117828883Y-61725871D01*
X117674329Y-61571317D01*
X117492593Y-61449885D01*
X117290658Y-61366241D01*
X117076286Y-61323600D01*
X116857714Y-61323600D01*
X116643342Y-61366241D01*
X116441407Y-61449885D01*
X116259671Y-61571317D01*
X116105117Y-61725871D01*
X115983685Y-61907607D01*
X115900041Y-62109542D01*
X115857400Y-62323914D01*
X115536600Y-62323914D01*
X115493959Y-62109542D01*
X115410315Y-61907607D01*
X115288883Y-61725871D01*
X115134329Y-61571317D01*
X114952593Y-61449885D01*
X114750658Y-61366241D01*
X114536286Y-61323600D01*
X114317714Y-61323600D01*
X114103342Y-61366241D01*
X113901407Y-61449885D01*
X113719671Y-61571317D01*
X113565117Y-61725871D01*
X113443685Y-61907607D01*
X113360041Y-62109542D01*
X113317400Y-62323914D01*
X112996600Y-62323914D01*
X112953959Y-62109542D01*
X112870315Y-61907607D01*
X112748883Y-61725871D01*
X112594329Y-61571317D01*
X112412593Y-61449885D01*
X112210658Y-61366241D01*
X111996286Y-61323600D01*
X111777714Y-61323600D01*
X111563342Y-61366241D01*
X111361407Y-61449885D01*
X111179671Y-61571317D01*
X111025117Y-61725871D01*
X110903685Y-61907607D01*
X110820041Y-62109542D01*
X110777400Y-62323914D01*
X110456600Y-62323914D01*
X110413959Y-62109542D01*
X110330315Y-61907607D01*
X110208883Y-61725871D01*
X110054329Y-61571317D01*
X109872593Y-61449885D01*
X109670658Y-61366241D01*
X109456286Y-61323600D01*
X109237714Y-61323600D01*
X109023342Y-61366241D01*
X108821407Y-61449885D01*
X108639671Y-61571317D01*
X108485117Y-61725871D01*
X108363685Y-61907607D01*
X108280041Y-62109542D01*
X108237400Y-62323914D01*
X107916600Y-62323914D01*
X107873959Y-62109542D01*
X107790315Y-61907607D01*
X107668883Y-61725871D01*
X107514329Y-61571317D01*
X107332593Y-61449885D01*
X107130658Y-61366241D01*
X106916286Y-61323600D01*
X106697714Y-61323600D01*
X106483342Y-61366241D01*
X106281407Y-61449885D01*
X106099671Y-61571317D01*
X105945117Y-61725871D01*
X105823685Y-61907607D01*
X105740041Y-62109542D01*
X105697400Y-62323914D01*
X105376600Y-62323914D01*
X105333959Y-62109542D01*
X105250315Y-61907607D01*
X105128883Y-61725871D01*
X104974329Y-61571317D01*
X104792593Y-61449885D01*
X104590658Y-61366241D01*
X104376286Y-61323600D01*
X104157714Y-61323600D01*
X103943342Y-61366241D01*
X103741407Y-61449885D01*
X103632000Y-61522988D01*
X103632000Y-60579000D01*
X151403998Y-60579000D01*
X151363719Y-60587012D01*
G36*
X120020805Y-93162854D02*
G01*
X119866495Y-93209663D01*
X119627279Y-93337527D01*
X119417603Y-93509603D01*
X119245527Y-93719279D01*
X119117663Y-93958495D01*
X119038925Y-94218061D01*
X119012338Y-94488000D01*
X119038925Y-94757939D01*
X119117663Y-95017505D01*
X119245527Y-95256721D01*
X119417603Y-95466397D01*
X119470150Y-95509521D01*
X120543000Y-96582371D01*
X120543000Y-96975797D01*
X120470628Y-96997751D01*
X120274843Y-97102400D01*
X120146240Y-97207943D01*
X119829182Y-97525000D01*
X118414451Y-97525000D01*
X118364000Y-97520031D01*
X118313549Y-97525000D01*
X118262849Y-97525000D01*
X118213123Y-97534891D01*
X118162673Y-97539860D01*
X118114162Y-97554576D01*
X118064435Y-97564467D01*
X118017594Y-97583869D01*
X117969083Y-97598585D01*
X117924372Y-97622484D01*
X117877533Y-97641885D01*
X117835381Y-97670050D01*
X117790669Y-97693949D01*
X117751480Y-97726111D01*
X117709326Y-97754277D01*
X117673475Y-97790128D01*
X117634288Y-97822288D01*
X117602128Y-97861475D01*
X117566277Y-97897326D01*
X117538111Y-97939480D01*
X117505949Y-97978669D01*
X117482052Y-98023378D01*
X117453885Y-98065533D01*
X117434484Y-98112372D01*
X117410585Y-98157083D01*
X117395869Y-98205594D01*
X117376467Y-98252435D01*
X117366576Y-98302162D01*
X117351860Y-98350673D01*
X117346891Y-98401123D01*
X117337000Y-98450849D01*
X117337000Y-98501549D01*
X117332031Y-98552000D01*
X117337000Y-98602451D01*
X117337000Y-99009549D01*
X117332031Y-99060000D01*
X117337000Y-99110450D01*
X117337000Y-99517549D01*
X117332031Y-99568000D01*
X117337000Y-99618450D01*
X117337000Y-99669151D01*
X117346891Y-99718877D01*
X117351860Y-99769327D01*
X117366576Y-99817838D01*
X117376467Y-99867565D01*
X117395869Y-99914406D01*
X117410585Y-99962917D01*
X117411698Y-99965000D01*
X114766818Y-99965000D01*
X113903000Y-99101182D01*
X113903000Y-95956635D01*
X113886693Y-95791069D01*
X113822250Y-95578629D01*
X113802259Y-95541229D01*
X116643489Y-92700000D01*
X119570461Y-92700000D01*
X120020805Y-93162854D01*
G37*
X120020805Y-93162854D02*
X119866495Y-93209663D01*
X119627279Y-93337527D01*
X119417603Y-93509603D01*
X119245527Y-93719279D01*
X119117663Y-93958495D01*
X119038925Y-94218061D01*
X119012338Y-94488000D01*
X119038925Y-94757939D01*
X119117663Y-95017505D01*
X119245527Y-95256721D01*
X119417603Y-95466397D01*
X119470150Y-95509521D01*
X120543000Y-96582371D01*
X120543000Y-96975797D01*
X120470628Y-96997751D01*
X120274843Y-97102400D01*
X120146240Y-97207943D01*
X119829182Y-97525000D01*
X118414451Y-97525000D01*
X118364000Y-97520031D01*
X118313549Y-97525000D01*
X118262849Y-97525000D01*
X118213123Y-97534891D01*
X118162673Y-97539860D01*
X118114162Y-97554576D01*
X118064435Y-97564467D01*
X118017594Y-97583869D01*
X117969083Y-97598585D01*
X117924372Y-97622484D01*
X117877533Y-97641885D01*
X117835381Y-97670050D01*
X117790669Y-97693949D01*
X117751480Y-97726111D01*
X117709326Y-97754277D01*
X117673475Y-97790128D01*
X117634288Y-97822288D01*
X117602128Y-97861475D01*
X117566277Y-97897326D01*
X117538111Y-97939480D01*
X117505949Y-97978669D01*
X117482052Y-98023378D01*
X117453885Y-98065533D01*
X117434484Y-98112372D01*
X117410585Y-98157083D01*
X117395869Y-98205594D01*
X117376467Y-98252435D01*
X117366576Y-98302162D01*
X117351860Y-98350673D01*
X117346891Y-98401123D01*
X117337000Y-98450849D01*
X117337000Y-98501549D01*
X117332031Y-98552000D01*
X117337000Y-98602451D01*
X117337000Y-99009549D01*
X117332031Y-99060000D01*
X117337000Y-99110450D01*
X117337000Y-99517549D01*
X117332031Y-99568000D01*
X117337000Y-99618450D01*
X117337000Y-99669151D01*
X117346891Y-99718877D01*
X117351860Y-99769327D01*
X117366576Y-99817838D01*
X117376467Y-99867565D01*
X117395869Y-99914406D01*
X117410585Y-99962917D01*
X117411698Y-99965000D01*
X114766818Y-99965000D01*
X113903000Y-99101182D01*
X113903000Y-95956635D01*
X113886693Y-95791069D01*
X113822250Y-95578629D01*
X113802259Y-95541229D01*
X116643489Y-92700000D01*
X119570461Y-92700000D01*
X120020805Y-93162854D01*
G36*
X106923000Y-68859849D02*
G01*
X106923000Y-69062151D01*
X106962467Y-69260565D01*
X107039885Y-69447467D01*
X107152277Y-69615674D01*
X107295326Y-69758723D01*
X107463533Y-69871115D01*
X107650435Y-69948533D01*
X107848849Y-69988000D01*
X108040512Y-69988000D01*
X108662136Y-70609625D01*
X108685683Y-70638317D01*
X108714374Y-70661863D01*
X108800189Y-70732290D01*
X108825297Y-70745710D01*
X108930830Y-70802118D01*
X109072582Y-70845119D01*
X109183062Y-70856000D01*
X109183064Y-70856000D01*
X109219999Y-70859638D01*
X109256935Y-70856000D01*
X110743955Y-70856000D01*
X110722885Y-70887533D01*
X110645467Y-71074435D01*
X110606000Y-71272849D01*
X110606000Y-71475151D01*
X110645467Y-71673565D01*
X110722885Y-71860467D01*
X110835277Y-72028674D01*
X110978326Y-72171723D01*
X111146533Y-72284115D01*
X111333435Y-72361533D01*
X111531849Y-72401000D01*
X111734151Y-72401000D01*
X111932565Y-72361533D01*
X112119467Y-72284115D01*
X112287674Y-72171723D01*
X112333397Y-72126000D01*
X112464512Y-72126000D01*
X116342000Y-76003489D01*
X116342001Y-80358629D01*
X112177857Y-76194486D01*
X112020721Y-76065528D01*
X111781504Y-75937663D01*
X111521939Y-75858925D01*
X111252000Y-75832338D01*
X110982061Y-75858925D01*
X110722496Y-75937663D01*
X110483279Y-76065528D01*
X110429448Y-76109706D01*
X110489988Y-71629716D01*
X110487883Y-71604909D01*
X110480979Y-71580989D01*
X110469540Y-71558876D01*
X110454008Y-71539419D01*
X110434978Y-71523366D01*
X110413182Y-71511335D01*
X110389457Y-71503786D01*
X110363000Y-71501000D01*
X103729265Y-71501000D01*
X103632000Y-71403735D01*
X103632000Y-69244452D01*
X103643000Y-69189151D01*
X103643000Y-68986849D01*
X103632000Y-68931549D01*
X103632000Y-68824000D01*
X106930131Y-68824000D01*
X106923000Y-68859849D01*
G37*
X106923000Y-68859849D02*
X106923000Y-69062151D01*
X106962467Y-69260565D01*
X107039885Y-69447467D01*
X107152277Y-69615674D01*
X107295326Y-69758723D01*
X107463533Y-69871115D01*
X107650435Y-69948533D01*
X107848849Y-69988000D01*
X108040512Y-69988000D01*
X108662136Y-70609625D01*
X108685683Y-70638317D01*
X108714374Y-70661863D01*
X108800189Y-70732290D01*
X108825297Y-70745710D01*
X108930830Y-70802118D01*
X109072582Y-70845119D01*
X109183062Y-70856000D01*
X109183064Y-70856000D01*
X109219999Y-70859638D01*
X109256935Y-70856000D01*
X110743955Y-70856000D01*
X110722885Y-70887533D01*
X110645467Y-71074435D01*
X110606000Y-71272849D01*
X110606000Y-71475151D01*
X110645467Y-71673565D01*
X110722885Y-71860467D01*
X110835277Y-72028674D01*
X110978326Y-72171723D01*
X111146533Y-72284115D01*
X111333435Y-72361533D01*
X111531849Y-72401000D01*
X111734151Y-72401000D01*
X111932565Y-72361533D01*
X112119467Y-72284115D01*
X112287674Y-72171723D01*
X112333397Y-72126000D01*
X112464512Y-72126000D01*
X116342000Y-76003489D01*
X116342001Y-80358629D01*
X112177857Y-76194486D01*
X112020721Y-76065528D01*
X111781504Y-75937663D01*
X111521939Y-75858925D01*
X111252000Y-75832338D01*
X110982061Y-75858925D01*
X110722496Y-75937663D01*
X110483279Y-76065528D01*
X110429448Y-76109706D01*
X110489988Y-71629716D01*
X110487883Y-71604909D01*
X110480979Y-71580989D01*
X110469540Y-71558876D01*
X110454008Y-71539419D01*
X110434978Y-71523366D01*
X110413182Y-71511335D01*
X110389457Y-71503786D01*
X110363000Y-71501000D01*
X103729265Y-71501000D01*
X103632000Y-71403735D01*
X103632000Y-69244452D01*
X103643000Y-69189151D01*
X103643000Y-68986849D01*
X103632000Y-68931549D01*
X103632000Y-68824000D01*
X106930131Y-68824000D01*
X106923000Y-68859849D01*
M02*
