G04 #@! TF.GenerationSoftware,KiCad,Pcbnew,(5.1.5)-2*
G04 #@! TF.CreationDate,2020-04-29T21:28:48+02:00*
G04 #@! TF.ProjectId,UPS-2,5550532d-322e-46b6-9963-61645f706362,rev?*
G04 #@! TF.SameCoordinates,Original*
G04 #@! TF.FileFunction,Paste,Top*
G04 #@! TF.FilePolarity,Positive*
%FSLAX46Y46*%
G04 Gerber Fmt 4.6, Leading zero omitted, Abs format (unit mm)*
G04 Created by KiCad (PCBNEW (5.1.5)-2) date 2020-04-29 21:28:48*
%MOMM*%
%LPD*%
G04 APERTURE LIST*
%ADD10C,0.100000*%
%ADD11R,1.450000X0.450000*%
%ADD12R,0.800000X0.900000*%
%ADD13R,1.060000X0.650000*%
%ADD14R,0.889000X1.676400*%
%ADD15R,0.650000X0.400000*%
%ADD16R,0.600000X0.450000*%
%ADD17R,0.200000X0.599999*%
%ADD18R,1.050000X0.399999*%
%ADD19R,1.550000X1.300000*%
%ADD20R,2.900000X5.400000*%
%ADD21R,2.500000X1.800000*%
G04 APERTURE END LIST*
D10*
G36*
X110896504Y-86173204D02*
G01*
X110920773Y-86176804D01*
X110944571Y-86182765D01*
X110967671Y-86191030D01*
X110989849Y-86201520D01*
X111010893Y-86214133D01*
X111030598Y-86228747D01*
X111048777Y-86245223D01*
X111065253Y-86263402D01*
X111079867Y-86283107D01*
X111092480Y-86304151D01*
X111102970Y-86326329D01*
X111111235Y-86349429D01*
X111117196Y-86373227D01*
X111120796Y-86397496D01*
X111122000Y-86422000D01*
X111122000Y-87822000D01*
X111120796Y-87846504D01*
X111117196Y-87870773D01*
X111111235Y-87894571D01*
X111102970Y-87917671D01*
X111092480Y-87939849D01*
X111079867Y-87960893D01*
X111065253Y-87980598D01*
X111048777Y-87998777D01*
X111030598Y-88015253D01*
X111010893Y-88029867D01*
X110989849Y-88042480D01*
X110967671Y-88052970D01*
X110944571Y-88061235D01*
X110920773Y-88067196D01*
X110896504Y-88070796D01*
X110872000Y-88072000D01*
X107222000Y-88072000D01*
X107197496Y-88070796D01*
X107173227Y-88067196D01*
X107149429Y-88061235D01*
X107126329Y-88052970D01*
X107104151Y-88042480D01*
X107083107Y-88029867D01*
X107063402Y-88015253D01*
X107045223Y-87998777D01*
X107028747Y-87980598D01*
X107014133Y-87960893D01*
X107001520Y-87939849D01*
X106991030Y-87917671D01*
X106982765Y-87894571D01*
X106976804Y-87870773D01*
X106973204Y-87846504D01*
X106972000Y-87822000D01*
X106972000Y-86422000D01*
X106973204Y-86397496D01*
X106976804Y-86373227D01*
X106982765Y-86349429D01*
X106991030Y-86326329D01*
X107001520Y-86304151D01*
X107014133Y-86283107D01*
X107028747Y-86263402D01*
X107045223Y-86245223D01*
X107063402Y-86228747D01*
X107083107Y-86214133D01*
X107104151Y-86201520D01*
X107126329Y-86191030D01*
X107149429Y-86182765D01*
X107173227Y-86176804D01*
X107197496Y-86173204D01*
X107222000Y-86172000D01*
X110872000Y-86172000D01*
X110896504Y-86173204D01*
G37*
G36*
X117846504Y-86173204D02*
G01*
X117870773Y-86176804D01*
X117894571Y-86182765D01*
X117917671Y-86191030D01*
X117939849Y-86201520D01*
X117960893Y-86214133D01*
X117980598Y-86228747D01*
X117998777Y-86245223D01*
X118015253Y-86263402D01*
X118029867Y-86283107D01*
X118042480Y-86304151D01*
X118052970Y-86326329D01*
X118061235Y-86349429D01*
X118067196Y-86373227D01*
X118070796Y-86397496D01*
X118072000Y-86422000D01*
X118072000Y-87822000D01*
X118070796Y-87846504D01*
X118067196Y-87870773D01*
X118061235Y-87894571D01*
X118052970Y-87917671D01*
X118042480Y-87939849D01*
X118029867Y-87960893D01*
X118015253Y-87980598D01*
X117998777Y-87998777D01*
X117980598Y-88015253D01*
X117960893Y-88029867D01*
X117939849Y-88042480D01*
X117917671Y-88052970D01*
X117894571Y-88061235D01*
X117870773Y-88067196D01*
X117846504Y-88070796D01*
X117822000Y-88072000D01*
X114172000Y-88072000D01*
X114147496Y-88070796D01*
X114123227Y-88067196D01*
X114099429Y-88061235D01*
X114076329Y-88052970D01*
X114054151Y-88042480D01*
X114033107Y-88029867D01*
X114013402Y-88015253D01*
X113995223Y-87998777D01*
X113978747Y-87980598D01*
X113964133Y-87960893D01*
X113951520Y-87939849D01*
X113941030Y-87917671D01*
X113932765Y-87894571D01*
X113926804Y-87870773D01*
X113923204Y-87846504D01*
X113922000Y-87822000D01*
X113922000Y-86422000D01*
X113923204Y-86397496D01*
X113926804Y-86373227D01*
X113932765Y-86349429D01*
X113941030Y-86326329D01*
X113951520Y-86304151D01*
X113964133Y-86283107D01*
X113978747Y-86263402D01*
X113995223Y-86245223D01*
X114013402Y-86228747D01*
X114033107Y-86214133D01*
X114054151Y-86201520D01*
X114076329Y-86191030D01*
X114099429Y-86182765D01*
X114123227Y-86176804D01*
X114147496Y-86173204D01*
X114172000Y-86172000D01*
X117822000Y-86172000D01*
X117846504Y-86173204D01*
G37*
G36*
X122908142Y-70730674D02*
G01*
X122931803Y-70734184D01*
X122955007Y-70739996D01*
X122977529Y-70748054D01*
X122999153Y-70758282D01*
X123019670Y-70770579D01*
X123038883Y-70784829D01*
X123056607Y-70800893D01*
X123072671Y-70818617D01*
X123086921Y-70837830D01*
X123099218Y-70858347D01*
X123109446Y-70879971D01*
X123117504Y-70902493D01*
X123123316Y-70925697D01*
X123126826Y-70949358D01*
X123128000Y-70973250D01*
X123128000Y-71460750D01*
X123126826Y-71484642D01*
X123123316Y-71508303D01*
X123117504Y-71531507D01*
X123109446Y-71554029D01*
X123099218Y-71575653D01*
X123086921Y-71596170D01*
X123072671Y-71615383D01*
X123056607Y-71633107D01*
X123038883Y-71649171D01*
X123019670Y-71663421D01*
X122999153Y-71675718D01*
X122977529Y-71685946D01*
X122955007Y-71694004D01*
X122931803Y-71699816D01*
X122908142Y-71703326D01*
X122884250Y-71704500D01*
X121971750Y-71704500D01*
X121947858Y-71703326D01*
X121924197Y-71699816D01*
X121900993Y-71694004D01*
X121878471Y-71685946D01*
X121856847Y-71675718D01*
X121836330Y-71663421D01*
X121817117Y-71649171D01*
X121799393Y-71633107D01*
X121783329Y-71615383D01*
X121769079Y-71596170D01*
X121756782Y-71575653D01*
X121746554Y-71554029D01*
X121738496Y-71531507D01*
X121732684Y-71508303D01*
X121729174Y-71484642D01*
X121728000Y-71460750D01*
X121728000Y-70973250D01*
X121729174Y-70949358D01*
X121732684Y-70925697D01*
X121738496Y-70902493D01*
X121746554Y-70879971D01*
X121756782Y-70858347D01*
X121769079Y-70837830D01*
X121783329Y-70818617D01*
X121799393Y-70800893D01*
X121817117Y-70784829D01*
X121836330Y-70770579D01*
X121856847Y-70758282D01*
X121878471Y-70748054D01*
X121900993Y-70739996D01*
X121924197Y-70734184D01*
X121947858Y-70730674D01*
X121971750Y-70729500D01*
X122884250Y-70729500D01*
X122908142Y-70730674D01*
G37*
G36*
X122908142Y-68855674D02*
G01*
X122931803Y-68859184D01*
X122955007Y-68864996D01*
X122977529Y-68873054D01*
X122999153Y-68883282D01*
X123019670Y-68895579D01*
X123038883Y-68909829D01*
X123056607Y-68925893D01*
X123072671Y-68943617D01*
X123086921Y-68962830D01*
X123099218Y-68983347D01*
X123109446Y-69004971D01*
X123117504Y-69027493D01*
X123123316Y-69050697D01*
X123126826Y-69074358D01*
X123128000Y-69098250D01*
X123128000Y-69585750D01*
X123126826Y-69609642D01*
X123123316Y-69633303D01*
X123117504Y-69656507D01*
X123109446Y-69679029D01*
X123099218Y-69700653D01*
X123086921Y-69721170D01*
X123072671Y-69740383D01*
X123056607Y-69758107D01*
X123038883Y-69774171D01*
X123019670Y-69788421D01*
X122999153Y-69800718D01*
X122977529Y-69810946D01*
X122955007Y-69819004D01*
X122931803Y-69824816D01*
X122908142Y-69828326D01*
X122884250Y-69829500D01*
X121971750Y-69829500D01*
X121947858Y-69828326D01*
X121924197Y-69824816D01*
X121900993Y-69819004D01*
X121878471Y-69810946D01*
X121856847Y-69800718D01*
X121836330Y-69788421D01*
X121817117Y-69774171D01*
X121799393Y-69758107D01*
X121783329Y-69740383D01*
X121769079Y-69721170D01*
X121756782Y-69700653D01*
X121746554Y-69679029D01*
X121738496Y-69656507D01*
X121732684Y-69633303D01*
X121729174Y-69609642D01*
X121728000Y-69585750D01*
X121728000Y-69098250D01*
X121729174Y-69074358D01*
X121732684Y-69050697D01*
X121738496Y-69027493D01*
X121746554Y-69004971D01*
X121756782Y-68983347D01*
X121769079Y-68962830D01*
X121783329Y-68943617D01*
X121799393Y-68925893D01*
X121817117Y-68909829D01*
X121836330Y-68895579D01*
X121856847Y-68883282D01*
X121878471Y-68873054D01*
X121900993Y-68864996D01*
X121924197Y-68859184D01*
X121947858Y-68855674D01*
X121971750Y-68854500D01*
X122884250Y-68854500D01*
X122908142Y-68855674D01*
G37*
G36*
X106137142Y-79692174D02*
G01*
X106160803Y-79695684D01*
X106184007Y-79701496D01*
X106206529Y-79709554D01*
X106228153Y-79719782D01*
X106248670Y-79732079D01*
X106267883Y-79746329D01*
X106285607Y-79762393D01*
X106301671Y-79780117D01*
X106315921Y-79799330D01*
X106328218Y-79819847D01*
X106338446Y-79841471D01*
X106346504Y-79863993D01*
X106352316Y-79887197D01*
X106355826Y-79910858D01*
X106357000Y-79934750D01*
X106357000Y-80847250D01*
X106355826Y-80871142D01*
X106352316Y-80894803D01*
X106346504Y-80918007D01*
X106338446Y-80940529D01*
X106328218Y-80962153D01*
X106315921Y-80982670D01*
X106301671Y-81001883D01*
X106285607Y-81019607D01*
X106267883Y-81035671D01*
X106248670Y-81049921D01*
X106228153Y-81062218D01*
X106206529Y-81072446D01*
X106184007Y-81080504D01*
X106160803Y-81086316D01*
X106137142Y-81089826D01*
X106113250Y-81091000D01*
X105625750Y-81091000D01*
X105601858Y-81089826D01*
X105578197Y-81086316D01*
X105554993Y-81080504D01*
X105532471Y-81072446D01*
X105510847Y-81062218D01*
X105490330Y-81049921D01*
X105471117Y-81035671D01*
X105453393Y-81019607D01*
X105437329Y-81001883D01*
X105423079Y-80982670D01*
X105410782Y-80962153D01*
X105400554Y-80940529D01*
X105392496Y-80918007D01*
X105386684Y-80894803D01*
X105383174Y-80871142D01*
X105382000Y-80847250D01*
X105382000Y-79934750D01*
X105383174Y-79910858D01*
X105386684Y-79887197D01*
X105392496Y-79863993D01*
X105400554Y-79841471D01*
X105410782Y-79819847D01*
X105423079Y-79799330D01*
X105437329Y-79780117D01*
X105453393Y-79762393D01*
X105471117Y-79746329D01*
X105490330Y-79732079D01*
X105510847Y-79719782D01*
X105532471Y-79709554D01*
X105554993Y-79701496D01*
X105578197Y-79695684D01*
X105601858Y-79692174D01*
X105625750Y-79691000D01*
X106113250Y-79691000D01*
X106137142Y-79692174D01*
G37*
G36*
X108012142Y-79692174D02*
G01*
X108035803Y-79695684D01*
X108059007Y-79701496D01*
X108081529Y-79709554D01*
X108103153Y-79719782D01*
X108123670Y-79732079D01*
X108142883Y-79746329D01*
X108160607Y-79762393D01*
X108176671Y-79780117D01*
X108190921Y-79799330D01*
X108203218Y-79819847D01*
X108213446Y-79841471D01*
X108221504Y-79863993D01*
X108227316Y-79887197D01*
X108230826Y-79910858D01*
X108232000Y-79934750D01*
X108232000Y-80847250D01*
X108230826Y-80871142D01*
X108227316Y-80894803D01*
X108221504Y-80918007D01*
X108213446Y-80940529D01*
X108203218Y-80962153D01*
X108190921Y-80982670D01*
X108176671Y-81001883D01*
X108160607Y-81019607D01*
X108142883Y-81035671D01*
X108123670Y-81049921D01*
X108103153Y-81062218D01*
X108081529Y-81072446D01*
X108059007Y-81080504D01*
X108035803Y-81086316D01*
X108012142Y-81089826D01*
X107988250Y-81091000D01*
X107500750Y-81091000D01*
X107476858Y-81089826D01*
X107453197Y-81086316D01*
X107429993Y-81080504D01*
X107407471Y-81072446D01*
X107385847Y-81062218D01*
X107365330Y-81049921D01*
X107346117Y-81035671D01*
X107328393Y-81019607D01*
X107312329Y-81001883D01*
X107298079Y-80982670D01*
X107285782Y-80962153D01*
X107275554Y-80940529D01*
X107267496Y-80918007D01*
X107261684Y-80894803D01*
X107258174Y-80871142D01*
X107257000Y-80847250D01*
X107257000Y-79934750D01*
X107258174Y-79910858D01*
X107261684Y-79887197D01*
X107267496Y-79863993D01*
X107275554Y-79841471D01*
X107285782Y-79819847D01*
X107298079Y-79799330D01*
X107312329Y-79780117D01*
X107328393Y-79762393D01*
X107346117Y-79746329D01*
X107365330Y-79732079D01*
X107385847Y-79719782D01*
X107407471Y-79709554D01*
X107429993Y-79701496D01*
X107453197Y-79695684D01*
X107476858Y-79692174D01*
X107500750Y-79691000D01*
X107988250Y-79691000D01*
X108012142Y-79692174D01*
G37*
D11*
X141761000Y-88769000D03*
X141761000Y-89419000D03*
X141761000Y-90069000D03*
X141761000Y-90719000D03*
X141761000Y-91369000D03*
X141761000Y-92019000D03*
X141761000Y-92669000D03*
X141761000Y-93319000D03*
X141761000Y-93969000D03*
X141761000Y-94619000D03*
X135861000Y-94619000D03*
X135861000Y-93969000D03*
X135861000Y-93319000D03*
X135861000Y-92669000D03*
X135861000Y-92019000D03*
X135861000Y-91369000D03*
X135861000Y-90719000D03*
X135861000Y-90069000D03*
X135861000Y-89419000D03*
X135861000Y-88769000D03*
D10*
G36*
X119646703Y-68915722D02*
G01*
X119661264Y-68917882D01*
X119675543Y-68921459D01*
X119689403Y-68926418D01*
X119702710Y-68932712D01*
X119715336Y-68940280D01*
X119727159Y-68949048D01*
X119738066Y-68958934D01*
X119747952Y-68969841D01*
X119756720Y-68981664D01*
X119764288Y-68994290D01*
X119770582Y-69007597D01*
X119775541Y-69021457D01*
X119779118Y-69035736D01*
X119781278Y-69050297D01*
X119782000Y-69065000D01*
X119782000Y-69365000D01*
X119781278Y-69379703D01*
X119779118Y-69394264D01*
X119775541Y-69408543D01*
X119770582Y-69422403D01*
X119764288Y-69435710D01*
X119756720Y-69448336D01*
X119747952Y-69460159D01*
X119738066Y-69471066D01*
X119727159Y-69480952D01*
X119715336Y-69489720D01*
X119702710Y-69497288D01*
X119689403Y-69503582D01*
X119675543Y-69508541D01*
X119661264Y-69512118D01*
X119646703Y-69514278D01*
X119632000Y-69515000D01*
X118182000Y-69515000D01*
X118167297Y-69514278D01*
X118152736Y-69512118D01*
X118138457Y-69508541D01*
X118124597Y-69503582D01*
X118111290Y-69497288D01*
X118098664Y-69489720D01*
X118086841Y-69480952D01*
X118075934Y-69471066D01*
X118066048Y-69460159D01*
X118057280Y-69448336D01*
X118049712Y-69435710D01*
X118043418Y-69422403D01*
X118038459Y-69408543D01*
X118034882Y-69394264D01*
X118032722Y-69379703D01*
X118032000Y-69365000D01*
X118032000Y-69065000D01*
X118032722Y-69050297D01*
X118034882Y-69035736D01*
X118038459Y-69021457D01*
X118043418Y-69007597D01*
X118049712Y-68994290D01*
X118057280Y-68981664D01*
X118066048Y-68969841D01*
X118075934Y-68958934D01*
X118086841Y-68949048D01*
X118098664Y-68940280D01*
X118111290Y-68932712D01*
X118124597Y-68926418D01*
X118138457Y-68921459D01*
X118152736Y-68917882D01*
X118167297Y-68915722D01*
X118182000Y-68915000D01*
X119632000Y-68915000D01*
X119646703Y-68915722D01*
G37*
G36*
X119646703Y-70185722D02*
G01*
X119661264Y-70187882D01*
X119675543Y-70191459D01*
X119689403Y-70196418D01*
X119702710Y-70202712D01*
X119715336Y-70210280D01*
X119727159Y-70219048D01*
X119738066Y-70228934D01*
X119747952Y-70239841D01*
X119756720Y-70251664D01*
X119764288Y-70264290D01*
X119770582Y-70277597D01*
X119775541Y-70291457D01*
X119779118Y-70305736D01*
X119781278Y-70320297D01*
X119782000Y-70335000D01*
X119782000Y-70635000D01*
X119781278Y-70649703D01*
X119779118Y-70664264D01*
X119775541Y-70678543D01*
X119770582Y-70692403D01*
X119764288Y-70705710D01*
X119756720Y-70718336D01*
X119747952Y-70730159D01*
X119738066Y-70741066D01*
X119727159Y-70750952D01*
X119715336Y-70759720D01*
X119702710Y-70767288D01*
X119689403Y-70773582D01*
X119675543Y-70778541D01*
X119661264Y-70782118D01*
X119646703Y-70784278D01*
X119632000Y-70785000D01*
X118182000Y-70785000D01*
X118167297Y-70784278D01*
X118152736Y-70782118D01*
X118138457Y-70778541D01*
X118124597Y-70773582D01*
X118111290Y-70767288D01*
X118098664Y-70759720D01*
X118086841Y-70750952D01*
X118075934Y-70741066D01*
X118066048Y-70730159D01*
X118057280Y-70718336D01*
X118049712Y-70705710D01*
X118043418Y-70692403D01*
X118038459Y-70678543D01*
X118034882Y-70664264D01*
X118032722Y-70649703D01*
X118032000Y-70635000D01*
X118032000Y-70335000D01*
X118032722Y-70320297D01*
X118034882Y-70305736D01*
X118038459Y-70291457D01*
X118043418Y-70277597D01*
X118049712Y-70264290D01*
X118057280Y-70251664D01*
X118066048Y-70239841D01*
X118075934Y-70228934D01*
X118086841Y-70219048D01*
X118098664Y-70210280D01*
X118111290Y-70202712D01*
X118124597Y-70196418D01*
X118138457Y-70191459D01*
X118152736Y-70187882D01*
X118167297Y-70185722D01*
X118182000Y-70185000D01*
X119632000Y-70185000D01*
X119646703Y-70185722D01*
G37*
G36*
X119646703Y-71455722D02*
G01*
X119661264Y-71457882D01*
X119675543Y-71461459D01*
X119689403Y-71466418D01*
X119702710Y-71472712D01*
X119715336Y-71480280D01*
X119727159Y-71489048D01*
X119738066Y-71498934D01*
X119747952Y-71509841D01*
X119756720Y-71521664D01*
X119764288Y-71534290D01*
X119770582Y-71547597D01*
X119775541Y-71561457D01*
X119779118Y-71575736D01*
X119781278Y-71590297D01*
X119782000Y-71605000D01*
X119782000Y-71905000D01*
X119781278Y-71919703D01*
X119779118Y-71934264D01*
X119775541Y-71948543D01*
X119770582Y-71962403D01*
X119764288Y-71975710D01*
X119756720Y-71988336D01*
X119747952Y-72000159D01*
X119738066Y-72011066D01*
X119727159Y-72020952D01*
X119715336Y-72029720D01*
X119702710Y-72037288D01*
X119689403Y-72043582D01*
X119675543Y-72048541D01*
X119661264Y-72052118D01*
X119646703Y-72054278D01*
X119632000Y-72055000D01*
X118182000Y-72055000D01*
X118167297Y-72054278D01*
X118152736Y-72052118D01*
X118138457Y-72048541D01*
X118124597Y-72043582D01*
X118111290Y-72037288D01*
X118098664Y-72029720D01*
X118086841Y-72020952D01*
X118075934Y-72011066D01*
X118066048Y-72000159D01*
X118057280Y-71988336D01*
X118049712Y-71975710D01*
X118043418Y-71962403D01*
X118038459Y-71948543D01*
X118034882Y-71934264D01*
X118032722Y-71919703D01*
X118032000Y-71905000D01*
X118032000Y-71605000D01*
X118032722Y-71590297D01*
X118034882Y-71575736D01*
X118038459Y-71561457D01*
X118043418Y-71547597D01*
X118049712Y-71534290D01*
X118057280Y-71521664D01*
X118066048Y-71509841D01*
X118075934Y-71498934D01*
X118086841Y-71489048D01*
X118098664Y-71480280D01*
X118111290Y-71472712D01*
X118124597Y-71466418D01*
X118138457Y-71461459D01*
X118152736Y-71457882D01*
X118167297Y-71455722D01*
X118182000Y-71455000D01*
X119632000Y-71455000D01*
X119646703Y-71455722D01*
G37*
G36*
X119646703Y-72725722D02*
G01*
X119661264Y-72727882D01*
X119675543Y-72731459D01*
X119689403Y-72736418D01*
X119702710Y-72742712D01*
X119715336Y-72750280D01*
X119727159Y-72759048D01*
X119738066Y-72768934D01*
X119747952Y-72779841D01*
X119756720Y-72791664D01*
X119764288Y-72804290D01*
X119770582Y-72817597D01*
X119775541Y-72831457D01*
X119779118Y-72845736D01*
X119781278Y-72860297D01*
X119782000Y-72875000D01*
X119782000Y-73175000D01*
X119781278Y-73189703D01*
X119779118Y-73204264D01*
X119775541Y-73218543D01*
X119770582Y-73232403D01*
X119764288Y-73245710D01*
X119756720Y-73258336D01*
X119747952Y-73270159D01*
X119738066Y-73281066D01*
X119727159Y-73290952D01*
X119715336Y-73299720D01*
X119702710Y-73307288D01*
X119689403Y-73313582D01*
X119675543Y-73318541D01*
X119661264Y-73322118D01*
X119646703Y-73324278D01*
X119632000Y-73325000D01*
X118182000Y-73325000D01*
X118167297Y-73324278D01*
X118152736Y-73322118D01*
X118138457Y-73318541D01*
X118124597Y-73313582D01*
X118111290Y-73307288D01*
X118098664Y-73299720D01*
X118086841Y-73290952D01*
X118075934Y-73281066D01*
X118066048Y-73270159D01*
X118057280Y-73258336D01*
X118049712Y-73245710D01*
X118043418Y-73232403D01*
X118038459Y-73218543D01*
X118034882Y-73204264D01*
X118032722Y-73189703D01*
X118032000Y-73175000D01*
X118032000Y-72875000D01*
X118032722Y-72860297D01*
X118034882Y-72845736D01*
X118038459Y-72831457D01*
X118043418Y-72817597D01*
X118049712Y-72804290D01*
X118057280Y-72791664D01*
X118066048Y-72779841D01*
X118075934Y-72768934D01*
X118086841Y-72759048D01*
X118098664Y-72750280D01*
X118111290Y-72742712D01*
X118124597Y-72736418D01*
X118138457Y-72731459D01*
X118152736Y-72727882D01*
X118167297Y-72725722D01*
X118182000Y-72725000D01*
X119632000Y-72725000D01*
X119646703Y-72725722D01*
G37*
G36*
X114496703Y-72725722D02*
G01*
X114511264Y-72727882D01*
X114525543Y-72731459D01*
X114539403Y-72736418D01*
X114552710Y-72742712D01*
X114565336Y-72750280D01*
X114577159Y-72759048D01*
X114588066Y-72768934D01*
X114597952Y-72779841D01*
X114606720Y-72791664D01*
X114614288Y-72804290D01*
X114620582Y-72817597D01*
X114625541Y-72831457D01*
X114629118Y-72845736D01*
X114631278Y-72860297D01*
X114632000Y-72875000D01*
X114632000Y-73175000D01*
X114631278Y-73189703D01*
X114629118Y-73204264D01*
X114625541Y-73218543D01*
X114620582Y-73232403D01*
X114614288Y-73245710D01*
X114606720Y-73258336D01*
X114597952Y-73270159D01*
X114588066Y-73281066D01*
X114577159Y-73290952D01*
X114565336Y-73299720D01*
X114552710Y-73307288D01*
X114539403Y-73313582D01*
X114525543Y-73318541D01*
X114511264Y-73322118D01*
X114496703Y-73324278D01*
X114482000Y-73325000D01*
X113032000Y-73325000D01*
X113017297Y-73324278D01*
X113002736Y-73322118D01*
X112988457Y-73318541D01*
X112974597Y-73313582D01*
X112961290Y-73307288D01*
X112948664Y-73299720D01*
X112936841Y-73290952D01*
X112925934Y-73281066D01*
X112916048Y-73270159D01*
X112907280Y-73258336D01*
X112899712Y-73245710D01*
X112893418Y-73232403D01*
X112888459Y-73218543D01*
X112884882Y-73204264D01*
X112882722Y-73189703D01*
X112882000Y-73175000D01*
X112882000Y-72875000D01*
X112882722Y-72860297D01*
X112884882Y-72845736D01*
X112888459Y-72831457D01*
X112893418Y-72817597D01*
X112899712Y-72804290D01*
X112907280Y-72791664D01*
X112916048Y-72779841D01*
X112925934Y-72768934D01*
X112936841Y-72759048D01*
X112948664Y-72750280D01*
X112961290Y-72742712D01*
X112974597Y-72736418D01*
X112988457Y-72731459D01*
X113002736Y-72727882D01*
X113017297Y-72725722D01*
X113032000Y-72725000D01*
X114482000Y-72725000D01*
X114496703Y-72725722D01*
G37*
G36*
X114496703Y-71455722D02*
G01*
X114511264Y-71457882D01*
X114525543Y-71461459D01*
X114539403Y-71466418D01*
X114552710Y-71472712D01*
X114565336Y-71480280D01*
X114577159Y-71489048D01*
X114588066Y-71498934D01*
X114597952Y-71509841D01*
X114606720Y-71521664D01*
X114614288Y-71534290D01*
X114620582Y-71547597D01*
X114625541Y-71561457D01*
X114629118Y-71575736D01*
X114631278Y-71590297D01*
X114632000Y-71605000D01*
X114632000Y-71905000D01*
X114631278Y-71919703D01*
X114629118Y-71934264D01*
X114625541Y-71948543D01*
X114620582Y-71962403D01*
X114614288Y-71975710D01*
X114606720Y-71988336D01*
X114597952Y-72000159D01*
X114588066Y-72011066D01*
X114577159Y-72020952D01*
X114565336Y-72029720D01*
X114552710Y-72037288D01*
X114539403Y-72043582D01*
X114525543Y-72048541D01*
X114511264Y-72052118D01*
X114496703Y-72054278D01*
X114482000Y-72055000D01*
X113032000Y-72055000D01*
X113017297Y-72054278D01*
X113002736Y-72052118D01*
X112988457Y-72048541D01*
X112974597Y-72043582D01*
X112961290Y-72037288D01*
X112948664Y-72029720D01*
X112936841Y-72020952D01*
X112925934Y-72011066D01*
X112916048Y-72000159D01*
X112907280Y-71988336D01*
X112899712Y-71975710D01*
X112893418Y-71962403D01*
X112888459Y-71948543D01*
X112884882Y-71934264D01*
X112882722Y-71919703D01*
X112882000Y-71905000D01*
X112882000Y-71605000D01*
X112882722Y-71590297D01*
X112884882Y-71575736D01*
X112888459Y-71561457D01*
X112893418Y-71547597D01*
X112899712Y-71534290D01*
X112907280Y-71521664D01*
X112916048Y-71509841D01*
X112925934Y-71498934D01*
X112936841Y-71489048D01*
X112948664Y-71480280D01*
X112961290Y-71472712D01*
X112974597Y-71466418D01*
X112988457Y-71461459D01*
X113002736Y-71457882D01*
X113017297Y-71455722D01*
X113032000Y-71455000D01*
X114482000Y-71455000D01*
X114496703Y-71455722D01*
G37*
G36*
X114496703Y-70185722D02*
G01*
X114511264Y-70187882D01*
X114525543Y-70191459D01*
X114539403Y-70196418D01*
X114552710Y-70202712D01*
X114565336Y-70210280D01*
X114577159Y-70219048D01*
X114588066Y-70228934D01*
X114597952Y-70239841D01*
X114606720Y-70251664D01*
X114614288Y-70264290D01*
X114620582Y-70277597D01*
X114625541Y-70291457D01*
X114629118Y-70305736D01*
X114631278Y-70320297D01*
X114632000Y-70335000D01*
X114632000Y-70635000D01*
X114631278Y-70649703D01*
X114629118Y-70664264D01*
X114625541Y-70678543D01*
X114620582Y-70692403D01*
X114614288Y-70705710D01*
X114606720Y-70718336D01*
X114597952Y-70730159D01*
X114588066Y-70741066D01*
X114577159Y-70750952D01*
X114565336Y-70759720D01*
X114552710Y-70767288D01*
X114539403Y-70773582D01*
X114525543Y-70778541D01*
X114511264Y-70782118D01*
X114496703Y-70784278D01*
X114482000Y-70785000D01*
X113032000Y-70785000D01*
X113017297Y-70784278D01*
X113002736Y-70782118D01*
X112988457Y-70778541D01*
X112974597Y-70773582D01*
X112961290Y-70767288D01*
X112948664Y-70759720D01*
X112936841Y-70750952D01*
X112925934Y-70741066D01*
X112916048Y-70730159D01*
X112907280Y-70718336D01*
X112899712Y-70705710D01*
X112893418Y-70692403D01*
X112888459Y-70678543D01*
X112884882Y-70664264D01*
X112882722Y-70649703D01*
X112882000Y-70635000D01*
X112882000Y-70335000D01*
X112882722Y-70320297D01*
X112884882Y-70305736D01*
X112888459Y-70291457D01*
X112893418Y-70277597D01*
X112899712Y-70264290D01*
X112907280Y-70251664D01*
X112916048Y-70239841D01*
X112925934Y-70228934D01*
X112936841Y-70219048D01*
X112948664Y-70210280D01*
X112961290Y-70202712D01*
X112974597Y-70196418D01*
X112988457Y-70191459D01*
X113002736Y-70187882D01*
X113017297Y-70185722D01*
X113032000Y-70185000D01*
X114482000Y-70185000D01*
X114496703Y-70185722D01*
G37*
G36*
X114496703Y-68915722D02*
G01*
X114511264Y-68917882D01*
X114525543Y-68921459D01*
X114539403Y-68926418D01*
X114552710Y-68932712D01*
X114565336Y-68940280D01*
X114577159Y-68949048D01*
X114588066Y-68958934D01*
X114597952Y-68969841D01*
X114606720Y-68981664D01*
X114614288Y-68994290D01*
X114620582Y-69007597D01*
X114625541Y-69021457D01*
X114629118Y-69035736D01*
X114631278Y-69050297D01*
X114632000Y-69065000D01*
X114632000Y-69365000D01*
X114631278Y-69379703D01*
X114629118Y-69394264D01*
X114625541Y-69408543D01*
X114620582Y-69422403D01*
X114614288Y-69435710D01*
X114606720Y-69448336D01*
X114597952Y-69460159D01*
X114588066Y-69471066D01*
X114577159Y-69480952D01*
X114565336Y-69489720D01*
X114552710Y-69497288D01*
X114539403Y-69503582D01*
X114525543Y-69508541D01*
X114511264Y-69512118D01*
X114496703Y-69514278D01*
X114482000Y-69515000D01*
X113032000Y-69515000D01*
X113017297Y-69514278D01*
X113002736Y-69512118D01*
X112988457Y-69508541D01*
X112974597Y-69503582D01*
X112961290Y-69497288D01*
X112948664Y-69489720D01*
X112936841Y-69480952D01*
X112925934Y-69471066D01*
X112916048Y-69460159D01*
X112907280Y-69448336D01*
X112899712Y-69435710D01*
X112893418Y-69422403D01*
X112888459Y-69408543D01*
X112884882Y-69394264D01*
X112882722Y-69379703D01*
X112882000Y-69365000D01*
X112882000Y-69065000D01*
X112882722Y-69050297D01*
X112884882Y-69035736D01*
X112888459Y-69021457D01*
X112893418Y-69007597D01*
X112899712Y-68994290D01*
X112907280Y-68981664D01*
X112916048Y-68969841D01*
X112925934Y-68958934D01*
X112936841Y-68949048D01*
X112948664Y-68940280D01*
X112961290Y-68932712D01*
X112974597Y-68926418D01*
X112988457Y-68921459D01*
X113002736Y-68917882D01*
X113017297Y-68915722D01*
X113032000Y-68915000D01*
X114482000Y-68915000D01*
X114496703Y-68915722D01*
G37*
G36*
X127443142Y-71691174D02*
G01*
X127466803Y-71694684D01*
X127490007Y-71700496D01*
X127512529Y-71708554D01*
X127534153Y-71718782D01*
X127554670Y-71731079D01*
X127573883Y-71745329D01*
X127591607Y-71761393D01*
X127607671Y-71779117D01*
X127621921Y-71798330D01*
X127634218Y-71818847D01*
X127644446Y-71840471D01*
X127652504Y-71862993D01*
X127658316Y-71886197D01*
X127661826Y-71909858D01*
X127663000Y-71933750D01*
X127663000Y-72846250D01*
X127661826Y-72870142D01*
X127658316Y-72893803D01*
X127652504Y-72917007D01*
X127644446Y-72939529D01*
X127634218Y-72961153D01*
X127621921Y-72981670D01*
X127607671Y-73000883D01*
X127591607Y-73018607D01*
X127573883Y-73034671D01*
X127554670Y-73048921D01*
X127534153Y-73061218D01*
X127512529Y-73071446D01*
X127490007Y-73079504D01*
X127466803Y-73085316D01*
X127443142Y-73088826D01*
X127419250Y-73090000D01*
X126931750Y-73090000D01*
X126907858Y-73088826D01*
X126884197Y-73085316D01*
X126860993Y-73079504D01*
X126838471Y-73071446D01*
X126816847Y-73061218D01*
X126796330Y-73048921D01*
X126777117Y-73034671D01*
X126759393Y-73018607D01*
X126743329Y-73000883D01*
X126729079Y-72981670D01*
X126716782Y-72961153D01*
X126706554Y-72939529D01*
X126698496Y-72917007D01*
X126692684Y-72893803D01*
X126689174Y-72870142D01*
X126688000Y-72846250D01*
X126688000Y-71933750D01*
X126689174Y-71909858D01*
X126692684Y-71886197D01*
X126698496Y-71862993D01*
X126706554Y-71840471D01*
X126716782Y-71818847D01*
X126729079Y-71798330D01*
X126743329Y-71779117D01*
X126759393Y-71761393D01*
X126777117Y-71745329D01*
X126796330Y-71731079D01*
X126816847Y-71718782D01*
X126838471Y-71708554D01*
X126860993Y-71700496D01*
X126884197Y-71694684D01*
X126907858Y-71691174D01*
X126931750Y-71690000D01*
X127419250Y-71690000D01*
X127443142Y-71691174D01*
G37*
G36*
X125568142Y-71691174D02*
G01*
X125591803Y-71694684D01*
X125615007Y-71700496D01*
X125637529Y-71708554D01*
X125659153Y-71718782D01*
X125679670Y-71731079D01*
X125698883Y-71745329D01*
X125716607Y-71761393D01*
X125732671Y-71779117D01*
X125746921Y-71798330D01*
X125759218Y-71818847D01*
X125769446Y-71840471D01*
X125777504Y-71862993D01*
X125783316Y-71886197D01*
X125786826Y-71909858D01*
X125788000Y-71933750D01*
X125788000Y-72846250D01*
X125786826Y-72870142D01*
X125783316Y-72893803D01*
X125777504Y-72917007D01*
X125769446Y-72939529D01*
X125759218Y-72961153D01*
X125746921Y-72981670D01*
X125732671Y-73000883D01*
X125716607Y-73018607D01*
X125698883Y-73034671D01*
X125679670Y-73048921D01*
X125659153Y-73061218D01*
X125637529Y-73071446D01*
X125615007Y-73079504D01*
X125591803Y-73085316D01*
X125568142Y-73088826D01*
X125544250Y-73090000D01*
X125056750Y-73090000D01*
X125032858Y-73088826D01*
X125009197Y-73085316D01*
X124985993Y-73079504D01*
X124963471Y-73071446D01*
X124941847Y-73061218D01*
X124921330Y-73048921D01*
X124902117Y-73034671D01*
X124884393Y-73018607D01*
X124868329Y-73000883D01*
X124854079Y-72981670D01*
X124841782Y-72961153D01*
X124831554Y-72939529D01*
X124823496Y-72917007D01*
X124817684Y-72893803D01*
X124814174Y-72870142D01*
X124813000Y-72846250D01*
X124813000Y-71933750D01*
X124814174Y-71909858D01*
X124817684Y-71886197D01*
X124823496Y-71862993D01*
X124831554Y-71840471D01*
X124841782Y-71818847D01*
X124854079Y-71798330D01*
X124868329Y-71779117D01*
X124884393Y-71761393D01*
X124902117Y-71745329D01*
X124921330Y-71731079D01*
X124941847Y-71718782D01*
X124963471Y-71708554D01*
X124985993Y-71700496D01*
X125009197Y-71694684D01*
X125032858Y-71691174D01*
X125056750Y-71690000D01*
X125544250Y-71690000D01*
X125568142Y-71691174D01*
G37*
G36*
X127394642Y-69278174D02*
G01*
X127418303Y-69281684D01*
X127441507Y-69287496D01*
X127464029Y-69295554D01*
X127485653Y-69305782D01*
X127506170Y-69318079D01*
X127525383Y-69332329D01*
X127543107Y-69348393D01*
X127559171Y-69366117D01*
X127573421Y-69385330D01*
X127585718Y-69405847D01*
X127595946Y-69427471D01*
X127604004Y-69449993D01*
X127609816Y-69473197D01*
X127613326Y-69496858D01*
X127614500Y-69520750D01*
X127614500Y-70433250D01*
X127613326Y-70457142D01*
X127609816Y-70480803D01*
X127604004Y-70504007D01*
X127595946Y-70526529D01*
X127585718Y-70548153D01*
X127573421Y-70568670D01*
X127559171Y-70587883D01*
X127543107Y-70605607D01*
X127525383Y-70621671D01*
X127506170Y-70635921D01*
X127485653Y-70648218D01*
X127464029Y-70658446D01*
X127441507Y-70666504D01*
X127418303Y-70672316D01*
X127394642Y-70675826D01*
X127370750Y-70677000D01*
X126883250Y-70677000D01*
X126859358Y-70675826D01*
X126835697Y-70672316D01*
X126812493Y-70666504D01*
X126789971Y-70658446D01*
X126768347Y-70648218D01*
X126747830Y-70635921D01*
X126728617Y-70621671D01*
X126710893Y-70605607D01*
X126694829Y-70587883D01*
X126680579Y-70568670D01*
X126668282Y-70548153D01*
X126658054Y-70526529D01*
X126649996Y-70504007D01*
X126644184Y-70480803D01*
X126640674Y-70457142D01*
X126639500Y-70433250D01*
X126639500Y-69520750D01*
X126640674Y-69496858D01*
X126644184Y-69473197D01*
X126649996Y-69449993D01*
X126658054Y-69427471D01*
X126668282Y-69405847D01*
X126680579Y-69385330D01*
X126694829Y-69366117D01*
X126710893Y-69348393D01*
X126728617Y-69332329D01*
X126747830Y-69318079D01*
X126768347Y-69305782D01*
X126789971Y-69295554D01*
X126812493Y-69287496D01*
X126835697Y-69281684D01*
X126859358Y-69278174D01*
X126883250Y-69277000D01*
X127370750Y-69277000D01*
X127394642Y-69278174D01*
G37*
G36*
X125519642Y-69278174D02*
G01*
X125543303Y-69281684D01*
X125566507Y-69287496D01*
X125589029Y-69295554D01*
X125610653Y-69305782D01*
X125631170Y-69318079D01*
X125650383Y-69332329D01*
X125668107Y-69348393D01*
X125684171Y-69366117D01*
X125698421Y-69385330D01*
X125710718Y-69405847D01*
X125720946Y-69427471D01*
X125729004Y-69449993D01*
X125734816Y-69473197D01*
X125738326Y-69496858D01*
X125739500Y-69520750D01*
X125739500Y-70433250D01*
X125738326Y-70457142D01*
X125734816Y-70480803D01*
X125729004Y-70504007D01*
X125720946Y-70526529D01*
X125710718Y-70548153D01*
X125698421Y-70568670D01*
X125684171Y-70587883D01*
X125668107Y-70605607D01*
X125650383Y-70621671D01*
X125631170Y-70635921D01*
X125610653Y-70648218D01*
X125589029Y-70658446D01*
X125566507Y-70666504D01*
X125543303Y-70672316D01*
X125519642Y-70675826D01*
X125495750Y-70677000D01*
X125008250Y-70677000D01*
X124984358Y-70675826D01*
X124960697Y-70672316D01*
X124937493Y-70666504D01*
X124914971Y-70658446D01*
X124893347Y-70648218D01*
X124872830Y-70635921D01*
X124853617Y-70621671D01*
X124835893Y-70605607D01*
X124819829Y-70587883D01*
X124805579Y-70568670D01*
X124793282Y-70548153D01*
X124783054Y-70526529D01*
X124774996Y-70504007D01*
X124769184Y-70480803D01*
X124765674Y-70457142D01*
X124764500Y-70433250D01*
X124764500Y-69520750D01*
X124765674Y-69496858D01*
X124769184Y-69473197D01*
X124774996Y-69449993D01*
X124783054Y-69427471D01*
X124793282Y-69405847D01*
X124805579Y-69385330D01*
X124819829Y-69366117D01*
X124835893Y-69348393D01*
X124853617Y-69332329D01*
X124872830Y-69318079D01*
X124893347Y-69305782D01*
X124914971Y-69295554D01*
X124937493Y-69287496D01*
X124960697Y-69281684D01*
X124984358Y-69278174D01*
X125008250Y-69277000D01*
X125495750Y-69277000D01*
X125519642Y-69278174D01*
G37*
D12*
X106664000Y-74250000D03*
X107614000Y-76250000D03*
X105714000Y-76250000D03*
D13*
X102192000Y-75250000D03*
X102192000Y-74300000D03*
X102192000Y-76200000D03*
X99992000Y-76200000D03*
X99992000Y-75250000D03*
X99992000Y-74300000D03*
D10*
G36*
X148446642Y-98361174D02*
G01*
X148470303Y-98364684D01*
X148493507Y-98370496D01*
X148516029Y-98378554D01*
X148537653Y-98388782D01*
X148558170Y-98401079D01*
X148577383Y-98415329D01*
X148595107Y-98431393D01*
X148611171Y-98449117D01*
X148625421Y-98468330D01*
X148637718Y-98488847D01*
X148647946Y-98510471D01*
X148656004Y-98532993D01*
X148661816Y-98556197D01*
X148665326Y-98579858D01*
X148666500Y-98603750D01*
X148666500Y-99516250D01*
X148665326Y-99540142D01*
X148661816Y-99563803D01*
X148656004Y-99587007D01*
X148647946Y-99609529D01*
X148637718Y-99631153D01*
X148625421Y-99651670D01*
X148611171Y-99670883D01*
X148595107Y-99688607D01*
X148577383Y-99704671D01*
X148558170Y-99718921D01*
X148537653Y-99731218D01*
X148516029Y-99741446D01*
X148493507Y-99749504D01*
X148470303Y-99755316D01*
X148446642Y-99758826D01*
X148422750Y-99760000D01*
X147935250Y-99760000D01*
X147911358Y-99758826D01*
X147887697Y-99755316D01*
X147864493Y-99749504D01*
X147841971Y-99741446D01*
X147820347Y-99731218D01*
X147799830Y-99718921D01*
X147780617Y-99704671D01*
X147762893Y-99688607D01*
X147746829Y-99670883D01*
X147732579Y-99651670D01*
X147720282Y-99631153D01*
X147710054Y-99609529D01*
X147701996Y-99587007D01*
X147696184Y-99563803D01*
X147692674Y-99540142D01*
X147691500Y-99516250D01*
X147691500Y-98603750D01*
X147692674Y-98579858D01*
X147696184Y-98556197D01*
X147701996Y-98532993D01*
X147710054Y-98510471D01*
X147720282Y-98488847D01*
X147732579Y-98468330D01*
X147746829Y-98449117D01*
X147762893Y-98431393D01*
X147780617Y-98415329D01*
X147799830Y-98401079D01*
X147820347Y-98388782D01*
X147841971Y-98378554D01*
X147864493Y-98370496D01*
X147887697Y-98364684D01*
X147911358Y-98361174D01*
X147935250Y-98360000D01*
X148422750Y-98360000D01*
X148446642Y-98361174D01*
G37*
G36*
X146571642Y-98361174D02*
G01*
X146595303Y-98364684D01*
X146618507Y-98370496D01*
X146641029Y-98378554D01*
X146662653Y-98388782D01*
X146683170Y-98401079D01*
X146702383Y-98415329D01*
X146720107Y-98431393D01*
X146736171Y-98449117D01*
X146750421Y-98468330D01*
X146762718Y-98488847D01*
X146772946Y-98510471D01*
X146781004Y-98532993D01*
X146786816Y-98556197D01*
X146790326Y-98579858D01*
X146791500Y-98603750D01*
X146791500Y-99516250D01*
X146790326Y-99540142D01*
X146786816Y-99563803D01*
X146781004Y-99587007D01*
X146772946Y-99609529D01*
X146762718Y-99631153D01*
X146750421Y-99651670D01*
X146736171Y-99670883D01*
X146720107Y-99688607D01*
X146702383Y-99704671D01*
X146683170Y-99718921D01*
X146662653Y-99731218D01*
X146641029Y-99741446D01*
X146618507Y-99749504D01*
X146595303Y-99755316D01*
X146571642Y-99758826D01*
X146547750Y-99760000D01*
X146060250Y-99760000D01*
X146036358Y-99758826D01*
X146012697Y-99755316D01*
X145989493Y-99749504D01*
X145966971Y-99741446D01*
X145945347Y-99731218D01*
X145924830Y-99718921D01*
X145905617Y-99704671D01*
X145887893Y-99688607D01*
X145871829Y-99670883D01*
X145857579Y-99651670D01*
X145845282Y-99631153D01*
X145835054Y-99609529D01*
X145826996Y-99587007D01*
X145821184Y-99563803D01*
X145817674Y-99540142D01*
X145816500Y-99516250D01*
X145816500Y-98603750D01*
X145817674Y-98579858D01*
X145821184Y-98556197D01*
X145826996Y-98532993D01*
X145835054Y-98510471D01*
X145845282Y-98488847D01*
X145857579Y-98468330D01*
X145871829Y-98449117D01*
X145887893Y-98431393D01*
X145905617Y-98415329D01*
X145924830Y-98401079D01*
X145945347Y-98388782D01*
X145966971Y-98378554D01*
X145989493Y-98370496D01*
X146012697Y-98364684D01*
X146036358Y-98361174D01*
X146060250Y-98360000D01*
X146547750Y-98360000D01*
X146571642Y-98361174D01*
G37*
G36*
X142410642Y-102425174D02*
G01*
X142434303Y-102428684D01*
X142457507Y-102434496D01*
X142480029Y-102442554D01*
X142501653Y-102452782D01*
X142522170Y-102465079D01*
X142541383Y-102479329D01*
X142559107Y-102495393D01*
X142575171Y-102513117D01*
X142589421Y-102532330D01*
X142601718Y-102552847D01*
X142611946Y-102574471D01*
X142620004Y-102596993D01*
X142625816Y-102620197D01*
X142629326Y-102643858D01*
X142630500Y-102667750D01*
X142630500Y-103580250D01*
X142629326Y-103604142D01*
X142625816Y-103627803D01*
X142620004Y-103651007D01*
X142611946Y-103673529D01*
X142601718Y-103695153D01*
X142589421Y-103715670D01*
X142575171Y-103734883D01*
X142559107Y-103752607D01*
X142541383Y-103768671D01*
X142522170Y-103782921D01*
X142501653Y-103795218D01*
X142480029Y-103805446D01*
X142457507Y-103813504D01*
X142434303Y-103819316D01*
X142410642Y-103822826D01*
X142386750Y-103824000D01*
X141899250Y-103824000D01*
X141875358Y-103822826D01*
X141851697Y-103819316D01*
X141828493Y-103813504D01*
X141805971Y-103805446D01*
X141784347Y-103795218D01*
X141763830Y-103782921D01*
X141744617Y-103768671D01*
X141726893Y-103752607D01*
X141710829Y-103734883D01*
X141696579Y-103715670D01*
X141684282Y-103695153D01*
X141674054Y-103673529D01*
X141665996Y-103651007D01*
X141660184Y-103627803D01*
X141656674Y-103604142D01*
X141655500Y-103580250D01*
X141655500Y-102667750D01*
X141656674Y-102643858D01*
X141660184Y-102620197D01*
X141665996Y-102596993D01*
X141674054Y-102574471D01*
X141684282Y-102552847D01*
X141696579Y-102532330D01*
X141710829Y-102513117D01*
X141726893Y-102495393D01*
X141744617Y-102479329D01*
X141763830Y-102465079D01*
X141784347Y-102452782D01*
X141805971Y-102442554D01*
X141828493Y-102434496D01*
X141851697Y-102428684D01*
X141875358Y-102425174D01*
X141899250Y-102424000D01*
X142386750Y-102424000D01*
X142410642Y-102425174D01*
G37*
G36*
X144285642Y-102425174D02*
G01*
X144309303Y-102428684D01*
X144332507Y-102434496D01*
X144355029Y-102442554D01*
X144376653Y-102452782D01*
X144397170Y-102465079D01*
X144416383Y-102479329D01*
X144434107Y-102495393D01*
X144450171Y-102513117D01*
X144464421Y-102532330D01*
X144476718Y-102552847D01*
X144486946Y-102574471D01*
X144495004Y-102596993D01*
X144500816Y-102620197D01*
X144504326Y-102643858D01*
X144505500Y-102667750D01*
X144505500Y-103580250D01*
X144504326Y-103604142D01*
X144500816Y-103627803D01*
X144495004Y-103651007D01*
X144486946Y-103673529D01*
X144476718Y-103695153D01*
X144464421Y-103715670D01*
X144450171Y-103734883D01*
X144434107Y-103752607D01*
X144416383Y-103768671D01*
X144397170Y-103782921D01*
X144376653Y-103795218D01*
X144355029Y-103805446D01*
X144332507Y-103813504D01*
X144309303Y-103819316D01*
X144285642Y-103822826D01*
X144261750Y-103824000D01*
X143774250Y-103824000D01*
X143750358Y-103822826D01*
X143726697Y-103819316D01*
X143703493Y-103813504D01*
X143680971Y-103805446D01*
X143659347Y-103795218D01*
X143638830Y-103782921D01*
X143619617Y-103768671D01*
X143601893Y-103752607D01*
X143585829Y-103734883D01*
X143571579Y-103715670D01*
X143559282Y-103695153D01*
X143549054Y-103673529D01*
X143540996Y-103651007D01*
X143535184Y-103627803D01*
X143531674Y-103604142D01*
X143530500Y-103580250D01*
X143530500Y-102667750D01*
X143531674Y-102643858D01*
X143535184Y-102620197D01*
X143540996Y-102596993D01*
X143549054Y-102574471D01*
X143559282Y-102552847D01*
X143571579Y-102532330D01*
X143585829Y-102513117D01*
X143601893Y-102495393D01*
X143619617Y-102479329D01*
X143638830Y-102465079D01*
X143659347Y-102452782D01*
X143680971Y-102442554D01*
X143703493Y-102434496D01*
X143726697Y-102428684D01*
X143750358Y-102425174D01*
X143774250Y-102424000D01*
X144261750Y-102424000D01*
X144285642Y-102425174D01*
G37*
G36*
X108979642Y-96329174D02*
G01*
X109003303Y-96332684D01*
X109026507Y-96338496D01*
X109049029Y-96346554D01*
X109070653Y-96356782D01*
X109091170Y-96369079D01*
X109110383Y-96383329D01*
X109128107Y-96399393D01*
X109144171Y-96417117D01*
X109158421Y-96436330D01*
X109170718Y-96456847D01*
X109180946Y-96478471D01*
X109189004Y-96500993D01*
X109194816Y-96524197D01*
X109198326Y-96547858D01*
X109199500Y-96571750D01*
X109199500Y-97484250D01*
X109198326Y-97508142D01*
X109194816Y-97531803D01*
X109189004Y-97555007D01*
X109180946Y-97577529D01*
X109170718Y-97599153D01*
X109158421Y-97619670D01*
X109144171Y-97638883D01*
X109128107Y-97656607D01*
X109110383Y-97672671D01*
X109091170Y-97686921D01*
X109070653Y-97699218D01*
X109049029Y-97709446D01*
X109026507Y-97717504D01*
X109003303Y-97723316D01*
X108979642Y-97726826D01*
X108955750Y-97728000D01*
X108468250Y-97728000D01*
X108444358Y-97726826D01*
X108420697Y-97723316D01*
X108397493Y-97717504D01*
X108374971Y-97709446D01*
X108353347Y-97699218D01*
X108332830Y-97686921D01*
X108313617Y-97672671D01*
X108295893Y-97656607D01*
X108279829Y-97638883D01*
X108265579Y-97619670D01*
X108253282Y-97599153D01*
X108243054Y-97577529D01*
X108234996Y-97555007D01*
X108229184Y-97531803D01*
X108225674Y-97508142D01*
X108224500Y-97484250D01*
X108224500Y-96571750D01*
X108225674Y-96547858D01*
X108229184Y-96524197D01*
X108234996Y-96500993D01*
X108243054Y-96478471D01*
X108253282Y-96456847D01*
X108265579Y-96436330D01*
X108279829Y-96417117D01*
X108295893Y-96399393D01*
X108313617Y-96383329D01*
X108332830Y-96369079D01*
X108353347Y-96356782D01*
X108374971Y-96346554D01*
X108397493Y-96338496D01*
X108420697Y-96332684D01*
X108444358Y-96329174D01*
X108468250Y-96328000D01*
X108955750Y-96328000D01*
X108979642Y-96329174D01*
G37*
G36*
X110854642Y-96329174D02*
G01*
X110878303Y-96332684D01*
X110901507Y-96338496D01*
X110924029Y-96346554D01*
X110945653Y-96356782D01*
X110966170Y-96369079D01*
X110985383Y-96383329D01*
X111003107Y-96399393D01*
X111019171Y-96417117D01*
X111033421Y-96436330D01*
X111045718Y-96456847D01*
X111055946Y-96478471D01*
X111064004Y-96500993D01*
X111069816Y-96524197D01*
X111073326Y-96547858D01*
X111074500Y-96571750D01*
X111074500Y-97484250D01*
X111073326Y-97508142D01*
X111069816Y-97531803D01*
X111064004Y-97555007D01*
X111055946Y-97577529D01*
X111045718Y-97599153D01*
X111033421Y-97619670D01*
X111019171Y-97638883D01*
X111003107Y-97656607D01*
X110985383Y-97672671D01*
X110966170Y-97686921D01*
X110945653Y-97699218D01*
X110924029Y-97709446D01*
X110901507Y-97717504D01*
X110878303Y-97723316D01*
X110854642Y-97726826D01*
X110830750Y-97728000D01*
X110343250Y-97728000D01*
X110319358Y-97726826D01*
X110295697Y-97723316D01*
X110272493Y-97717504D01*
X110249971Y-97709446D01*
X110228347Y-97699218D01*
X110207830Y-97686921D01*
X110188617Y-97672671D01*
X110170893Y-97656607D01*
X110154829Y-97638883D01*
X110140579Y-97619670D01*
X110128282Y-97599153D01*
X110118054Y-97577529D01*
X110109996Y-97555007D01*
X110104184Y-97531803D01*
X110100674Y-97508142D01*
X110099500Y-97484250D01*
X110099500Y-96571750D01*
X110100674Y-96547858D01*
X110104184Y-96524197D01*
X110109996Y-96500993D01*
X110118054Y-96478471D01*
X110128282Y-96456847D01*
X110140579Y-96436330D01*
X110154829Y-96417117D01*
X110170893Y-96399393D01*
X110188617Y-96383329D01*
X110207830Y-96369079D01*
X110228347Y-96356782D01*
X110249971Y-96346554D01*
X110272493Y-96338496D01*
X110295697Y-96332684D01*
X110319358Y-96329174D01*
X110343250Y-96328000D01*
X110830750Y-96328000D01*
X110854642Y-96329174D01*
G37*
D14*
X139827000Y-60985400D03*
X142367000Y-60985400D03*
X147447000Y-60985400D03*
X144907000Y-60985400D03*
X119507000Y-60985400D03*
X122047000Y-60985400D03*
X127127000Y-60985400D03*
X124587000Y-60985400D03*
X134747000Y-60985400D03*
X137287000Y-60985400D03*
X132207000Y-60985400D03*
X129667000Y-60985400D03*
X109347000Y-60985400D03*
X111887000Y-60985400D03*
X116967000Y-60985400D03*
X114427000Y-60985400D03*
X104267000Y-60985400D03*
X106807000Y-60985400D03*
X101727000Y-60985400D03*
X99187000Y-60985400D03*
X147447000Y-66421000D03*
X144907000Y-66421000D03*
X139827000Y-66421000D03*
X142367000Y-66421000D03*
X132207000Y-66421000D03*
X129667000Y-66421000D03*
X134747000Y-66421000D03*
X137287000Y-66421000D03*
X127127000Y-66421000D03*
X124587000Y-66421000D03*
X119507000Y-66421000D03*
X122047000Y-66421000D03*
X101727000Y-66421000D03*
X99187000Y-66421000D03*
X104267000Y-66421000D03*
X106807000Y-66421000D03*
X116967000Y-66421000D03*
X114427000Y-66421000D03*
X109347000Y-66421000D03*
X111887000Y-66421000D03*
D15*
X127569000Y-89520000D03*
X127569000Y-90820000D03*
X125669000Y-90170000D03*
X125669000Y-90820000D03*
X125669000Y-89520000D03*
D10*
G36*
X144128642Y-96075174D02*
G01*
X144152303Y-96078684D01*
X144175507Y-96084496D01*
X144198029Y-96092554D01*
X144219653Y-96102782D01*
X144240170Y-96115079D01*
X144259383Y-96129329D01*
X144277107Y-96145393D01*
X144293171Y-96163117D01*
X144307421Y-96182330D01*
X144319718Y-96202847D01*
X144329946Y-96224471D01*
X144338004Y-96246993D01*
X144343816Y-96270197D01*
X144347326Y-96293858D01*
X144348500Y-96317750D01*
X144348500Y-97230250D01*
X144347326Y-97254142D01*
X144343816Y-97277803D01*
X144338004Y-97301007D01*
X144329946Y-97323529D01*
X144319718Y-97345153D01*
X144307421Y-97365670D01*
X144293171Y-97384883D01*
X144277107Y-97402607D01*
X144259383Y-97418671D01*
X144240170Y-97432921D01*
X144219653Y-97445218D01*
X144198029Y-97455446D01*
X144175507Y-97463504D01*
X144152303Y-97469316D01*
X144128642Y-97472826D01*
X144104750Y-97474000D01*
X143617250Y-97474000D01*
X143593358Y-97472826D01*
X143569697Y-97469316D01*
X143546493Y-97463504D01*
X143523971Y-97455446D01*
X143502347Y-97445218D01*
X143481830Y-97432921D01*
X143462617Y-97418671D01*
X143444893Y-97402607D01*
X143428829Y-97384883D01*
X143414579Y-97365670D01*
X143402282Y-97345153D01*
X143392054Y-97323529D01*
X143383996Y-97301007D01*
X143378184Y-97277803D01*
X143374674Y-97254142D01*
X143373500Y-97230250D01*
X143373500Y-96317750D01*
X143374674Y-96293858D01*
X143378184Y-96270197D01*
X143383996Y-96246993D01*
X143392054Y-96224471D01*
X143402282Y-96202847D01*
X143414579Y-96182330D01*
X143428829Y-96163117D01*
X143444893Y-96145393D01*
X143462617Y-96129329D01*
X143481830Y-96115079D01*
X143502347Y-96102782D01*
X143523971Y-96092554D01*
X143546493Y-96084496D01*
X143569697Y-96078684D01*
X143593358Y-96075174D01*
X143617250Y-96074000D01*
X144104750Y-96074000D01*
X144128642Y-96075174D01*
G37*
G36*
X142253642Y-96075174D02*
G01*
X142277303Y-96078684D01*
X142300507Y-96084496D01*
X142323029Y-96092554D01*
X142344653Y-96102782D01*
X142365170Y-96115079D01*
X142384383Y-96129329D01*
X142402107Y-96145393D01*
X142418171Y-96163117D01*
X142432421Y-96182330D01*
X142444718Y-96202847D01*
X142454946Y-96224471D01*
X142463004Y-96246993D01*
X142468816Y-96270197D01*
X142472326Y-96293858D01*
X142473500Y-96317750D01*
X142473500Y-97230250D01*
X142472326Y-97254142D01*
X142468816Y-97277803D01*
X142463004Y-97301007D01*
X142454946Y-97323529D01*
X142444718Y-97345153D01*
X142432421Y-97365670D01*
X142418171Y-97384883D01*
X142402107Y-97402607D01*
X142384383Y-97418671D01*
X142365170Y-97432921D01*
X142344653Y-97445218D01*
X142323029Y-97455446D01*
X142300507Y-97463504D01*
X142277303Y-97469316D01*
X142253642Y-97472826D01*
X142229750Y-97474000D01*
X141742250Y-97474000D01*
X141718358Y-97472826D01*
X141694697Y-97469316D01*
X141671493Y-97463504D01*
X141648971Y-97455446D01*
X141627347Y-97445218D01*
X141606830Y-97432921D01*
X141587617Y-97418671D01*
X141569893Y-97402607D01*
X141553829Y-97384883D01*
X141539579Y-97365670D01*
X141527282Y-97345153D01*
X141517054Y-97323529D01*
X141508996Y-97301007D01*
X141503184Y-97277803D01*
X141499674Y-97254142D01*
X141498500Y-97230250D01*
X141498500Y-96317750D01*
X141499674Y-96293858D01*
X141503184Y-96270197D01*
X141508996Y-96246993D01*
X141517054Y-96224471D01*
X141527282Y-96202847D01*
X141539579Y-96182330D01*
X141553829Y-96163117D01*
X141569893Y-96145393D01*
X141587617Y-96129329D01*
X141606830Y-96115079D01*
X141627347Y-96102782D01*
X141648971Y-96092554D01*
X141671493Y-96084496D01*
X141694697Y-96078684D01*
X141718358Y-96075174D01*
X141742250Y-96074000D01*
X142229750Y-96074000D01*
X142253642Y-96075174D01*
G37*
G36*
X144128642Y-98361174D02*
G01*
X144152303Y-98364684D01*
X144175507Y-98370496D01*
X144198029Y-98378554D01*
X144219653Y-98388782D01*
X144240170Y-98401079D01*
X144259383Y-98415329D01*
X144277107Y-98431393D01*
X144293171Y-98449117D01*
X144307421Y-98468330D01*
X144319718Y-98488847D01*
X144329946Y-98510471D01*
X144338004Y-98532993D01*
X144343816Y-98556197D01*
X144347326Y-98579858D01*
X144348500Y-98603750D01*
X144348500Y-99516250D01*
X144347326Y-99540142D01*
X144343816Y-99563803D01*
X144338004Y-99587007D01*
X144329946Y-99609529D01*
X144319718Y-99631153D01*
X144307421Y-99651670D01*
X144293171Y-99670883D01*
X144277107Y-99688607D01*
X144259383Y-99704671D01*
X144240170Y-99718921D01*
X144219653Y-99731218D01*
X144198029Y-99741446D01*
X144175507Y-99749504D01*
X144152303Y-99755316D01*
X144128642Y-99758826D01*
X144104750Y-99760000D01*
X143617250Y-99760000D01*
X143593358Y-99758826D01*
X143569697Y-99755316D01*
X143546493Y-99749504D01*
X143523971Y-99741446D01*
X143502347Y-99731218D01*
X143481830Y-99718921D01*
X143462617Y-99704671D01*
X143444893Y-99688607D01*
X143428829Y-99670883D01*
X143414579Y-99651670D01*
X143402282Y-99631153D01*
X143392054Y-99609529D01*
X143383996Y-99587007D01*
X143378184Y-99563803D01*
X143374674Y-99540142D01*
X143373500Y-99516250D01*
X143373500Y-98603750D01*
X143374674Y-98579858D01*
X143378184Y-98556197D01*
X143383996Y-98532993D01*
X143392054Y-98510471D01*
X143402282Y-98488847D01*
X143414579Y-98468330D01*
X143428829Y-98449117D01*
X143444893Y-98431393D01*
X143462617Y-98415329D01*
X143481830Y-98401079D01*
X143502347Y-98388782D01*
X143523971Y-98378554D01*
X143546493Y-98370496D01*
X143569697Y-98364684D01*
X143593358Y-98361174D01*
X143617250Y-98360000D01*
X144104750Y-98360000D01*
X144128642Y-98361174D01*
G37*
G36*
X142253642Y-98361174D02*
G01*
X142277303Y-98364684D01*
X142300507Y-98370496D01*
X142323029Y-98378554D01*
X142344653Y-98388782D01*
X142365170Y-98401079D01*
X142384383Y-98415329D01*
X142402107Y-98431393D01*
X142418171Y-98449117D01*
X142432421Y-98468330D01*
X142444718Y-98488847D01*
X142454946Y-98510471D01*
X142463004Y-98532993D01*
X142468816Y-98556197D01*
X142472326Y-98579858D01*
X142473500Y-98603750D01*
X142473500Y-99516250D01*
X142472326Y-99540142D01*
X142468816Y-99563803D01*
X142463004Y-99587007D01*
X142454946Y-99609529D01*
X142444718Y-99631153D01*
X142432421Y-99651670D01*
X142418171Y-99670883D01*
X142402107Y-99688607D01*
X142384383Y-99704671D01*
X142365170Y-99718921D01*
X142344653Y-99731218D01*
X142323029Y-99741446D01*
X142300507Y-99749504D01*
X142277303Y-99755316D01*
X142253642Y-99758826D01*
X142229750Y-99760000D01*
X141742250Y-99760000D01*
X141718358Y-99758826D01*
X141694697Y-99755316D01*
X141671493Y-99749504D01*
X141648971Y-99741446D01*
X141627347Y-99731218D01*
X141606830Y-99718921D01*
X141587617Y-99704671D01*
X141569893Y-99688607D01*
X141553829Y-99670883D01*
X141539579Y-99651670D01*
X141527282Y-99631153D01*
X141517054Y-99609529D01*
X141508996Y-99587007D01*
X141503184Y-99563803D01*
X141499674Y-99540142D01*
X141498500Y-99516250D01*
X141498500Y-98603750D01*
X141499674Y-98579858D01*
X141503184Y-98556197D01*
X141508996Y-98532993D01*
X141517054Y-98510471D01*
X141527282Y-98488847D01*
X141539579Y-98468330D01*
X141553829Y-98449117D01*
X141569893Y-98431393D01*
X141587617Y-98415329D01*
X141606830Y-98401079D01*
X141627347Y-98388782D01*
X141648971Y-98378554D01*
X141671493Y-98370496D01*
X141694697Y-98364684D01*
X141718358Y-98361174D01*
X141742250Y-98360000D01*
X142229750Y-98360000D01*
X142253642Y-98361174D01*
G37*
G36*
X127062142Y-109727674D02*
G01*
X127085803Y-109731184D01*
X127109007Y-109736996D01*
X127131529Y-109745054D01*
X127153153Y-109755282D01*
X127173670Y-109767579D01*
X127192883Y-109781829D01*
X127210607Y-109797893D01*
X127226671Y-109815617D01*
X127240921Y-109834830D01*
X127253218Y-109855347D01*
X127263446Y-109876971D01*
X127271504Y-109899493D01*
X127277316Y-109922697D01*
X127280826Y-109946358D01*
X127282000Y-109970250D01*
X127282000Y-110882750D01*
X127280826Y-110906642D01*
X127277316Y-110930303D01*
X127271504Y-110953507D01*
X127263446Y-110976029D01*
X127253218Y-110997653D01*
X127240921Y-111018170D01*
X127226671Y-111037383D01*
X127210607Y-111055107D01*
X127192883Y-111071171D01*
X127173670Y-111085421D01*
X127153153Y-111097718D01*
X127131529Y-111107946D01*
X127109007Y-111116004D01*
X127085803Y-111121816D01*
X127062142Y-111125326D01*
X127038250Y-111126500D01*
X126550750Y-111126500D01*
X126526858Y-111125326D01*
X126503197Y-111121816D01*
X126479993Y-111116004D01*
X126457471Y-111107946D01*
X126435847Y-111097718D01*
X126415330Y-111085421D01*
X126396117Y-111071171D01*
X126378393Y-111055107D01*
X126362329Y-111037383D01*
X126348079Y-111018170D01*
X126335782Y-110997653D01*
X126325554Y-110976029D01*
X126317496Y-110953507D01*
X126311684Y-110930303D01*
X126308174Y-110906642D01*
X126307000Y-110882750D01*
X126307000Y-109970250D01*
X126308174Y-109946358D01*
X126311684Y-109922697D01*
X126317496Y-109899493D01*
X126325554Y-109876971D01*
X126335782Y-109855347D01*
X126348079Y-109834830D01*
X126362329Y-109815617D01*
X126378393Y-109797893D01*
X126396117Y-109781829D01*
X126415330Y-109767579D01*
X126435847Y-109755282D01*
X126457471Y-109745054D01*
X126479993Y-109736996D01*
X126503197Y-109731184D01*
X126526858Y-109727674D01*
X126550750Y-109726500D01*
X127038250Y-109726500D01*
X127062142Y-109727674D01*
G37*
G36*
X125187142Y-109727674D02*
G01*
X125210803Y-109731184D01*
X125234007Y-109736996D01*
X125256529Y-109745054D01*
X125278153Y-109755282D01*
X125298670Y-109767579D01*
X125317883Y-109781829D01*
X125335607Y-109797893D01*
X125351671Y-109815617D01*
X125365921Y-109834830D01*
X125378218Y-109855347D01*
X125388446Y-109876971D01*
X125396504Y-109899493D01*
X125402316Y-109922697D01*
X125405826Y-109946358D01*
X125407000Y-109970250D01*
X125407000Y-110882750D01*
X125405826Y-110906642D01*
X125402316Y-110930303D01*
X125396504Y-110953507D01*
X125388446Y-110976029D01*
X125378218Y-110997653D01*
X125365921Y-111018170D01*
X125351671Y-111037383D01*
X125335607Y-111055107D01*
X125317883Y-111071171D01*
X125298670Y-111085421D01*
X125278153Y-111097718D01*
X125256529Y-111107946D01*
X125234007Y-111116004D01*
X125210803Y-111121816D01*
X125187142Y-111125326D01*
X125163250Y-111126500D01*
X124675750Y-111126500D01*
X124651858Y-111125326D01*
X124628197Y-111121816D01*
X124604993Y-111116004D01*
X124582471Y-111107946D01*
X124560847Y-111097718D01*
X124540330Y-111085421D01*
X124521117Y-111071171D01*
X124503393Y-111055107D01*
X124487329Y-111037383D01*
X124473079Y-111018170D01*
X124460782Y-110997653D01*
X124450554Y-110976029D01*
X124442496Y-110953507D01*
X124436684Y-110930303D01*
X124433174Y-110906642D01*
X124432000Y-110882750D01*
X124432000Y-109970250D01*
X124433174Y-109946358D01*
X124436684Y-109922697D01*
X124442496Y-109899493D01*
X124450554Y-109876971D01*
X124460782Y-109855347D01*
X124473079Y-109834830D01*
X124487329Y-109815617D01*
X124503393Y-109797893D01*
X124521117Y-109781829D01*
X124540330Y-109767579D01*
X124560847Y-109755282D01*
X124582471Y-109745054D01*
X124604993Y-109736996D01*
X124628197Y-109731184D01*
X124651858Y-109727674D01*
X124675750Y-109726500D01*
X125163250Y-109726500D01*
X125187142Y-109727674D01*
G37*
G36*
X122411642Y-109727674D02*
G01*
X122435303Y-109731184D01*
X122458507Y-109736996D01*
X122481029Y-109745054D01*
X122502653Y-109755282D01*
X122523170Y-109767579D01*
X122542383Y-109781829D01*
X122560107Y-109797893D01*
X122576171Y-109815617D01*
X122590421Y-109834830D01*
X122602718Y-109855347D01*
X122612946Y-109876971D01*
X122621004Y-109899493D01*
X122626816Y-109922697D01*
X122630326Y-109946358D01*
X122631500Y-109970250D01*
X122631500Y-110882750D01*
X122630326Y-110906642D01*
X122626816Y-110930303D01*
X122621004Y-110953507D01*
X122612946Y-110976029D01*
X122602718Y-110997653D01*
X122590421Y-111018170D01*
X122576171Y-111037383D01*
X122560107Y-111055107D01*
X122542383Y-111071171D01*
X122523170Y-111085421D01*
X122502653Y-111097718D01*
X122481029Y-111107946D01*
X122458507Y-111116004D01*
X122435303Y-111121816D01*
X122411642Y-111125326D01*
X122387750Y-111126500D01*
X121900250Y-111126500D01*
X121876358Y-111125326D01*
X121852697Y-111121816D01*
X121829493Y-111116004D01*
X121806971Y-111107946D01*
X121785347Y-111097718D01*
X121764830Y-111085421D01*
X121745617Y-111071171D01*
X121727893Y-111055107D01*
X121711829Y-111037383D01*
X121697579Y-111018170D01*
X121685282Y-110997653D01*
X121675054Y-110976029D01*
X121666996Y-110953507D01*
X121661184Y-110930303D01*
X121657674Y-110906642D01*
X121656500Y-110882750D01*
X121656500Y-109970250D01*
X121657674Y-109946358D01*
X121661184Y-109922697D01*
X121666996Y-109899493D01*
X121675054Y-109876971D01*
X121685282Y-109855347D01*
X121697579Y-109834830D01*
X121711829Y-109815617D01*
X121727893Y-109797893D01*
X121745617Y-109781829D01*
X121764830Y-109767579D01*
X121785347Y-109755282D01*
X121806971Y-109745054D01*
X121829493Y-109736996D01*
X121852697Y-109731184D01*
X121876358Y-109727674D01*
X121900250Y-109726500D01*
X122387750Y-109726500D01*
X122411642Y-109727674D01*
G37*
G36*
X120536642Y-109727674D02*
G01*
X120560303Y-109731184D01*
X120583507Y-109736996D01*
X120606029Y-109745054D01*
X120627653Y-109755282D01*
X120648170Y-109767579D01*
X120667383Y-109781829D01*
X120685107Y-109797893D01*
X120701171Y-109815617D01*
X120715421Y-109834830D01*
X120727718Y-109855347D01*
X120737946Y-109876971D01*
X120746004Y-109899493D01*
X120751816Y-109922697D01*
X120755326Y-109946358D01*
X120756500Y-109970250D01*
X120756500Y-110882750D01*
X120755326Y-110906642D01*
X120751816Y-110930303D01*
X120746004Y-110953507D01*
X120737946Y-110976029D01*
X120727718Y-110997653D01*
X120715421Y-111018170D01*
X120701171Y-111037383D01*
X120685107Y-111055107D01*
X120667383Y-111071171D01*
X120648170Y-111085421D01*
X120627653Y-111097718D01*
X120606029Y-111107946D01*
X120583507Y-111116004D01*
X120560303Y-111121816D01*
X120536642Y-111125326D01*
X120512750Y-111126500D01*
X120025250Y-111126500D01*
X120001358Y-111125326D01*
X119977697Y-111121816D01*
X119954493Y-111116004D01*
X119931971Y-111107946D01*
X119910347Y-111097718D01*
X119889830Y-111085421D01*
X119870617Y-111071171D01*
X119852893Y-111055107D01*
X119836829Y-111037383D01*
X119822579Y-111018170D01*
X119810282Y-110997653D01*
X119800054Y-110976029D01*
X119791996Y-110953507D01*
X119786184Y-110930303D01*
X119782674Y-110906642D01*
X119781500Y-110882750D01*
X119781500Y-109970250D01*
X119782674Y-109946358D01*
X119786184Y-109922697D01*
X119791996Y-109899493D01*
X119800054Y-109876971D01*
X119810282Y-109855347D01*
X119822579Y-109834830D01*
X119836829Y-109815617D01*
X119852893Y-109797893D01*
X119870617Y-109781829D01*
X119889830Y-109767579D01*
X119910347Y-109755282D01*
X119931971Y-109745054D01*
X119954493Y-109736996D01*
X119977697Y-109731184D01*
X120001358Y-109727674D01*
X120025250Y-109726500D01*
X120512750Y-109726500D01*
X120536642Y-109727674D01*
G37*
D16*
X125696000Y-92964000D03*
X127796000Y-92964000D03*
X125696000Y-95186500D03*
X127796000Y-95186500D03*
D10*
G36*
X133576142Y-87872174D02*
G01*
X133599803Y-87875684D01*
X133623007Y-87881496D01*
X133645529Y-87889554D01*
X133667153Y-87899782D01*
X133687670Y-87912079D01*
X133706883Y-87926329D01*
X133724607Y-87942393D01*
X133740671Y-87960117D01*
X133754921Y-87979330D01*
X133767218Y-87999847D01*
X133777446Y-88021471D01*
X133785504Y-88043993D01*
X133791316Y-88067197D01*
X133794826Y-88090858D01*
X133796000Y-88114750D01*
X133796000Y-88602250D01*
X133794826Y-88626142D01*
X133791316Y-88649803D01*
X133785504Y-88673007D01*
X133777446Y-88695529D01*
X133767218Y-88717153D01*
X133754921Y-88737670D01*
X133740671Y-88756883D01*
X133724607Y-88774607D01*
X133706883Y-88790671D01*
X133687670Y-88804921D01*
X133667153Y-88817218D01*
X133645529Y-88827446D01*
X133623007Y-88835504D01*
X133599803Y-88841316D01*
X133576142Y-88844826D01*
X133552250Y-88846000D01*
X132639750Y-88846000D01*
X132615858Y-88844826D01*
X132592197Y-88841316D01*
X132568993Y-88835504D01*
X132546471Y-88827446D01*
X132524847Y-88817218D01*
X132504330Y-88804921D01*
X132485117Y-88790671D01*
X132467393Y-88774607D01*
X132451329Y-88756883D01*
X132437079Y-88737670D01*
X132424782Y-88717153D01*
X132414554Y-88695529D01*
X132406496Y-88673007D01*
X132400684Y-88649803D01*
X132397174Y-88626142D01*
X132396000Y-88602250D01*
X132396000Y-88114750D01*
X132397174Y-88090858D01*
X132400684Y-88067197D01*
X132406496Y-88043993D01*
X132414554Y-88021471D01*
X132424782Y-87999847D01*
X132437079Y-87979330D01*
X132451329Y-87960117D01*
X132467393Y-87942393D01*
X132485117Y-87926329D01*
X132504330Y-87912079D01*
X132524847Y-87899782D01*
X132546471Y-87889554D01*
X132568993Y-87881496D01*
X132592197Y-87875684D01*
X132615858Y-87872174D01*
X132639750Y-87871000D01*
X133552250Y-87871000D01*
X133576142Y-87872174D01*
G37*
G36*
X133576142Y-89747174D02*
G01*
X133599803Y-89750684D01*
X133623007Y-89756496D01*
X133645529Y-89764554D01*
X133667153Y-89774782D01*
X133687670Y-89787079D01*
X133706883Y-89801329D01*
X133724607Y-89817393D01*
X133740671Y-89835117D01*
X133754921Y-89854330D01*
X133767218Y-89874847D01*
X133777446Y-89896471D01*
X133785504Y-89918993D01*
X133791316Y-89942197D01*
X133794826Y-89965858D01*
X133796000Y-89989750D01*
X133796000Y-90477250D01*
X133794826Y-90501142D01*
X133791316Y-90524803D01*
X133785504Y-90548007D01*
X133777446Y-90570529D01*
X133767218Y-90592153D01*
X133754921Y-90612670D01*
X133740671Y-90631883D01*
X133724607Y-90649607D01*
X133706883Y-90665671D01*
X133687670Y-90679921D01*
X133667153Y-90692218D01*
X133645529Y-90702446D01*
X133623007Y-90710504D01*
X133599803Y-90716316D01*
X133576142Y-90719826D01*
X133552250Y-90721000D01*
X132639750Y-90721000D01*
X132615858Y-90719826D01*
X132592197Y-90716316D01*
X132568993Y-90710504D01*
X132546471Y-90702446D01*
X132524847Y-90692218D01*
X132504330Y-90679921D01*
X132485117Y-90665671D01*
X132467393Y-90649607D01*
X132451329Y-90631883D01*
X132437079Y-90612670D01*
X132424782Y-90592153D01*
X132414554Y-90570529D01*
X132406496Y-90548007D01*
X132400684Y-90524803D01*
X132397174Y-90501142D01*
X132396000Y-90477250D01*
X132396000Y-89989750D01*
X132397174Y-89965858D01*
X132400684Y-89942197D01*
X132406496Y-89918993D01*
X132414554Y-89896471D01*
X132424782Y-89874847D01*
X132437079Y-89854330D01*
X132451329Y-89835117D01*
X132467393Y-89817393D01*
X132485117Y-89801329D01*
X132504330Y-89787079D01*
X132524847Y-89774782D01*
X132546471Y-89764554D01*
X132568993Y-89756496D01*
X132592197Y-89750684D01*
X132615858Y-89747174D01*
X132639750Y-89746000D01*
X133552250Y-89746000D01*
X133576142Y-89747174D01*
G37*
G36*
X130591642Y-87857174D02*
G01*
X130615303Y-87860684D01*
X130638507Y-87866496D01*
X130661029Y-87874554D01*
X130682653Y-87884782D01*
X130703170Y-87897079D01*
X130722383Y-87911329D01*
X130740107Y-87927393D01*
X130756171Y-87945117D01*
X130770421Y-87964330D01*
X130782718Y-87984847D01*
X130792946Y-88006471D01*
X130801004Y-88028993D01*
X130806816Y-88052197D01*
X130810326Y-88075858D01*
X130811500Y-88099750D01*
X130811500Y-88587250D01*
X130810326Y-88611142D01*
X130806816Y-88634803D01*
X130801004Y-88658007D01*
X130792946Y-88680529D01*
X130782718Y-88702153D01*
X130770421Y-88722670D01*
X130756171Y-88741883D01*
X130740107Y-88759607D01*
X130722383Y-88775671D01*
X130703170Y-88789921D01*
X130682653Y-88802218D01*
X130661029Y-88812446D01*
X130638507Y-88820504D01*
X130615303Y-88826316D01*
X130591642Y-88829826D01*
X130567750Y-88831000D01*
X129655250Y-88831000D01*
X129631358Y-88829826D01*
X129607697Y-88826316D01*
X129584493Y-88820504D01*
X129561971Y-88812446D01*
X129540347Y-88802218D01*
X129519830Y-88789921D01*
X129500617Y-88775671D01*
X129482893Y-88759607D01*
X129466829Y-88741883D01*
X129452579Y-88722670D01*
X129440282Y-88702153D01*
X129430054Y-88680529D01*
X129421996Y-88658007D01*
X129416184Y-88634803D01*
X129412674Y-88611142D01*
X129411500Y-88587250D01*
X129411500Y-88099750D01*
X129412674Y-88075858D01*
X129416184Y-88052197D01*
X129421996Y-88028993D01*
X129430054Y-88006471D01*
X129440282Y-87984847D01*
X129452579Y-87964330D01*
X129466829Y-87945117D01*
X129482893Y-87927393D01*
X129500617Y-87911329D01*
X129519830Y-87897079D01*
X129540347Y-87884782D01*
X129561971Y-87874554D01*
X129584493Y-87866496D01*
X129607697Y-87860684D01*
X129631358Y-87857174D01*
X129655250Y-87856000D01*
X130567750Y-87856000D01*
X130591642Y-87857174D01*
G37*
G36*
X130591642Y-89732174D02*
G01*
X130615303Y-89735684D01*
X130638507Y-89741496D01*
X130661029Y-89749554D01*
X130682653Y-89759782D01*
X130703170Y-89772079D01*
X130722383Y-89786329D01*
X130740107Y-89802393D01*
X130756171Y-89820117D01*
X130770421Y-89839330D01*
X130782718Y-89859847D01*
X130792946Y-89881471D01*
X130801004Y-89903993D01*
X130806816Y-89927197D01*
X130810326Y-89950858D01*
X130811500Y-89974750D01*
X130811500Y-90462250D01*
X130810326Y-90486142D01*
X130806816Y-90509803D01*
X130801004Y-90533007D01*
X130792946Y-90555529D01*
X130782718Y-90577153D01*
X130770421Y-90597670D01*
X130756171Y-90616883D01*
X130740107Y-90634607D01*
X130722383Y-90650671D01*
X130703170Y-90664921D01*
X130682653Y-90677218D01*
X130661029Y-90687446D01*
X130638507Y-90695504D01*
X130615303Y-90701316D01*
X130591642Y-90704826D01*
X130567750Y-90706000D01*
X129655250Y-90706000D01*
X129631358Y-90704826D01*
X129607697Y-90701316D01*
X129584493Y-90695504D01*
X129561971Y-90687446D01*
X129540347Y-90677218D01*
X129519830Y-90664921D01*
X129500617Y-90650671D01*
X129482893Y-90634607D01*
X129466829Y-90616883D01*
X129452579Y-90597670D01*
X129440282Y-90577153D01*
X129430054Y-90555529D01*
X129421996Y-90533007D01*
X129416184Y-90509803D01*
X129412674Y-90486142D01*
X129411500Y-90462250D01*
X129411500Y-89974750D01*
X129412674Y-89950858D01*
X129416184Y-89927197D01*
X129421996Y-89903993D01*
X129430054Y-89881471D01*
X129440282Y-89859847D01*
X129452579Y-89839330D01*
X129466829Y-89820117D01*
X129482893Y-89802393D01*
X129500617Y-89786329D01*
X129519830Y-89772079D01*
X129540347Y-89759782D01*
X129561971Y-89749554D01*
X129584493Y-89741496D01*
X129607697Y-89735684D01*
X129631358Y-89732174D01*
X129655250Y-89731000D01*
X130567750Y-89731000D01*
X130591642Y-89732174D01*
G37*
G36*
X131316642Y-106425674D02*
G01*
X131340303Y-106429184D01*
X131363507Y-106434996D01*
X131386029Y-106443054D01*
X131407653Y-106453282D01*
X131428170Y-106465579D01*
X131447383Y-106479829D01*
X131465107Y-106495893D01*
X131481171Y-106513617D01*
X131495421Y-106532830D01*
X131507718Y-106553347D01*
X131517946Y-106574971D01*
X131526004Y-106597493D01*
X131531816Y-106620697D01*
X131535326Y-106644358D01*
X131536500Y-106668250D01*
X131536500Y-107580750D01*
X131535326Y-107604642D01*
X131531816Y-107628303D01*
X131526004Y-107651507D01*
X131517946Y-107674029D01*
X131507718Y-107695653D01*
X131495421Y-107716170D01*
X131481171Y-107735383D01*
X131465107Y-107753107D01*
X131447383Y-107769171D01*
X131428170Y-107783421D01*
X131407653Y-107795718D01*
X131386029Y-107805946D01*
X131363507Y-107814004D01*
X131340303Y-107819816D01*
X131316642Y-107823326D01*
X131292750Y-107824500D01*
X130805250Y-107824500D01*
X130781358Y-107823326D01*
X130757697Y-107819816D01*
X130734493Y-107814004D01*
X130711971Y-107805946D01*
X130690347Y-107795718D01*
X130669830Y-107783421D01*
X130650617Y-107769171D01*
X130632893Y-107753107D01*
X130616829Y-107735383D01*
X130602579Y-107716170D01*
X130590282Y-107695653D01*
X130580054Y-107674029D01*
X130571996Y-107651507D01*
X130566184Y-107628303D01*
X130562674Y-107604642D01*
X130561500Y-107580750D01*
X130561500Y-106668250D01*
X130562674Y-106644358D01*
X130566184Y-106620697D01*
X130571996Y-106597493D01*
X130580054Y-106574971D01*
X130590282Y-106553347D01*
X130602579Y-106532830D01*
X130616829Y-106513617D01*
X130632893Y-106495893D01*
X130650617Y-106479829D01*
X130669830Y-106465579D01*
X130690347Y-106453282D01*
X130711971Y-106443054D01*
X130734493Y-106434996D01*
X130757697Y-106429184D01*
X130781358Y-106425674D01*
X130805250Y-106424500D01*
X131292750Y-106424500D01*
X131316642Y-106425674D01*
G37*
G36*
X129441642Y-106425674D02*
G01*
X129465303Y-106429184D01*
X129488507Y-106434996D01*
X129511029Y-106443054D01*
X129532653Y-106453282D01*
X129553170Y-106465579D01*
X129572383Y-106479829D01*
X129590107Y-106495893D01*
X129606171Y-106513617D01*
X129620421Y-106532830D01*
X129632718Y-106553347D01*
X129642946Y-106574971D01*
X129651004Y-106597493D01*
X129656816Y-106620697D01*
X129660326Y-106644358D01*
X129661500Y-106668250D01*
X129661500Y-107580750D01*
X129660326Y-107604642D01*
X129656816Y-107628303D01*
X129651004Y-107651507D01*
X129642946Y-107674029D01*
X129632718Y-107695653D01*
X129620421Y-107716170D01*
X129606171Y-107735383D01*
X129590107Y-107753107D01*
X129572383Y-107769171D01*
X129553170Y-107783421D01*
X129532653Y-107795718D01*
X129511029Y-107805946D01*
X129488507Y-107814004D01*
X129465303Y-107819816D01*
X129441642Y-107823326D01*
X129417750Y-107824500D01*
X128930250Y-107824500D01*
X128906358Y-107823326D01*
X128882697Y-107819816D01*
X128859493Y-107814004D01*
X128836971Y-107805946D01*
X128815347Y-107795718D01*
X128794830Y-107783421D01*
X128775617Y-107769171D01*
X128757893Y-107753107D01*
X128741829Y-107735383D01*
X128727579Y-107716170D01*
X128715282Y-107695653D01*
X128705054Y-107674029D01*
X128696996Y-107651507D01*
X128691184Y-107628303D01*
X128687674Y-107604642D01*
X128686500Y-107580750D01*
X128686500Y-106668250D01*
X128687674Y-106644358D01*
X128691184Y-106620697D01*
X128696996Y-106597493D01*
X128705054Y-106574971D01*
X128715282Y-106553347D01*
X128727579Y-106532830D01*
X128741829Y-106513617D01*
X128757893Y-106495893D01*
X128775617Y-106479829D01*
X128794830Y-106465579D01*
X128815347Y-106453282D01*
X128836971Y-106443054D01*
X128859493Y-106434996D01*
X128882697Y-106429184D01*
X128906358Y-106425674D01*
X128930250Y-106424500D01*
X129417750Y-106424500D01*
X129441642Y-106425674D01*
G37*
G36*
X131365142Y-109791174D02*
G01*
X131388803Y-109794684D01*
X131412007Y-109800496D01*
X131434529Y-109808554D01*
X131456153Y-109818782D01*
X131476670Y-109831079D01*
X131495883Y-109845329D01*
X131513607Y-109861393D01*
X131529671Y-109879117D01*
X131543921Y-109898330D01*
X131556218Y-109918847D01*
X131566446Y-109940471D01*
X131574504Y-109962993D01*
X131580316Y-109986197D01*
X131583826Y-110009858D01*
X131585000Y-110033750D01*
X131585000Y-110946250D01*
X131583826Y-110970142D01*
X131580316Y-110993803D01*
X131574504Y-111017007D01*
X131566446Y-111039529D01*
X131556218Y-111061153D01*
X131543921Y-111081670D01*
X131529671Y-111100883D01*
X131513607Y-111118607D01*
X131495883Y-111134671D01*
X131476670Y-111148921D01*
X131456153Y-111161218D01*
X131434529Y-111171446D01*
X131412007Y-111179504D01*
X131388803Y-111185316D01*
X131365142Y-111188826D01*
X131341250Y-111190000D01*
X130853750Y-111190000D01*
X130829858Y-111188826D01*
X130806197Y-111185316D01*
X130782993Y-111179504D01*
X130760471Y-111171446D01*
X130738847Y-111161218D01*
X130718330Y-111148921D01*
X130699117Y-111134671D01*
X130681393Y-111118607D01*
X130665329Y-111100883D01*
X130651079Y-111081670D01*
X130638782Y-111061153D01*
X130628554Y-111039529D01*
X130620496Y-111017007D01*
X130614684Y-110993803D01*
X130611174Y-110970142D01*
X130610000Y-110946250D01*
X130610000Y-110033750D01*
X130611174Y-110009858D01*
X130614684Y-109986197D01*
X130620496Y-109962993D01*
X130628554Y-109940471D01*
X130638782Y-109918847D01*
X130651079Y-109898330D01*
X130665329Y-109879117D01*
X130681393Y-109861393D01*
X130699117Y-109845329D01*
X130718330Y-109831079D01*
X130738847Y-109818782D01*
X130760471Y-109808554D01*
X130782993Y-109800496D01*
X130806197Y-109794684D01*
X130829858Y-109791174D01*
X130853750Y-109790000D01*
X131341250Y-109790000D01*
X131365142Y-109791174D01*
G37*
G36*
X129490142Y-109791174D02*
G01*
X129513803Y-109794684D01*
X129537007Y-109800496D01*
X129559529Y-109808554D01*
X129581153Y-109818782D01*
X129601670Y-109831079D01*
X129620883Y-109845329D01*
X129638607Y-109861393D01*
X129654671Y-109879117D01*
X129668921Y-109898330D01*
X129681218Y-109918847D01*
X129691446Y-109940471D01*
X129699504Y-109962993D01*
X129705316Y-109986197D01*
X129708826Y-110009858D01*
X129710000Y-110033750D01*
X129710000Y-110946250D01*
X129708826Y-110970142D01*
X129705316Y-110993803D01*
X129699504Y-111017007D01*
X129691446Y-111039529D01*
X129681218Y-111061153D01*
X129668921Y-111081670D01*
X129654671Y-111100883D01*
X129638607Y-111118607D01*
X129620883Y-111134671D01*
X129601670Y-111148921D01*
X129581153Y-111161218D01*
X129559529Y-111171446D01*
X129537007Y-111179504D01*
X129513803Y-111185316D01*
X129490142Y-111188826D01*
X129466250Y-111190000D01*
X128978750Y-111190000D01*
X128954858Y-111188826D01*
X128931197Y-111185316D01*
X128907993Y-111179504D01*
X128885471Y-111171446D01*
X128863847Y-111161218D01*
X128843330Y-111148921D01*
X128824117Y-111134671D01*
X128806393Y-111118607D01*
X128790329Y-111100883D01*
X128776079Y-111081670D01*
X128763782Y-111061153D01*
X128753554Y-111039529D01*
X128745496Y-111017007D01*
X128739684Y-110993803D01*
X128736174Y-110970142D01*
X128735000Y-110946250D01*
X128735000Y-110033750D01*
X128736174Y-110009858D01*
X128739684Y-109986197D01*
X128745496Y-109962993D01*
X128753554Y-109940471D01*
X128763782Y-109918847D01*
X128776079Y-109898330D01*
X128790329Y-109879117D01*
X128806393Y-109861393D01*
X128824117Y-109845329D01*
X128843330Y-109831079D01*
X128863847Y-109818782D01*
X128885471Y-109808554D01*
X128907993Y-109800496D01*
X128931197Y-109794684D01*
X128954858Y-109791174D01*
X128978750Y-109790000D01*
X129466250Y-109790000D01*
X129490142Y-109791174D01*
G37*
D17*
X121503000Y-98926002D03*
X121002999Y-98926002D03*
X122003000Y-98926002D03*
X122503001Y-98926002D03*
D18*
X122428000Y-99751002D03*
X122428000Y-100451001D03*
D17*
X122503001Y-101226000D03*
X122003000Y-101226000D03*
X121503000Y-101226000D03*
X121002999Y-101226000D03*
D18*
X121078000Y-100451001D03*
X121078000Y-99751002D03*
D10*
G36*
X130237142Y-99377174D02*
G01*
X130260803Y-99380684D01*
X130284007Y-99386496D01*
X130306529Y-99394554D01*
X130328153Y-99404782D01*
X130348670Y-99417079D01*
X130367883Y-99431329D01*
X130385607Y-99447393D01*
X130401671Y-99465117D01*
X130415921Y-99484330D01*
X130428218Y-99504847D01*
X130438446Y-99526471D01*
X130446504Y-99548993D01*
X130452316Y-99572197D01*
X130455826Y-99595858D01*
X130457000Y-99619750D01*
X130457000Y-100532250D01*
X130455826Y-100556142D01*
X130452316Y-100579803D01*
X130446504Y-100603007D01*
X130438446Y-100625529D01*
X130428218Y-100647153D01*
X130415921Y-100667670D01*
X130401671Y-100686883D01*
X130385607Y-100704607D01*
X130367883Y-100720671D01*
X130348670Y-100734921D01*
X130328153Y-100747218D01*
X130306529Y-100757446D01*
X130284007Y-100765504D01*
X130260803Y-100771316D01*
X130237142Y-100774826D01*
X130213250Y-100776000D01*
X129725750Y-100776000D01*
X129701858Y-100774826D01*
X129678197Y-100771316D01*
X129654993Y-100765504D01*
X129632471Y-100757446D01*
X129610847Y-100747218D01*
X129590330Y-100734921D01*
X129571117Y-100720671D01*
X129553393Y-100704607D01*
X129537329Y-100686883D01*
X129523079Y-100667670D01*
X129510782Y-100647153D01*
X129500554Y-100625529D01*
X129492496Y-100603007D01*
X129486684Y-100579803D01*
X129483174Y-100556142D01*
X129482000Y-100532250D01*
X129482000Y-99619750D01*
X129483174Y-99595858D01*
X129486684Y-99572197D01*
X129492496Y-99548993D01*
X129500554Y-99526471D01*
X129510782Y-99504847D01*
X129523079Y-99484330D01*
X129537329Y-99465117D01*
X129553393Y-99447393D01*
X129571117Y-99431329D01*
X129590330Y-99417079D01*
X129610847Y-99404782D01*
X129632471Y-99394554D01*
X129654993Y-99386496D01*
X129678197Y-99380684D01*
X129701858Y-99377174D01*
X129725750Y-99376000D01*
X130213250Y-99376000D01*
X130237142Y-99377174D01*
G37*
G36*
X128362142Y-99377174D02*
G01*
X128385803Y-99380684D01*
X128409007Y-99386496D01*
X128431529Y-99394554D01*
X128453153Y-99404782D01*
X128473670Y-99417079D01*
X128492883Y-99431329D01*
X128510607Y-99447393D01*
X128526671Y-99465117D01*
X128540921Y-99484330D01*
X128553218Y-99504847D01*
X128563446Y-99526471D01*
X128571504Y-99548993D01*
X128577316Y-99572197D01*
X128580826Y-99595858D01*
X128582000Y-99619750D01*
X128582000Y-100532250D01*
X128580826Y-100556142D01*
X128577316Y-100579803D01*
X128571504Y-100603007D01*
X128563446Y-100625529D01*
X128553218Y-100647153D01*
X128540921Y-100667670D01*
X128526671Y-100686883D01*
X128510607Y-100704607D01*
X128492883Y-100720671D01*
X128473670Y-100734921D01*
X128453153Y-100747218D01*
X128431529Y-100757446D01*
X128409007Y-100765504D01*
X128385803Y-100771316D01*
X128362142Y-100774826D01*
X128338250Y-100776000D01*
X127850750Y-100776000D01*
X127826858Y-100774826D01*
X127803197Y-100771316D01*
X127779993Y-100765504D01*
X127757471Y-100757446D01*
X127735847Y-100747218D01*
X127715330Y-100734921D01*
X127696117Y-100720671D01*
X127678393Y-100704607D01*
X127662329Y-100686883D01*
X127648079Y-100667670D01*
X127635782Y-100647153D01*
X127625554Y-100625529D01*
X127617496Y-100603007D01*
X127611684Y-100579803D01*
X127608174Y-100556142D01*
X127607000Y-100532250D01*
X127607000Y-99619750D01*
X127608174Y-99595858D01*
X127611684Y-99572197D01*
X127617496Y-99548993D01*
X127625554Y-99526471D01*
X127635782Y-99504847D01*
X127648079Y-99484330D01*
X127662329Y-99465117D01*
X127678393Y-99447393D01*
X127696117Y-99431329D01*
X127715330Y-99417079D01*
X127735847Y-99404782D01*
X127757471Y-99394554D01*
X127779993Y-99386496D01*
X127803197Y-99380684D01*
X127826858Y-99377174D01*
X127850750Y-99376000D01*
X128338250Y-99376000D01*
X128362142Y-99377174D01*
G37*
D19*
X146517000Y-113919000D03*
X146517000Y-109419000D03*
X138557000Y-109419000D03*
X138557000Y-113919000D03*
D10*
G36*
X151209004Y-102885204D02*
G01*
X151233273Y-102888804D01*
X151257071Y-102894765D01*
X151280171Y-102903030D01*
X151302349Y-102913520D01*
X151323393Y-102926133D01*
X151343098Y-102940747D01*
X151361277Y-102957223D01*
X151377753Y-102975402D01*
X151392367Y-102995107D01*
X151404980Y-103016151D01*
X151415470Y-103038329D01*
X151423735Y-103061429D01*
X151429696Y-103085227D01*
X151433296Y-103109496D01*
X151434500Y-103134000D01*
X151434500Y-104384000D01*
X151433296Y-104408504D01*
X151429696Y-104432773D01*
X151423735Y-104456571D01*
X151415470Y-104479671D01*
X151404980Y-104501849D01*
X151392367Y-104522893D01*
X151377753Y-104542598D01*
X151361277Y-104560777D01*
X151343098Y-104577253D01*
X151323393Y-104591867D01*
X151302349Y-104604480D01*
X151280171Y-104614970D01*
X151257071Y-104623235D01*
X151233273Y-104629196D01*
X151209004Y-104632796D01*
X151184500Y-104634000D01*
X150434500Y-104634000D01*
X150409996Y-104632796D01*
X150385727Y-104629196D01*
X150361929Y-104623235D01*
X150338829Y-104614970D01*
X150316651Y-104604480D01*
X150295607Y-104591867D01*
X150275902Y-104577253D01*
X150257723Y-104560777D01*
X150241247Y-104542598D01*
X150226633Y-104522893D01*
X150214020Y-104501849D01*
X150203530Y-104479671D01*
X150195265Y-104456571D01*
X150189304Y-104432773D01*
X150185704Y-104408504D01*
X150184500Y-104384000D01*
X150184500Y-103134000D01*
X150185704Y-103109496D01*
X150189304Y-103085227D01*
X150195265Y-103061429D01*
X150203530Y-103038329D01*
X150214020Y-103016151D01*
X150226633Y-102995107D01*
X150241247Y-102975402D01*
X150257723Y-102957223D01*
X150275902Y-102940747D01*
X150295607Y-102926133D01*
X150316651Y-102913520D01*
X150338829Y-102903030D01*
X150361929Y-102894765D01*
X150385727Y-102888804D01*
X150409996Y-102885204D01*
X150434500Y-102884000D01*
X151184500Y-102884000D01*
X151209004Y-102885204D01*
G37*
G36*
X154009004Y-102885204D02*
G01*
X154033273Y-102888804D01*
X154057071Y-102894765D01*
X154080171Y-102903030D01*
X154102349Y-102913520D01*
X154123393Y-102926133D01*
X154143098Y-102940747D01*
X154161277Y-102957223D01*
X154177753Y-102975402D01*
X154192367Y-102995107D01*
X154204980Y-103016151D01*
X154215470Y-103038329D01*
X154223735Y-103061429D01*
X154229696Y-103085227D01*
X154233296Y-103109496D01*
X154234500Y-103134000D01*
X154234500Y-104384000D01*
X154233296Y-104408504D01*
X154229696Y-104432773D01*
X154223735Y-104456571D01*
X154215470Y-104479671D01*
X154204980Y-104501849D01*
X154192367Y-104522893D01*
X154177753Y-104542598D01*
X154161277Y-104560777D01*
X154143098Y-104577253D01*
X154123393Y-104591867D01*
X154102349Y-104604480D01*
X154080171Y-104614970D01*
X154057071Y-104623235D01*
X154033273Y-104629196D01*
X154009004Y-104632796D01*
X153984500Y-104634000D01*
X153234500Y-104634000D01*
X153209996Y-104632796D01*
X153185727Y-104629196D01*
X153161929Y-104623235D01*
X153138829Y-104614970D01*
X153116651Y-104604480D01*
X153095607Y-104591867D01*
X153075902Y-104577253D01*
X153057723Y-104560777D01*
X153041247Y-104542598D01*
X153026633Y-104522893D01*
X153014020Y-104501849D01*
X153003530Y-104479671D01*
X152995265Y-104456571D01*
X152989304Y-104432773D01*
X152985704Y-104408504D01*
X152984500Y-104384000D01*
X152984500Y-103134000D01*
X152985704Y-103109496D01*
X152989304Y-103085227D01*
X152995265Y-103061429D01*
X153003530Y-103038329D01*
X153014020Y-103016151D01*
X153026633Y-102995107D01*
X153041247Y-102975402D01*
X153057723Y-102957223D01*
X153075902Y-102940747D01*
X153095607Y-102926133D01*
X153116651Y-102913520D01*
X153138829Y-102903030D01*
X153161929Y-102894765D01*
X153185727Y-102888804D01*
X153209996Y-102885204D01*
X153234500Y-102884000D01*
X153984500Y-102884000D01*
X154009004Y-102885204D01*
G37*
G36*
X126464142Y-83255174D02*
G01*
X126487803Y-83258684D01*
X126511007Y-83264496D01*
X126533529Y-83272554D01*
X126555153Y-83282782D01*
X126575670Y-83295079D01*
X126594883Y-83309329D01*
X126612607Y-83325393D01*
X126628671Y-83343117D01*
X126642921Y-83362330D01*
X126655218Y-83382847D01*
X126665446Y-83404471D01*
X126673504Y-83426993D01*
X126679316Y-83450197D01*
X126682826Y-83473858D01*
X126684000Y-83497750D01*
X126684000Y-83985250D01*
X126682826Y-84009142D01*
X126679316Y-84032803D01*
X126673504Y-84056007D01*
X126665446Y-84078529D01*
X126655218Y-84100153D01*
X126642921Y-84120670D01*
X126628671Y-84139883D01*
X126612607Y-84157607D01*
X126594883Y-84173671D01*
X126575670Y-84187921D01*
X126555153Y-84200218D01*
X126533529Y-84210446D01*
X126511007Y-84218504D01*
X126487803Y-84224316D01*
X126464142Y-84227826D01*
X126440250Y-84229000D01*
X125527750Y-84229000D01*
X125503858Y-84227826D01*
X125480197Y-84224316D01*
X125456993Y-84218504D01*
X125434471Y-84210446D01*
X125412847Y-84200218D01*
X125392330Y-84187921D01*
X125373117Y-84173671D01*
X125355393Y-84157607D01*
X125339329Y-84139883D01*
X125325079Y-84120670D01*
X125312782Y-84100153D01*
X125302554Y-84078529D01*
X125294496Y-84056007D01*
X125288684Y-84032803D01*
X125285174Y-84009142D01*
X125284000Y-83985250D01*
X125284000Y-83497750D01*
X125285174Y-83473858D01*
X125288684Y-83450197D01*
X125294496Y-83426993D01*
X125302554Y-83404471D01*
X125312782Y-83382847D01*
X125325079Y-83362330D01*
X125339329Y-83343117D01*
X125355393Y-83325393D01*
X125373117Y-83309329D01*
X125392330Y-83295079D01*
X125412847Y-83282782D01*
X125434471Y-83272554D01*
X125456993Y-83264496D01*
X125480197Y-83258684D01*
X125503858Y-83255174D01*
X125527750Y-83254000D01*
X126440250Y-83254000D01*
X126464142Y-83255174D01*
G37*
G36*
X126464142Y-81380174D02*
G01*
X126487803Y-81383684D01*
X126511007Y-81389496D01*
X126533529Y-81397554D01*
X126555153Y-81407782D01*
X126575670Y-81420079D01*
X126594883Y-81434329D01*
X126612607Y-81450393D01*
X126628671Y-81468117D01*
X126642921Y-81487330D01*
X126655218Y-81507847D01*
X126665446Y-81529471D01*
X126673504Y-81551993D01*
X126679316Y-81575197D01*
X126682826Y-81598858D01*
X126684000Y-81622750D01*
X126684000Y-82110250D01*
X126682826Y-82134142D01*
X126679316Y-82157803D01*
X126673504Y-82181007D01*
X126665446Y-82203529D01*
X126655218Y-82225153D01*
X126642921Y-82245670D01*
X126628671Y-82264883D01*
X126612607Y-82282607D01*
X126594883Y-82298671D01*
X126575670Y-82312921D01*
X126555153Y-82325218D01*
X126533529Y-82335446D01*
X126511007Y-82343504D01*
X126487803Y-82349316D01*
X126464142Y-82352826D01*
X126440250Y-82354000D01*
X125527750Y-82354000D01*
X125503858Y-82352826D01*
X125480197Y-82349316D01*
X125456993Y-82343504D01*
X125434471Y-82335446D01*
X125412847Y-82325218D01*
X125392330Y-82312921D01*
X125373117Y-82298671D01*
X125355393Y-82282607D01*
X125339329Y-82264883D01*
X125325079Y-82245670D01*
X125312782Y-82225153D01*
X125302554Y-82203529D01*
X125294496Y-82181007D01*
X125288684Y-82157803D01*
X125285174Y-82134142D01*
X125284000Y-82110250D01*
X125284000Y-81622750D01*
X125285174Y-81598858D01*
X125288684Y-81575197D01*
X125294496Y-81551993D01*
X125302554Y-81529471D01*
X125312782Y-81507847D01*
X125325079Y-81487330D01*
X125339329Y-81468117D01*
X125355393Y-81450393D01*
X125373117Y-81434329D01*
X125392330Y-81420079D01*
X125412847Y-81407782D01*
X125434471Y-81397554D01*
X125456993Y-81389496D01*
X125480197Y-81383684D01*
X125503858Y-81380174D01*
X125527750Y-81379000D01*
X126440250Y-81379000D01*
X126464142Y-81380174D01*
G37*
D20*
X135358000Y-77216000D03*
X145058000Y-77216000D03*
D10*
G36*
X110484504Y-109945204D02*
G01*
X110508773Y-109948804D01*
X110532571Y-109954765D01*
X110555671Y-109963030D01*
X110577849Y-109973520D01*
X110598893Y-109986133D01*
X110618598Y-110000747D01*
X110636777Y-110017223D01*
X110653253Y-110035402D01*
X110667867Y-110055107D01*
X110680480Y-110076151D01*
X110690970Y-110098329D01*
X110699235Y-110121429D01*
X110705196Y-110145227D01*
X110708796Y-110169496D01*
X110710000Y-110194000D01*
X110710000Y-111294000D01*
X110708796Y-111318504D01*
X110705196Y-111342773D01*
X110699235Y-111366571D01*
X110690970Y-111389671D01*
X110680480Y-111411849D01*
X110667867Y-111432893D01*
X110653253Y-111452598D01*
X110636777Y-111470777D01*
X110618598Y-111487253D01*
X110598893Y-111501867D01*
X110577849Y-111514480D01*
X110555671Y-111524970D01*
X110532571Y-111533235D01*
X110508773Y-111539196D01*
X110484504Y-111542796D01*
X110460000Y-111544000D01*
X107460000Y-111544000D01*
X107435496Y-111542796D01*
X107411227Y-111539196D01*
X107387429Y-111533235D01*
X107364329Y-111524970D01*
X107342151Y-111514480D01*
X107321107Y-111501867D01*
X107301402Y-111487253D01*
X107283223Y-111470777D01*
X107266747Y-111452598D01*
X107252133Y-111432893D01*
X107239520Y-111411849D01*
X107229030Y-111389671D01*
X107220765Y-111366571D01*
X107214804Y-111342773D01*
X107211204Y-111318504D01*
X107210000Y-111294000D01*
X107210000Y-110194000D01*
X107211204Y-110169496D01*
X107214804Y-110145227D01*
X107220765Y-110121429D01*
X107229030Y-110098329D01*
X107239520Y-110076151D01*
X107252133Y-110055107D01*
X107266747Y-110035402D01*
X107283223Y-110017223D01*
X107301402Y-110000747D01*
X107321107Y-109986133D01*
X107342151Y-109973520D01*
X107364329Y-109963030D01*
X107387429Y-109954765D01*
X107411227Y-109948804D01*
X107435496Y-109945204D01*
X107460000Y-109944000D01*
X110460000Y-109944000D01*
X110484504Y-109945204D01*
G37*
G36*
X116084504Y-109945204D02*
G01*
X116108773Y-109948804D01*
X116132571Y-109954765D01*
X116155671Y-109963030D01*
X116177849Y-109973520D01*
X116198893Y-109986133D01*
X116218598Y-110000747D01*
X116236777Y-110017223D01*
X116253253Y-110035402D01*
X116267867Y-110055107D01*
X116280480Y-110076151D01*
X116290970Y-110098329D01*
X116299235Y-110121429D01*
X116305196Y-110145227D01*
X116308796Y-110169496D01*
X116310000Y-110194000D01*
X116310000Y-111294000D01*
X116308796Y-111318504D01*
X116305196Y-111342773D01*
X116299235Y-111366571D01*
X116290970Y-111389671D01*
X116280480Y-111411849D01*
X116267867Y-111432893D01*
X116253253Y-111452598D01*
X116236777Y-111470777D01*
X116218598Y-111487253D01*
X116198893Y-111501867D01*
X116177849Y-111514480D01*
X116155671Y-111524970D01*
X116132571Y-111533235D01*
X116108773Y-111539196D01*
X116084504Y-111542796D01*
X116060000Y-111544000D01*
X113060000Y-111544000D01*
X113035496Y-111542796D01*
X113011227Y-111539196D01*
X112987429Y-111533235D01*
X112964329Y-111524970D01*
X112942151Y-111514480D01*
X112921107Y-111501867D01*
X112901402Y-111487253D01*
X112883223Y-111470777D01*
X112866747Y-111452598D01*
X112852133Y-111432893D01*
X112839520Y-111411849D01*
X112829030Y-111389671D01*
X112820765Y-111366571D01*
X112814804Y-111342773D01*
X112811204Y-111318504D01*
X112810000Y-111294000D01*
X112810000Y-110194000D01*
X112811204Y-110169496D01*
X112814804Y-110145227D01*
X112820765Y-110121429D01*
X112829030Y-110098329D01*
X112839520Y-110076151D01*
X112852133Y-110055107D01*
X112866747Y-110035402D01*
X112883223Y-110017223D01*
X112901402Y-110000747D01*
X112921107Y-109986133D01*
X112942151Y-109973520D01*
X112964329Y-109963030D01*
X112987429Y-109954765D01*
X113011227Y-109948804D01*
X113035496Y-109945204D01*
X113060000Y-109944000D01*
X116060000Y-109944000D01*
X116084504Y-109945204D01*
G37*
G36*
X95850142Y-76009174D02*
G01*
X95873803Y-76012684D01*
X95897007Y-76018496D01*
X95919529Y-76026554D01*
X95941153Y-76036782D01*
X95961670Y-76049079D01*
X95980883Y-76063329D01*
X95998607Y-76079393D01*
X96014671Y-76097117D01*
X96028921Y-76116330D01*
X96041218Y-76136847D01*
X96051446Y-76158471D01*
X96059504Y-76180993D01*
X96065316Y-76204197D01*
X96068826Y-76227858D01*
X96070000Y-76251750D01*
X96070000Y-77164250D01*
X96068826Y-77188142D01*
X96065316Y-77211803D01*
X96059504Y-77235007D01*
X96051446Y-77257529D01*
X96041218Y-77279153D01*
X96028921Y-77299670D01*
X96014671Y-77318883D01*
X95998607Y-77336607D01*
X95980883Y-77352671D01*
X95961670Y-77366921D01*
X95941153Y-77379218D01*
X95919529Y-77389446D01*
X95897007Y-77397504D01*
X95873803Y-77403316D01*
X95850142Y-77406826D01*
X95826250Y-77408000D01*
X95338750Y-77408000D01*
X95314858Y-77406826D01*
X95291197Y-77403316D01*
X95267993Y-77397504D01*
X95245471Y-77389446D01*
X95223847Y-77379218D01*
X95203330Y-77366921D01*
X95184117Y-77352671D01*
X95166393Y-77336607D01*
X95150329Y-77318883D01*
X95136079Y-77299670D01*
X95123782Y-77279153D01*
X95113554Y-77257529D01*
X95105496Y-77235007D01*
X95099684Y-77211803D01*
X95096174Y-77188142D01*
X95095000Y-77164250D01*
X95095000Y-76251750D01*
X95096174Y-76227858D01*
X95099684Y-76204197D01*
X95105496Y-76180993D01*
X95113554Y-76158471D01*
X95123782Y-76136847D01*
X95136079Y-76116330D01*
X95150329Y-76097117D01*
X95166393Y-76079393D01*
X95184117Y-76063329D01*
X95203330Y-76049079D01*
X95223847Y-76036782D01*
X95245471Y-76026554D01*
X95267993Y-76018496D01*
X95291197Y-76012684D01*
X95314858Y-76009174D01*
X95338750Y-76008000D01*
X95826250Y-76008000D01*
X95850142Y-76009174D01*
G37*
G36*
X97725142Y-76009174D02*
G01*
X97748803Y-76012684D01*
X97772007Y-76018496D01*
X97794529Y-76026554D01*
X97816153Y-76036782D01*
X97836670Y-76049079D01*
X97855883Y-76063329D01*
X97873607Y-76079393D01*
X97889671Y-76097117D01*
X97903921Y-76116330D01*
X97916218Y-76136847D01*
X97926446Y-76158471D01*
X97934504Y-76180993D01*
X97940316Y-76204197D01*
X97943826Y-76227858D01*
X97945000Y-76251750D01*
X97945000Y-77164250D01*
X97943826Y-77188142D01*
X97940316Y-77211803D01*
X97934504Y-77235007D01*
X97926446Y-77257529D01*
X97916218Y-77279153D01*
X97903921Y-77299670D01*
X97889671Y-77318883D01*
X97873607Y-77336607D01*
X97855883Y-77352671D01*
X97836670Y-77366921D01*
X97816153Y-77379218D01*
X97794529Y-77389446D01*
X97772007Y-77397504D01*
X97748803Y-77403316D01*
X97725142Y-77406826D01*
X97701250Y-77408000D01*
X97213750Y-77408000D01*
X97189858Y-77406826D01*
X97166197Y-77403316D01*
X97142993Y-77397504D01*
X97120471Y-77389446D01*
X97098847Y-77379218D01*
X97078330Y-77366921D01*
X97059117Y-77352671D01*
X97041393Y-77336607D01*
X97025329Y-77318883D01*
X97011079Y-77299670D01*
X96998782Y-77279153D01*
X96988554Y-77257529D01*
X96980496Y-77235007D01*
X96974684Y-77211803D01*
X96971174Y-77188142D01*
X96970000Y-77164250D01*
X96970000Y-76251750D01*
X96971174Y-76227858D01*
X96974684Y-76204197D01*
X96980496Y-76180993D01*
X96988554Y-76158471D01*
X96998782Y-76136847D01*
X97011079Y-76116330D01*
X97025329Y-76097117D01*
X97041393Y-76079393D01*
X97059117Y-76063329D01*
X97078330Y-76049079D01*
X97098847Y-76036782D01*
X97120471Y-76026554D01*
X97142993Y-76018496D01*
X97166197Y-76012684D01*
X97189858Y-76009174D01*
X97213750Y-76008000D01*
X97701250Y-76008000D01*
X97725142Y-76009174D01*
G37*
G36*
X95850142Y-73469174D02*
G01*
X95873803Y-73472684D01*
X95897007Y-73478496D01*
X95919529Y-73486554D01*
X95941153Y-73496782D01*
X95961670Y-73509079D01*
X95980883Y-73523329D01*
X95998607Y-73539393D01*
X96014671Y-73557117D01*
X96028921Y-73576330D01*
X96041218Y-73596847D01*
X96051446Y-73618471D01*
X96059504Y-73640993D01*
X96065316Y-73664197D01*
X96068826Y-73687858D01*
X96070000Y-73711750D01*
X96070000Y-74624250D01*
X96068826Y-74648142D01*
X96065316Y-74671803D01*
X96059504Y-74695007D01*
X96051446Y-74717529D01*
X96041218Y-74739153D01*
X96028921Y-74759670D01*
X96014671Y-74778883D01*
X95998607Y-74796607D01*
X95980883Y-74812671D01*
X95961670Y-74826921D01*
X95941153Y-74839218D01*
X95919529Y-74849446D01*
X95897007Y-74857504D01*
X95873803Y-74863316D01*
X95850142Y-74866826D01*
X95826250Y-74868000D01*
X95338750Y-74868000D01*
X95314858Y-74866826D01*
X95291197Y-74863316D01*
X95267993Y-74857504D01*
X95245471Y-74849446D01*
X95223847Y-74839218D01*
X95203330Y-74826921D01*
X95184117Y-74812671D01*
X95166393Y-74796607D01*
X95150329Y-74778883D01*
X95136079Y-74759670D01*
X95123782Y-74739153D01*
X95113554Y-74717529D01*
X95105496Y-74695007D01*
X95099684Y-74671803D01*
X95096174Y-74648142D01*
X95095000Y-74624250D01*
X95095000Y-73711750D01*
X95096174Y-73687858D01*
X95099684Y-73664197D01*
X95105496Y-73640993D01*
X95113554Y-73618471D01*
X95123782Y-73596847D01*
X95136079Y-73576330D01*
X95150329Y-73557117D01*
X95166393Y-73539393D01*
X95184117Y-73523329D01*
X95203330Y-73509079D01*
X95223847Y-73496782D01*
X95245471Y-73486554D01*
X95267993Y-73478496D01*
X95291197Y-73472684D01*
X95314858Y-73469174D01*
X95338750Y-73468000D01*
X95826250Y-73468000D01*
X95850142Y-73469174D01*
G37*
G36*
X97725142Y-73469174D02*
G01*
X97748803Y-73472684D01*
X97772007Y-73478496D01*
X97794529Y-73486554D01*
X97816153Y-73496782D01*
X97836670Y-73509079D01*
X97855883Y-73523329D01*
X97873607Y-73539393D01*
X97889671Y-73557117D01*
X97903921Y-73576330D01*
X97916218Y-73596847D01*
X97926446Y-73618471D01*
X97934504Y-73640993D01*
X97940316Y-73664197D01*
X97943826Y-73687858D01*
X97945000Y-73711750D01*
X97945000Y-74624250D01*
X97943826Y-74648142D01*
X97940316Y-74671803D01*
X97934504Y-74695007D01*
X97926446Y-74717529D01*
X97916218Y-74739153D01*
X97903921Y-74759670D01*
X97889671Y-74778883D01*
X97873607Y-74796607D01*
X97855883Y-74812671D01*
X97836670Y-74826921D01*
X97816153Y-74839218D01*
X97794529Y-74849446D01*
X97772007Y-74857504D01*
X97748803Y-74863316D01*
X97725142Y-74866826D01*
X97701250Y-74868000D01*
X97213750Y-74868000D01*
X97189858Y-74866826D01*
X97166197Y-74863316D01*
X97142993Y-74857504D01*
X97120471Y-74849446D01*
X97098847Y-74839218D01*
X97078330Y-74826921D01*
X97059117Y-74812671D01*
X97041393Y-74796607D01*
X97025329Y-74778883D01*
X97011079Y-74759670D01*
X96998782Y-74739153D01*
X96988554Y-74717529D01*
X96980496Y-74695007D01*
X96974684Y-74671803D01*
X96971174Y-74648142D01*
X96970000Y-74624250D01*
X96970000Y-73711750D01*
X96971174Y-73687858D01*
X96974684Y-73664197D01*
X96980496Y-73640993D01*
X96988554Y-73618471D01*
X96998782Y-73596847D01*
X97011079Y-73576330D01*
X97025329Y-73557117D01*
X97041393Y-73539393D01*
X97059117Y-73523329D01*
X97078330Y-73509079D01*
X97098847Y-73496782D01*
X97120471Y-73486554D01*
X97142993Y-73478496D01*
X97166197Y-73472684D01*
X97189858Y-73469174D01*
X97213750Y-73468000D01*
X97701250Y-73468000D01*
X97725142Y-73469174D01*
G37*
D13*
X125984000Y-77658000D03*
X125984000Y-78608000D03*
X125984000Y-76708000D03*
X128184000Y-76708000D03*
X128184000Y-77658000D03*
X128184000Y-78608000D03*
D10*
G36*
X122695642Y-77533174D02*
G01*
X122719303Y-77536684D01*
X122742507Y-77542496D01*
X122765029Y-77550554D01*
X122786653Y-77560782D01*
X122807170Y-77573079D01*
X122826383Y-77587329D01*
X122844107Y-77603393D01*
X122860171Y-77621117D01*
X122874421Y-77640330D01*
X122886718Y-77660847D01*
X122896946Y-77682471D01*
X122905004Y-77704993D01*
X122910816Y-77728197D01*
X122914326Y-77751858D01*
X122915500Y-77775750D01*
X122915500Y-78688250D01*
X122914326Y-78712142D01*
X122910816Y-78735803D01*
X122905004Y-78759007D01*
X122896946Y-78781529D01*
X122886718Y-78803153D01*
X122874421Y-78823670D01*
X122860171Y-78842883D01*
X122844107Y-78860607D01*
X122826383Y-78876671D01*
X122807170Y-78890921D01*
X122786653Y-78903218D01*
X122765029Y-78913446D01*
X122742507Y-78921504D01*
X122719303Y-78927316D01*
X122695642Y-78930826D01*
X122671750Y-78932000D01*
X122184250Y-78932000D01*
X122160358Y-78930826D01*
X122136697Y-78927316D01*
X122113493Y-78921504D01*
X122090971Y-78913446D01*
X122069347Y-78903218D01*
X122048830Y-78890921D01*
X122029617Y-78876671D01*
X122011893Y-78860607D01*
X121995829Y-78842883D01*
X121981579Y-78823670D01*
X121969282Y-78803153D01*
X121959054Y-78781529D01*
X121950996Y-78759007D01*
X121945184Y-78735803D01*
X121941674Y-78712142D01*
X121940500Y-78688250D01*
X121940500Y-77775750D01*
X121941674Y-77751858D01*
X121945184Y-77728197D01*
X121950996Y-77704993D01*
X121959054Y-77682471D01*
X121969282Y-77660847D01*
X121981579Y-77640330D01*
X121995829Y-77621117D01*
X122011893Y-77603393D01*
X122029617Y-77587329D01*
X122048830Y-77573079D01*
X122069347Y-77560782D01*
X122090971Y-77550554D01*
X122113493Y-77542496D01*
X122136697Y-77536684D01*
X122160358Y-77533174D01*
X122184250Y-77532000D01*
X122671750Y-77532000D01*
X122695642Y-77533174D01*
G37*
G36*
X120820642Y-77533174D02*
G01*
X120844303Y-77536684D01*
X120867507Y-77542496D01*
X120890029Y-77550554D01*
X120911653Y-77560782D01*
X120932170Y-77573079D01*
X120951383Y-77587329D01*
X120969107Y-77603393D01*
X120985171Y-77621117D01*
X120999421Y-77640330D01*
X121011718Y-77660847D01*
X121021946Y-77682471D01*
X121030004Y-77704993D01*
X121035816Y-77728197D01*
X121039326Y-77751858D01*
X121040500Y-77775750D01*
X121040500Y-78688250D01*
X121039326Y-78712142D01*
X121035816Y-78735803D01*
X121030004Y-78759007D01*
X121021946Y-78781529D01*
X121011718Y-78803153D01*
X120999421Y-78823670D01*
X120985171Y-78842883D01*
X120969107Y-78860607D01*
X120951383Y-78876671D01*
X120932170Y-78890921D01*
X120911653Y-78903218D01*
X120890029Y-78913446D01*
X120867507Y-78921504D01*
X120844303Y-78927316D01*
X120820642Y-78930826D01*
X120796750Y-78932000D01*
X120309250Y-78932000D01*
X120285358Y-78930826D01*
X120261697Y-78927316D01*
X120238493Y-78921504D01*
X120215971Y-78913446D01*
X120194347Y-78903218D01*
X120173830Y-78890921D01*
X120154617Y-78876671D01*
X120136893Y-78860607D01*
X120120829Y-78842883D01*
X120106579Y-78823670D01*
X120094282Y-78803153D01*
X120084054Y-78781529D01*
X120075996Y-78759007D01*
X120070184Y-78735803D01*
X120066674Y-78712142D01*
X120065500Y-78688250D01*
X120065500Y-77775750D01*
X120066674Y-77751858D01*
X120070184Y-77728197D01*
X120075996Y-77704993D01*
X120084054Y-77682471D01*
X120094282Y-77660847D01*
X120106579Y-77640330D01*
X120120829Y-77621117D01*
X120136893Y-77603393D01*
X120154617Y-77587329D01*
X120173830Y-77573079D01*
X120194347Y-77560782D01*
X120215971Y-77550554D01*
X120238493Y-77542496D01*
X120261697Y-77536684D01*
X120285358Y-77533174D01*
X120309250Y-77532000D01*
X120796750Y-77532000D01*
X120820642Y-77533174D01*
G37*
G36*
X120820642Y-80581174D02*
G01*
X120844303Y-80584684D01*
X120867507Y-80590496D01*
X120890029Y-80598554D01*
X120911653Y-80608782D01*
X120932170Y-80621079D01*
X120951383Y-80635329D01*
X120969107Y-80651393D01*
X120985171Y-80669117D01*
X120999421Y-80688330D01*
X121011718Y-80708847D01*
X121021946Y-80730471D01*
X121030004Y-80752993D01*
X121035816Y-80776197D01*
X121039326Y-80799858D01*
X121040500Y-80823750D01*
X121040500Y-81736250D01*
X121039326Y-81760142D01*
X121035816Y-81783803D01*
X121030004Y-81807007D01*
X121021946Y-81829529D01*
X121011718Y-81851153D01*
X120999421Y-81871670D01*
X120985171Y-81890883D01*
X120969107Y-81908607D01*
X120951383Y-81924671D01*
X120932170Y-81938921D01*
X120911653Y-81951218D01*
X120890029Y-81961446D01*
X120867507Y-81969504D01*
X120844303Y-81975316D01*
X120820642Y-81978826D01*
X120796750Y-81980000D01*
X120309250Y-81980000D01*
X120285358Y-81978826D01*
X120261697Y-81975316D01*
X120238493Y-81969504D01*
X120215971Y-81961446D01*
X120194347Y-81951218D01*
X120173830Y-81938921D01*
X120154617Y-81924671D01*
X120136893Y-81908607D01*
X120120829Y-81890883D01*
X120106579Y-81871670D01*
X120094282Y-81851153D01*
X120084054Y-81829529D01*
X120075996Y-81807007D01*
X120070184Y-81783803D01*
X120066674Y-81760142D01*
X120065500Y-81736250D01*
X120065500Y-80823750D01*
X120066674Y-80799858D01*
X120070184Y-80776197D01*
X120075996Y-80752993D01*
X120084054Y-80730471D01*
X120094282Y-80708847D01*
X120106579Y-80688330D01*
X120120829Y-80669117D01*
X120136893Y-80651393D01*
X120154617Y-80635329D01*
X120173830Y-80621079D01*
X120194347Y-80608782D01*
X120215971Y-80598554D01*
X120238493Y-80590496D01*
X120261697Y-80584684D01*
X120285358Y-80581174D01*
X120309250Y-80580000D01*
X120796750Y-80580000D01*
X120820642Y-80581174D01*
G37*
G36*
X122695642Y-80581174D02*
G01*
X122719303Y-80584684D01*
X122742507Y-80590496D01*
X122765029Y-80598554D01*
X122786653Y-80608782D01*
X122807170Y-80621079D01*
X122826383Y-80635329D01*
X122844107Y-80651393D01*
X122860171Y-80669117D01*
X122874421Y-80688330D01*
X122886718Y-80708847D01*
X122896946Y-80730471D01*
X122905004Y-80752993D01*
X122910816Y-80776197D01*
X122914326Y-80799858D01*
X122915500Y-80823750D01*
X122915500Y-81736250D01*
X122914326Y-81760142D01*
X122910816Y-81783803D01*
X122905004Y-81807007D01*
X122896946Y-81829529D01*
X122886718Y-81851153D01*
X122874421Y-81871670D01*
X122860171Y-81890883D01*
X122844107Y-81908607D01*
X122826383Y-81924671D01*
X122807170Y-81938921D01*
X122786653Y-81951218D01*
X122765029Y-81961446D01*
X122742507Y-81969504D01*
X122719303Y-81975316D01*
X122695642Y-81978826D01*
X122671750Y-81980000D01*
X122184250Y-81980000D01*
X122160358Y-81978826D01*
X122136697Y-81975316D01*
X122113493Y-81969504D01*
X122090971Y-81961446D01*
X122069347Y-81951218D01*
X122048830Y-81938921D01*
X122029617Y-81924671D01*
X122011893Y-81908607D01*
X121995829Y-81890883D01*
X121981579Y-81871670D01*
X121969282Y-81851153D01*
X121959054Y-81829529D01*
X121950996Y-81807007D01*
X121945184Y-81783803D01*
X121941674Y-81760142D01*
X121940500Y-81736250D01*
X121940500Y-80823750D01*
X121941674Y-80799858D01*
X121945184Y-80776197D01*
X121950996Y-80752993D01*
X121959054Y-80730471D01*
X121969282Y-80708847D01*
X121981579Y-80688330D01*
X121995829Y-80669117D01*
X122011893Y-80651393D01*
X122029617Y-80635329D01*
X122048830Y-80621079D01*
X122069347Y-80608782D01*
X122090971Y-80598554D01*
X122113493Y-80590496D01*
X122136697Y-80584684D01*
X122160358Y-80581174D01*
X122184250Y-80580000D01*
X122671750Y-80580000D01*
X122695642Y-80581174D01*
G37*
G36*
X142410642Y-106489174D02*
G01*
X142434303Y-106492684D01*
X142457507Y-106498496D01*
X142480029Y-106506554D01*
X142501653Y-106516782D01*
X142522170Y-106529079D01*
X142541383Y-106543329D01*
X142559107Y-106559393D01*
X142575171Y-106577117D01*
X142589421Y-106596330D01*
X142601718Y-106616847D01*
X142611946Y-106638471D01*
X142620004Y-106660993D01*
X142625816Y-106684197D01*
X142629326Y-106707858D01*
X142630500Y-106731750D01*
X142630500Y-107644250D01*
X142629326Y-107668142D01*
X142625816Y-107691803D01*
X142620004Y-107715007D01*
X142611946Y-107737529D01*
X142601718Y-107759153D01*
X142589421Y-107779670D01*
X142575171Y-107798883D01*
X142559107Y-107816607D01*
X142541383Y-107832671D01*
X142522170Y-107846921D01*
X142501653Y-107859218D01*
X142480029Y-107869446D01*
X142457507Y-107877504D01*
X142434303Y-107883316D01*
X142410642Y-107886826D01*
X142386750Y-107888000D01*
X141899250Y-107888000D01*
X141875358Y-107886826D01*
X141851697Y-107883316D01*
X141828493Y-107877504D01*
X141805971Y-107869446D01*
X141784347Y-107859218D01*
X141763830Y-107846921D01*
X141744617Y-107832671D01*
X141726893Y-107816607D01*
X141710829Y-107798883D01*
X141696579Y-107779670D01*
X141684282Y-107759153D01*
X141674054Y-107737529D01*
X141665996Y-107715007D01*
X141660184Y-107691803D01*
X141656674Y-107668142D01*
X141655500Y-107644250D01*
X141655500Y-106731750D01*
X141656674Y-106707858D01*
X141660184Y-106684197D01*
X141665996Y-106660993D01*
X141674054Y-106638471D01*
X141684282Y-106616847D01*
X141696579Y-106596330D01*
X141710829Y-106577117D01*
X141726893Y-106559393D01*
X141744617Y-106543329D01*
X141763830Y-106529079D01*
X141784347Y-106516782D01*
X141805971Y-106506554D01*
X141828493Y-106498496D01*
X141851697Y-106492684D01*
X141875358Y-106489174D01*
X141899250Y-106488000D01*
X142386750Y-106488000D01*
X142410642Y-106489174D01*
G37*
G36*
X144285642Y-106489174D02*
G01*
X144309303Y-106492684D01*
X144332507Y-106498496D01*
X144355029Y-106506554D01*
X144376653Y-106516782D01*
X144397170Y-106529079D01*
X144416383Y-106543329D01*
X144434107Y-106559393D01*
X144450171Y-106577117D01*
X144464421Y-106596330D01*
X144476718Y-106616847D01*
X144486946Y-106638471D01*
X144495004Y-106660993D01*
X144500816Y-106684197D01*
X144504326Y-106707858D01*
X144505500Y-106731750D01*
X144505500Y-107644250D01*
X144504326Y-107668142D01*
X144500816Y-107691803D01*
X144495004Y-107715007D01*
X144486946Y-107737529D01*
X144476718Y-107759153D01*
X144464421Y-107779670D01*
X144450171Y-107798883D01*
X144434107Y-107816607D01*
X144416383Y-107832671D01*
X144397170Y-107846921D01*
X144376653Y-107859218D01*
X144355029Y-107869446D01*
X144332507Y-107877504D01*
X144309303Y-107883316D01*
X144285642Y-107886826D01*
X144261750Y-107888000D01*
X143774250Y-107888000D01*
X143750358Y-107886826D01*
X143726697Y-107883316D01*
X143703493Y-107877504D01*
X143680971Y-107869446D01*
X143659347Y-107859218D01*
X143638830Y-107846921D01*
X143619617Y-107832671D01*
X143601893Y-107816607D01*
X143585829Y-107798883D01*
X143571579Y-107779670D01*
X143559282Y-107759153D01*
X143549054Y-107737529D01*
X143540996Y-107715007D01*
X143535184Y-107691803D01*
X143531674Y-107668142D01*
X143530500Y-107644250D01*
X143530500Y-106731750D01*
X143531674Y-106707858D01*
X143535184Y-106684197D01*
X143540996Y-106660993D01*
X143549054Y-106638471D01*
X143559282Y-106616847D01*
X143571579Y-106596330D01*
X143585829Y-106577117D01*
X143601893Y-106559393D01*
X143619617Y-106543329D01*
X143638830Y-106529079D01*
X143659347Y-106516782D01*
X143680971Y-106506554D01*
X143703493Y-106498496D01*
X143726697Y-106492684D01*
X143750358Y-106489174D01*
X143774250Y-106488000D01*
X144261750Y-106488000D01*
X144285642Y-106489174D01*
G37*
G36*
X142410642Y-104457174D02*
G01*
X142434303Y-104460684D01*
X142457507Y-104466496D01*
X142480029Y-104474554D01*
X142501653Y-104484782D01*
X142522170Y-104497079D01*
X142541383Y-104511329D01*
X142559107Y-104527393D01*
X142575171Y-104545117D01*
X142589421Y-104564330D01*
X142601718Y-104584847D01*
X142611946Y-104606471D01*
X142620004Y-104628993D01*
X142625816Y-104652197D01*
X142629326Y-104675858D01*
X142630500Y-104699750D01*
X142630500Y-105612250D01*
X142629326Y-105636142D01*
X142625816Y-105659803D01*
X142620004Y-105683007D01*
X142611946Y-105705529D01*
X142601718Y-105727153D01*
X142589421Y-105747670D01*
X142575171Y-105766883D01*
X142559107Y-105784607D01*
X142541383Y-105800671D01*
X142522170Y-105814921D01*
X142501653Y-105827218D01*
X142480029Y-105837446D01*
X142457507Y-105845504D01*
X142434303Y-105851316D01*
X142410642Y-105854826D01*
X142386750Y-105856000D01*
X141899250Y-105856000D01*
X141875358Y-105854826D01*
X141851697Y-105851316D01*
X141828493Y-105845504D01*
X141805971Y-105837446D01*
X141784347Y-105827218D01*
X141763830Y-105814921D01*
X141744617Y-105800671D01*
X141726893Y-105784607D01*
X141710829Y-105766883D01*
X141696579Y-105747670D01*
X141684282Y-105727153D01*
X141674054Y-105705529D01*
X141665996Y-105683007D01*
X141660184Y-105659803D01*
X141656674Y-105636142D01*
X141655500Y-105612250D01*
X141655500Y-104699750D01*
X141656674Y-104675858D01*
X141660184Y-104652197D01*
X141665996Y-104628993D01*
X141674054Y-104606471D01*
X141684282Y-104584847D01*
X141696579Y-104564330D01*
X141710829Y-104545117D01*
X141726893Y-104527393D01*
X141744617Y-104511329D01*
X141763830Y-104497079D01*
X141784347Y-104484782D01*
X141805971Y-104474554D01*
X141828493Y-104466496D01*
X141851697Y-104460684D01*
X141875358Y-104457174D01*
X141899250Y-104456000D01*
X142386750Y-104456000D01*
X142410642Y-104457174D01*
G37*
G36*
X144285642Y-104457174D02*
G01*
X144309303Y-104460684D01*
X144332507Y-104466496D01*
X144355029Y-104474554D01*
X144376653Y-104484782D01*
X144397170Y-104497079D01*
X144416383Y-104511329D01*
X144434107Y-104527393D01*
X144450171Y-104545117D01*
X144464421Y-104564330D01*
X144476718Y-104584847D01*
X144486946Y-104606471D01*
X144495004Y-104628993D01*
X144500816Y-104652197D01*
X144504326Y-104675858D01*
X144505500Y-104699750D01*
X144505500Y-105612250D01*
X144504326Y-105636142D01*
X144500816Y-105659803D01*
X144495004Y-105683007D01*
X144486946Y-105705529D01*
X144476718Y-105727153D01*
X144464421Y-105747670D01*
X144450171Y-105766883D01*
X144434107Y-105784607D01*
X144416383Y-105800671D01*
X144397170Y-105814921D01*
X144376653Y-105827218D01*
X144355029Y-105837446D01*
X144332507Y-105845504D01*
X144309303Y-105851316D01*
X144285642Y-105854826D01*
X144261750Y-105856000D01*
X143774250Y-105856000D01*
X143750358Y-105854826D01*
X143726697Y-105851316D01*
X143703493Y-105845504D01*
X143680971Y-105837446D01*
X143659347Y-105827218D01*
X143638830Y-105814921D01*
X143619617Y-105800671D01*
X143601893Y-105784607D01*
X143585829Y-105766883D01*
X143571579Y-105747670D01*
X143559282Y-105727153D01*
X143549054Y-105705529D01*
X143540996Y-105683007D01*
X143535184Y-105659803D01*
X143531674Y-105636142D01*
X143530500Y-105612250D01*
X143530500Y-104699750D01*
X143531674Y-104675858D01*
X143535184Y-104652197D01*
X143540996Y-104628993D01*
X143549054Y-104606471D01*
X143559282Y-104584847D01*
X143571579Y-104564330D01*
X143585829Y-104545117D01*
X143601893Y-104527393D01*
X143619617Y-104511329D01*
X143638830Y-104497079D01*
X143659347Y-104484782D01*
X143680971Y-104474554D01*
X143703493Y-104466496D01*
X143726697Y-104460684D01*
X143750358Y-104457174D01*
X143774250Y-104456000D01*
X144261750Y-104456000D01*
X144285642Y-104457174D01*
G37*
G36*
X116950642Y-98107174D02*
G01*
X116974303Y-98110684D01*
X116997507Y-98116496D01*
X117020029Y-98124554D01*
X117041653Y-98134782D01*
X117062170Y-98147079D01*
X117081383Y-98161329D01*
X117099107Y-98177393D01*
X117115171Y-98195117D01*
X117129421Y-98214330D01*
X117141718Y-98234847D01*
X117151946Y-98256471D01*
X117160004Y-98278993D01*
X117165816Y-98302197D01*
X117169326Y-98325858D01*
X117170500Y-98349750D01*
X117170500Y-99262250D01*
X117169326Y-99286142D01*
X117165816Y-99309803D01*
X117160004Y-99333007D01*
X117151946Y-99355529D01*
X117141718Y-99377153D01*
X117129421Y-99397670D01*
X117115171Y-99416883D01*
X117099107Y-99434607D01*
X117081383Y-99450671D01*
X117062170Y-99464921D01*
X117041653Y-99477218D01*
X117020029Y-99487446D01*
X116997507Y-99495504D01*
X116974303Y-99501316D01*
X116950642Y-99504826D01*
X116926750Y-99506000D01*
X116439250Y-99506000D01*
X116415358Y-99504826D01*
X116391697Y-99501316D01*
X116368493Y-99495504D01*
X116345971Y-99487446D01*
X116324347Y-99477218D01*
X116303830Y-99464921D01*
X116284617Y-99450671D01*
X116266893Y-99434607D01*
X116250829Y-99416883D01*
X116236579Y-99397670D01*
X116224282Y-99377153D01*
X116214054Y-99355529D01*
X116205996Y-99333007D01*
X116200184Y-99309803D01*
X116196674Y-99286142D01*
X116195500Y-99262250D01*
X116195500Y-98349750D01*
X116196674Y-98325858D01*
X116200184Y-98302197D01*
X116205996Y-98278993D01*
X116214054Y-98256471D01*
X116224282Y-98234847D01*
X116236579Y-98214330D01*
X116250829Y-98195117D01*
X116266893Y-98177393D01*
X116284617Y-98161329D01*
X116303830Y-98147079D01*
X116324347Y-98134782D01*
X116345971Y-98124554D01*
X116368493Y-98116496D01*
X116391697Y-98110684D01*
X116415358Y-98107174D01*
X116439250Y-98106000D01*
X116926750Y-98106000D01*
X116950642Y-98107174D01*
G37*
G36*
X115075642Y-98107174D02*
G01*
X115099303Y-98110684D01*
X115122507Y-98116496D01*
X115145029Y-98124554D01*
X115166653Y-98134782D01*
X115187170Y-98147079D01*
X115206383Y-98161329D01*
X115224107Y-98177393D01*
X115240171Y-98195117D01*
X115254421Y-98214330D01*
X115266718Y-98234847D01*
X115276946Y-98256471D01*
X115285004Y-98278993D01*
X115290816Y-98302197D01*
X115294326Y-98325858D01*
X115295500Y-98349750D01*
X115295500Y-99262250D01*
X115294326Y-99286142D01*
X115290816Y-99309803D01*
X115285004Y-99333007D01*
X115276946Y-99355529D01*
X115266718Y-99377153D01*
X115254421Y-99397670D01*
X115240171Y-99416883D01*
X115224107Y-99434607D01*
X115206383Y-99450671D01*
X115187170Y-99464921D01*
X115166653Y-99477218D01*
X115145029Y-99487446D01*
X115122507Y-99495504D01*
X115099303Y-99501316D01*
X115075642Y-99504826D01*
X115051750Y-99506000D01*
X114564250Y-99506000D01*
X114540358Y-99504826D01*
X114516697Y-99501316D01*
X114493493Y-99495504D01*
X114470971Y-99487446D01*
X114449347Y-99477218D01*
X114428830Y-99464921D01*
X114409617Y-99450671D01*
X114391893Y-99434607D01*
X114375829Y-99416883D01*
X114361579Y-99397670D01*
X114349282Y-99377153D01*
X114339054Y-99355529D01*
X114330996Y-99333007D01*
X114325184Y-99309803D01*
X114321674Y-99286142D01*
X114320500Y-99262250D01*
X114320500Y-98349750D01*
X114321674Y-98325858D01*
X114325184Y-98302197D01*
X114330996Y-98278993D01*
X114339054Y-98256471D01*
X114349282Y-98234847D01*
X114361579Y-98214330D01*
X114375829Y-98195117D01*
X114391893Y-98177393D01*
X114409617Y-98161329D01*
X114428830Y-98147079D01*
X114449347Y-98134782D01*
X114470971Y-98124554D01*
X114493493Y-98116496D01*
X114516697Y-98110684D01*
X114540358Y-98107174D01*
X114564250Y-98106000D01*
X115051750Y-98106000D01*
X115075642Y-98107174D01*
G37*
G36*
X115075642Y-95821174D02*
G01*
X115099303Y-95824684D01*
X115122507Y-95830496D01*
X115145029Y-95838554D01*
X115166653Y-95848782D01*
X115187170Y-95861079D01*
X115206383Y-95875329D01*
X115224107Y-95891393D01*
X115240171Y-95909117D01*
X115254421Y-95928330D01*
X115266718Y-95948847D01*
X115276946Y-95970471D01*
X115285004Y-95992993D01*
X115290816Y-96016197D01*
X115294326Y-96039858D01*
X115295500Y-96063750D01*
X115295500Y-96976250D01*
X115294326Y-97000142D01*
X115290816Y-97023803D01*
X115285004Y-97047007D01*
X115276946Y-97069529D01*
X115266718Y-97091153D01*
X115254421Y-97111670D01*
X115240171Y-97130883D01*
X115224107Y-97148607D01*
X115206383Y-97164671D01*
X115187170Y-97178921D01*
X115166653Y-97191218D01*
X115145029Y-97201446D01*
X115122507Y-97209504D01*
X115099303Y-97215316D01*
X115075642Y-97218826D01*
X115051750Y-97220000D01*
X114564250Y-97220000D01*
X114540358Y-97218826D01*
X114516697Y-97215316D01*
X114493493Y-97209504D01*
X114470971Y-97201446D01*
X114449347Y-97191218D01*
X114428830Y-97178921D01*
X114409617Y-97164671D01*
X114391893Y-97148607D01*
X114375829Y-97130883D01*
X114361579Y-97111670D01*
X114349282Y-97091153D01*
X114339054Y-97069529D01*
X114330996Y-97047007D01*
X114325184Y-97023803D01*
X114321674Y-97000142D01*
X114320500Y-96976250D01*
X114320500Y-96063750D01*
X114321674Y-96039858D01*
X114325184Y-96016197D01*
X114330996Y-95992993D01*
X114339054Y-95970471D01*
X114349282Y-95948847D01*
X114361579Y-95928330D01*
X114375829Y-95909117D01*
X114391893Y-95891393D01*
X114409617Y-95875329D01*
X114428830Y-95861079D01*
X114449347Y-95848782D01*
X114470971Y-95838554D01*
X114493493Y-95830496D01*
X114516697Y-95824684D01*
X114540358Y-95821174D01*
X114564250Y-95820000D01*
X115051750Y-95820000D01*
X115075642Y-95821174D01*
G37*
G36*
X116950642Y-95821174D02*
G01*
X116974303Y-95824684D01*
X116997507Y-95830496D01*
X117020029Y-95838554D01*
X117041653Y-95848782D01*
X117062170Y-95861079D01*
X117081383Y-95875329D01*
X117099107Y-95891393D01*
X117115171Y-95909117D01*
X117129421Y-95928330D01*
X117141718Y-95948847D01*
X117151946Y-95970471D01*
X117160004Y-95992993D01*
X117165816Y-96016197D01*
X117169326Y-96039858D01*
X117170500Y-96063750D01*
X117170500Y-96976250D01*
X117169326Y-97000142D01*
X117165816Y-97023803D01*
X117160004Y-97047007D01*
X117151946Y-97069529D01*
X117141718Y-97091153D01*
X117129421Y-97111670D01*
X117115171Y-97130883D01*
X117099107Y-97148607D01*
X117081383Y-97164671D01*
X117062170Y-97178921D01*
X117041653Y-97191218D01*
X117020029Y-97201446D01*
X116997507Y-97209504D01*
X116974303Y-97215316D01*
X116950642Y-97218826D01*
X116926750Y-97220000D01*
X116439250Y-97220000D01*
X116415358Y-97218826D01*
X116391697Y-97215316D01*
X116368493Y-97209504D01*
X116345971Y-97201446D01*
X116324347Y-97191218D01*
X116303830Y-97178921D01*
X116284617Y-97164671D01*
X116266893Y-97148607D01*
X116250829Y-97130883D01*
X116236579Y-97111670D01*
X116224282Y-97091153D01*
X116214054Y-97069529D01*
X116205996Y-97047007D01*
X116200184Y-97023803D01*
X116196674Y-97000142D01*
X116195500Y-96976250D01*
X116195500Y-96063750D01*
X116196674Y-96039858D01*
X116200184Y-96016197D01*
X116205996Y-95992993D01*
X116214054Y-95970471D01*
X116224282Y-95948847D01*
X116236579Y-95928330D01*
X116250829Y-95909117D01*
X116266893Y-95891393D01*
X116284617Y-95875329D01*
X116303830Y-95861079D01*
X116324347Y-95848782D01*
X116345971Y-95838554D01*
X116368493Y-95830496D01*
X116391697Y-95824684D01*
X116415358Y-95821174D01*
X116439250Y-95820000D01*
X116926750Y-95820000D01*
X116950642Y-95821174D01*
G37*
G36*
X127077142Y-106425674D02*
G01*
X127100803Y-106429184D01*
X127124007Y-106434996D01*
X127146529Y-106443054D01*
X127168153Y-106453282D01*
X127188670Y-106465579D01*
X127207883Y-106479829D01*
X127225607Y-106495893D01*
X127241671Y-106513617D01*
X127255921Y-106532830D01*
X127268218Y-106553347D01*
X127278446Y-106574971D01*
X127286504Y-106597493D01*
X127292316Y-106620697D01*
X127295826Y-106644358D01*
X127297000Y-106668250D01*
X127297000Y-107580750D01*
X127295826Y-107604642D01*
X127292316Y-107628303D01*
X127286504Y-107651507D01*
X127278446Y-107674029D01*
X127268218Y-107695653D01*
X127255921Y-107716170D01*
X127241671Y-107735383D01*
X127225607Y-107753107D01*
X127207883Y-107769171D01*
X127188670Y-107783421D01*
X127168153Y-107795718D01*
X127146529Y-107805946D01*
X127124007Y-107814004D01*
X127100803Y-107819816D01*
X127077142Y-107823326D01*
X127053250Y-107824500D01*
X126565750Y-107824500D01*
X126541858Y-107823326D01*
X126518197Y-107819816D01*
X126494993Y-107814004D01*
X126472471Y-107805946D01*
X126450847Y-107795718D01*
X126430330Y-107783421D01*
X126411117Y-107769171D01*
X126393393Y-107753107D01*
X126377329Y-107735383D01*
X126363079Y-107716170D01*
X126350782Y-107695653D01*
X126340554Y-107674029D01*
X126332496Y-107651507D01*
X126326684Y-107628303D01*
X126323174Y-107604642D01*
X126322000Y-107580750D01*
X126322000Y-106668250D01*
X126323174Y-106644358D01*
X126326684Y-106620697D01*
X126332496Y-106597493D01*
X126340554Y-106574971D01*
X126350782Y-106553347D01*
X126363079Y-106532830D01*
X126377329Y-106513617D01*
X126393393Y-106495893D01*
X126411117Y-106479829D01*
X126430330Y-106465579D01*
X126450847Y-106453282D01*
X126472471Y-106443054D01*
X126494993Y-106434996D01*
X126518197Y-106429184D01*
X126541858Y-106425674D01*
X126565750Y-106424500D01*
X127053250Y-106424500D01*
X127077142Y-106425674D01*
G37*
G36*
X125202142Y-106425674D02*
G01*
X125225803Y-106429184D01*
X125249007Y-106434996D01*
X125271529Y-106443054D01*
X125293153Y-106453282D01*
X125313670Y-106465579D01*
X125332883Y-106479829D01*
X125350607Y-106495893D01*
X125366671Y-106513617D01*
X125380921Y-106532830D01*
X125393218Y-106553347D01*
X125403446Y-106574971D01*
X125411504Y-106597493D01*
X125417316Y-106620697D01*
X125420826Y-106644358D01*
X125422000Y-106668250D01*
X125422000Y-107580750D01*
X125420826Y-107604642D01*
X125417316Y-107628303D01*
X125411504Y-107651507D01*
X125403446Y-107674029D01*
X125393218Y-107695653D01*
X125380921Y-107716170D01*
X125366671Y-107735383D01*
X125350607Y-107753107D01*
X125332883Y-107769171D01*
X125313670Y-107783421D01*
X125293153Y-107795718D01*
X125271529Y-107805946D01*
X125249007Y-107814004D01*
X125225803Y-107819816D01*
X125202142Y-107823326D01*
X125178250Y-107824500D01*
X124690750Y-107824500D01*
X124666858Y-107823326D01*
X124643197Y-107819816D01*
X124619993Y-107814004D01*
X124597471Y-107805946D01*
X124575847Y-107795718D01*
X124555330Y-107783421D01*
X124536117Y-107769171D01*
X124518393Y-107753107D01*
X124502329Y-107735383D01*
X124488079Y-107716170D01*
X124475782Y-107695653D01*
X124465554Y-107674029D01*
X124457496Y-107651507D01*
X124451684Y-107628303D01*
X124448174Y-107604642D01*
X124447000Y-107580750D01*
X124447000Y-106668250D01*
X124448174Y-106644358D01*
X124451684Y-106620697D01*
X124457496Y-106597493D01*
X124465554Y-106574971D01*
X124475782Y-106553347D01*
X124488079Y-106532830D01*
X124502329Y-106513617D01*
X124518393Y-106495893D01*
X124536117Y-106479829D01*
X124555330Y-106465579D01*
X124575847Y-106453282D01*
X124597471Y-106443054D01*
X124619993Y-106434996D01*
X124643197Y-106429184D01*
X124666858Y-106425674D01*
X124690750Y-106424500D01*
X125178250Y-106424500D01*
X125202142Y-106425674D01*
G37*
G36*
X127047142Y-104012674D02*
G01*
X127070803Y-104016184D01*
X127094007Y-104021996D01*
X127116529Y-104030054D01*
X127138153Y-104040282D01*
X127158670Y-104052579D01*
X127177883Y-104066829D01*
X127195607Y-104082893D01*
X127211671Y-104100617D01*
X127225921Y-104119830D01*
X127238218Y-104140347D01*
X127248446Y-104161971D01*
X127256504Y-104184493D01*
X127262316Y-104207697D01*
X127265826Y-104231358D01*
X127267000Y-104255250D01*
X127267000Y-105167750D01*
X127265826Y-105191642D01*
X127262316Y-105215303D01*
X127256504Y-105238507D01*
X127248446Y-105261029D01*
X127238218Y-105282653D01*
X127225921Y-105303170D01*
X127211671Y-105322383D01*
X127195607Y-105340107D01*
X127177883Y-105356171D01*
X127158670Y-105370421D01*
X127138153Y-105382718D01*
X127116529Y-105392946D01*
X127094007Y-105401004D01*
X127070803Y-105406816D01*
X127047142Y-105410326D01*
X127023250Y-105411500D01*
X126535750Y-105411500D01*
X126511858Y-105410326D01*
X126488197Y-105406816D01*
X126464993Y-105401004D01*
X126442471Y-105392946D01*
X126420847Y-105382718D01*
X126400330Y-105370421D01*
X126381117Y-105356171D01*
X126363393Y-105340107D01*
X126347329Y-105322383D01*
X126333079Y-105303170D01*
X126320782Y-105282653D01*
X126310554Y-105261029D01*
X126302496Y-105238507D01*
X126296684Y-105215303D01*
X126293174Y-105191642D01*
X126292000Y-105167750D01*
X126292000Y-104255250D01*
X126293174Y-104231358D01*
X126296684Y-104207697D01*
X126302496Y-104184493D01*
X126310554Y-104161971D01*
X126320782Y-104140347D01*
X126333079Y-104119830D01*
X126347329Y-104100617D01*
X126363393Y-104082893D01*
X126381117Y-104066829D01*
X126400330Y-104052579D01*
X126420847Y-104040282D01*
X126442471Y-104030054D01*
X126464993Y-104021996D01*
X126488197Y-104016184D01*
X126511858Y-104012674D01*
X126535750Y-104011500D01*
X127023250Y-104011500D01*
X127047142Y-104012674D01*
G37*
G36*
X125172142Y-104012674D02*
G01*
X125195803Y-104016184D01*
X125219007Y-104021996D01*
X125241529Y-104030054D01*
X125263153Y-104040282D01*
X125283670Y-104052579D01*
X125302883Y-104066829D01*
X125320607Y-104082893D01*
X125336671Y-104100617D01*
X125350921Y-104119830D01*
X125363218Y-104140347D01*
X125373446Y-104161971D01*
X125381504Y-104184493D01*
X125387316Y-104207697D01*
X125390826Y-104231358D01*
X125392000Y-104255250D01*
X125392000Y-105167750D01*
X125390826Y-105191642D01*
X125387316Y-105215303D01*
X125381504Y-105238507D01*
X125373446Y-105261029D01*
X125363218Y-105282653D01*
X125350921Y-105303170D01*
X125336671Y-105322383D01*
X125320607Y-105340107D01*
X125302883Y-105356171D01*
X125283670Y-105370421D01*
X125263153Y-105382718D01*
X125241529Y-105392946D01*
X125219007Y-105401004D01*
X125195803Y-105406816D01*
X125172142Y-105410326D01*
X125148250Y-105411500D01*
X124660750Y-105411500D01*
X124636858Y-105410326D01*
X124613197Y-105406816D01*
X124589993Y-105401004D01*
X124567471Y-105392946D01*
X124545847Y-105382718D01*
X124525330Y-105370421D01*
X124506117Y-105356171D01*
X124488393Y-105340107D01*
X124472329Y-105322383D01*
X124458079Y-105303170D01*
X124445782Y-105282653D01*
X124435554Y-105261029D01*
X124427496Y-105238507D01*
X124421684Y-105215303D01*
X124418174Y-105191642D01*
X124417000Y-105167750D01*
X124417000Y-104255250D01*
X124418174Y-104231358D01*
X124421684Y-104207697D01*
X124427496Y-104184493D01*
X124435554Y-104161971D01*
X124445782Y-104140347D01*
X124458079Y-104119830D01*
X124472329Y-104100617D01*
X124488393Y-104082893D01*
X124506117Y-104066829D01*
X124525330Y-104052579D01*
X124545847Y-104040282D01*
X124567471Y-104030054D01*
X124589993Y-104021996D01*
X124613197Y-104016184D01*
X124636858Y-104012674D01*
X124660750Y-104011500D01*
X125148250Y-104011500D01*
X125172142Y-104012674D01*
G37*
G36*
X120693642Y-106425674D02*
G01*
X120717303Y-106429184D01*
X120740507Y-106434996D01*
X120763029Y-106443054D01*
X120784653Y-106453282D01*
X120805170Y-106465579D01*
X120824383Y-106479829D01*
X120842107Y-106495893D01*
X120858171Y-106513617D01*
X120872421Y-106532830D01*
X120884718Y-106553347D01*
X120894946Y-106574971D01*
X120903004Y-106597493D01*
X120908816Y-106620697D01*
X120912326Y-106644358D01*
X120913500Y-106668250D01*
X120913500Y-107580750D01*
X120912326Y-107604642D01*
X120908816Y-107628303D01*
X120903004Y-107651507D01*
X120894946Y-107674029D01*
X120884718Y-107695653D01*
X120872421Y-107716170D01*
X120858171Y-107735383D01*
X120842107Y-107753107D01*
X120824383Y-107769171D01*
X120805170Y-107783421D01*
X120784653Y-107795718D01*
X120763029Y-107805946D01*
X120740507Y-107814004D01*
X120717303Y-107819816D01*
X120693642Y-107823326D01*
X120669750Y-107824500D01*
X120182250Y-107824500D01*
X120158358Y-107823326D01*
X120134697Y-107819816D01*
X120111493Y-107814004D01*
X120088971Y-107805946D01*
X120067347Y-107795718D01*
X120046830Y-107783421D01*
X120027617Y-107769171D01*
X120009893Y-107753107D01*
X119993829Y-107735383D01*
X119979579Y-107716170D01*
X119967282Y-107695653D01*
X119957054Y-107674029D01*
X119948996Y-107651507D01*
X119943184Y-107628303D01*
X119939674Y-107604642D01*
X119938500Y-107580750D01*
X119938500Y-106668250D01*
X119939674Y-106644358D01*
X119943184Y-106620697D01*
X119948996Y-106597493D01*
X119957054Y-106574971D01*
X119967282Y-106553347D01*
X119979579Y-106532830D01*
X119993829Y-106513617D01*
X120009893Y-106495893D01*
X120027617Y-106479829D01*
X120046830Y-106465579D01*
X120067347Y-106453282D01*
X120088971Y-106443054D01*
X120111493Y-106434996D01*
X120134697Y-106429184D01*
X120158358Y-106425674D01*
X120182250Y-106424500D01*
X120669750Y-106424500D01*
X120693642Y-106425674D01*
G37*
G36*
X122568642Y-106425674D02*
G01*
X122592303Y-106429184D01*
X122615507Y-106434996D01*
X122638029Y-106443054D01*
X122659653Y-106453282D01*
X122680170Y-106465579D01*
X122699383Y-106479829D01*
X122717107Y-106495893D01*
X122733171Y-106513617D01*
X122747421Y-106532830D01*
X122759718Y-106553347D01*
X122769946Y-106574971D01*
X122778004Y-106597493D01*
X122783816Y-106620697D01*
X122787326Y-106644358D01*
X122788500Y-106668250D01*
X122788500Y-107580750D01*
X122787326Y-107604642D01*
X122783816Y-107628303D01*
X122778004Y-107651507D01*
X122769946Y-107674029D01*
X122759718Y-107695653D01*
X122747421Y-107716170D01*
X122733171Y-107735383D01*
X122717107Y-107753107D01*
X122699383Y-107769171D01*
X122680170Y-107783421D01*
X122659653Y-107795718D01*
X122638029Y-107805946D01*
X122615507Y-107814004D01*
X122592303Y-107819816D01*
X122568642Y-107823326D01*
X122544750Y-107824500D01*
X122057250Y-107824500D01*
X122033358Y-107823326D01*
X122009697Y-107819816D01*
X121986493Y-107814004D01*
X121963971Y-107805946D01*
X121942347Y-107795718D01*
X121921830Y-107783421D01*
X121902617Y-107769171D01*
X121884893Y-107753107D01*
X121868829Y-107735383D01*
X121854579Y-107716170D01*
X121842282Y-107695653D01*
X121832054Y-107674029D01*
X121823996Y-107651507D01*
X121818184Y-107628303D01*
X121814674Y-107604642D01*
X121813500Y-107580750D01*
X121813500Y-106668250D01*
X121814674Y-106644358D01*
X121818184Y-106620697D01*
X121823996Y-106597493D01*
X121832054Y-106574971D01*
X121842282Y-106553347D01*
X121854579Y-106532830D01*
X121868829Y-106513617D01*
X121884893Y-106495893D01*
X121902617Y-106479829D01*
X121921830Y-106465579D01*
X121942347Y-106453282D01*
X121963971Y-106443054D01*
X121986493Y-106434996D01*
X122009697Y-106429184D01*
X122033358Y-106425674D01*
X122057250Y-106424500D01*
X122544750Y-106424500D01*
X122568642Y-106425674D01*
G37*
G36*
X122538642Y-104012674D02*
G01*
X122562303Y-104016184D01*
X122585507Y-104021996D01*
X122608029Y-104030054D01*
X122629653Y-104040282D01*
X122650170Y-104052579D01*
X122669383Y-104066829D01*
X122687107Y-104082893D01*
X122703171Y-104100617D01*
X122717421Y-104119830D01*
X122729718Y-104140347D01*
X122739946Y-104161971D01*
X122748004Y-104184493D01*
X122753816Y-104207697D01*
X122757326Y-104231358D01*
X122758500Y-104255250D01*
X122758500Y-105167750D01*
X122757326Y-105191642D01*
X122753816Y-105215303D01*
X122748004Y-105238507D01*
X122739946Y-105261029D01*
X122729718Y-105282653D01*
X122717421Y-105303170D01*
X122703171Y-105322383D01*
X122687107Y-105340107D01*
X122669383Y-105356171D01*
X122650170Y-105370421D01*
X122629653Y-105382718D01*
X122608029Y-105392946D01*
X122585507Y-105401004D01*
X122562303Y-105406816D01*
X122538642Y-105410326D01*
X122514750Y-105411500D01*
X122027250Y-105411500D01*
X122003358Y-105410326D01*
X121979697Y-105406816D01*
X121956493Y-105401004D01*
X121933971Y-105392946D01*
X121912347Y-105382718D01*
X121891830Y-105370421D01*
X121872617Y-105356171D01*
X121854893Y-105340107D01*
X121838829Y-105322383D01*
X121824579Y-105303170D01*
X121812282Y-105282653D01*
X121802054Y-105261029D01*
X121793996Y-105238507D01*
X121788184Y-105215303D01*
X121784674Y-105191642D01*
X121783500Y-105167750D01*
X121783500Y-104255250D01*
X121784674Y-104231358D01*
X121788184Y-104207697D01*
X121793996Y-104184493D01*
X121802054Y-104161971D01*
X121812282Y-104140347D01*
X121824579Y-104119830D01*
X121838829Y-104100617D01*
X121854893Y-104082893D01*
X121872617Y-104066829D01*
X121891830Y-104052579D01*
X121912347Y-104040282D01*
X121933971Y-104030054D01*
X121956493Y-104021996D01*
X121979697Y-104016184D01*
X122003358Y-104012674D01*
X122027250Y-104011500D01*
X122514750Y-104011500D01*
X122538642Y-104012674D01*
G37*
G36*
X120663642Y-104012674D02*
G01*
X120687303Y-104016184D01*
X120710507Y-104021996D01*
X120733029Y-104030054D01*
X120754653Y-104040282D01*
X120775170Y-104052579D01*
X120794383Y-104066829D01*
X120812107Y-104082893D01*
X120828171Y-104100617D01*
X120842421Y-104119830D01*
X120854718Y-104140347D01*
X120864946Y-104161971D01*
X120873004Y-104184493D01*
X120878816Y-104207697D01*
X120882326Y-104231358D01*
X120883500Y-104255250D01*
X120883500Y-105167750D01*
X120882326Y-105191642D01*
X120878816Y-105215303D01*
X120873004Y-105238507D01*
X120864946Y-105261029D01*
X120854718Y-105282653D01*
X120842421Y-105303170D01*
X120828171Y-105322383D01*
X120812107Y-105340107D01*
X120794383Y-105356171D01*
X120775170Y-105370421D01*
X120754653Y-105382718D01*
X120733029Y-105392946D01*
X120710507Y-105401004D01*
X120687303Y-105406816D01*
X120663642Y-105410326D01*
X120639750Y-105411500D01*
X120152250Y-105411500D01*
X120128358Y-105410326D01*
X120104697Y-105406816D01*
X120081493Y-105401004D01*
X120058971Y-105392946D01*
X120037347Y-105382718D01*
X120016830Y-105370421D01*
X119997617Y-105356171D01*
X119979893Y-105340107D01*
X119963829Y-105322383D01*
X119949579Y-105303170D01*
X119937282Y-105282653D01*
X119927054Y-105261029D01*
X119918996Y-105238507D01*
X119913184Y-105215303D01*
X119909674Y-105191642D01*
X119908500Y-105167750D01*
X119908500Y-104255250D01*
X119909674Y-104231358D01*
X119913184Y-104207697D01*
X119918996Y-104184493D01*
X119927054Y-104161971D01*
X119937282Y-104140347D01*
X119949579Y-104119830D01*
X119963829Y-104100617D01*
X119979893Y-104082893D01*
X119997617Y-104066829D01*
X120016830Y-104052579D01*
X120037347Y-104040282D01*
X120058971Y-104030054D01*
X120081493Y-104021996D01*
X120104697Y-104016184D01*
X120128358Y-104012674D01*
X120152250Y-104011500D01*
X120639750Y-104011500D01*
X120663642Y-104012674D01*
G37*
G36*
X151142504Y-105806204D02*
G01*
X151166773Y-105809804D01*
X151190571Y-105815765D01*
X151213671Y-105824030D01*
X151235849Y-105834520D01*
X151256893Y-105847133D01*
X151276598Y-105861747D01*
X151294777Y-105878223D01*
X151311253Y-105896402D01*
X151325867Y-105916107D01*
X151338480Y-105937151D01*
X151348970Y-105959329D01*
X151357235Y-105982429D01*
X151363196Y-106006227D01*
X151366796Y-106030496D01*
X151368000Y-106055000D01*
X151368000Y-107305000D01*
X151366796Y-107329504D01*
X151363196Y-107353773D01*
X151357235Y-107377571D01*
X151348970Y-107400671D01*
X151338480Y-107422849D01*
X151325867Y-107443893D01*
X151311253Y-107463598D01*
X151294777Y-107481777D01*
X151276598Y-107498253D01*
X151256893Y-107512867D01*
X151235849Y-107525480D01*
X151213671Y-107535970D01*
X151190571Y-107544235D01*
X151166773Y-107550196D01*
X151142504Y-107553796D01*
X151118000Y-107555000D01*
X150368000Y-107555000D01*
X150343496Y-107553796D01*
X150319227Y-107550196D01*
X150295429Y-107544235D01*
X150272329Y-107535970D01*
X150250151Y-107525480D01*
X150229107Y-107512867D01*
X150209402Y-107498253D01*
X150191223Y-107481777D01*
X150174747Y-107463598D01*
X150160133Y-107443893D01*
X150147520Y-107422849D01*
X150137030Y-107400671D01*
X150128765Y-107377571D01*
X150122804Y-107353773D01*
X150119204Y-107329504D01*
X150118000Y-107305000D01*
X150118000Y-106055000D01*
X150119204Y-106030496D01*
X150122804Y-106006227D01*
X150128765Y-105982429D01*
X150137030Y-105959329D01*
X150147520Y-105937151D01*
X150160133Y-105916107D01*
X150174747Y-105896402D01*
X150191223Y-105878223D01*
X150209402Y-105861747D01*
X150229107Y-105847133D01*
X150250151Y-105834520D01*
X150272329Y-105824030D01*
X150295429Y-105815765D01*
X150319227Y-105809804D01*
X150343496Y-105806204D01*
X150368000Y-105805000D01*
X151118000Y-105805000D01*
X151142504Y-105806204D01*
G37*
G36*
X153942504Y-105806204D02*
G01*
X153966773Y-105809804D01*
X153990571Y-105815765D01*
X154013671Y-105824030D01*
X154035849Y-105834520D01*
X154056893Y-105847133D01*
X154076598Y-105861747D01*
X154094777Y-105878223D01*
X154111253Y-105896402D01*
X154125867Y-105916107D01*
X154138480Y-105937151D01*
X154148970Y-105959329D01*
X154157235Y-105982429D01*
X154163196Y-106006227D01*
X154166796Y-106030496D01*
X154168000Y-106055000D01*
X154168000Y-107305000D01*
X154166796Y-107329504D01*
X154163196Y-107353773D01*
X154157235Y-107377571D01*
X154148970Y-107400671D01*
X154138480Y-107422849D01*
X154125867Y-107443893D01*
X154111253Y-107463598D01*
X154094777Y-107481777D01*
X154076598Y-107498253D01*
X154056893Y-107512867D01*
X154035849Y-107525480D01*
X154013671Y-107535970D01*
X153990571Y-107544235D01*
X153966773Y-107550196D01*
X153942504Y-107553796D01*
X153918000Y-107555000D01*
X153168000Y-107555000D01*
X153143496Y-107553796D01*
X153119227Y-107550196D01*
X153095429Y-107544235D01*
X153072329Y-107535970D01*
X153050151Y-107525480D01*
X153029107Y-107512867D01*
X153009402Y-107498253D01*
X152991223Y-107481777D01*
X152974747Y-107463598D01*
X152960133Y-107443893D01*
X152947520Y-107422849D01*
X152937030Y-107400671D01*
X152928765Y-107377571D01*
X152922804Y-107353773D01*
X152919204Y-107329504D01*
X152918000Y-107305000D01*
X152918000Y-106055000D01*
X152919204Y-106030496D01*
X152922804Y-106006227D01*
X152928765Y-105982429D01*
X152937030Y-105959329D01*
X152947520Y-105937151D01*
X152960133Y-105916107D01*
X152974747Y-105896402D01*
X152991223Y-105878223D01*
X153009402Y-105861747D01*
X153029107Y-105847133D01*
X153050151Y-105834520D01*
X153072329Y-105824030D01*
X153095429Y-105815765D01*
X153119227Y-105809804D01*
X153143496Y-105806204D01*
X153168000Y-105805000D01*
X153918000Y-105805000D01*
X153942504Y-105806204D01*
G37*
G36*
X151275504Y-99964204D02*
G01*
X151299773Y-99967804D01*
X151323571Y-99973765D01*
X151346671Y-99982030D01*
X151368849Y-99992520D01*
X151389893Y-100005133D01*
X151409598Y-100019747D01*
X151427777Y-100036223D01*
X151444253Y-100054402D01*
X151458867Y-100074107D01*
X151471480Y-100095151D01*
X151481970Y-100117329D01*
X151490235Y-100140429D01*
X151496196Y-100164227D01*
X151499796Y-100188496D01*
X151501000Y-100213000D01*
X151501000Y-101463000D01*
X151499796Y-101487504D01*
X151496196Y-101511773D01*
X151490235Y-101535571D01*
X151481970Y-101558671D01*
X151471480Y-101580849D01*
X151458867Y-101601893D01*
X151444253Y-101621598D01*
X151427777Y-101639777D01*
X151409598Y-101656253D01*
X151389893Y-101670867D01*
X151368849Y-101683480D01*
X151346671Y-101693970D01*
X151323571Y-101702235D01*
X151299773Y-101708196D01*
X151275504Y-101711796D01*
X151251000Y-101713000D01*
X150501000Y-101713000D01*
X150476496Y-101711796D01*
X150452227Y-101708196D01*
X150428429Y-101702235D01*
X150405329Y-101693970D01*
X150383151Y-101683480D01*
X150362107Y-101670867D01*
X150342402Y-101656253D01*
X150324223Y-101639777D01*
X150307747Y-101621598D01*
X150293133Y-101601893D01*
X150280520Y-101580849D01*
X150270030Y-101558671D01*
X150261765Y-101535571D01*
X150255804Y-101511773D01*
X150252204Y-101487504D01*
X150251000Y-101463000D01*
X150251000Y-100213000D01*
X150252204Y-100188496D01*
X150255804Y-100164227D01*
X150261765Y-100140429D01*
X150270030Y-100117329D01*
X150280520Y-100095151D01*
X150293133Y-100074107D01*
X150307747Y-100054402D01*
X150324223Y-100036223D01*
X150342402Y-100019747D01*
X150362107Y-100005133D01*
X150383151Y-99992520D01*
X150405329Y-99982030D01*
X150428429Y-99973765D01*
X150452227Y-99967804D01*
X150476496Y-99964204D01*
X150501000Y-99963000D01*
X151251000Y-99963000D01*
X151275504Y-99964204D01*
G37*
G36*
X154075504Y-99964204D02*
G01*
X154099773Y-99967804D01*
X154123571Y-99973765D01*
X154146671Y-99982030D01*
X154168849Y-99992520D01*
X154189893Y-100005133D01*
X154209598Y-100019747D01*
X154227777Y-100036223D01*
X154244253Y-100054402D01*
X154258867Y-100074107D01*
X154271480Y-100095151D01*
X154281970Y-100117329D01*
X154290235Y-100140429D01*
X154296196Y-100164227D01*
X154299796Y-100188496D01*
X154301000Y-100213000D01*
X154301000Y-101463000D01*
X154299796Y-101487504D01*
X154296196Y-101511773D01*
X154290235Y-101535571D01*
X154281970Y-101558671D01*
X154271480Y-101580849D01*
X154258867Y-101601893D01*
X154244253Y-101621598D01*
X154227777Y-101639777D01*
X154209598Y-101656253D01*
X154189893Y-101670867D01*
X154168849Y-101683480D01*
X154146671Y-101693970D01*
X154123571Y-101702235D01*
X154099773Y-101708196D01*
X154075504Y-101711796D01*
X154051000Y-101713000D01*
X153301000Y-101713000D01*
X153276496Y-101711796D01*
X153252227Y-101708196D01*
X153228429Y-101702235D01*
X153205329Y-101693970D01*
X153183151Y-101683480D01*
X153162107Y-101670867D01*
X153142402Y-101656253D01*
X153124223Y-101639777D01*
X153107747Y-101621598D01*
X153093133Y-101601893D01*
X153080520Y-101580849D01*
X153070030Y-101558671D01*
X153061765Y-101535571D01*
X153055804Y-101511773D01*
X153052204Y-101487504D01*
X153051000Y-101463000D01*
X153051000Y-100213000D01*
X153052204Y-100188496D01*
X153055804Y-100164227D01*
X153061765Y-100140429D01*
X153070030Y-100117329D01*
X153080520Y-100095151D01*
X153093133Y-100074107D01*
X153107747Y-100054402D01*
X153124223Y-100036223D01*
X153142402Y-100019747D01*
X153162107Y-100005133D01*
X153183151Y-99992520D01*
X153205329Y-99982030D01*
X153228429Y-99973765D01*
X153252227Y-99967804D01*
X153276496Y-99964204D01*
X153301000Y-99963000D01*
X154051000Y-99963000D01*
X154075504Y-99964204D01*
G37*
D21*
X109125000Y-93472000D03*
X113125000Y-93472000D03*
X109665000Y-104013000D03*
X113665000Y-104013000D03*
D10*
G36*
X150986642Y-78041174D02*
G01*
X151010303Y-78044684D01*
X151033507Y-78050496D01*
X151056029Y-78058554D01*
X151077653Y-78068782D01*
X151098170Y-78081079D01*
X151117383Y-78095329D01*
X151135107Y-78111393D01*
X151151171Y-78129117D01*
X151165421Y-78148330D01*
X151177718Y-78168847D01*
X151187946Y-78190471D01*
X151196004Y-78212993D01*
X151201816Y-78236197D01*
X151205326Y-78259858D01*
X151206500Y-78283750D01*
X151206500Y-79196250D01*
X151205326Y-79220142D01*
X151201816Y-79243803D01*
X151196004Y-79267007D01*
X151187946Y-79289529D01*
X151177718Y-79311153D01*
X151165421Y-79331670D01*
X151151171Y-79350883D01*
X151135107Y-79368607D01*
X151117383Y-79384671D01*
X151098170Y-79398921D01*
X151077653Y-79411218D01*
X151056029Y-79421446D01*
X151033507Y-79429504D01*
X151010303Y-79435316D01*
X150986642Y-79438826D01*
X150962750Y-79440000D01*
X150475250Y-79440000D01*
X150451358Y-79438826D01*
X150427697Y-79435316D01*
X150404493Y-79429504D01*
X150381971Y-79421446D01*
X150360347Y-79411218D01*
X150339830Y-79398921D01*
X150320617Y-79384671D01*
X150302893Y-79368607D01*
X150286829Y-79350883D01*
X150272579Y-79331670D01*
X150260282Y-79311153D01*
X150250054Y-79289529D01*
X150241996Y-79267007D01*
X150236184Y-79243803D01*
X150232674Y-79220142D01*
X150231500Y-79196250D01*
X150231500Y-78283750D01*
X150232674Y-78259858D01*
X150236184Y-78236197D01*
X150241996Y-78212993D01*
X150250054Y-78190471D01*
X150260282Y-78168847D01*
X150272579Y-78148330D01*
X150286829Y-78129117D01*
X150302893Y-78111393D01*
X150320617Y-78095329D01*
X150339830Y-78081079D01*
X150360347Y-78068782D01*
X150381971Y-78058554D01*
X150404493Y-78050496D01*
X150427697Y-78044684D01*
X150451358Y-78041174D01*
X150475250Y-78040000D01*
X150962750Y-78040000D01*
X150986642Y-78041174D01*
G37*
G36*
X149111642Y-78041174D02*
G01*
X149135303Y-78044684D01*
X149158507Y-78050496D01*
X149181029Y-78058554D01*
X149202653Y-78068782D01*
X149223170Y-78081079D01*
X149242383Y-78095329D01*
X149260107Y-78111393D01*
X149276171Y-78129117D01*
X149290421Y-78148330D01*
X149302718Y-78168847D01*
X149312946Y-78190471D01*
X149321004Y-78212993D01*
X149326816Y-78236197D01*
X149330326Y-78259858D01*
X149331500Y-78283750D01*
X149331500Y-79196250D01*
X149330326Y-79220142D01*
X149326816Y-79243803D01*
X149321004Y-79267007D01*
X149312946Y-79289529D01*
X149302718Y-79311153D01*
X149290421Y-79331670D01*
X149276171Y-79350883D01*
X149260107Y-79368607D01*
X149242383Y-79384671D01*
X149223170Y-79398921D01*
X149202653Y-79411218D01*
X149181029Y-79421446D01*
X149158507Y-79429504D01*
X149135303Y-79435316D01*
X149111642Y-79438826D01*
X149087750Y-79440000D01*
X148600250Y-79440000D01*
X148576358Y-79438826D01*
X148552697Y-79435316D01*
X148529493Y-79429504D01*
X148506971Y-79421446D01*
X148485347Y-79411218D01*
X148464830Y-79398921D01*
X148445617Y-79384671D01*
X148427893Y-79368607D01*
X148411829Y-79350883D01*
X148397579Y-79331670D01*
X148385282Y-79311153D01*
X148375054Y-79289529D01*
X148366996Y-79267007D01*
X148361184Y-79243803D01*
X148357674Y-79220142D01*
X148356500Y-79196250D01*
X148356500Y-78283750D01*
X148357674Y-78259858D01*
X148361184Y-78236197D01*
X148366996Y-78212993D01*
X148375054Y-78190471D01*
X148385282Y-78168847D01*
X148397579Y-78148330D01*
X148411829Y-78129117D01*
X148427893Y-78111393D01*
X148445617Y-78095329D01*
X148464830Y-78081079D01*
X148485347Y-78068782D01*
X148506971Y-78058554D01*
X148529493Y-78050496D01*
X148552697Y-78044684D01*
X148576358Y-78041174D01*
X148600250Y-78040000D01*
X149087750Y-78040000D01*
X149111642Y-78041174D01*
G37*
G36*
X150986642Y-74993174D02*
G01*
X151010303Y-74996684D01*
X151033507Y-75002496D01*
X151056029Y-75010554D01*
X151077653Y-75020782D01*
X151098170Y-75033079D01*
X151117383Y-75047329D01*
X151135107Y-75063393D01*
X151151171Y-75081117D01*
X151165421Y-75100330D01*
X151177718Y-75120847D01*
X151187946Y-75142471D01*
X151196004Y-75164993D01*
X151201816Y-75188197D01*
X151205326Y-75211858D01*
X151206500Y-75235750D01*
X151206500Y-76148250D01*
X151205326Y-76172142D01*
X151201816Y-76195803D01*
X151196004Y-76219007D01*
X151187946Y-76241529D01*
X151177718Y-76263153D01*
X151165421Y-76283670D01*
X151151171Y-76302883D01*
X151135107Y-76320607D01*
X151117383Y-76336671D01*
X151098170Y-76350921D01*
X151077653Y-76363218D01*
X151056029Y-76373446D01*
X151033507Y-76381504D01*
X151010303Y-76387316D01*
X150986642Y-76390826D01*
X150962750Y-76392000D01*
X150475250Y-76392000D01*
X150451358Y-76390826D01*
X150427697Y-76387316D01*
X150404493Y-76381504D01*
X150381971Y-76373446D01*
X150360347Y-76363218D01*
X150339830Y-76350921D01*
X150320617Y-76336671D01*
X150302893Y-76320607D01*
X150286829Y-76302883D01*
X150272579Y-76283670D01*
X150260282Y-76263153D01*
X150250054Y-76241529D01*
X150241996Y-76219007D01*
X150236184Y-76195803D01*
X150232674Y-76172142D01*
X150231500Y-76148250D01*
X150231500Y-75235750D01*
X150232674Y-75211858D01*
X150236184Y-75188197D01*
X150241996Y-75164993D01*
X150250054Y-75142471D01*
X150260282Y-75120847D01*
X150272579Y-75100330D01*
X150286829Y-75081117D01*
X150302893Y-75063393D01*
X150320617Y-75047329D01*
X150339830Y-75033079D01*
X150360347Y-75020782D01*
X150381971Y-75010554D01*
X150404493Y-75002496D01*
X150427697Y-74996684D01*
X150451358Y-74993174D01*
X150475250Y-74992000D01*
X150962750Y-74992000D01*
X150986642Y-74993174D01*
G37*
G36*
X149111642Y-74993174D02*
G01*
X149135303Y-74996684D01*
X149158507Y-75002496D01*
X149181029Y-75010554D01*
X149202653Y-75020782D01*
X149223170Y-75033079D01*
X149242383Y-75047329D01*
X149260107Y-75063393D01*
X149276171Y-75081117D01*
X149290421Y-75100330D01*
X149302718Y-75120847D01*
X149312946Y-75142471D01*
X149321004Y-75164993D01*
X149326816Y-75188197D01*
X149330326Y-75211858D01*
X149331500Y-75235750D01*
X149331500Y-76148250D01*
X149330326Y-76172142D01*
X149326816Y-76195803D01*
X149321004Y-76219007D01*
X149312946Y-76241529D01*
X149302718Y-76263153D01*
X149290421Y-76283670D01*
X149276171Y-76302883D01*
X149260107Y-76320607D01*
X149242383Y-76336671D01*
X149223170Y-76350921D01*
X149202653Y-76363218D01*
X149181029Y-76373446D01*
X149158507Y-76381504D01*
X149135303Y-76387316D01*
X149111642Y-76390826D01*
X149087750Y-76392000D01*
X148600250Y-76392000D01*
X148576358Y-76390826D01*
X148552697Y-76387316D01*
X148529493Y-76381504D01*
X148506971Y-76373446D01*
X148485347Y-76363218D01*
X148464830Y-76350921D01*
X148445617Y-76336671D01*
X148427893Y-76320607D01*
X148411829Y-76302883D01*
X148397579Y-76283670D01*
X148385282Y-76263153D01*
X148375054Y-76241529D01*
X148366996Y-76219007D01*
X148361184Y-76195803D01*
X148357674Y-76172142D01*
X148356500Y-76148250D01*
X148356500Y-75235750D01*
X148357674Y-75211858D01*
X148361184Y-75188197D01*
X148366996Y-75164993D01*
X148375054Y-75142471D01*
X148385282Y-75120847D01*
X148397579Y-75100330D01*
X148411829Y-75081117D01*
X148427893Y-75063393D01*
X148445617Y-75047329D01*
X148464830Y-75033079D01*
X148485347Y-75020782D01*
X148506971Y-75010554D01*
X148529493Y-75002496D01*
X148552697Y-74996684D01*
X148576358Y-74993174D01*
X148600250Y-74992000D01*
X149087750Y-74992000D01*
X149111642Y-74993174D01*
G37*
G36*
X130528142Y-83333674D02*
G01*
X130551803Y-83337184D01*
X130575007Y-83342996D01*
X130597529Y-83351054D01*
X130619153Y-83361282D01*
X130639670Y-83373579D01*
X130658883Y-83387829D01*
X130676607Y-83403893D01*
X130692671Y-83421617D01*
X130706921Y-83440830D01*
X130719218Y-83461347D01*
X130729446Y-83482971D01*
X130737504Y-83505493D01*
X130743316Y-83528697D01*
X130746826Y-83552358D01*
X130748000Y-83576250D01*
X130748000Y-84063750D01*
X130746826Y-84087642D01*
X130743316Y-84111303D01*
X130737504Y-84134507D01*
X130729446Y-84157029D01*
X130719218Y-84178653D01*
X130706921Y-84199170D01*
X130692671Y-84218383D01*
X130676607Y-84236107D01*
X130658883Y-84252171D01*
X130639670Y-84266421D01*
X130619153Y-84278718D01*
X130597529Y-84288946D01*
X130575007Y-84297004D01*
X130551803Y-84302816D01*
X130528142Y-84306326D01*
X130504250Y-84307500D01*
X129591750Y-84307500D01*
X129567858Y-84306326D01*
X129544197Y-84302816D01*
X129520993Y-84297004D01*
X129498471Y-84288946D01*
X129476847Y-84278718D01*
X129456330Y-84266421D01*
X129437117Y-84252171D01*
X129419393Y-84236107D01*
X129403329Y-84218383D01*
X129389079Y-84199170D01*
X129376782Y-84178653D01*
X129366554Y-84157029D01*
X129358496Y-84134507D01*
X129352684Y-84111303D01*
X129349174Y-84087642D01*
X129348000Y-84063750D01*
X129348000Y-83576250D01*
X129349174Y-83552358D01*
X129352684Y-83528697D01*
X129358496Y-83505493D01*
X129366554Y-83482971D01*
X129376782Y-83461347D01*
X129389079Y-83440830D01*
X129403329Y-83421617D01*
X129419393Y-83403893D01*
X129437117Y-83387829D01*
X129456330Y-83373579D01*
X129476847Y-83361282D01*
X129498471Y-83351054D01*
X129520993Y-83342996D01*
X129544197Y-83337184D01*
X129567858Y-83333674D01*
X129591750Y-83332500D01*
X130504250Y-83332500D01*
X130528142Y-83333674D01*
G37*
G36*
X130528142Y-81458674D02*
G01*
X130551803Y-81462184D01*
X130575007Y-81467996D01*
X130597529Y-81476054D01*
X130619153Y-81486282D01*
X130639670Y-81498579D01*
X130658883Y-81512829D01*
X130676607Y-81528893D01*
X130692671Y-81546617D01*
X130706921Y-81565830D01*
X130719218Y-81586347D01*
X130729446Y-81607971D01*
X130737504Y-81630493D01*
X130743316Y-81653697D01*
X130746826Y-81677358D01*
X130748000Y-81701250D01*
X130748000Y-82188750D01*
X130746826Y-82212642D01*
X130743316Y-82236303D01*
X130737504Y-82259507D01*
X130729446Y-82282029D01*
X130719218Y-82303653D01*
X130706921Y-82324170D01*
X130692671Y-82343383D01*
X130676607Y-82361107D01*
X130658883Y-82377171D01*
X130639670Y-82391421D01*
X130619153Y-82403718D01*
X130597529Y-82413946D01*
X130575007Y-82422004D01*
X130551803Y-82427816D01*
X130528142Y-82431326D01*
X130504250Y-82432500D01*
X129591750Y-82432500D01*
X129567858Y-82431326D01*
X129544197Y-82427816D01*
X129520993Y-82422004D01*
X129498471Y-82413946D01*
X129476847Y-82403718D01*
X129456330Y-82391421D01*
X129437117Y-82377171D01*
X129419393Y-82361107D01*
X129403329Y-82343383D01*
X129389079Y-82324170D01*
X129376782Y-82303653D01*
X129366554Y-82282029D01*
X129358496Y-82259507D01*
X129352684Y-82236303D01*
X129349174Y-82212642D01*
X129348000Y-82188750D01*
X129348000Y-81701250D01*
X129349174Y-81677358D01*
X129352684Y-81653697D01*
X129358496Y-81630493D01*
X129366554Y-81607971D01*
X129376782Y-81586347D01*
X129389079Y-81565830D01*
X129403329Y-81546617D01*
X129419393Y-81528893D01*
X129437117Y-81512829D01*
X129456330Y-81498579D01*
X129476847Y-81486282D01*
X129498471Y-81476054D01*
X129520993Y-81467996D01*
X129544197Y-81462184D01*
X129567858Y-81458674D01*
X129591750Y-81457500D01*
X130504250Y-81457500D01*
X130528142Y-81458674D01*
G37*
G36*
X132015142Y-73342174D02*
G01*
X132038803Y-73345684D01*
X132062007Y-73351496D01*
X132084529Y-73359554D01*
X132106153Y-73369782D01*
X132126670Y-73382079D01*
X132145883Y-73396329D01*
X132163607Y-73412393D01*
X132179671Y-73430117D01*
X132193921Y-73449330D01*
X132206218Y-73469847D01*
X132216446Y-73491471D01*
X132224504Y-73513993D01*
X132230316Y-73537197D01*
X132233826Y-73560858D01*
X132235000Y-73584750D01*
X132235000Y-74497250D01*
X132233826Y-74521142D01*
X132230316Y-74544803D01*
X132224504Y-74568007D01*
X132216446Y-74590529D01*
X132206218Y-74612153D01*
X132193921Y-74632670D01*
X132179671Y-74651883D01*
X132163607Y-74669607D01*
X132145883Y-74685671D01*
X132126670Y-74699921D01*
X132106153Y-74712218D01*
X132084529Y-74722446D01*
X132062007Y-74730504D01*
X132038803Y-74736316D01*
X132015142Y-74739826D01*
X131991250Y-74741000D01*
X131503750Y-74741000D01*
X131479858Y-74739826D01*
X131456197Y-74736316D01*
X131432993Y-74730504D01*
X131410471Y-74722446D01*
X131388847Y-74712218D01*
X131368330Y-74699921D01*
X131349117Y-74685671D01*
X131331393Y-74669607D01*
X131315329Y-74651883D01*
X131301079Y-74632670D01*
X131288782Y-74612153D01*
X131278554Y-74590529D01*
X131270496Y-74568007D01*
X131264684Y-74544803D01*
X131261174Y-74521142D01*
X131260000Y-74497250D01*
X131260000Y-73584750D01*
X131261174Y-73560858D01*
X131264684Y-73537197D01*
X131270496Y-73513993D01*
X131278554Y-73491471D01*
X131288782Y-73469847D01*
X131301079Y-73449330D01*
X131315329Y-73430117D01*
X131331393Y-73412393D01*
X131349117Y-73396329D01*
X131368330Y-73382079D01*
X131388847Y-73369782D01*
X131410471Y-73359554D01*
X131432993Y-73351496D01*
X131456197Y-73345684D01*
X131479858Y-73342174D01*
X131503750Y-73341000D01*
X131991250Y-73341000D01*
X132015142Y-73342174D01*
G37*
G36*
X130140142Y-73342174D02*
G01*
X130163803Y-73345684D01*
X130187007Y-73351496D01*
X130209529Y-73359554D01*
X130231153Y-73369782D01*
X130251670Y-73382079D01*
X130270883Y-73396329D01*
X130288607Y-73412393D01*
X130304671Y-73430117D01*
X130318921Y-73449330D01*
X130331218Y-73469847D01*
X130341446Y-73491471D01*
X130349504Y-73513993D01*
X130355316Y-73537197D01*
X130358826Y-73560858D01*
X130360000Y-73584750D01*
X130360000Y-74497250D01*
X130358826Y-74521142D01*
X130355316Y-74544803D01*
X130349504Y-74568007D01*
X130341446Y-74590529D01*
X130331218Y-74612153D01*
X130318921Y-74632670D01*
X130304671Y-74651883D01*
X130288607Y-74669607D01*
X130270883Y-74685671D01*
X130251670Y-74699921D01*
X130231153Y-74712218D01*
X130209529Y-74722446D01*
X130187007Y-74730504D01*
X130163803Y-74736316D01*
X130140142Y-74739826D01*
X130116250Y-74741000D01*
X129628750Y-74741000D01*
X129604858Y-74739826D01*
X129581197Y-74736316D01*
X129557993Y-74730504D01*
X129535471Y-74722446D01*
X129513847Y-74712218D01*
X129493330Y-74699921D01*
X129474117Y-74685671D01*
X129456393Y-74669607D01*
X129440329Y-74651883D01*
X129426079Y-74632670D01*
X129413782Y-74612153D01*
X129403554Y-74590529D01*
X129395496Y-74568007D01*
X129389684Y-74544803D01*
X129386174Y-74521142D01*
X129385000Y-74497250D01*
X129385000Y-73584750D01*
X129386174Y-73560858D01*
X129389684Y-73537197D01*
X129395496Y-73513993D01*
X129403554Y-73491471D01*
X129413782Y-73469847D01*
X129426079Y-73449330D01*
X129440329Y-73430117D01*
X129456393Y-73412393D01*
X129474117Y-73396329D01*
X129493330Y-73382079D01*
X129513847Y-73369782D01*
X129535471Y-73359554D01*
X129557993Y-73351496D01*
X129581197Y-73345684D01*
X129604858Y-73342174D01*
X129628750Y-73341000D01*
X130116250Y-73341000D01*
X130140142Y-73342174D01*
G37*
G36*
X132015142Y-75628174D02*
G01*
X132038803Y-75631684D01*
X132062007Y-75637496D01*
X132084529Y-75645554D01*
X132106153Y-75655782D01*
X132126670Y-75668079D01*
X132145883Y-75682329D01*
X132163607Y-75698393D01*
X132179671Y-75716117D01*
X132193921Y-75735330D01*
X132206218Y-75755847D01*
X132216446Y-75777471D01*
X132224504Y-75799993D01*
X132230316Y-75823197D01*
X132233826Y-75846858D01*
X132235000Y-75870750D01*
X132235000Y-76783250D01*
X132233826Y-76807142D01*
X132230316Y-76830803D01*
X132224504Y-76854007D01*
X132216446Y-76876529D01*
X132206218Y-76898153D01*
X132193921Y-76918670D01*
X132179671Y-76937883D01*
X132163607Y-76955607D01*
X132145883Y-76971671D01*
X132126670Y-76985921D01*
X132106153Y-76998218D01*
X132084529Y-77008446D01*
X132062007Y-77016504D01*
X132038803Y-77022316D01*
X132015142Y-77025826D01*
X131991250Y-77027000D01*
X131503750Y-77027000D01*
X131479858Y-77025826D01*
X131456197Y-77022316D01*
X131432993Y-77016504D01*
X131410471Y-77008446D01*
X131388847Y-76998218D01*
X131368330Y-76985921D01*
X131349117Y-76971671D01*
X131331393Y-76955607D01*
X131315329Y-76937883D01*
X131301079Y-76918670D01*
X131288782Y-76898153D01*
X131278554Y-76876529D01*
X131270496Y-76854007D01*
X131264684Y-76830803D01*
X131261174Y-76807142D01*
X131260000Y-76783250D01*
X131260000Y-75870750D01*
X131261174Y-75846858D01*
X131264684Y-75823197D01*
X131270496Y-75799993D01*
X131278554Y-75777471D01*
X131288782Y-75755847D01*
X131301079Y-75735330D01*
X131315329Y-75716117D01*
X131331393Y-75698393D01*
X131349117Y-75682329D01*
X131368330Y-75668079D01*
X131388847Y-75655782D01*
X131410471Y-75645554D01*
X131432993Y-75637496D01*
X131456197Y-75631684D01*
X131479858Y-75628174D01*
X131503750Y-75627000D01*
X131991250Y-75627000D01*
X132015142Y-75628174D01*
G37*
G36*
X130140142Y-75628174D02*
G01*
X130163803Y-75631684D01*
X130187007Y-75637496D01*
X130209529Y-75645554D01*
X130231153Y-75655782D01*
X130251670Y-75668079D01*
X130270883Y-75682329D01*
X130288607Y-75698393D01*
X130304671Y-75716117D01*
X130318921Y-75735330D01*
X130331218Y-75755847D01*
X130341446Y-75777471D01*
X130349504Y-75799993D01*
X130355316Y-75823197D01*
X130358826Y-75846858D01*
X130360000Y-75870750D01*
X130360000Y-76783250D01*
X130358826Y-76807142D01*
X130355316Y-76830803D01*
X130349504Y-76854007D01*
X130341446Y-76876529D01*
X130331218Y-76898153D01*
X130318921Y-76918670D01*
X130304671Y-76937883D01*
X130288607Y-76955607D01*
X130270883Y-76971671D01*
X130251670Y-76985921D01*
X130231153Y-76998218D01*
X130209529Y-77008446D01*
X130187007Y-77016504D01*
X130163803Y-77022316D01*
X130140142Y-77025826D01*
X130116250Y-77027000D01*
X129628750Y-77027000D01*
X129604858Y-77025826D01*
X129581197Y-77022316D01*
X129557993Y-77016504D01*
X129535471Y-77008446D01*
X129513847Y-76998218D01*
X129493330Y-76985921D01*
X129474117Y-76971671D01*
X129456393Y-76955607D01*
X129440329Y-76937883D01*
X129426079Y-76918670D01*
X129413782Y-76898153D01*
X129403554Y-76876529D01*
X129395496Y-76854007D01*
X129389684Y-76830803D01*
X129386174Y-76807142D01*
X129385000Y-76783250D01*
X129385000Y-75870750D01*
X129386174Y-75846858D01*
X129389684Y-75823197D01*
X129395496Y-75799993D01*
X129403554Y-75777471D01*
X129413782Y-75755847D01*
X129426079Y-75735330D01*
X129440329Y-75716117D01*
X129456393Y-75698393D01*
X129474117Y-75682329D01*
X129493330Y-75668079D01*
X129513847Y-75655782D01*
X129535471Y-75645554D01*
X129557993Y-75637496D01*
X129581197Y-75631684D01*
X129604858Y-75628174D01*
X129628750Y-75627000D01*
X130116250Y-75627000D01*
X130140142Y-75628174D01*
G37*
G36*
X130237142Y-96837174D02*
G01*
X130260803Y-96840684D01*
X130284007Y-96846496D01*
X130306529Y-96854554D01*
X130328153Y-96864782D01*
X130348670Y-96877079D01*
X130367883Y-96891329D01*
X130385607Y-96907393D01*
X130401671Y-96925117D01*
X130415921Y-96944330D01*
X130428218Y-96964847D01*
X130438446Y-96986471D01*
X130446504Y-97008993D01*
X130452316Y-97032197D01*
X130455826Y-97055858D01*
X130457000Y-97079750D01*
X130457000Y-97992250D01*
X130455826Y-98016142D01*
X130452316Y-98039803D01*
X130446504Y-98063007D01*
X130438446Y-98085529D01*
X130428218Y-98107153D01*
X130415921Y-98127670D01*
X130401671Y-98146883D01*
X130385607Y-98164607D01*
X130367883Y-98180671D01*
X130348670Y-98194921D01*
X130328153Y-98207218D01*
X130306529Y-98217446D01*
X130284007Y-98225504D01*
X130260803Y-98231316D01*
X130237142Y-98234826D01*
X130213250Y-98236000D01*
X129725750Y-98236000D01*
X129701858Y-98234826D01*
X129678197Y-98231316D01*
X129654993Y-98225504D01*
X129632471Y-98217446D01*
X129610847Y-98207218D01*
X129590330Y-98194921D01*
X129571117Y-98180671D01*
X129553393Y-98164607D01*
X129537329Y-98146883D01*
X129523079Y-98127670D01*
X129510782Y-98107153D01*
X129500554Y-98085529D01*
X129492496Y-98063007D01*
X129486684Y-98039803D01*
X129483174Y-98016142D01*
X129482000Y-97992250D01*
X129482000Y-97079750D01*
X129483174Y-97055858D01*
X129486684Y-97032197D01*
X129492496Y-97008993D01*
X129500554Y-96986471D01*
X129510782Y-96964847D01*
X129523079Y-96944330D01*
X129537329Y-96925117D01*
X129553393Y-96907393D01*
X129571117Y-96891329D01*
X129590330Y-96877079D01*
X129610847Y-96864782D01*
X129632471Y-96854554D01*
X129654993Y-96846496D01*
X129678197Y-96840684D01*
X129701858Y-96837174D01*
X129725750Y-96836000D01*
X130213250Y-96836000D01*
X130237142Y-96837174D01*
G37*
G36*
X128362142Y-96837174D02*
G01*
X128385803Y-96840684D01*
X128409007Y-96846496D01*
X128431529Y-96854554D01*
X128453153Y-96864782D01*
X128473670Y-96877079D01*
X128492883Y-96891329D01*
X128510607Y-96907393D01*
X128526671Y-96925117D01*
X128540921Y-96944330D01*
X128553218Y-96964847D01*
X128563446Y-96986471D01*
X128571504Y-97008993D01*
X128577316Y-97032197D01*
X128580826Y-97055858D01*
X128582000Y-97079750D01*
X128582000Y-97992250D01*
X128580826Y-98016142D01*
X128577316Y-98039803D01*
X128571504Y-98063007D01*
X128563446Y-98085529D01*
X128553218Y-98107153D01*
X128540921Y-98127670D01*
X128526671Y-98146883D01*
X128510607Y-98164607D01*
X128492883Y-98180671D01*
X128473670Y-98194921D01*
X128453153Y-98207218D01*
X128431529Y-98217446D01*
X128409007Y-98225504D01*
X128385803Y-98231316D01*
X128362142Y-98234826D01*
X128338250Y-98236000D01*
X127850750Y-98236000D01*
X127826858Y-98234826D01*
X127803197Y-98231316D01*
X127779993Y-98225504D01*
X127757471Y-98217446D01*
X127735847Y-98207218D01*
X127715330Y-98194921D01*
X127696117Y-98180671D01*
X127678393Y-98164607D01*
X127662329Y-98146883D01*
X127648079Y-98127670D01*
X127635782Y-98107153D01*
X127625554Y-98085529D01*
X127617496Y-98063007D01*
X127611684Y-98039803D01*
X127608174Y-98016142D01*
X127607000Y-97992250D01*
X127607000Y-97079750D01*
X127608174Y-97055858D01*
X127611684Y-97032197D01*
X127617496Y-97008993D01*
X127625554Y-96986471D01*
X127635782Y-96964847D01*
X127648079Y-96944330D01*
X127662329Y-96925117D01*
X127678393Y-96907393D01*
X127696117Y-96891329D01*
X127715330Y-96877079D01*
X127735847Y-96864782D01*
X127757471Y-96854554D01*
X127779993Y-96846496D01*
X127803197Y-96840684D01*
X127826858Y-96837174D01*
X127850750Y-96836000D01*
X128338250Y-96836000D01*
X128362142Y-96837174D01*
G37*
M02*
