G04 #@! TF.GenerationSoftware,KiCad,Pcbnew,(5.1.5)-2*
G04 #@! TF.CreationDate,2020-04-29T21:28:48+02:00*
G04 #@! TF.ProjectId,UPS-2,5550532d-322e-46b6-9963-61645f706362,rev?*
G04 #@! TF.SameCoordinates,Original*
G04 #@! TF.FileFunction,Legend,Top*
G04 #@! TF.FilePolarity,Positive*
%FSLAX46Y46*%
G04 Gerber Fmt 4.6, Leading zero omitted, Abs format (unit mm)*
G04 Created by KiCad (PCBNEW (5.1.5)-2) date 2020-04-29 21:28:48*
%MOMM*%
%LPD*%
G04 APERTURE LIST*
%ADD10C,0.150000*%
%ADD11C,0.100000*%
%ADD12C,0.120000*%
%ADD13C,0.254000*%
G04 APERTURE END LIST*
D10*
X143198857Y-88947380D02*
X143236952Y-88804523D01*
X143275047Y-88756904D01*
X143351238Y-88709285D01*
X143465523Y-88709285D01*
X143541714Y-88756904D01*
X143579809Y-88804523D01*
X143617904Y-88899761D01*
X143617904Y-89280714D01*
X142817904Y-89280714D01*
X142817904Y-88947380D01*
X142856000Y-88852142D01*
X142894095Y-88804523D01*
X142970285Y-88756904D01*
X143046476Y-88756904D01*
X143122666Y-88804523D01*
X143160761Y-88852142D01*
X143198857Y-88947380D01*
X143198857Y-89280714D01*
X143541714Y-87709285D02*
X143579809Y-87756904D01*
X143617904Y-87899761D01*
X143617904Y-87995000D01*
X143579809Y-88137857D01*
X143503619Y-88233095D01*
X143427428Y-88280714D01*
X143275047Y-88328333D01*
X143160761Y-88328333D01*
X143008380Y-88280714D01*
X142932190Y-88233095D01*
X142856000Y-88137857D01*
X142817904Y-87995000D01*
X142817904Y-87899761D01*
X142856000Y-87756904D01*
X142894095Y-87709285D01*
X143617904Y-87280714D02*
X142817904Y-87280714D01*
X143389333Y-86947380D01*
X142817904Y-86614047D01*
X143617904Y-86614047D01*
X142894095Y-86185476D02*
X142856000Y-86137857D01*
X142817904Y-86042619D01*
X142817904Y-85804523D01*
X142856000Y-85709285D01*
X142894095Y-85661666D01*
X142970285Y-85614047D01*
X143046476Y-85614047D01*
X143160761Y-85661666D01*
X143617904Y-86233095D01*
X143617904Y-85614047D01*
X143617904Y-84661666D02*
X143617904Y-85233095D01*
X143617904Y-84947380D02*
X142817904Y-84947380D01*
X142932190Y-85042619D01*
X143008380Y-85137857D01*
X143046476Y-85233095D01*
X150056857Y-89074380D02*
X150094952Y-88931523D01*
X150133047Y-88883904D01*
X150209238Y-88836285D01*
X150323523Y-88836285D01*
X150399714Y-88883904D01*
X150437809Y-88931523D01*
X150475904Y-89026761D01*
X150475904Y-89407714D01*
X149675904Y-89407714D01*
X149675904Y-89074380D01*
X149714000Y-88979142D01*
X149752095Y-88931523D01*
X149828285Y-88883904D01*
X149904476Y-88883904D01*
X149980666Y-88931523D01*
X150018761Y-88979142D01*
X150056857Y-89074380D01*
X150056857Y-89407714D01*
X150399714Y-87836285D02*
X150437809Y-87883904D01*
X150475904Y-88026761D01*
X150475904Y-88122000D01*
X150437809Y-88264857D01*
X150361619Y-88360095D01*
X150285428Y-88407714D01*
X150133047Y-88455333D01*
X150018761Y-88455333D01*
X149866380Y-88407714D01*
X149790190Y-88360095D01*
X149714000Y-88264857D01*
X149675904Y-88122000D01*
X149675904Y-88026761D01*
X149714000Y-87883904D01*
X149752095Y-87836285D01*
X150475904Y-87407714D02*
X149675904Y-87407714D01*
X150247333Y-87074380D01*
X149675904Y-86741047D01*
X150475904Y-86741047D01*
X149752095Y-86312476D02*
X149714000Y-86264857D01*
X149675904Y-86169619D01*
X149675904Y-85931523D01*
X149714000Y-85836285D01*
X149752095Y-85788666D01*
X149828285Y-85741047D01*
X149904476Y-85741047D01*
X150018761Y-85788666D01*
X150475904Y-86360095D01*
X150475904Y-85741047D01*
X149675904Y-85122000D02*
X149675904Y-85026761D01*
X149714000Y-84931523D01*
X149752095Y-84883904D01*
X149828285Y-84836285D01*
X149980666Y-84788666D01*
X150171142Y-84788666D01*
X150323523Y-84836285D01*
X150399714Y-84883904D01*
X150437809Y-84931523D01*
X150475904Y-85026761D01*
X150475904Y-85122000D01*
X150437809Y-85217238D01*
X150399714Y-85264857D01*
X150323523Y-85312476D01*
X150171142Y-85360095D01*
X149980666Y-85360095D01*
X149828285Y-85312476D01*
X149752095Y-85264857D01*
X149714000Y-85217238D01*
X149675904Y-85122000D01*
X102362000Y-110490000D02*
X102235000Y-110490000D01*
X101092000Y-112268000D02*
X103759000Y-112268000D01*
X101858877Y-112141000D02*
G75*
G03X101858877Y-112141000I-1655877J0D01*
G01*
X101118810Y-112141000D02*
G75*
G03X101118810Y-112141000I-915810J0D01*
G01*
X99822047Y-112212428D02*
X100583952Y-112212428D01*
X100203000Y-112593380D02*
X100203000Y-111831476D01*
X97917095Y-94503857D02*
X99440904Y-94503857D01*
X98679000Y-95265761D02*
X98679000Y-93741952D01*
X145716809Y-106751380D02*
X145716809Y-105751380D01*
X146050142Y-106465666D01*
X146383476Y-105751380D01*
X146383476Y-106751380D01*
X147288238Y-106751380D02*
X147288238Y-106227571D01*
X147240619Y-106132333D01*
X147145380Y-106084714D01*
X146954904Y-106084714D01*
X146859666Y-106132333D01*
X147288238Y-106703761D02*
X147193000Y-106751380D01*
X146954904Y-106751380D01*
X146859666Y-106703761D01*
X146812047Y-106608523D01*
X146812047Y-106513285D01*
X146859666Y-106418047D01*
X146954904Y-106370428D01*
X147193000Y-106370428D01*
X147288238Y-106322809D01*
X147764428Y-106751380D02*
X147764428Y-106084714D01*
X147764428Y-105751380D02*
X147716809Y-105799000D01*
X147764428Y-105846619D01*
X147812047Y-105799000D01*
X147764428Y-105751380D01*
X147764428Y-105846619D01*
X148240619Y-106084714D02*
X148240619Y-106751380D01*
X148240619Y-106179952D02*
X148288238Y-106132333D01*
X148383476Y-106084714D01*
X148526333Y-106084714D01*
X148621571Y-106132333D01*
X148669190Y-106227571D01*
X148669190Y-106751380D01*
X146113619Y-103433571D02*
X146256476Y-103481190D01*
X146304095Y-103528809D01*
X146351714Y-103624047D01*
X146351714Y-103766904D01*
X146304095Y-103862142D01*
X146256476Y-103909761D01*
X146161238Y-103957380D01*
X145780285Y-103957380D01*
X145780285Y-102957380D01*
X146113619Y-102957380D01*
X146208857Y-103005000D01*
X146256476Y-103052619D01*
X146304095Y-103147857D01*
X146304095Y-103243095D01*
X146256476Y-103338333D01*
X146208857Y-103385952D01*
X146113619Y-103433571D01*
X145780285Y-103433571D01*
X147208857Y-103957380D02*
X147208857Y-103433571D01*
X147161238Y-103338333D01*
X147066000Y-103290714D01*
X146875523Y-103290714D01*
X146780285Y-103338333D01*
X147208857Y-103909761D02*
X147113619Y-103957380D01*
X146875523Y-103957380D01*
X146780285Y-103909761D01*
X146732666Y-103814523D01*
X146732666Y-103719285D01*
X146780285Y-103624047D01*
X146875523Y-103576428D01*
X147113619Y-103576428D01*
X147208857Y-103528809D01*
X147542190Y-103290714D02*
X147923142Y-103290714D01*
X147685047Y-102957380D02*
X147685047Y-103814523D01*
X147732666Y-103909761D01*
X147827904Y-103957380D01*
X147923142Y-103957380D01*
X148113619Y-103290714D02*
X148494571Y-103290714D01*
X148256476Y-102957380D02*
X148256476Y-103814523D01*
X148304095Y-103909761D01*
X148399333Y-103957380D01*
X148494571Y-103957380D01*
X143359571Y-101417380D02*
X143359571Y-100417380D01*
X143740523Y-100417380D01*
X143835761Y-100465000D01*
X143883380Y-100512619D01*
X143931000Y-100607857D01*
X143931000Y-100750714D01*
X143883380Y-100845952D01*
X143835761Y-100893571D01*
X143740523Y-100941190D01*
X143359571Y-100941190D01*
X144359571Y-101417380D02*
X144359571Y-100750714D01*
X144359571Y-100417380D02*
X144311952Y-100465000D01*
X144359571Y-100512619D01*
X144407190Y-100465000D01*
X144359571Y-100417380D01*
X144359571Y-100512619D01*
X145550047Y-101131666D02*
X146026238Y-101131666D01*
X145454809Y-101417380D02*
X145788142Y-100417380D01*
X146121476Y-101417380D01*
X146883380Y-101369761D02*
X146788142Y-101417380D01*
X146597666Y-101417380D01*
X146502428Y-101369761D01*
X146454809Y-101322142D01*
X146407190Y-101226904D01*
X146407190Y-100941190D01*
X146454809Y-100845952D01*
X146502428Y-100798333D01*
X146597666Y-100750714D01*
X146788142Y-100750714D01*
X146883380Y-100798333D01*
X147169095Y-100750714D02*
X147550047Y-100750714D01*
X147311952Y-100417380D02*
X147311952Y-101274523D01*
X147359571Y-101369761D01*
X147454809Y-101417380D01*
X147550047Y-101417380D01*
X147883380Y-101417380D02*
X147883380Y-100750714D01*
X147883380Y-100417380D02*
X147835761Y-100465000D01*
X147883380Y-100512619D01*
X147931000Y-100465000D01*
X147883380Y-100417380D01*
X147883380Y-100512619D01*
X148264333Y-100750714D02*
X148502428Y-101417380D01*
X148740523Y-100750714D01*
X149502428Y-101369761D02*
X149407190Y-101417380D01*
X149216714Y-101417380D01*
X149121476Y-101369761D01*
X149073857Y-101274523D01*
X149073857Y-100893571D01*
X149121476Y-100798333D01*
X149216714Y-100750714D01*
X149407190Y-100750714D01*
X149502428Y-100798333D01*
X149550047Y-100893571D01*
X149550047Y-100988809D01*
X149073857Y-101084047D01*
X149967904Y-96043523D02*
X149167904Y-96043523D01*
X149739333Y-95710190D01*
X149167904Y-95376857D01*
X149967904Y-95376857D01*
X149167904Y-94710190D02*
X149167904Y-94519714D01*
X149206000Y-94424476D01*
X149282190Y-94329238D01*
X149434571Y-94281619D01*
X149701238Y-94281619D01*
X149853619Y-94329238D01*
X149929809Y-94424476D01*
X149967904Y-94519714D01*
X149967904Y-94710190D01*
X149929809Y-94805428D01*
X149853619Y-94900666D01*
X149701238Y-94948285D01*
X149434571Y-94948285D01*
X149282190Y-94900666D01*
X149206000Y-94805428D01*
X149167904Y-94710190D01*
X149967904Y-93853047D02*
X149167904Y-93853047D01*
X149167904Y-93614952D01*
X149206000Y-93472095D01*
X149282190Y-93376857D01*
X149358380Y-93329238D01*
X149510761Y-93281619D01*
X149625047Y-93281619D01*
X149777428Y-93329238D01*
X149853619Y-93376857D01*
X149929809Y-93472095D01*
X149967904Y-93614952D01*
X149967904Y-93853047D01*
X149548857Y-92853047D02*
X149548857Y-92519714D01*
X149967904Y-92376857D02*
X149967904Y-92853047D01*
X149167904Y-92853047D01*
X149167904Y-92376857D01*
X155136809Y-93527238D02*
X155174904Y-93384380D01*
X155174904Y-93146285D01*
X155136809Y-93051047D01*
X155098714Y-93003428D01*
X155022523Y-92955809D01*
X154946333Y-92955809D01*
X154870142Y-93003428D01*
X154832047Y-93051047D01*
X154793952Y-93146285D01*
X154755857Y-93336761D01*
X154717761Y-93432000D01*
X154679666Y-93479619D01*
X154603476Y-93527238D01*
X154527285Y-93527238D01*
X154451095Y-93479619D01*
X154413000Y-93432000D01*
X154374904Y-93336761D01*
X154374904Y-93098666D01*
X154413000Y-92955809D01*
X154793952Y-92336761D02*
X155174904Y-92336761D01*
X154374904Y-92670095D02*
X154793952Y-92336761D01*
X154374904Y-92003428D01*
X155136809Y-91717714D02*
X155174904Y-91574857D01*
X155174904Y-91336761D01*
X155136809Y-91241523D01*
X155098714Y-91193904D01*
X155022523Y-91146285D01*
X154946333Y-91146285D01*
X154870142Y-91193904D01*
X154832047Y-91241523D01*
X154793952Y-91336761D01*
X154755857Y-91527238D01*
X154717761Y-91622476D01*
X154679666Y-91670095D01*
X154603476Y-91717714D01*
X154527285Y-91717714D01*
X154451095Y-91670095D01*
X154413000Y-91622476D01*
X154374904Y-91527238D01*
X154374904Y-91289142D01*
X154413000Y-91146285D01*
X154374904Y-90860571D02*
X154374904Y-90289142D01*
X155174904Y-90574857D02*
X154374904Y-90574857D01*
X154755857Y-89955809D02*
X154755857Y-89622476D01*
X155174904Y-89479619D02*
X155174904Y-89955809D01*
X154374904Y-89955809D01*
X154374904Y-89479619D01*
X155174904Y-89051047D02*
X154374904Y-89051047D01*
X154946333Y-88717714D01*
X154374904Y-88384380D01*
X155174904Y-88384380D01*
D11*
X128738523Y-115006380D02*
X128738523Y-114339714D01*
X128738523Y-114530190D02*
X128786142Y-114434952D01*
X128833761Y-114387333D01*
X128929000Y-114339714D01*
X129024238Y-114339714D01*
X129738523Y-114958761D02*
X129643285Y-115006380D01*
X129452809Y-115006380D01*
X129357571Y-114958761D01*
X129309952Y-114863523D01*
X129309952Y-114482571D01*
X129357571Y-114387333D01*
X129452809Y-114339714D01*
X129643285Y-114339714D01*
X129738523Y-114387333D01*
X129786142Y-114482571D01*
X129786142Y-114577809D01*
X129309952Y-114673047D01*
X130119476Y-114339714D02*
X130357571Y-115006380D01*
X130595666Y-114339714D01*
X131690904Y-114720666D02*
X132167095Y-114720666D01*
X131595666Y-115006380D02*
X131929000Y-114006380D01*
X132262333Y-115006380D01*
D10*
X116753285Y-114482571D02*
X117086619Y-114482571D01*
X117229476Y-115006380D02*
X116753285Y-115006380D01*
X116753285Y-114006380D01*
X117229476Y-114006380D01*
X118229476Y-114911142D02*
X118181857Y-114958761D01*
X118039000Y-115006380D01*
X117943761Y-115006380D01*
X117800904Y-114958761D01*
X117705666Y-114863523D01*
X117658047Y-114768285D01*
X117610428Y-114577809D01*
X117610428Y-114434952D01*
X117658047Y-114244476D01*
X117705666Y-114149238D01*
X117800904Y-114054000D01*
X117943761Y-114006380D01*
X118039000Y-114006380D01*
X118181857Y-114054000D01*
X118229476Y-114101619D01*
X118848523Y-114006380D02*
X119039000Y-114006380D01*
X119134238Y-114054000D01*
X119229476Y-114149238D01*
X119277095Y-114339714D01*
X119277095Y-114673047D01*
X119229476Y-114863523D01*
X119134238Y-114958761D01*
X119039000Y-115006380D01*
X118848523Y-115006380D01*
X118753285Y-114958761D01*
X118658047Y-114863523D01*
X118610428Y-114673047D01*
X118610428Y-114339714D01*
X118658047Y-114149238D01*
X118753285Y-114054000D01*
X118848523Y-114006380D01*
X119705666Y-115006380D02*
X119705666Y-114006380D01*
X120039000Y-114720666D01*
X120372333Y-114006380D01*
X120372333Y-115006380D01*
X121610428Y-114006380D02*
X121610428Y-114815904D01*
X121658047Y-114911142D01*
X121705666Y-114958761D01*
X121800904Y-115006380D01*
X121991380Y-115006380D01*
X122086619Y-114958761D01*
X122134238Y-114911142D01*
X122181857Y-114815904D01*
X122181857Y-114006380D01*
X122658047Y-115006380D02*
X122658047Y-114006380D01*
X123039000Y-114006380D01*
X123134238Y-114054000D01*
X123181857Y-114101619D01*
X123229476Y-114196857D01*
X123229476Y-114339714D01*
X123181857Y-114434952D01*
X123134238Y-114482571D01*
X123039000Y-114530190D01*
X122658047Y-114530190D01*
X123610428Y-114958761D02*
X123753285Y-115006380D01*
X123991380Y-115006380D01*
X124086619Y-114958761D01*
X124134238Y-114911142D01*
X124181857Y-114815904D01*
X124181857Y-114720666D01*
X124134238Y-114625428D01*
X124086619Y-114577809D01*
X123991380Y-114530190D01*
X123800904Y-114482571D01*
X123705666Y-114434952D01*
X123658047Y-114387333D01*
X123610428Y-114292095D01*
X123610428Y-114196857D01*
X123658047Y-114101619D01*
X123705666Y-114054000D01*
X123800904Y-114006380D01*
X124039000Y-114006380D01*
X124181857Y-114054000D01*
X124610428Y-114625428D02*
X125372333Y-114625428D01*
X125800904Y-114101619D02*
X125848523Y-114054000D01*
X125943761Y-114006380D01*
X126181857Y-114006380D01*
X126277095Y-114054000D01*
X126324714Y-114101619D01*
X126372333Y-114196857D01*
X126372333Y-114292095D01*
X126324714Y-114434952D01*
X125753285Y-115006380D01*
X126372333Y-115006380D01*
X96885571Y-81970571D02*
X97028428Y-82018190D01*
X97076047Y-82065809D01*
X97123666Y-82161047D01*
X97123666Y-82303904D01*
X97076047Y-82399142D01*
X97028428Y-82446761D01*
X96933190Y-82494380D01*
X96552238Y-82494380D01*
X96552238Y-81494380D01*
X96885571Y-81494380D01*
X96980809Y-81542000D01*
X97028428Y-81589619D01*
X97076047Y-81684857D01*
X97076047Y-81780095D01*
X97028428Y-81875333D01*
X96980809Y-81922952D01*
X96885571Y-81970571D01*
X96552238Y-81970571D01*
X97980809Y-82494380D02*
X97980809Y-81970571D01*
X97933190Y-81875333D01*
X97837952Y-81827714D01*
X97647476Y-81827714D01*
X97552238Y-81875333D01*
X97980809Y-82446761D02*
X97885571Y-82494380D01*
X97647476Y-82494380D01*
X97552238Y-82446761D01*
X97504619Y-82351523D01*
X97504619Y-82256285D01*
X97552238Y-82161047D01*
X97647476Y-82113428D01*
X97885571Y-82113428D01*
X97980809Y-82065809D01*
X98314142Y-81827714D02*
X98695095Y-81827714D01*
X98457000Y-81494380D02*
X98457000Y-82351523D01*
X98504619Y-82446761D01*
X98599857Y-82494380D01*
X98695095Y-82494380D01*
X98885571Y-81827714D02*
X99266523Y-81827714D01*
X99028428Y-81494380D02*
X99028428Y-82351523D01*
X99076047Y-82446761D01*
X99171285Y-82494380D01*
X99266523Y-82494380D01*
X100361761Y-81827714D02*
X101123666Y-82113428D01*
X100361761Y-82399142D01*
X102028428Y-81494380D02*
X101837952Y-81494380D01*
X101742714Y-81542000D01*
X101695095Y-81589619D01*
X101599857Y-81732476D01*
X101552238Y-81922952D01*
X101552238Y-82303904D01*
X101599857Y-82399142D01*
X101647476Y-82446761D01*
X101742714Y-82494380D01*
X101933190Y-82494380D01*
X102028428Y-82446761D01*
X102076047Y-82399142D01*
X102123666Y-82303904D01*
X102123666Y-82065809D01*
X102076047Y-81970571D01*
X102028428Y-81922952D01*
X101933190Y-81875333D01*
X101742714Y-81875333D01*
X101647476Y-81922952D01*
X101599857Y-81970571D01*
X101552238Y-82065809D01*
X102552238Y-82399142D02*
X102599857Y-82446761D01*
X102552238Y-82494380D01*
X102504619Y-82446761D01*
X102552238Y-82399142D01*
X102552238Y-82494380D01*
X103504619Y-81494380D02*
X103028428Y-81494380D01*
X102980809Y-81970571D01*
X103028428Y-81922952D01*
X103123666Y-81875333D01*
X103361761Y-81875333D01*
X103457000Y-81922952D01*
X103504619Y-81970571D01*
X103552238Y-82065809D01*
X103552238Y-82303904D01*
X103504619Y-82399142D01*
X103457000Y-82446761D01*
X103361761Y-82494380D01*
X103123666Y-82494380D01*
X103028428Y-82446761D01*
X102980809Y-82399142D01*
X103837952Y-81494380D02*
X104171285Y-82494380D01*
X104504619Y-81494380D01*
X95647476Y-97988380D02*
X95647476Y-96988380D01*
X95980809Y-97702666D01*
X96314142Y-96988380D01*
X96314142Y-97988380D01*
X97218904Y-97988380D02*
X97218904Y-97464571D01*
X97171285Y-97369333D01*
X97076047Y-97321714D01*
X96885571Y-97321714D01*
X96790333Y-97369333D01*
X97218904Y-97940761D02*
X97123666Y-97988380D01*
X96885571Y-97988380D01*
X96790333Y-97940761D01*
X96742714Y-97845523D01*
X96742714Y-97750285D01*
X96790333Y-97655047D01*
X96885571Y-97607428D01*
X97123666Y-97607428D01*
X97218904Y-97559809D01*
X97695095Y-97988380D02*
X97695095Y-97321714D01*
X97695095Y-96988380D02*
X97647476Y-97036000D01*
X97695095Y-97083619D01*
X97742714Y-97036000D01*
X97695095Y-96988380D01*
X97695095Y-97083619D01*
X98171285Y-97321714D02*
X98171285Y-97988380D01*
X98171285Y-97416952D02*
X98218904Y-97369333D01*
X98314142Y-97321714D01*
X98457000Y-97321714D01*
X98552238Y-97369333D01*
X98599857Y-97464571D01*
X98599857Y-97988380D01*
X99742714Y-96988380D02*
X100409380Y-96988380D01*
X99980809Y-97988380D01*
X100790333Y-97893142D02*
X100837952Y-97940761D01*
X100790333Y-97988380D01*
X100742714Y-97940761D01*
X100790333Y-97893142D01*
X100790333Y-97988380D01*
X101266523Y-97893142D02*
X101314142Y-97940761D01*
X101266523Y-97988380D01*
X101218904Y-97940761D01*
X101266523Y-97893142D01*
X101266523Y-97988380D01*
X101742714Y-97893142D02*
X101790333Y-97940761D01*
X101742714Y-97988380D01*
X101695095Y-97940761D01*
X101742714Y-97893142D01*
X101742714Y-97988380D01*
X103504619Y-97988380D02*
X102933190Y-97988380D01*
X103218904Y-97988380D02*
X103218904Y-96988380D01*
X103123666Y-97131238D01*
X103028428Y-97226476D01*
X102933190Y-97274095D01*
X104076047Y-97416952D02*
X103980809Y-97369333D01*
X103933190Y-97321714D01*
X103885571Y-97226476D01*
X103885571Y-97178857D01*
X103933190Y-97083619D01*
X103980809Y-97036000D01*
X104076047Y-96988380D01*
X104266523Y-96988380D01*
X104361761Y-97036000D01*
X104409380Y-97083619D01*
X104457000Y-97178857D01*
X104457000Y-97226476D01*
X104409380Y-97321714D01*
X104361761Y-97369333D01*
X104266523Y-97416952D01*
X104076047Y-97416952D01*
X103980809Y-97464571D01*
X103933190Y-97512190D01*
X103885571Y-97607428D01*
X103885571Y-97797904D01*
X103933190Y-97893142D01*
X103980809Y-97940761D01*
X104076047Y-97988380D01*
X104266523Y-97988380D01*
X104361761Y-97940761D01*
X104409380Y-97893142D01*
X104457000Y-97797904D01*
X104457000Y-97607428D01*
X104409380Y-97512190D01*
X104361761Y-97464571D01*
X104266523Y-97416952D01*
X104742714Y-96988380D02*
X105076047Y-97988380D01*
X105409380Y-96988380D01*
D12*
X117522000Y-89832000D02*
X117522000Y-88832000D01*
X118022000Y-89332000D02*
X117022000Y-89332000D01*
X116782000Y-83926437D02*
X115717563Y-82862000D01*
X116782000Y-90317563D02*
X115717563Y-91382000D01*
X116782000Y-90317563D02*
X116782000Y-88332000D01*
X116782000Y-83926437D02*
X116782000Y-85912000D01*
X115717563Y-82862000D02*
X108262000Y-82862000D01*
X115717563Y-91382000D02*
X108262000Y-91382000D01*
X108262000Y-91382000D02*
X108262000Y-88332000D01*
X108262000Y-82862000D02*
X108262000Y-85912000D01*
X121718000Y-70020922D02*
X121718000Y-70538078D01*
X123138000Y-70020922D02*
X123138000Y-70538078D01*
X107065578Y-79681000D02*
X106548422Y-79681000D01*
X107065578Y-81101000D02*
X106548422Y-81101000D01*
D10*
X135061000Y-88244000D02*
X141036000Y-88244000D01*
X136586000Y-95144000D02*
X141036000Y-95144000D01*
D12*
X116332000Y-68560000D02*
X112882000Y-68560000D01*
X116332000Y-68560000D02*
X118282000Y-68560000D01*
X116332000Y-73680000D02*
X114382000Y-73680000D01*
X116332000Y-73680000D02*
X118282000Y-73680000D01*
X125979422Y-73100000D02*
X126496578Y-73100000D01*
X125979422Y-71680000D02*
X126496578Y-71680000D01*
X125930922Y-70687000D02*
X126448078Y-70687000D01*
X125930922Y-69267000D02*
X126448078Y-69267000D01*
D10*
X108244000Y-74490000D02*
X108244000Y-75950000D01*
X105084000Y-74490000D02*
X105084000Y-76650000D01*
X105084000Y-74490000D02*
X106014000Y-74490000D01*
X108244000Y-74490000D02*
X107314000Y-74490000D01*
X101992000Y-73640000D02*
X99542000Y-73640000D01*
X100192000Y-76860000D02*
X101992000Y-76860000D01*
X97155000Y-83185000D02*
X97155000Y-93345000D01*
X104775000Y-83185000D02*
X97155000Y-83185000D01*
X104775000Y-93345000D02*
X104775000Y-83185000D01*
X97155000Y-93345000D02*
X104775000Y-93345000D01*
X98425000Y-93345000D02*
X98425000Y-83185000D01*
D12*
X146982922Y-99770000D02*
X147500078Y-99770000D01*
X146982922Y-98350000D02*
X147500078Y-98350000D01*
X149412000Y-84268000D02*
X149412000Y-85598000D01*
X148082000Y-84268000D02*
X149412000Y-84268000D01*
X149412000Y-86868000D02*
X149412000Y-89468000D01*
X146812000Y-86868000D02*
X149412000Y-86868000D01*
X146812000Y-84268000D02*
X146812000Y-86868000D01*
X149412000Y-89468000D02*
X144212000Y-89468000D01*
X146812000Y-84268000D02*
X144212000Y-84268000D01*
X144212000Y-84268000D02*
X144212000Y-89468000D01*
X151070000Y-84268000D02*
X152400000Y-84268000D01*
X151070000Y-85598000D02*
X151070000Y-84268000D01*
X151070000Y-86868000D02*
X153730000Y-86868000D01*
X153730000Y-86868000D02*
X153730000Y-97088000D01*
X151070000Y-86868000D02*
X151070000Y-97088000D01*
X151070000Y-97088000D02*
X153730000Y-97088000D01*
D10*
X143339078Y-102414000D02*
X142821922Y-102414000D01*
X143339078Y-103834000D02*
X142821922Y-103834000D01*
D12*
X109908078Y-96318000D02*
X109390922Y-96318000D01*
X109908078Y-97738000D02*
X109390922Y-97738000D01*
D13*
X148717000Y-61163200D02*
X148717000Y-66243200D01*
X148717000Y-66243200D02*
X97917000Y-66243200D01*
X97917000Y-66243200D02*
X97917000Y-61163200D01*
X97917000Y-61163200D02*
X148717000Y-61163200D01*
D12*
X125919000Y-91330000D02*
X127319000Y-91330000D01*
X127319000Y-89010000D02*
X125419000Y-89010000D01*
X142664922Y-97484000D02*
X143182078Y-97484000D01*
X142664922Y-96064000D02*
X143182078Y-96064000D01*
X142664922Y-99770000D02*
X143182078Y-99770000D01*
X142664922Y-98350000D02*
X143182078Y-98350000D01*
X125598422Y-111136500D02*
X126115578Y-111136500D01*
X125598422Y-109716500D02*
X126115578Y-109716500D01*
X120947922Y-111136500D02*
X121465078Y-111136500D01*
X120947922Y-109716500D02*
X121465078Y-109716500D01*
X148650000Y-96961000D02*
X147320000Y-96961000D01*
X148650000Y-95631000D02*
X148650000Y-96961000D01*
X148650000Y-94361000D02*
X145990000Y-94361000D01*
X145990000Y-94361000D02*
X145990000Y-91761000D01*
X148650000Y-94361000D02*
X148650000Y-91761000D01*
X148650000Y-91761000D02*
X145990000Y-91761000D01*
X128246000Y-93814000D02*
X125696000Y-93814000D01*
X128246000Y-92114000D02*
X125696000Y-92114000D01*
X128246000Y-93814000D02*
X128246000Y-92114000D01*
X128246000Y-96036500D02*
X125696000Y-96036500D01*
X128246000Y-94336500D02*
X125696000Y-94336500D01*
X128246000Y-96036500D02*
X128246000Y-94336500D01*
X133806000Y-89554578D02*
X133806000Y-89037422D01*
X132386000Y-89554578D02*
X132386000Y-89037422D01*
X130821500Y-89539578D02*
X130821500Y-89022422D01*
X129401500Y-89539578D02*
X129401500Y-89022422D01*
X129852922Y-107834500D02*
X130370078Y-107834500D01*
X129852922Y-106414500D02*
X130370078Y-106414500D01*
X129901422Y-111200000D02*
X130418578Y-111200000D01*
X129901422Y-109780000D02*
X130418578Y-109780000D01*
D10*
X120603000Y-101476002D02*
X120603000Y-101251001D01*
X120603000Y-99225999D02*
X120603000Y-98726000D01*
X122903000Y-101476002D02*
X122903000Y-101251001D01*
X122903000Y-98951001D02*
X122903000Y-98726000D01*
X128773422Y-100786000D02*
X129290578Y-100786000D01*
X128773422Y-99366000D02*
X129290578Y-99366000D01*
X139307000Y-114899000D02*
X145767000Y-114899000D01*
X139307000Y-110369000D02*
X139307000Y-112969000D01*
X139307000Y-108439000D02*
X145767000Y-108439000D01*
X145767000Y-110369000D02*
X145767000Y-112969000D01*
X139307000Y-108469000D02*
X139307000Y-108439000D01*
X139307000Y-114899000D02*
X139307000Y-114869000D01*
X145767000Y-114899000D02*
X145767000Y-114869000D01*
X145767000Y-108439000D02*
X145767000Y-108469000D01*
X154494500Y-102624000D02*
X150609500Y-102624000D01*
X154494500Y-104894000D02*
X154494500Y-102624000D01*
X150609500Y-104894000D02*
X154494500Y-104894000D01*
X125274000Y-82545422D02*
X125274000Y-83062578D01*
X126694000Y-82545422D02*
X126694000Y-83062578D01*
X145958000Y-70816000D02*
G75*
G02X146608000Y-71466000I0J-650000D01*
G01*
X146608000Y-82966000D02*
G75*
G02X145958000Y-83616000I-650000J0D01*
G01*
X134458000Y-83616000D02*
G75*
G02X133808000Y-82966000I0J650000D01*
G01*
X133808000Y-71466000D02*
G75*
G02X134458000Y-70816000I650000J0D01*
G01*
X146608000Y-80216000D02*
X146608000Y-82966000D01*
X133808000Y-80216000D02*
X133808000Y-82966000D01*
X146608000Y-71466000D02*
X146608000Y-74216000D01*
X145958000Y-83616000D02*
X134458000Y-83616000D01*
X133808000Y-71466000D02*
X133808000Y-74216000D01*
X134458000Y-70816000D02*
X145958000Y-70816000D01*
X115803750Y-112985250D02*
X115803750Y-112197750D01*
X116197500Y-112591500D02*
X115410000Y-112591500D01*
X115170000Y-108398437D02*
X114105563Y-107334000D01*
X115170000Y-113089563D02*
X114105563Y-114154000D01*
X115170000Y-113089563D02*
X115170000Y-111804000D01*
X115170000Y-108398437D02*
X115170000Y-109684000D01*
X114105563Y-107334000D02*
X108350000Y-107334000D01*
X114105563Y-114154000D02*
X108350000Y-114154000D01*
X108350000Y-114154000D02*
X108350000Y-111804000D01*
X108350000Y-107334000D02*
X108350000Y-109684000D01*
X96778578Y-75998000D02*
X96261422Y-75998000D01*
X96778578Y-77418000D02*
X96261422Y-77418000D01*
X96778578Y-73458000D02*
X96261422Y-73458000D01*
X96778578Y-74878000D02*
X96261422Y-74878000D01*
X126184000Y-79268000D02*
X128634000Y-79268000D01*
X127984000Y-76048000D02*
X126184000Y-76048000D01*
X121231922Y-78942000D02*
X121749078Y-78942000D01*
X121231922Y-77522000D02*
X121749078Y-77522000D01*
X121749078Y-80570000D02*
X121231922Y-80570000D01*
X121749078Y-81990000D02*
X121231922Y-81990000D01*
X143339078Y-106478000D02*
X142821922Y-106478000D01*
X143339078Y-107898000D02*
X142821922Y-107898000D01*
X143339078Y-104446000D02*
X142821922Y-104446000D01*
X143339078Y-105866000D02*
X142821922Y-105866000D01*
X115486922Y-99516000D02*
X116004078Y-99516000D01*
X115486922Y-98096000D02*
X116004078Y-98096000D01*
X116004078Y-95810000D02*
X115486922Y-95810000D01*
X116004078Y-97230000D02*
X115486922Y-97230000D01*
X125613422Y-107834500D02*
X126130578Y-107834500D01*
X125613422Y-106414500D02*
X126130578Y-106414500D01*
X125583422Y-105421500D02*
X126100578Y-105421500D01*
X125583422Y-104001500D02*
X126100578Y-104001500D01*
X121622078Y-106414500D02*
X121104922Y-106414500D01*
X121622078Y-107834500D02*
X121104922Y-107834500D01*
X121074922Y-105421500D02*
X121592078Y-105421500D01*
X121074922Y-104001500D02*
X121592078Y-104001500D01*
X106450000Y-98665000D02*
X106450000Y-100405000D01*
X104710000Y-98665000D02*
X106450000Y-98665000D01*
X106210000Y-108105000D02*
X104210000Y-108105000D01*
X106210000Y-105305000D02*
X106210000Y-108105000D01*
X106210000Y-98905000D02*
X106210000Y-101705000D01*
X91610000Y-98905000D02*
X106210000Y-98905000D01*
X91610000Y-108105000D02*
X91610000Y-98905000D01*
X100610000Y-108105000D02*
X91610000Y-108105000D01*
X154428000Y-105545000D02*
X150543000Y-105545000D01*
X154428000Y-107815000D02*
X154428000Y-105545000D01*
X150543000Y-107815000D02*
X154428000Y-107815000D01*
X154561000Y-99703000D02*
X150676000Y-99703000D01*
X154561000Y-101973000D02*
X154561000Y-99703000D01*
X150676000Y-101973000D02*
X154561000Y-101973000D01*
X114525000Y-95122000D02*
X109125000Y-95122000D01*
X114525000Y-91822000D02*
X109125000Y-91822000D01*
X114525000Y-95122000D02*
X114525000Y-91822000D01*
X115065000Y-105663000D02*
X109665000Y-105663000D01*
X115065000Y-102363000D02*
X109665000Y-102363000D01*
X115065000Y-105663000D02*
X115065000Y-102363000D01*
X149522922Y-79450000D02*
X150040078Y-79450000D01*
X149522922Y-78030000D02*
X150040078Y-78030000D01*
X149522922Y-76402000D02*
X150040078Y-76402000D01*
X149522922Y-74982000D02*
X150040078Y-74982000D01*
X129338000Y-82623922D02*
X129338000Y-83141078D01*
X130758000Y-82623922D02*
X130758000Y-83141078D01*
X130551422Y-74751000D02*
X131068578Y-74751000D01*
X130551422Y-73331000D02*
X131068578Y-73331000D01*
X130551422Y-77037000D02*
X131068578Y-77037000D01*
X130551422Y-75617000D02*
X131068578Y-75617000D01*
X128773422Y-98246000D02*
X129290578Y-98246000D01*
X128773422Y-96826000D02*
X129290578Y-96826000D01*
X119467333Y-87606142D02*
X119419714Y-87653761D01*
X119276857Y-87701380D01*
X119181619Y-87701380D01*
X119038761Y-87653761D01*
X118943523Y-87558523D01*
X118895904Y-87463285D01*
X118848285Y-87272809D01*
X118848285Y-87129952D01*
X118895904Y-86939476D01*
X118943523Y-86844238D01*
X119038761Y-86749000D01*
X119181619Y-86701380D01*
X119276857Y-86701380D01*
X119419714Y-86749000D01*
X119467333Y-86796619D01*
X119800666Y-86701380D02*
X120467333Y-86701380D01*
X120038761Y-87701380D01*
X121658142Y-73128142D02*
X121610523Y-73175761D01*
X121467666Y-73223380D01*
X121372428Y-73223380D01*
X121229571Y-73175761D01*
X121134333Y-73080523D01*
X121086714Y-72985285D01*
X121039095Y-72794809D01*
X121039095Y-72651952D01*
X121086714Y-72461476D01*
X121134333Y-72366238D01*
X121229571Y-72271000D01*
X121372428Y-72223380D01*
X121467666Y-72223380D01*
X121610523Y-72271000D01*
X121658142Y-72318619D01*
X122610523Y-73223380D02*
X122039095Y-73223380D01*
X122324809Y-73223380D02*
X122324809Y-72223380D01*
X122229571Y-72366238D01*
X122134333Y-72461476D01*
X122039095Y-72509095D01*
X123467666Y-72556714D02*
X123467666Y-73223380D01*
X123229571Y-72175761D02*
X122991476Y-72890047D01*
X123610523Y-72890047D01*
X109720142Y-80716380D02*
X109386809Y-80240190D01*
X109148714Y-80716380D02*
X109148714Y-79716380D01*
X109529666Y-79716380D01*
X109624904Y-79764000D01*
X109672523Y-79811619D01*
X109720142Y-79906857D01*
X109720142Y-80049714D01*
X109672523Y-80144952D01*
X109624904Y-80192571D01*
X109529666Y-80240190D01*
X109148714Y-80240190D01*
X110672523Y-80716380D02*
X110101095Y-80716380D01*
X110386809Y-80716380D02*
X110386809Y-79716380D01*
X110291571Y-79859238D01*
X110196333Y-79954476D01*
X110101095Y-80002095D01*
X111624904Y-80716380D02*
X111053476Y-80716380D01*
X111339190Y-80716380D02*
X111339190Y-79716380D01*
X111243952Y-79859238D01*
X111148714Y-79954476D01*
X111053476Y-80002095D01*
X137922095Y-86447380D02*
X137922095Y-87256904D01*
X137969714Y-87352142D01*
X138017333Y-87399761D01*
X138112571Y-87447380D01*
X138303047Y-87447380D01*
X138398285Y-87399761D01*
X138445904Y-87352142D01*
X138493523Y-87256904D01*
X138493523Y-86447380D01*
X139445904Y-86447380D02*
X138969714Y-86447380D01*
X138922095Y-86923571D01*
X138969714Y-86875952D01*
X139064952Y-86828333D01*
X139303047Y-86828333D01*
X139398285Y-86875952D01*
X139445904Y-86923571D01*
X139493523Y-87018809D01*
X139493523Y-87256904D01*
X139445904Y-87352142D01*
X139398285Y-87399761D01*
X139303047Y-87447380D01*
X139064952Y-87447380D01*
X138969714Y-87399761D01*
X138922095Y-87352142D01*
X115570095Y-74382380D02*
X115570095Y-75191904D01*
X115617714Y-75287142D01*
X115665333Y-75334761D01*
X115760571Y-75382380D01*
X115951047Y-75382380D01*
X116046285Y-75334761D01*
X116093904Y-75287142D01*
X116141523Y-75191904D01*
X116141523Y-74382380D01*
X117046285Y-74715714D02*
X117046285Y-75382380D01*
X116808190Y-74334761D02*
X116570095Y-75049047D01*
X117189142Y-75049047D01*
X128770142Y-72715380D02*
X128436809Y-72239190D01*
X128198714Y-72715380D02*
X128198714Y-71715380D01*
X128579666Y-71715380D01*
X128674904Y-71763000D01*
X128722523Y-71810619D01*
X128770142Y-71905857D01*
X128770142Y-72048714D01*
X128722523Y-72143952D01*
X128674904Y-72191571D01*
X128579666Y-72239190D01*
X128198714Y-72239190D01*
X129722523Y-72715380D02*
X129151095Y-72715380D01*
X129436809Y-72715380D02*
X129436809Y-71715380D01*
X129341571Y-71858238D01*
X129246333Y-71953476D01*
X129151095Y-72001095D01*
X130198714Y-72715380D02*
X130389190Y-72715380D01*
X130484428Y-72667761D01*
X130532047Y-72620142D01*
X130627285Y-72477285D01*
X130674904Y-72286809D01*
X130674904Y-71905857D01*
X130627285Y-71810619D01*
X130579666Y-71763000D01*
X130484428Y-71715380D01*
X130293952Y-71715380D01*
X130198714Y-71763000D01*
X130151095Y-71810619D01*
X130103476Y-71905857D01*
X130103476Y-72143952D01*
X130151095Y-72239190D01*
X130198714Y-72286809D01*
X130293952Y-72334428D01*
X130484428Y-72334428D01*
X130579666Y-72286809D01*
X130627285Y-72239190D01*
X130674904Y-72143952D01*
X128770142Y-70429380D02*
X128436809Y-69953190D01*
X128198714Y-70429380D02*
X128198714Y-69429380D01*
X128579666Y-69429380D01*
X128674904Y-69477000D01*
X128722523Y-69524619D01*
X128770142Y-69619857D01*
X128770142Y-69762714D01*
X128722523Y-69857952D01*
X128674904Y-69905571D01*
X128579666Y-69953190D01*
X128198714Y-69953190D01*
X129151095Y-69524619D02*
X129198714Y-69477000D01*
X129293952Y-69429380D01*
X129532047Y-69429380D01*
X129627285Y-69477000D01*
X129674904Y-69524619D01*
X129722523Y-69619857D01*
X129722523Y-69715095D01*
X129674904Y-69857952D01*
X129103476Y-70429380D01*
X129722523Y-70429380D01*
X130341571Y-69429380D02*
X130436809Y-69429380D01*
X130532047Y-69477000D01*
X130579666Y-69524619D01*
X130627285Y-69619857D01*
X130674904Y-69810333D01*
X130674904Y-70048428D01*
X130627285Y-70238904D01*
X130579666Y-70334142D01*
X130532047Y-70381761D01*
X130436809Y-70429380D01*
X130341571Y-70429380D01*
X130246333Y-70381761D01*
X130198714Y-70334142D01*
X130151095Y-70238904D01*
X130103476Y-70048428D01*
X130103476Y-69810333D01*
X130151095Y-69619857D01*
X130198714Y-69524619D01*
X130246333Y-69477000D01*
X130341571Y-69429380D01*
X106584761Y-73191619D02*
X106489523Y-73144000D01*
X106394285Y-73048761D01*
X106251428Y-72905904D01*
X106156190Y-72858285D01*
X106060952Y-72858285D01*
X106108571Y-73096380D02*
X106013333Y-73048761D01*
X105918095Y-72953523D01*
X105870476Y-72763047D01*
X105870476Y-72429714D01*
X105918095Y-72239238D01*
X106013333Y-72144000D01*
X106108571Y-72096380D01*
X106299047Y-72096380D01*
X106394285Y-72144000D01*
X106489523Y-72239238D01*
X106537142Y-72429714D01*
X106537142Y-72763047D01*
X106489523Y-72953523D01*
X106394285Y-73048761D01*
X106299047Y-73096380D01*
X106108571Y-73096380D01*
X107489523Y-73096380D02*
X106918095Y-73096380D01*
X107203809Y-73096380D02*
X107203809Y-72096380D01*
X107108571Y-72239238D01*
X107013333Y-72334476D01*
X106918095Y-72382095D01*
X100996761Y-73191619D02*
X100901523Y-73144000D01*
X100806285Y-73048761D01*
X100663428Y-72905904D01*
X100568190Y-72858285D01*
X100472952Y-72858285D01*
X100520571Y-73096380D02*
X100425333Y-73048761D01*
X100330095Y-72953523D01*
X100282476Y-72763047D01*
X100282476Y-72429714D01*
X100330095Y-72239238D01*
X100425333Y-72144000D01*
X100520571Y-72096380D01*
X100711047Y-72096380D01*
X100806285Y-72144000D01*
X100901523Y-72239238D01*
X100949142Y-72429714D01*
X100949142Y-72763047D01*
X100901523Y-72953523D01*
X100806285Y-73048761D01*
X100711047Y-73096380D01*
X100520571Y-73096380D01*
X101330095Y-72191619D02*
X101377714Y-72144000D01*
X101472952Y-72096380D01*
X101711047Y-72096380D01*
X101806285Y-72144000D01*
X101853904Y-72191619D01*
X101901523Y-72286857D01*
X101901523Y-72382095D01*
X101853904Y-72524952D01*
X101282476Y-73096380D01*
X101901523Y-73096380D01*
X149725142Y-98909142D02*
X149677523Y-98956761D01*
X149534666Y-99004380D01*
X149439428Y-99004380D01*
X149296571Y-98956761D01*
X149201333Y-98861523D01*
X149153714Y-98766285D01*
X149106095Y-98575809D01*
X149106095Y-98432952D01*
X149153714Y-98242476D01*
X149201333Y-98147238D01*
X149296571Y-98052000D01*
X149439428Y-98004380D01*
X149534666Y-98004380D01*
X149677523Y-98052000D01*
X149725142Y-98099619D01*
X150677523Y-99004380D02*
X150106095Y-99004380D01*
X150391809Y-99004380D02*
X150391809Y-98004380D01*
X150296571Y-98147238D01*
X150201333Y-98242476D01*
X150106095Y-98290095D01*
X151010857Y-98004380D02*
X151629904Y-98004380D01*
X151296571Y-98385333D01*
X151439428Y-98385333D01*
X151534666Y-98432952D01*
X151582285Y-98480571D01*
X151629904Y-98575809D01*
X151629904Y-98813904D01*
X151582285Y-98909142D01*
X151534666Y-98956761D01*
X151439428Y-99004380D01*
X151153714Y-99004380D01*
X151058476Y-98956761D01*
X151010857Y-98909142D01*
X148002666Y-82891380D02*
X148002666Y-83605666D01*
X147955047Y-83748523D01*
X147859809Y-83843761D01*
X147716952Y-83891380D01*
X147621714Y-83891380D01*
X148955047Y-82891380D02*
X148478857Y-82891380D01*
X148431238Y-83367571D01*
X148478857Y-83319952D01*
X148574095Y-83272333D01*
X148812190Y-83272333D01*
X148907428Y-83319952D01*
X148955047Y-83367571D01*
X149002666Y-83462809D01*
X149002666Y-83700904D01*
X148955047Y-83796142D01*
X148907428Y-83843761D01*
X148812190Y-83891380D01*
X148574095Y-83891380D01*
X148478857Y-83843761D01*
X148431238Y-83796142D01*
X151812666Y-82891380D02*
X151812666Y-83605666D01*
X151765047Y-83748523D01*
X151669809Y-83843761D01*
X151526952Y-83891380D01*
X151431714Y-83891380D01*
X152717428Y-82891380D02*
X152526952Y-82891380D01*
X152431714Y-82939000D01*
X152384095Y-82986619D01*
X152288857Y-83129476D01*
X152241238Y-83319952D01*
X152241238Y-83700904D01*
X152288857Y-83796142D01*
X152336476Y-83843761D01*
X152431714Y-83891380D01*
X152622190Y-83891380D01*
X152717428Y-83843761D01*
X152765047Y-83796142D01*
X152812666Y-83700904D01*
X152812666Y-83462809D01*
X152765047Y-83367571D01*
X152717428Y-83319952D01*
X152622190Y-83272333D01*
X152431714Y-83272333D01*
X152336476Y-83319952D01*
X152288857Y-83367571D01*
X152241238Y-83462809D01*
X138676142Y-103576380D02*
X138342809Y-103100190D01*
X138104714Y-103576380D02*
X138104714Y-102576380D01*
X138485666Y-102576380D01*
X138580904Y-102624000D01*
X138628523Y-102671619D01*
X138676142Y-102766857D01*
X138676142Y-102909714D01*
X138628523Y-103004952D01*
X138580904Y-103052571D01*
X138485666Y-103100190D01*
X138104714Y-103100190D01*
X139628523Y-103576380D02*
X139057095Y-103576380D01*
X139342809Y-103576380D02*
X139342809Y-102576380D01*
X139247571Y-102719238D01*
X139152333Y-102814476D01*
X139057095Y-102862095D01*
X140199952Y-103004952D02*
X140104714Y-102957333D01*
X140057095Y-102909714D01*
X140009476Y-102814476D01*
X140009476Y-102766857D01*
X140057095Y-102671619D01*
X140104714Y-102624000D01*
X140199952Y-102576380D01*
X140390428Y-102576380D01*
X140485666Y-102624000D01*
X140533285Y-102671619D01*
X140580904Y-102766857D01*
X140580904Y-102814476D01*
X140533285Y-102909714D01*
X140485666Y-102957333D01*
X140390428Y-103004952D01*
X140199952Y-103004952D01*
X140104714Y-103052571D01*
X140057095Y-103100190D01*
X140009476Y-103195428D01*
X140009476Y-103385904D01*
X140057095Y-103481142D01*
X140104714Y-103528761D01*
X140199952Y-103576380D01*
X140390428Y-103576380D01*
X140485666Y-103528761D01*
X140533285Y-103481142D01*
X140580904Y-103385904D01*
X140580904Y-103195428D01*
X140533285Y-103100190D01*
X140485666Y-103052571D01*
X140390428Y-103004952D01*
X109006642Y-99035142D02*
X108959023Y-99082761D01*
X108816166Y-99130380D01*
X108720928Y-99130380D01*
X108578071Y-99082761D01*
X108482833Y-98987523D01*
X108435214Y-98892285D01*
X108387595Y-98701809D01*
X108387595Y-98558952D01*
X108435214Y-98368476D01*
X108482833Y-98273238D01*
X108578071Y-98178000D01*
X108720928Y-98130380D01*
X108816166Y-98130380D01*
X108959023Y-98178000D01*
X109006642Y-98225619D01*
X109959023Y-99130380D02*
X109387595Y-99130380D01*
X109673309Y-99130380D02*
X109673309Y-98130380D01*
X109578071Y-98273238D01*
X109482833Y-98368476D01*
X109387595Y-98416095D01*
X110578071Y-98130380D02*
X110673309Y-98130380D01*
X110768547Y-98178000D01*
X110816166Y-98225619D01*
X110863785Y-98320857D01*
X110911404Y-98511333D01*
X110911404Y-98749428D01*
X110863785Y-98939904D01*
X110816166Y-99035142D01*
X110768547Y-99082761D01*
X110673309Y-99130380D01*
X110578071Y-99130380D01*
X110482833Y-99082761D01*
X110435214Y-99035142D01*
X110387595Y-98939904D01*
X110339976Y-98749428D01*
X110339976Y-98511333D01*
X110387595Y-98320857D01*
X110435214Y-98225619D01*
X110482833Y-98178000D01*
X110578071Y-98130380D01*
X96694666Y-66965580D02*
X96694666Y-67679866D01*
X96647047Y-67822723D01*
X96551809Y-67917961D01*
X96408952Y-67965580D01*
X96313714Y-67965580D01*
X97075619Y-66965580D02*
X97694666Y-66965580D01*
X97361333Y-67346533D01*
X97504190Y-67346533D01*
X97599428Y-67394152D01*
X97647047Y-67441771D01*
X97694666Y-67537009D01*
X97694666Y-67775104D01*
X97647047Y-67870342D01*
X97599428Y-67917961D01*
X97504190Y-67965580D01*
X97218476Y-67965580D01*
X97123238Y-67917961D01*
X97075619Y-67870342D01*
X125730095Y-87336380D02*
X125730095Y-88145904D01*
X125777714Y-88241142D01*
X125825333Y-88288761D01*
X125920571Y-88336380D01*
X126111047Y-88336380D01*
X126206285Y-88288761D01*
X126253904Y-88241142D01*
X126301523Y-88145904D01*
X126301523Y-87336380D01*
X126682476Y-87336380D02*
X127301523Y-87336380D01*
X126968190Y-87717333D01*
X127111047Y-87717333D01*
X127206285Y-87764952D01*
X127253904Y-87812571D01*
X127301523Y-87907809D01*
X127301523Y-88145904D01*
X127253904Y-88241142D01*
X127206285Y-88288761D01*
X127111047Y-88336380D01*
X126825333Y-88336380D01*
X126730095Y-88288761D01*
X126682476Y-88241142D01*
X138803142Y-97226380D02*
X138469809Y-96750190D01*
X138231714Y-97226380D02*
X138231714Y-96226380D01*
X138612666Y-96226380D01*
X138707904Y-96274000D01*
X138755523Y-96321619D01*
X138803142Y-96416857D01*
X138803142Y-96559714D01*
X138755523Y-96654952D01*
X138707904Y-96702571D01*
X138612666Y-96750190D01*
X138231714Y-96750190D01*
X139755523Y-97226380D02*
X139184095Y-97226380D01*
X139469809Y-97226380D02*
X139469809Y-96226380D01*
X139374571Y-96369238D01*
X139279333Y-96464476D01*
X139184095Y-96512095D01*
X140088857Y-96226380D02*
X140755523Y-96226380D01*
X140326952Y-97226380D01*
X138803142Y-99385380D02*
X138469809Y-98909190D01*
X138231714Y-99385380D02*
X138231714Y-98385380D01*
X138612666Y-98385380D01*
X138707904Y-98433000D01*
X138755523Y-98480619D01*
X138803142Y-98575857D01*
X138803142Y-98718714D01*
X138755523Y-98813952D01*
X138707904Y-98861571D01*
X138612666Y-98909190D01*
X138231714Y-98909190D01*
X139755523Y-99385380D02*
X139184095Y-99385380D01*
X139469809Y-99385380D02*
X139469809Y-98385380D01*
X139374571Y-98528238D01*
X139279333Y-98623476D01*
X139184095Y-98671095D01*
X140660285Y-98385380D02*
X140184095Y-98385380D01*
X140136476Y-98861571D01*
X140184095Y-98813952D01*
X140279333Y-98766333D01*
X140517428Y-98766333D01*
X140612666Y-98813952D01*
X140660285Y-98861571D01*
X140707904Y-98956809D01*
X140707904Y-99194904D01*
X140660285Y-99290142D01*
X140612666Y-99337761D01*
X140517428Y-99385380D01*
X140279333Y-99385380D01*
X140184095Y-99337761D01*
X140136476Y-99290142D01*
X125341142Y-112720380D02*
X125007809Y-112244190D01*
X124769714Y-112720380D02*
X124769714Y-111720380D01*
X125150666Y-111720380D01*
X125245904Y-111768000D01*
X125293523Y-111815619D01*
X125341142Y-111910857D01*
X125341142Y-112053714D01*
X125293523Y-112148952D01*
X125245904Y-112196571D01*
X125150666Y-112244190D01*
X124769714Y-112244190D01*
X126293523Y-112720380D02*
X125722095Y-112720380D01*
X126007809Y-112720380D02*
X126007809Y-111720380D01*
X125912571Y-111863238D01*
X125817333Y-111958476D01*
X125722095Y-112006095D01*
X127150666Y-111720380D02*
X126960190Y-111720380D01*
X126864952Y-111768000D01*
X126817333Y-111815619D01*
X126722095Y-111958476D01*
X126674476Y-112148952D01*
X126674476Y-112529904D01*
X126722095Y-112625142D01*
X126769714Y-112672761D01*
X126864952Y-112720380D01*
X127055428Y-112720380D01*
X127150666Y-112672761D01*
X127198285Y-112625142D01*
X127245904Y-112529904D01*
X127245904Y-112291809D01*
X127198285Y-112196571D01*
X127150666Y-112148952D01*
X127055428Y-112101333D01*
X126864952Y-112101333D01*
X126769714Y-112148952D01*
X126722095Y-112196571D01*
X126674476Y-112291809D01*
X120642142Y-112720380D02*
X120308809Y-112244190D01*
X120070714Y-112720380D02*
X120070714Y-111720380D01*
X120451666Y-111720380D01*
X120546904Y-111768000D01*
X120594523Y-111815619D01*
X120642142Y-111910857D01*
X120642142Y-112053714D01*
X120594523Y-112148952D01*
X120546904Y-112196571D01*
X120451666Y-112244190D01*
X120070714Y-112244190D01*
X121594523Y-112720380D02*
X121023095Y-112720380D01*
X121308809Y-112720380D02*
X121308809Y-111720380D01*
X121213571Y-111863238D01*
X121118333Y-111958476D01*
X121023095Y-112006095D01*
X122451666Y-112053714D02*
X122451666Y-112720380D01*
X122213571Y-111672761D02*
X121975476Y-112387047D01*
X122594523Y-112387047D01*
X144573666Y-93940380D02*
X144573666Y-94654666D01*
X144526047Y-94797523D01*
X144430809Y-94892761D01*
X144287952Y-94940380D01*
X144192714Y-94940380D01*
X145478428Y-94273714D02*
X145478428Y-94940380D01*
X145240333Y-93892761D02*
X145002238Y-94607047D01*
X145621285Y-94607047D01*
X128801904Y-93797380D02*
X128801904Y-92797380D01*
X129040000Y-92797380D01*
X129182857Y-92845000D01*
X129278095Y-92940238D01*
X129325714Y-93035476D01*
X129373333Y-93225952D01*
X129373333Y-93368809D01*
X129325714Y-93559285D01*
X129278095Y-93654523D01*
X129182857Y-93749761D01*
X129040000Y-93797380D01*
X128801904Y-93797380D01*
X130230476Y-93130714D02*
X130230476Y-93797380D01*
X129992380Y-92749761D02*
X129754285Y-93464047D01*
X130373333Y-93464047D01*
X128928904Y-96083380D02*
X128928904Y-95083380D01*
X129167000Y-95083380D01*
X129309857Y-95131000D01*
X129405095Y-95226238D01*
X129452714Y-95321476D01*
X129500333Y-95511952D01*
X129500333Y-95654809D01*
X129452714Y-95845285D01*
X129405095Y-95940523D01*
X129309857Y-96035761D01*
X129167000Y-96083380D01*
X128928904Y-96083380D01*
X129833666Y-95083380D02*
X130452714Y-95083380D01*
X130119380Y-95464333D01*
X130262238Y-95464333D01*
X130357476Y-95511952D01*
X130405095Y-95559571D01*
X130452714Y-95654809D01*
X130452714Y-95892904D01*
X130405095Y-95988142D01*
X130357476Y-96035761D01*
X130262238Y-96083380D01*
X129976523Y-96083380D01*
X129881285Y-96035761D01*
X129833666Y-95988142D01*
X132707142Y-87225142D02*
X132659523Y-87272761D01*
X132516666Y-87320380D01*
X132421428Y-87320380D01*
X132278571Y-87272761D01*
X132183333Y-87177523D01*
X132135714Y-87082285D01*
X132088095Y-86891809D01*
X132088095Y-86748952D01*
X132135714Y-86558476D01*
X132183333Y-86463238D01*
X132278571Y-86368000D01*
X132421428Y-86320380D01*
X132516666Y-86320380D01*
X132659523Y-86368000D01*
X132707142Y-86415619D01*
X133659523Y-87320380D02*
X133088095Y-87320380D01*
X133373809Y-87320380D02*
X133373809Y-86320380D01*
X133278571Y-86463238D01*
X133183333Y-86558476D01*
X133088095Y-86606095D01*
X134564285Y-86320380D02*
X134088095Y-86320380D01*
X134040476Y-86796571D01*
X134088095Y-86748952D01*
X134183333Y-86701333D01*
X134421428Y-86701333D01*
X134516666Y-86748952D01*
X134564285Y-86796571D01*
X134611904Y-86891809D01*
X134611904Y-87129904D01*
X134564285Y-87225142D01*
X134516666Y-87272761D01*
X134421428Y-87320380D01*
X134183333Y-87320380D01*
X134088095Y-87272761D01*
X134040476Y-87225142D01*
X129405142Y-87225142D02*
X129357523Y-87272761D01*
X129214666Y-87320380D01*
X129119428Y-87320380D01*
X128976571Y-87272761D01*
X128881333Y-87177523D01*
X128833714Y-87082285D01*
X128786095Y-86891809D01*
X128786095Y-86748952D01*
X128833714Y-86558476D01*
X128881333Y-86463238D01*
X128976571Y-86368000D01*
X129119428Y-86320380D01*
X129214666Y-86320380D01*
X129357523Y-86368000D01*
X129405142Y-86415619D01*
X130357523Y-87320380D02*
X129786095Y-87320380D01*
X130071809Y-87320380D02*
X130071809Y-86320380D01*
X129976571Y-86463238D01*
X129881333Y-86558476D01*
X129786095Y-86606095D01*
X131309904Y-87320380D02*
X130738476Y-87320380D01*
X131024190Y-87320380D02*
X131024190Y-86320380D01*
X130928952Y-86463238D01*
X130833714Y-86558476D01*
X130738476Y-86606095D01*
X129881333Y-109196142D02*
X129833714Y-109243761D01*
X129690857Y-109291380D01*
X129595619Y-109291380D01*
X129452761Y-109243761D01*
X129357523Y-109148523D01*
X129309904Y-109053285D01*
X129262285Y-108862809D01*
X129262285Y-108719952D01*
X129309904Y-108529476D01*
X129357523Y-108434238D01*
X129452761Y-108339000D01*
X129595619Y-108291380D01*
X129690857Y-108291380D01*
X129833714Y-108339000D01*
X129881333Y-108386619D01*
X130214666Y-108291380D02*
X130833714Y-108291380D01*
X130500380Y-108672333D01*
X130643238Y-108672333D01*
X130738476Y-108719952D01*
X130786095Y-108767571D01*
X130833714Y-108862809D01*
X130833714Y-109100904D01*
X130786095Y-109196142D01*
X130738476Y-109243761D01*
X130643238Y-109291380D01*
X130357523Y-109291380D01*
X130262285Y-109243761D01*
X130214666Y-109196142D01*
X129595642Y-112625142D02*
X129548023Y-112672761D01*
X129405166Y-112720380D01*
X129309928Y-112720380D01*
X129167071Y-112672761D01*
X129071833Y-112577523D01*
X129024214Y-112482285D01*
X128976595Y-112291809D01*
X128976595Y-112148952D01*
X129024214Y-111958476D01*
X129071833Y-111863238D01*
X129167071Y-111768000D01*
X129309928Y-111720380D01*
X129405166Y-111720380D01*
X129548023Y-111768000D01*
X129595642Y-111815619D01*
X130548023Y-112720380D02*
X129976595Y-112720380D01*
X130262309Y-112720380D02*
X130262309Y-111720380D01*
X130167071Y-111863238D01*
X130071833Y-111958476D01*
X129976595Y-112006095D01*
X130928976Y-111815619D02*
X130976595Y-111768000D01*
X131071833Y-111720380D01*
X131309928Y-111720380D01*
X131405166Y-111768000D01*
X131452785Y-111815619D01*
X131500404Y-111910857D01*
X131500404Y-112006095D01*
X131452785Y-112148952D01*
X130881357Y-112720380D01*
X131500404Y-112720380D01*
X121158095Y-97242380D02*
X121158095Y-98051904D01*
X121205714Y-98147142D01*
X121253333Y-98194761D01*
X121348571Y-98242380D01*
X121539047Y-98242380D01*
X121634285Y-98194761D01*
X121681904Y-98147142D01*
X121729523Y-98051904D01*
X121729523Y-97242380D01*
X122158095Y-97337619D02*
X122205714Y-97290000D01*
X122300952Y-97242380D01*
X122539047Y-97242380D01*
X122634285Y-97290000D01*
X122681904Y-97337619D01*
X122729523Y-97432857D01*
X122729523Y-97528095D01*
X122681904Y-97670952D01*
X122110476Y-98242380D01*
X122729523Y-98242380D01*
X131564142Y-100528380D02*
X131230809Y-100052190D01*
X130992714Y-100528380D02*
X130992714Y-99528380D01*
X131373666Y-99528380D01*
X131468904Y-99576000D01*
X131516523Y-99623619D01*
X131564142Y-99718857D01*
X131564142Y-99861714D01*
X131516523Y-99956952D01*
X131468904Y-100004571D01*
X131373666Y-100052190D01*
X130992714Y-100052190D01*
X132516523Y-100528380D02*
X131945095Y-100528380D01*
X132230809Y-100528380D02*
X132230809Y-99528380D01*
X132135571Y-99671238D01*
X132040333Y-99766476D01*
X131945095Y-99814095D01*
X132897476Y-99623619D02*
X132945095Y-99576000D01*
X133040333Y-99528380D01*
X133278428Y-99528380D01*
X133373666Y-99576000D01*
X133421285Y-99623619D01*
X133468904Y-99718857D01*
X133468904Y-99814095D01*
X133421285Y-99956952D01*
X132849857Y-100528380D01*
X133468904Y-100528380D01*
X145986666Y-112164761D02*
X146129523Y-112212380D01*
X146367619Y-112212380D01*
X146462857Y-112164761D01*
X146510476Y-112117142D01*
X146558095Y-112021904D01*
X146558095Y-111926666D01*
X146510476Y-111831428D01*
X146462857Y-111783809D01*
X146367619Y-111736190D01*
X146177142Y-111688571D01*
X146081904Y-111640952D01*
X146034285Y-111593333D01*
X145986666Y-111498095D01*
X145986666Y-111402857D01*
X146034285Y-111307619D01*
X146081904Y-111260000D01*
X146177142Y-111212380D01*
X146415238Y-111212380D01*
X146558095Y-111260000D01*
X146891428Y-111212380D02*
X147129523Y-112212380D01*
X147320000Y-111498095D01*
X147510476Y-112212380D01*
X147748571Y-111212380D01*
X148653333Y-112212380D02*
X148081904Y-112212380D01*
X148367619Y-112212380D02*
X148367619Y-111212380D01*
X148272380Y-111355238D01*
X148177142Y-111450476D01*
X148081904Y-111498095D01*
X123658333Y-83637380D02*
X123325000Y-83161190D01*
X123086904Y-83637380D02*
X123086904Y-82637380D01*
X123467857Y-82637380D01*
X123563095Y-82685000D01*
X123610714Y-82732619D01*
X123658333Y-82827857D01*
X123658333Y-82970714D01*
X123610714Y-83065952D01*
X123563095Y-83113571D01*
X123467857Y-83161190D01*
X123086904Y-83161190D01*
X123991666Y-82637380D02*
X124610714Y-82637380D01*
X124277380Y-83018333D01*
X124420238Y-83018333D01*
X124515476Y-83065952D01*
X124563095Y-83113571D01*
X124610714Y-83208809D01*
X124610714Y-83446904D01*
X124563095Y-83542142D01*
X124515476Y-83589761D01*
X124420238Y-83637380D01*
X124134523Y-83637380D01*
X124039285Y-83589761D01*
X123991666Y-83542142D01*
X138898333Y-70418380D02*
X138422142Y-70418380D01*
X138422142Y-69418380D01*
X139755476Y-70418380D02*
X139184047Y-70418380D01*
X139469761Y-70418380D02*
X139469761Y-69418380D01*
X139374523Y-69561238D01*
X139279285Y-69656476D01*
X139184047Y-69704095D01*
X117562333Y-110847142D02*
X117514714Y-110894761D01*
X117371857Y-110942380D01*
X117276619Y-110942380D01*
X117133761Y-110894761D01*
X117038523Y-110799523D01*
X116990904Y-110704285D01*
X116943285Y-110513809D01*
X116943285Y-110370952D01*
X116990904Y-110180476D01*
X117038523Y-110085238D01*
X117133761Y-109990000D01*
X117276619Y-109942380D01*
X117371857Y-109942380D01*
X117514714Y-109990000D01*
X117562333Y-110037619D01*
X117943285Y-110037619D02*
X117990904Y-109990000D01*
X118086142Y-109942380D01*
X118324238Y-109942380D01*
X118419476Y-109990000D01*
X118467095Y-110037619D01*
X118514714Y-110132857D01*
X118514714Y-110228095D01*
X118467095Y-110370952D01*
X117895666Y-110942380D01*
X118514714Y-110942380D01*
X92797333Y-77160380D02*
X92464000Y-76684190D01*
X92225904Y-77160380D02*
X92225904Y-76160380D01*
X92606857Y-76160380D01*
X92702095Y-76208000D01*
X92749714Y-76255619D01*
X92797333Y-76350857D01*
X92797333Y-76493714D01*
X92749714Y-76588952D01*
X92702095Y-76636571D01*
X92606857Y-76684190D01*
X92225904Y-76684190D01*
X93130666Y-76160380D02*
X93797333Y-76160380D01*
X93368761Y-77160380D01*
X92321142Y-74366380D02*
X91987809Y-73890190D01*
X91749714Y-74366380D02*
X91749714Y-73366380D01*
X92130666Y-73366380D01*
X92225904Y-73414000D01*
X92273523Y-73461619D01*
X92321142Y-73556857D01*
X92321142Y-73699714D01*
X92273523Y-73794952D01*
X92225904Y-73842571D01*
X92130666Y-73890190D01*
X91749714Y-73890190D01*
X93273523Y-74366380D02*
X92702095Y-74366380D01*
X92987809Y-74366380D02*
X92987809Y-73366380D01*
X92892571Y-73509238D01*
X92797333Y-73604476D01*
X92702095Y-73652095D01*
X93892571Y-73366380D02*
X93987809Y-73366380D01*
X94083047Y-73414000D01*
X94130666Y-73461619D01*
X94178285Y-73556857D01*
X94225904Y-73747333D01*
X94225904Y-73985428D01*
X94178285Y-74175904D01*
X94130666Y-74271142D01*
X94083047Y-74318761D01*
X93987809Y-74366380D01*
X93892571Y-74366380D01*
X93797333Y-74318761D01*
X93749714Y-74271142D01*
X93702095Y-74175904D01*
X93654476Y-73985428D01*
X93654476Y-73747333D01*
X93702095Y-73556857D01*
X93749714Y-73461619D01*
X93797333Y-73414000D01*
X93892571Y-73366380D01*
X125984095Y-79716380D02*
X125984095Y-80525904D01*
X126031714Y-80621142D01*
X126079333Y-80668761D01*
X126174571Y-80716380D01*
X126365047Y-80716380D01*
X126460285Y-80668761D01*
X126507904Y-80621142D01*
X126555523Y-80525904D01*
X126555523Y-79716380D01*
X127555523Y-80716380D02*
X126984095Y-80716380D01*
X127269809Y-80716380D02*
X127269809Y-79716380D01*
X127174571Y-79859238D01*
X127079333Y-79954476D01*
X126984095Y-80002095D01*
X118070333Y-78684380D02*
X117737000Y-78208190D01*
X117498904Y-78684380D02*
X117498904Y-77684380D01*
X117879857Y-77684380D01*
X117975095Y-77732000D01*
X118022714Y-77779619D01*
X118070333Y-77874857D01*
X118070333Y-78017714D01*
X118022714Y-78112952D01*
X117975095Y-78160571D01*
X117879857Y-78208190D01*
X117498904Y-78208190D01*
X118546523Y-78684380D02*
X118737000Y-78684380D01*
X118832238Y-78636761D01*
X118879857Y-78589142D01*
X118975095Y-78446285D01*
X119022714Y-78255809D01*
X119022714Y-77874857D01*
X118975095Y-77779619D01*
X118927476Y-77732000D01*
X118832238Y-77684380D01*
X118641761Y-77684380D01*
X118546523Y-77732000D01*
X118498904Y-77779619D01*
X118451285Y-77874857D01*
X118451285Y-78112952D01*
X118498904Y-78208190D01*
X118546523Y-78255809D01*
X118641761Y-78303428D01*
X118832238Y-78303428D01*
X118927476Y-78255809D01*
X118975095Y-78208190D01*
X119022714Y-78112952D01*
X117943333Y-81732380D02*
X117610000Y-81256190D01*
X117371904Y-81732380D02*
X117371904Y-80732380D01*
X117752857Y-80732380D01*
X117848095Y-80780000D01*
X117895714Y-80827619D01*
X117943333Y-80922857D01*
X117943333Y-81065714D01*
X117895714Y-81160952D01*
X117848095Y-81208571D01*
X117752857Y-81256190D01*
X117371904Y-81256190D01*
X118800476Y-81065714D02*
X118800476Y-81732380D01*
X118562380Y-80684761D02*
X118324285Y-81399047D01*
X118943333Y-81399047D01*
X138549142Y-107640380D02*
X138215809Y-107164190D01*
X137977714Y-107640380D02*
X137977714Y-106640380D01*
X138358666Y-106640380D01*
X138453904Y-106688000D01*
X138501523Y-106735619D01*
X138549142Y-106830857D01*
X138549142Y-106973714D01*
X138501523Y-107068952D01*
X138453904Y-107116571D01*
X138358666Y-107164190D01*
X137977714Y-107164190D01*
X138930095Y-106735619D02*
X138977714Y-106688000D01*
X139072952Y-106640380D01*
X139311047Y-106640380D01*
X139406285Y-106688000D01*
X139453904Y-106735619D01*
X139501523Y-106830857D01*
X139501523Y-106926095D01*
X139453904Y-107068952D01*
X138882476Y-107640380D01*
X139501523Y-107640380D01*
X139882476Y-106735619D02*
X139930095Y-106688000D01*
X140025333Y-106640380D01*
X140263428Y-106640380D01*
X140358666Y-106688000D01*
X140406285Y-106735619D01*
X140453904Y-106830857D01*
X140453904Y-106926095D01*
X140406285Y-107068952D01*
X139834857Y-107640380D01*
X140453904Y-107640380D01*
X138549142Y-105608380D02*
X138215809Y-105132190D01*
X137977714Y-105608380D02*
X137977714Y-104608380D01*
X138358666Y-104608380D01*
X138453904Y-104656000D01*
X138501523Y-104703619D01*
X138549142Y-104798857D01*
X138549142Y-104941714D01*
X138501523Y-105036952D01*
X138453904Y-105084571D01*
X138358666Y-105132190D01*
X137977714Y-105132190D01*
X138930095Y-104703619D02*
X138977714Y-104656000D01*
X139072952Y-104608380D01*
X139311047Y-104608380D01*
X139406285Y-104656000D01*
X139453904Y-104703619D01*
X139501523Y-104798857D01*
X139501523Y-104894095D01*
X139453904Y-105036952D01*
X138882476Y-105608380D01*
X139501523Y-105608380D01*
X140453904Y-105608380D02*
X139882476Y-105608380D01*
X140168190Y-105608380D02*
X140168190Y-104608380D01*
X140072952Y-104751238D01*
X139977714Y-104846476D01*
X139882476Y-104894095D01*
X113530142Y-101290380D02*
X113196809Y-100814190D01*
X112958714Y-101290380D02*
X112958714Y-100290380D01*
X113339666Y-100290380D01*
X113434904Y-100338000D01*
X113482523Y-100385619D01*
X113530142Y-100480857D01*
X113530142Y-100623714D01*
X113482523Y-100718952D01*
X113434904Y-100766571D01*
X113339666Y-100814190D01*
X112958714Y-100814190D01*
X114482523Y-101290380D02*
X113911095Y-101290380D01*
X114196809Y-101290380D02*
X114196809Y-100290380D01*
X114101571Y-100433238D01*
X114006333Y-100528476D01*
X113911095Y-100576095D01*
X114815857Y-100290380D02*
X115434904Y-100290380D01*
X115101571Y-100671333D01*
X115244428Y-100671333D01*
X115339666Y-100718952D01*
X115387285Y-100766571D01*
X115434904Y-100861809D01*
X115434904Y-101099904D01*
X115387285Y-101195142D01*
X115339666Y-101242761D01*
X115244428Y-101290380D01*
X114958714Y-101290380D01*
X114863476Y-101242761D01*
X114815857Y-101195142D01*
X118197333Y-96972380D02*
X117864000Y-96496190D01*
X117625904Y-96972380D02*
X117625904Y-95972380D01*
X118006857Y-95972380D01*
X118102095Y-96020000D01*
X118149714Y-96067619D01*
X118197333Y-96162857D01*
X118197333Y-96305714D01*
X118149714Y-96400952D01*
X118102095Y-96448571D01*
X118006857Y-96496190D01*
X117625904Y-96496190D01*
X118768761Y-96400952D02*
X118673523Y-96353333D01*
X118625904Y-96305714D01*
X118578285Y-96210476D01*
X118578285Y-96162857D01*
X118625904Y-96067619D01*
X118673523Y-96020000D01*
X118768761Y-95972380D01*
X118959238Y-95972380D01*
X119054476Y-96020000D01*
X119102095Y-96067619D01*
X119149714Y-96162857D01*
X119149714Y-96210476D01*
X119102095Y-96305714D01*
X119054476Y-96353333D01*
X118959238Y-96400952D01*
X118768761Y-96400952D01*
X118673523Y-96448571D01*
X118625904Y-96496190D01*
X118578285Y-96591428D01*
X118578285Y-96781904D01*
X118625904Y-96877142D01*
X118673523Y-96924761D01*
X118768761Y-96972380D01*
X118959238Y-96972380D01*
X119054476Y-96924761D01*
X119102095Y-96877142D01*
X119149714Y-96781904D01*
X119149714Y-96591428D01*
X119102095Y-96496190D01*
X119054476Y-96448571D01*
X118959238Y-96400952D01*
X125690333Y-109164380D02*
X125357000Y-108688190D01*
X125118904Y-109164380D02*
X125118904Y-108164380D01*
X125499857Y-108164380D01*
X125595095Y-108212000D01*
X125642714Y-108259619D01*
X125690333Y-108354857D01*
X125690333Y-108497714D01*
X125642714Y-108592952D01*
X125595095Y-108640571D01*
X125499857Y-108688190D01*
X125118904Y-108688190D01*
X126547476Y-108164380D02*
X126357000Y-108164380D01*
X126261761Y-108212000D01*
X126214142Y-108259619D01*
X126118904Y-108402476D01*
X126071285Y-108592952D01*
X126071285Y-108973904D01*
X126118904Y-109069142D01*
X126166523Y-109116761D01*
X126261761Y-109164380D01*
X126452238Y-109164380D01*
X126547476Y-109116761D01*
X126595095Y-109069142D01*
X126642714Y-108973904D01*
X126642714Y-108735809D01*
X126595095Y-108640571D01*
X126547476Y-108592952D01*
X126452238Y-108545333D01*
X126261761Y-108545333D01*
X126166523Y-108592952D01*
X126118904Y-108640571D01*
X126071285Y-108735809D01*
X125563333Y-103576380D02*
X125230000Y-103100190D01*
X124991904Y-103576380D02*
X124991904Y-102576380D01*
X125372857Y-102576380D01*
X125468095Y-102624000D01*
X125515714Y-102671619D01*
X125563333Y-102766857D01*
X125563333Y-102909714D01*
X125515714Y-103004952D01*
X125468095Y-103052571D01*
X125372857Y-103100190D01*
X124991904Y-103100190D01*
X125944285Y-102671619D02*
X125991904Y-102624000D01*
X126087142Y-102576380D01*
X126325238Y-102576380D01*
X126420476Y-102624000D01*
X126468095Y-102671619D01*
X126515714Y-102766857D01*
X126515714Y-102862095D01*
X126468095Y-103004952D01*
X125896666Y-103576380D01*
X126515714Y-103576380D01*
X121245333Y-109164380D02*
X120912000Y-108688190D01*
X120673904Y-109164380D02*
X120673904Y-108164380D01*
X121054857Y-108164380D01*
X121150095Y-108212000D01*
X121197714Y-108259619D01*
X121245333Y-108354857D01*
X121245333Y-108497714D01*
X121197714Y-108592952D01*
X121150095Y-108640571D01*
X121054857Y-108688190D01*
X120673904Y-108688190D01*
X122150095Y-108164380D02*
X121673904Y-108164380D01*
X121626285Y-108640571D01*
X121673904Y-108592952D01*
X121769142Y-108545333D01*
X122007238Y-108545333D01*
X122102476Y-108592952D01*
X122150095Y-108640571D01*
X122197714Y-108735809D01*
X122197714Y-108973904D01*
X122150095Y-109069142D01*
X122102476Y-109116761D01*
X122007238Y-109164380D01*
X121769142Y-109164380D01*
X121673904Y-109116761D01*
X121626285Y-109069142D01*
X121118333Y-103703380D02*
X120785000Y-103227190D01*
X120546904Y-103703380D02*
X120546904Y-102703380D01*
X120927857Y-102703380D01*
X121023095Y-102751000D01*
X121070714Y-102798619D01*
X121118333Y-102893857D01*
X121118333Y-103036714D01*
X121070714Y-103131952D01*
X121023095Y-103179571D01*
X120927857Y-103227190D01*
X120546904Y-103227190D01*
X122070714Y-103703380D02*
X121499285Y-103703380D01*
X121785000Y-103703380D02*
X121785000Y-102703380D01*
X121689761Y-102846238D01*
X121594523Y-102941476D01*
X121499285Y-102989095D01*
X152931904Y-109291380D02*
X152931904Y-108291380D01*
X153170000Y-108291380D01*
X153312857Y-108339000D01*
X153408095Y-108434238D01*
X153455714Y-108529476D01*
X153503333Y-108719952D01*
X153503333Y-108862809D01*
X153455714Y-109053285D01*
X153408095Y-109148523D01*
X153312857Y-109243761D01*
X153170000Y-109291380D01*
X152931904Y-109291380D01*
X153836666Y-108291380D02*
X154503333Y-108291380D01*
X154074761Y-109291380D01*
X152931904Y-99004380D02*
X152931904Y-98004380D01*
X153170000Y-98004380D01*
X153312857Y-98052000D01*
X153408095Y-98147238D01*
X153455714Y-98242476D01*
X153503333Y-98432952D01*
X153503333Y-98575809D01*
X153455714Y-98766285D01*
X153408095Y-98861523D01*
X153312857Y-98956761D01*
X153170000Y-99004380D01*
X152931904Y-99004380D01*
X154408095Y-98004380D02*
X153931904Y-98004380D01*
X153884285Y-98480571D01*
X153931904Y-98432952D01*
X154027142Y-98385333D01*
X154265238Y-98385333D01*
X154360476Y-98432952D01*
X154408095Y-98480571D01*
X154455714Y-98575809D01*
X154455714Y-98813904D01*
X154408095Y-98909142D01*
X154360476Y-98956761D01*
X154265238Y-99004380D01*
X154027142Y-99004380D01*
X153931904Y-98956761D01*
X153884285Y-98909142D01*
X115212904Y-93924380D02*
X115212904Y-92924380D01*
X115451000Y-92924380D01*
X115593857Y-92972000D01*
X115689095Y-93067238D01*
X115736714Y-93162476D01*
X115784333Y-93352952D01*
X115784333Y-93495809D01*
X115736714Y-93686285D01*
X115689095Y-93781523D01*
X115593857Y-93876761D01*
X115451000Y-93924380D01*
X115212904Y-93924380D01*
X116165285Y-93019619D02*
X116212904Y-92972000D01*
X116308142Y-92924380D01*
X116546238Y-92924380D01*
X116641476Y-92972000D01*
X116689095Y-93019619D01*
X116736714Y-93114857D01*
X116736714Y-93210095D01*
X116689095Y-93352952D01*
X116117666Y-93924380D01*
X116736714Y-93924380D01*
X109878904Y-102052380D02*
X109878904Y-101052380D01*
X110117000Y-101052380D01*
X110259857Y-101100000D01*
X110355095Y-101195238D01*
X110402714Y-101290476D01*
X110450333Y-101480952D01*
X110450333Y-101623809D01*
X110402714Y-101814285D01*
X110355095Y-101909523D01*
X110259857Y-102004761D01*
X110117000Y-102052380D01*
X109878904Y-102052380D01*
X111402714Y-102052380D02*
X110831285Y-102052380D01*
X111117000Y-102052380D02*
X111117000Y-101052380D01*
X111021761Y-101195238D01*
X110926523Y-101290476D01*
X110831285Y-101338095D01*
X149058333Y-81129142D02*
X149010714Y-81176761D01*
X148867857Y-81224380D01*
X148772619Y-81224380D01*
X148629761Y-81176761D01*
X148534523Y-81081523D01*
X148486904Y-80986285D01*
X148439285Y-80795809D01*
X148439285Y-80652952D01*
X148486904Y-80462476D01*
X148534523Y-80367238D01*
X148629761Y-80272000D01*
X148772619Y-80224380D01*
X148867857Y-80224380D01*
X149010714Y-80272000D01*
X149058333Y-80319619D01*
X149534523Y-81224380D02*
X149725000Y-81224380D01*
X149820238Y-81176761D01*
X149867857Y-81129142D01*
X149963095Y-80986285D01*
X150010714Y-80795809D01*
X150010714Y-80414857D01*
X149963095Y-80319619D01*
X149915476Y-80272000D01*
X149820238Y-80224380D01*
X149629761Y-80224380D01*
X149534523Y-80272000D01*
X149486904Y-80319619D01*
X149439285Y-80414857D01*
X149439285Y-80652952D01*
X149486904Y-80748190D01*
X149534523Y-80795809D01*
X149629761Y-80843428D01*
X149820238Y-80843428D01*
X149915476Y-80795809D01*
X149963095Y-80748190D01*
X150010714Y-80652952D01*
X148677333Y-74017142D02*
X148629714Y-74064761D01*
X148486857Y-74112380D01*
X148391619Y-74112380D01*
X148248761Y-74064761D01*
X148153523Y-73969523D01*
X148105904Y-73874285D01*
X148058285Y-73683809D01*
X148058285Y-73540952D01*
X148105904Y-73350476D01*
X148153523Y-73255238D01*
X148248761Y-73160000D01*
X148391619Y-73112380D01*
X148486857Y-73112380D01*
X148629714Y-73160000D01*
X148677333Y-73207619D01*
X149248761Y-73540952D02*
X149153523Y-73493333D01*
X149105904Y-73445714D01*
X149058285Y-73350476D01*
X149058285Y-73302857D01*
X149105904Y-73207619D01*
X149153523Y-73160000D01*
X149248761Y-73112380D01*
X149439238Y-73112380D01*
X149534476Y-73160000D01*
X149582095Y-73207619D01*
X149629714Y-73302857D01*
X149629714Y-73350476D01*
X149582095Y-73445714D01*
X149534476Y-73493333D01*
X149439238Y-73540952D01*
X149248761Y-73540952D01*
X149153523Y-73588571D01*
X149105904Y-73636190D01*
X149058285Y-73731428D01*
X149058285Y-73921904D01*
X149105904Y-74017142D01*
X149153523Y-74064761D01*
X149248761Y-74112380D01*
X149439238Y-74112380D01*
X149534476Y-74064761D01*
X149582095Y-74017142D01*
X149629714Y-73921904D01*
X149629714Y-73731428D01*
X149582095Y-73636190D01*
X149534476Y-73588571D01*
X149439238Y-73540952D01*
X132040333Y-83542142D02*
X131992714Y-83589761D01*
X131849857Y-83637380D01*
X131754619Y-83637380D01*
X131611761Y-83589761D01*
X131516523Y-83494523D01*
X131468904Y-83399285D01*
X131421285Y-83208809D01*
X131421285Y-83065952D01*
X131468904Y-82875476D01*
X131516523Y-82780238D01*
X131611761Y-82685000D01*
X131754619Y-82637380D01*
X131849857Y-82637380D01*
X131992714Y-82685000D01*
X132040333Y-82732619D01*
X132992714Y-83637380D02*
X132421285Y-83637380D01*
X132707000Y-83637380D02*
X132707000Y-82637380D01*
X132611761Y-82780238D01*
X132516523Y-82875476D01*
X132421285Y-82923095D01*
X127595333Y-74652142D02*
X127547714Y-74699761D01*
X127404857Y-74747380D01*
X127309619Y-74747380D01*
X127166761Y-74699761D01*
X127071523Y-74604523D01*
X127023904Y-74509285D01*
X126976285Y-74318809D01*
X126976285Y-74175952D01*
X127023904Y-73985476D01*
X127071523Y-73890238D01*
X127166761Y-73795000D01*
X127309619Y-73747380D01*
X127404857Y-73747380D01*
X127547714Y-73795000D01*
X127595333Y-73842619D01*
X128452476Y-73747380D02*
X128262000Y-73747380D01*
X128166761Y-73795000D01*
X128119142Y-73842619D01*
X128023904Y-73985476D01*
X127976285Y-74175952D01*
X127976285Y-74556904D01*
X128023904Y-74652142D01*
X128071523Y-74699761D01*
X128166761Y-74747380D01*
X128357238Y-74747380D01*
X128452476Y-74699761D01*
X128500095Y-74652142D01*
X128547714Y-74556904D01*
X128547714Y-74318809D01*
X128500095Y-74223571D01*
X128452476Y-74175952D01*
X128357238Y-74128333D01*
X128166761Y-74128333D01*
X128071523Y-74175952D01*
X128023904Y-74223571D01*
X127976285Y-74318809D01*
X130897333Y-79351142D02*
X130849714Y-79398761D01*
X130706857Y-79446380D01*
X130611619Y-79446380D01*
X130468761Y-79398761D01*
X130373523Y-79303523D01*
X130325904Y-79208285D01*
X130278285Y-79017809D01*
X130278285Y-78874952D01*
X130325904Y-78684476D01*
X130373523Y-78589238D01*
X130468761Y-78494000D01*
X130611619Y-78446380D01*
X130706857Y-78446380D01*
X130849714Y-78494000D01*
X130897333Y-78541619D01*
X131802095Y-78446380D02*
X131325904Y-78446380D01*
X131278285Y-78922571D01*
X131325904Y-78874952D01*
X131421142Y-78827333D01*
X131659238Y-78827333D01*
X131754476Y-78874952D01*
X131802095Y-78922571D01*
X131849714Y-79017809D01*
X131849714Y-79255904D01*
X131802095Y-79351142D01*
X131754476Y-79398761D01*
X131659238Y-79446380D01*
X131421142Y-79446380D01*
X131325904Y-79398761D01*
X131278285Y-79351142D01*
X132040333Y-97893142D02*
X131992714Y-97940761D01*
X131849857Y-97988380D01*
X131754619Y-97988380D01*
X131611761Y-97940761D01*
X131516523Y-97845523D01*
X131468904Y-97750285D01*
X131421285Y-97559809D01*
X131421285Y-97416952D01*
X131468904Y-97226476D01*
X131516523Y-97131238D01*
X131611761Y-97036000D01*
X131754619Y-96988380D01*
X131849857Y-96988380D01*
X131992714Y-97036000D01*
X132040333Y-97083619D01*
X132897476Y-97321714D02*
X132897476Y-97988380D01*
X132659380Y-96940761D02*
X132421285Y-97655047D01*
X133040333Y-97655047D01*
M02*
